<svg xmlns="http://www.w3.org/2000/svg" xmlns:xlink="http://www.w3.org/1999/xlink" width="140" zoomAndPan="magnify" viewBox="0 0 104.88 74.999997" height="100" preserveAspectRatio="xMidYMid meet" version="1.0"><defs><clipPath id="9d23d52de7"><path d="M 0 0.0429688 L 104.761719 0.0429688 L 104.761719 74.957031 L 0 74.957031 Z M 0 0.0429688 " clip-rule="nonzero"/></clipPath><clipPath id="a5e05a0102"><path d="M 32.125 22.515625 L 72.578125 22.515625 L 72.578125 52.484375 L 32.125 52.484375 Z M 32.125 22.515625 " clip-rule="nonzero"/></clipPath></defs><g clip-path="url(#9d23d52de7)"><path fill="#ffffff" d="M 0 0.0429688 L 104.878906 0.0429688 L 104.878906 74.957031 L 0 74.957031 Z M 0 0.0429688 " fill-opacity="1" fill-rule="nonzero"/><path fill="#ffffff" d="M 0 0.0429688 L 104.878906 0.0429688 L 104.878906 74.957031 L 0 74.957031 Z M 0 0.0429688 " fill-opacity="1" fill-rule="nonzero"/></g><g clip-path="url(#a5e05a0102)"><path fill="#000000" d="M 49.660156 45.320312 C 47.472656 46.144531 45.375 46.402344 43.390625 44.804688 C 43.269531 45.671875 43.117188 46.503906 42.8125 47.308594 C 42.0625 49.265625 40.003906 50.867188 37.324219 50.585938 C 34.433594 50.289062 32.519531 48.167969 32.265625 45.175781 C 32.128906 43.601562 32.246094 42.070312 32.839844 40.617188 C 33.570312 38.820312 34.800781 37.53125 36.769531 37.167969 C 37.441406 37.035156 38.109375 37.039062 38.777344 37.179688 C 39.445312 37.324219 40.054688 37.59375 40.613281 37.988281 C 40.691406 36.511719 40.035156 35.773438 38.601562 35.652344 C 38.070312 35.609375 37.542969 35.53125 37.019531 35.417969 C 36.3125 35.261719 36.042969 34.75 36.246094 34.042969 C 36.652344 32.585938 38.40625 31.253906 39.972656 31.207031 C 40.804688 31.1875 41.628906 31.25 42.445312 31.394531 C 42.945312 31.476562 43.324219 31.40625 43.628906 30.949219 C 44.023438 30.378906 44.546875 29.992188 45.203125 29.78125 C 45.445312 29.699219 45.535156 29.585938 45.597656 29.335938 C 45.730469 28.828125 45.957031 28.371094 46.277344 27.957031 C 46.34375 27.894531 46.378906 27.816406 46.382812 27.722656 C 46.386719 27.628906 46.359375 27.550781 46.300781 27.480469 C 45.976562 26.96875 45.839844 26.398438 45.785156 25.8125 C 45.65625 24.476562 44.988281 23.808594 43.644531 23.769531 C 43.054688 23.753906 42.472656 23.671875 41.882812 23.640625 C 41.550781 23.625 41.386719 23.378906 41.371094 23.089844 C 41.351562 22.9375 41.398438 22.808594 41.503906 22.699219 C 41.613281 22.585938 41.742188 22.539062 41.894531 22.550781 C 42.808594 22.609375 43.734375 22.65625 44.628906 22.832031 C 45.945312 23.09375 46.679688 24.089844 46.894531 25.6875 C 46.90625 25.800781 46.914062 25.910156 46.9375 26.023438 C 47.113281 26.8125 47.113281 26.800781 47.894531 26.613281 C 48.886719 26.386719 49.871094 26.667969 50.863281 26.695312 C 51.648438 26.71875 52.375 26.949219 52.953125 27.546875 C 53.226562 27.832031 53.355469 27.449219 53.441406 27.324219 C 53.800781 26.8125 54.132812 26.28125 54.429688 25.730469 C 55.171875 24.359375 56.320312 23.773438 57.839844 23.855469 C 58.726562 23.902344 59.613281 23.941406 60.492188 23.980469 C 60.859375 23.996094 61.097656 24.152344 61.085938 24.550781 C 61.078125 24.949219 60.820312 25.101562 60.460938 25.089844 C 59.503906 25.058594 58.546875 24.996094 57.589844 24.984375 C 56.628906 24.972656 55.855469 25.359375 55.375 26.257812 C 54.890625 27.152344 54.472656 28.078125 53.628906 28.710938 C 53.46875 28.832031 53.472656 29 53.496094 29.164062 C 53.527344 29.394531 53.71875 29.292969 53.851562 29.3125 C 54.792969 29.433594 55.679688 29.722656 56.449219 30.289062 C 56.707031 30.480469 56.886719 30.511719 57.148438 30.296875 C 58.902344 28.890625 60.921875 28.5 63.109375 28.703125 C 64.371094 28.824219 65.640625 28.890625 66.894531 29.085938 C 67.316406 29.144531 67.710938 29.28125 68.078125 29.503906 C 68.507812 29.773438 68.75 30.144531 68.625 30.667969 C 68.53125 31.050781 68.648438 31.25 69.035156 31.324219 C 69.195312 31.367188 69.34375 31.4375 69.476562 31.539062 C 69.988281 31.871094 70.34375 32.308594 70.253906 32.957031 C 70.171875 33.550781 69.710938 33.828125 69.199219 33.96875 C 68.347656 34.203125 67.492188 34.402344 66.800781 35 C 66.714844 35.074219 66.625 35.140625 66.550781 35.222656 C 66.515625 35.269531 66.492188 35.320312 66.476562 35.375 C 68.210938 35.285156 69.757812 35.691406 70.980469 36.992188 C 71.867188 37.9375 72.171875 39.136719 72.347656 40.371094 C 72.589844 41.9375 72.425781 43.460938 71.851562 44.9375 C 71.136719 46.757812 69.222656 48.707031 65.953125 48.328125 C 63.671875 48.066406 61.964844 46.660156 61.300781 44.164062 C 61.210938 43.828125 61.140625 43.484375 61.078125 43.140625 C 61.046875 42.964844 60.960938 42.851562 60.78125 42.90625 C 60.574219 42.96875 60.726562 43.128906 60.746094 43.226562 C 61.078125 44.902344 61.078125 46.574219 60.625 48.222656 C 59.886719 50.886719 57.890625 52.460938 55.308594 52.449219 C 52.652344 52.441406 50.492188 50.59375 49.882812 47.820312 C 49.707031 46.996094 49.632812 46.164062 49.660156 45.320312 Z M 53.925781 32.949219 C 53.550781 32.023438 52.832031 31.554688 51.933594 31.320312 C 50.777344 31.023438 49.589844 30.894531 48.40625 30.78125 C 47.660156 30.714844 46.902344 30.539062 46.148438 30.671875 C 45.042969 30.867188 44.394531 31.691406 43.757812 32.507812 C 42.199219 34.519531 41.152344 36.648438 42.011719 39.304688 C 42.34375 40.347656 42.890625 41.050781 44.019531 41.222656 C 45.035156 41.386719 46.058594 41.496094 47.085938 41.550781 C 48.253906 41.605469 49 41.074219 49.441406 40.023438 C 49.789062 39.191406 50.160156 38.375 50.511719 37.542969 C 50.5625 37.417969 50.691406 37.289062 50.601562 37.132812 C 50.210938 36.457031 50.558594 35.929688 50.933594 35.410156 C 51.71875 34.332031 52.71875 33.511719 53.925781 32.949219 Z M 59.851562 45.535156 C 59.890625 44.714844 59.816406 43.902344 59.625 43.101562 C 59.222656 41.433594 58.230469 40.292969 56.550781 39.902344 C 54.746094 39.480469 53.152344 39.953125 52.074219 41.523438 C 50.535156 43.765625 50.316406 46.226562 51.339844 48.730469 C 52.125 50.644531 53.703125 51.4375 55.714844 51.324219 C 57.5 51.226562 58.664062 50.222656 59.339844 48.605469 C 59.742188 47.621094 59.914062 46.597656 59.851562 45.535156 Z M 33.273438 44.011719 C 33.242188 44.421875 33.332031 44.820312 33.375 45.226562 C 33.601562 47.339844 34.703125 49.121094 37.234375 49.496094 C 39.820312 49.882812 41.789062 48.097656 42.191406 45.742188 C 42.234375 45.496094 42.136719 45.542969 41.96875 45.511719 C 41.335938 45.394531 40.804688 45.429688 40.664062 46.21875 C 40.644531 46.273438 40.617188 46.320312 40.582031 46.363281 C 39.992188 47.207031 39.140625 47.195312 38.558594 46.34375 C 38.210938 45.835938 38.117188 45.253906 38.097656 44.664062 C 38.074219 43.714844 38.128906 42.773438 38.753906 41.984375 C 39.375 41.195312 40.144531 41.25 40.683594 42.082031 C 40.75 42.191406 40.8125 42.304688 40.863281 42.421875 C 40.929688 42.554688 41 42.609375 41.164062 42.550781 C 41.839844 42.3125 42.023438 41.730469 41.597656 41.160156 C 41.464844 40.984375 41.367188 40.785156 41.25 40.597656 C 41.054688 40.285156 41.046875 39.890625 40.808594 39.597656 C 40.617188 39.363281 40.398438 39.152344 40.160156 38.96875 C 39.921875 38.785156 39.664062 38.628906 39.390625 38.5 C 39.113281 38.375 38.828125 38.28125 38.535156 38.21875 C 38.238281 38.160156 37.9375 38.132812 37.636719 38.140625 C 37.335938 38.144531 37.039062 38.1875 36.746094 38.261719 C 36.453125 38.335938 36.171875 38.445312 35.902344 38.582031 C 35.636719 38.722656 35.386719 38.890625 35.15625 39.085938 C 34.925781 39.28125 34.71875 39.5 34.539062 39.742188 C 33.597656 41.015625 33.339844 42.484375 33.273438 44.011719 Z M 66.691406 47.25 C 68.828125 47.277344 70.414062 46.101562 71.042969 44.046875 C 71.546875 42.40625 71.457031 40.761719 71.003906 39.140625 C 70.625 37.789062 69.691406 36.957031 68.359375 36.574219 C 67.597656 36.351562 66.835938 36.445312 66.066406 36.53125 C 65.746094 36.566406 65.601562 36.683594 65.535156 36.957031 C 65.296875 37.882812 65.089844 38.8125 64.828125 39.730469 C 64.535156 40.769531 64.019531 41.695312 62.867188 41.875 C 62.136719 41.988281 62.078125 42.253906 62.160156 42.910156 C 62.457031 45.371094 63.808594 47.296875 66.691406 47.25 Z M 57.644531 31.355469 C 58.035156 31.84375 58.421875 32.3125 58.785156 32.800781 C 59.714844 34.035156 61.699219 34.371094 62.808594 33.347656 C 64.035156 32.214844 65.453125 31.308594 67.164062 31.023438 C 67.34375 30.992188 67.609375 31.035156 67.601562 30.71875 C 67.59375 30.480469 67.410156 30.394531 67.214844 30.308594 C 66.785156 30.113281 66.328125 30.101562 65.875 30.058594 C 64.375 29.925781 62.882812 29.683594 61.367188 29.765625 C 59.941406 29.839844 58.707031 30.382812 57.644531 31.355469 Z M 62.097656 40.933594 C 63.226562 40.898438 63.648438 40.195312 63.84375 39.242188 C 64.046875 38.269531 64.242188 37.292969 64.625 36.371094 C 65.292969 34.765625 66.40625 33.636719 68.097656 33.144531 C 68.414062 33.054688 68.734375 32.96875 69.054688 32.890625 C 69.308594 32.828125 69.300781 32.714844 69.132812 32.554688 C 68.792969 32.234375 68.390625 32.082031 67.925781 32.101562 C 66.351562 32.125 65.078125 32.871094 63.929688 33.863281 C 63.144531 34.546875 62.269531 35.003906 61.1875 35.125 C 62.253906 36.953125 61.929688 38.980469 62.09375 40.933594 Z M 60.964844 41.835938 C 60.886719 40.148438 60.765625 38.519531 59.683594 37.148438 C 59.285156 36.644531 58.796875 36.355469 58.113281 36.414062 C 57.496094 36.46875 56.949219 36.699219 56.402344 36.957031 C 55.855469 37.21875 55.292969 37.535156 54.675781 37.65625 C 54.40625 37.707031 54.046875 37.648438 54.113281 38.125 C 54.171875 38.527344 54.222656 38.902344 54.789062 38.761719 C 54.953125 38.734375 55.117188 38.722656 55.285156 38.734375 C 57.316406 38.726562 58.972656 39.457031 60.035156 41.269531 C 60.25 41.644531 60.5625 41.726562 60.964844 41.835938 Z M 60.691406 36.609375 C 60.179688 35.222656 59.320312 34.214844 57.75 34.011719 C 57.402344 33.96875 57.050781 33.957031 56.707031 33.902344 C 55.277344 33.664062 53.96875 33.847656 52.847656 34.875 C 52.355469 35.328125 51.964844 35.855469 51.53125 36.457031 C 52.808594 36.632812 54.019531 36.910156 55.207031 36.3125 C 55.84375 35.984375 56.5 35.707031 57.179688 35.484375 C 58.226562 35.152344 59.175781 35.28125 60.027344 36.007812 C 60.253906 36.207031 60.472656 36.414062 60.6875 36.613281 Z M 48.890625 27.625 C 48.570312 27.644531 48.226562 27.5625 48.039062 27.703125 C 47.488281 28.125 47.078125 28.660156 46.804688 29.300781 C 46.710938 29.507812 46.8125 29.601562 47.03125 29.609375 C 48.625 29.679688 50.207031 29.871094 51.769531 30.191406 C 51.910156 30.21875 52.085938 30.277344 52.203125 30.066406 C 52.636719 29.28125 52.089844 28.019531 51.195312 27.867188 C 50.421875 27.734375 49.628906 27.699219 48.890625 27.625 Z M 40.839844 35.410156 C 41.230469 34.503906 41.691406 33.640625 42.230469 32.816406 C 42.398438 32.566406 42.417969 32.4375 42.046875 32.421875 C 41.515625 32.394531 40.988281 32.308594 40.457031 32.273438 C 39.105469 32.171875 38.125 32.75 37.46875 33.933594 C 37.285156 34.269531 37.292969 34.378906 37.722656 34.441406 C 38.800781 34.597656 39.941406 34.5625 40.839844 35.40625 Z M 48.480469 44.625 C 48.117188 44.070312 47.878906 43.53125 47.898438 42.921875 C 47.90625 42.621094 47.707031 42.664062 47.527344 42.664062 C 46.253906 42.664062 44.992188 42.542969 43.742188 42.300781 C 43.507812 42.257812 43.417969 42.277344 43.480469 42.511719 C 43.71875 43.414062 44.101562 44.191406 45.050781 44.574219 C 46.167969 45.023438 47.273438 44.867188 48.476562 44.621094 Z M 49.820312 44.1875 C 50.253906 42.089844 51.144531 40.292969 53.128906 39.25 C 53.199219 39.214844 53.339844 39.191406 53.257812 39.070312 C 53.015625 38.714844 53.199219 38.28125 53.0625 37.949219 C 52.886719 37.53125 52.371094 37.851562 52.035156 37.675781 C 51.796875 37.550781 51.625 37.675781 51.511719 37.964844 C 51.179688 38.839844 50.8125 39.699219 50.433594 40.554688 C 50.140625 41.21875 49.804688 41.851562 49.144531 42.242188 C 49.039062 42.289062 48.976562 42.371094 48.960938 42.488281 C 48.914062 42.832031 48.96875 43.160156 49.125 43.472656 C 49.285156 43.78125 49.515625 44.019531 49.820312 44.1875 Z M 57.613281 32.871094 C 57.085938 32.355469 56.6875 31.941406 56.265625 31.5625 C 55.535156 30.894531 54.691406 30.492188 53.695312 30.429688 C 53.585938 30.421875 53.417969 30.351562 53.347656 30.496094 C 53.277344 30.644531 53.421875 30.71875 53.527344 30.792969 C 54.15625 31.210938 54.625 31.769531 54.933594 32.460938 C 54.996094 32.59375 55.035156 32.765625 55.21875 32.753906 C 55.96875 32.695312 56.707031 32.875 57.613281 32.871094 Z M 39.484375 45.914062 C 40.183594 45.136719 40.238281 43.449219 39.625 42.539062 C 39.058594 43.644531 39.039062 44.730469 39.484375 45.914062 Z M 42.414062 42.894531 C 42.144531 43.160156 41.859375 43.429688 41.511719 43.515625 C 41.058594 43.625 41.054688 43.957031 41.167969 44.230469 C 41.292969 44.527344 41.632812 44.480469 41.898438 44.382812 C 42.539062 44.152344 42.695312 43.703125 42.414062 42.894531 Z M 42.414062 42.894531 " fill-opacity="1" fill-rule="nonzero"/></g><path fill="#000000" d="M 55.867188 46.144531 C 55.824219 45.339844 55.96875 44.605469 56.378906 43.945312 C 56.636719 43.523438 56.960938 43.179688 57.519531 43.214844 C 58.078125 43.25 58.367188 43.613281 58.558594 44.078125 C 59.050781 45.289062 59.035156 46.511719 58.578125 47.730469 C 58.519531 47.867188 58.445312 47.992188 58.355469 48.113281 C 57.691406 49.054688 56.714844 48.976562 56.195312 47.933594 C 55.917969 47.367188 55.808594 46.769531 55.867188 46.144531 Z M 57.351562 47.640625 C 57.992188 46.8125 58.015625 45.109375 57.402344 44.371094 C 56.796875 45.359375 56.769531 46.949219 57.351562 47.640625 Z M 57.351562 47.640625 " fill-opacity="1" fill-rule="nonzero"/><path fill="#000000" d="M 53.753906 43.085938 C 53.640625 43.433594 53.511719 43.910156 53.34375 44.371094 C 53.3125 44.484375 53.242188 44.566406 53.132812 44.617188 C 53.027344 44.667969 52.921875 44.671875 52.8125 44.628906 C 52.519531 44.519531 52.367188 44.277344 52.453125 43.96875 C 52.5625 43.546875 52.730469 43.136719 52.867188 42.71875 C 52.953125 42.457031 53.148438 42.386719 53.386719 42.433594 C 53.660156 42.488281 53.777344 42.683594 53.753906 43.085938 Z M 53.753906 43.085938 " fill-opacity="1" fill-rule="nonzero"/><path fill="#000000" d="M 52.433594 47.332031 C 52.417969 46.894531 52.480469 46.601562 52.863281 46.554688 C 53.28125 46.503906 53.40625 46.808594 53.414062 47.144531 C 53.425781 47.480469 53.582031 47.78125 53.65625 48.105469 C 53.722656 48.402344 53.648438 48.636719 53.375 48.742188 C 53.097656 48.851562 52.878906 48.703125 52.757812 48.429688 C 52.597656 48.082031 52.488281 47.714844 52.433594 47.332031 Z M 52.433594 47.332031 " fill-opacity="1" fill-rule="nonzero"/><path fill="#000000" d="M 34.707031 45.742188 C 34.753906 45.355469 34.753906 45.007812 35.195312 44.992188 C 35.617188 44.976562 35.691406 45.257812 35.714844 45.609375 C 35.753906 45.917969 35.808594 46.226562 35.882812 46.527344 C 35.9375 46.800781 35.859375 47.019531 35.582031 47.09375 C 35.304688 47.167969 35.050781 47.09375 34.957031 46.800781 C 34.84375 46.433594 34.777344 46.050781 34.707031 45.742188 Z M 34.707031 45.742188 " fill-opacity="1" fill-rule="nonzero"/><path fill="#000000" d="M 34.710938 42.101562 C 34.792969 41.738281 34.878906 41.324219 35.132812 40.980469 C 35.292969 40.761719 35.515625 40.683594 35.757812 40.84375 C 35.972656 40.988281 36.074219 41.171875 35.964844 41.449219 C 35.859375 41.726562 35.730469 41.976562 35.695312 42.28125 C 35.664062 42.582031 35.5 42.820312 35.152344 42.757812 C 34.835938 42.703125 34.707031 42.46875 34.710938 42.101562 Z M 34.710938 42.101562 " fill-opacity="1" fill-rule="nonzero"/><path fill="#000000" d="M 70.484375 41.863281 C 70.523438 42.542969 70.375 43.179688 70.039062 43.769531 C 69.789062 44.214844 69.460938 44.566406 68.878906 44.558594 C 68.3125 44.558594 68.019531 44.199219 67.769531 43.78125 C 67.164062 42.746094 67.335938 40.675781 68.089844 39.738281 C 68.691406 38.984375 69.527344 39.027344 70.027344 39.855469 C 70.398438 40.464844 70.503906 41.152344 70.484375 41.863281 Z M 68.980469 40.347656 C 68.457031 41.273438 68.34375 42.214844 68.703125 43.203125 C 68.792969 43.445312 68.914062 43.558594 69.105469 43.265625 C 69.519531 42.652344 69.464844 40.984375 68.980469 40.347656 Z M 68.980469 40.347656 " fill-opacity="1" fill-rule="nonzero"/><path fill="#000000" d="M 66.433594 40.167969 C 66.332031 40.652344 66.257812 41.101562 66.144531 41.542969 C 66.117188 41.667969 66.050781 41.761719 65.941406 41.828125 C 65.832031 41.894531 65.71875 41.910156 65.597656 41.875 C 65.324219 41.828125 65.152344 41.652344 65.183594 41.386719 C 65.238281 40.859375 65.359375 40.347656 65.546875 39.851562 C 65.644531 39.597656 65.871094 39.597656 66.101562 39.644531 C 66.433594 39.710938 66.382812 39.976562 66.433594 40.167969 Z M 66.433594 40.167969 " fill-opacity="1" fill-rule="nonzero"/><path fill="#000000" d="M 65.757812 43.648438 C 66.3125 43.882812 66.265625 44.527344 66.519531 44.976562 C 66.652344 45.214844 66.644531 45.445312 66.441406 45.625 C 66.171875 45.859375 65.917969 45.765625 65.738281 45.507812 C 65.464844 45.113281 65.289062 44.675781 65.222656 44.195312 C 65.171875 43.871094 65.371094 43.691406 65.757812 43.648438 Z M 65.757812 43.648438 " fill-opacity="1" fill-rule="nonzero"/></svg>