<svg xmlns="http://www.w3.org/2000/svg" xmlns:xlink="http://www.w3.org/1999/xlink" width="140" zoomAndPan="magnify" viewBox="0 0 104.88 74.999997" height="100" preserveAspectRatio="xMidYMid meet" version="1.0"><defs><clipPath id="39a6aa78fe"><path d="M 0 0.0429688 L 104.761719 0.0429688 L 104.761719 74.957031 L 0 74.957031 Z M 0 0.0429688 " clip-rule="nonzero"/></clipPath><clipPath id="4cde3a59f5"><path d="M 31.464844 25.410156 L 73.414062 25.410156 L 73.414062 49.382812 L 31.464844 49.382812 Z M 31.464844 25.410156 " clip-rule="nonzero"/></clipPath></defs><g clip-path="url(#39a6aa78fe)"><path fill="#ffffff" d="M 0 0.0429688 L 104.878906 0.0429688 L 104.878906 74.957031 L 0 74.957031 Z M 0 0.0429688 " fill-opacity="1" fill-rule="nonzero"/><path fill="#ffffff" d="M 0 0.0429688 L 104.878906 0.0429688 L 104.878906 74.957031 L 0 74.957031 Z M 0 0.0429688 " fill-opacity="1" fill-rule="nonzero"/></g><g clip-path="url(#4cde3a59f5)"><path fill="#000000" d="M 45.957031 41.867188 L 40.464844 40.984375 L 43.925781 36.550781 C 45.71875 38.09375 45.941406 39.945312 45.957031 41.867188 Z M 47.464844 42.191406 C 47.476562 42 47.507812 41.691406 47.507812 41.472656 C 47.507812 39.28125 46.785156 37.148438 44.832031 35.375 L 46.867188 32.976562 L 50.015625 42.445312 Z M 59.550781 32.765625 L 59.375 32.238281 L 48.160156 32.222656 L 51.144531 41.140625 L 51.273438 40.210938 L 50.929688 40.210938 L 50.972656 39.617188 L 52.472656 39.617188 L 52.429688 40.167969 L 52.046875 40.167969 L 51.960938 41.183594 C 51.960938 41.183594 59.507812 32.808594 59.550781 32.765625 Z M 64.515625 41.332031 C 63.011719 40.152344 61.839844 39.027344 60.992188 36.777344 C 59.660156 37.972656 58.898438 39.695312 58.898438 41.472656 C 58.898438 45 61.816406 47.878906 65.390625 47.878906 C 68.96875 47.878906 71.886719 45 71.886719 41.472656 C 71.886719 37.945312 68.96875 35.070312 65.390625 35.070312 C 64.25 35.070312 63.082031 35.394531 62.144531 35.941406 C 62.78125 37.925781 63.398438 38.949219 65.359375 40.507812 C 65.835938 40.527344 66.195312 40.902344 66.195312 41.351562 C 66.195312 41.816406 65.8125 42.199219 65.339844 42.199219 C 64.867188 42.199219 64.515625 41.816406 64.515625 41.332031 Z M 45.726562 43.226562 C 44.992188 45.925781 42.378906 47.878906 39.484375 47.878906 C 35.910156 47.878906 32.992188 45 32.992188 41.472656 C 32.992188 37.945312 35.910156 35.070312 39.484375 35.070312 C 40.628906 35.070312 41.949219 35.335938 42.914062 35.890625 L 39.386719 40.507812 C 38.957031 40.511719 38.582031 40.894531 38.582031 41.351562 C 38.582031 41.816406 38.964844 42.199219 39.4375 42.199219 C 39.570312 42.199219 39.707031 42.164062 39.824219 42.109375 Z M 61.679688 34.460938 L 59.378906 28.199219 L 60.109375 26.972656 L 58.648438 25.410156 L 55.519531 25.410156 L 55.476562 26.296875 L 58.222656 26.296875 L 58.777344 26.890625 L 58.136719 28.03125 L 58.945312 30.859375 L 47.710938 30.859375 L 47.539062 30.339844 C 48.441406 30.226562 50 29.675781 50.371094 29.359375 C 50.742188 29.039062 50.417969 28.746094 49.992188 28.734375 C 47.777344 28.640625 44.480469 28.457031 43.855469 28.453125 C 43.230469 28.453125 43.167969 28.761719 43.585938 29.214844 C 44.003906 29.664062 44.371094 30.074219 45.957031 30.316406 L 46.386719 31.457031 L 43.726562 34.703125 C 42.476562 33.953125 40.960938 33.5625 39.488281 33.5625 C 35.070312 33.5625 31.464844 37.117188 31.464844 41.472656 C 31.464844 45.828125 35.070312 49.382812 39.488281 49.382812 C 43.121094 49.382812 46.316406 46.910156 47.257812 43.496094 L 49.699219 43.925781 C 49.804688 44.210938 50.046875 44.429688 50.339844 44.601562 L 49.902344 46.636719 L 49.34375 46.636719 L 49.300781 47.1875 L 51.058594 47.273438 L 51.058594 46.679688 L 50.632812 46.679688 L 51.164062 44.644531 C 51.953125 44.515625 52.367188 43.847656 52.132812 43.1875 L 60.113281 34.285156 L 60.46875 35.242188 C 58.53125 36.746094 57.371094 39.0625 57.371094 41.472656 C 57.371094 45.828125 60.976562 49.382812 65.394531 49.382812 C 69.8125 49.382812 73.414062 45.828125 73.414062 41.472656 C 73.414062 37.117188 69.8125 33.5625 65.394531 33.5625 C 64.109375 33.5625 62.792969 33.871094 61.679688 34.460938 Z M 61.679688 34.460938 " fill-opacity="1" fill-rule="evenodd"/></g></svg>