<svg xmlns="http://www.w3.org/2000/svg" xmlns:xlink="http://www.w3.org/1999/xlink" width="140" zoomAndPan="magnify" viewBox="0 0 104.88 74.999997" height="100" preserveAspectRatio="xMidYMid meet" version="1.0"><defs><clipPath id="9aa798dd9b"><path d="M 0 0.0429688 L 104.761719 0.0429688 L 104.761719 74.957031 L 0 74.957031 Z M 0 0.0429688 " clip-rule="nonzero"/></clipPath><clipPath id="04eb61471a"><path d="M 35 22.515625 L 69 22.515625 L 69 49 L 35 49 Z M 35 22.515625 " clip-rule="nonzero"/></clipPath><clipPath id="d0c94dff81"><path d="M 65 47 L 70.347656 47 L 70.347656 50 L 65 50 Z M 65 47 " clip-rule="nonzero"/></clipPath><clipPath id="f928679acf"><path d="M 34.386719 46 L 39 46 L 39 49 L 34.386719 49 Z M 34.386719 46 " clip-rule="nonzero"/></clipPath><clipPath id="d6f83f81f2"><path d="M 44 49 L 49 49 L 49 52.484375 L 44 52.484375 Z M 44 49 " clip-rule="nonzero"/></clipPath></defs><g clip-path="url(#9aa798dd9b)"><path fill="#ffffff" d="M 0 0.0429688 L 104.878906 0.0429688 L 104.878906 74.957031 L 0 74.957031 Z M 0 0.0429688 " fill-opacity="1" fill-rule="nonzero"/><path fill="#ffffff" d="M 0 0.0429688 L 104.878906 0.0429688 L 104.878906 74.957031 L 0 74.957031 Z M 0 0.0429688 " fill-opacity="1" fill-rule="nonzero"/></g><g clip-path="url(#04eb61471a)"><path fill="#000000" d="M 68.457031 48.785156 C 68.203125 48.785156 67.992188 48.585938 67.964844 48.332031 C 67.925781 47.808594 67.882812 47.289062 67.84375 46.765625 C 67.746094 45.527344 67.640625 44.253906 67.574219 42.992188 C 67.523438 42.03125 67.445312 41.179688 66.984375 40.441406 C 66.265625 39.277344 65.996094 37.988281 65.742188 36.75 C 65.652344 36.324219 65.5625 35.886719 65.457031 35.46875 C 65.375 35.167969 65.320312 34.855469 65.253906 34.550781 C 65.171875 34.132812 65.089844 33.738281 64.976562 33.351562 C 64.894531 33.082031 64.65625 32.449219 64.175781 32.328125 C 63.070312 32.050781 62.484375 31.277344 61.96875 30.589844 C 61.828125 30.410156 61.707031 30.246094 61.570312 30.082031 C 61.027344 29.441406 60.523438 28.769531 60.039062 28.113281 C 59.738281 27.703125 59.417969 27.28125 59.101562 26.871094 C 58.601562 26.234375 57.988281 25.980469 57.164062 26.050781 C 56.421875 26.125 55.847656 25.683594 55.390625 25.324219 L 55.359375 25.296875 C 54.882812 24.929688 54.417969 24.550781 53.945312 24.15625 C 52.824219 23.230469 52.203125 23.402344 51.148438 23.976562 C 50.921875 24.101562 50.691406 24.230469 50.464844 24.363281 C 48.878906 25.25 47.226562 26.160156 45.421875 26.71875 C 45.039062 26.839844 44.761719 27.175781 44.433594 27.5625 C 44.375 27.636719 44.3125 27.710938 44.253906 27.785156 C 43.863281 28.25 43.460938 28.734375 43.085938 29.203125 C 42.703125 29.679688 42.292969 30.179688 41.890625 30.65625 C 41.132812 31.539062 40.832031 32.648438 40.503906 33.8125 L 40.453125 34 C 40.136719 35.15625 39.769531 36.46875 38.867188 37.535156 C 38.035156 38.539062 37.773438 39.792969 37.585938 40.992188 C 37.449219 41.867188 37.265625 42.746094 37.105469 43.589844 C 36.859375 44.820312 36.605469 46.101562 36.457031 47.363281 C 36.425781 47.636719 36.179688 47.824219 35.917969 47.800781 C 35.648438 47.765625 35.453125 47.519531 35.484375 47.257812 C 35.632812 45.953125 35.894531 44.65625 36.148438 43.402344 C 36.320312 42.566406 36.492188 41.695312 36.628906 40.835938 C 36.84375 39.496094 37.136719 38.09375 38.132812 36.90625 C 38.894531 35.996094 39.210938 34.847656 39.523438 33.738281 L 39.570312 33.550781 C 39.90625 32.335938 40.257812 31.074219 41.15625 30.015625 C 41.558594 29.546875 41.957031 29.054688 42.34375 28.578125 C 42.726562 28.101562 43.117188 27.621094 43.527344 27.144531 C 43.582031 27.078125 43.640625 27.003906 43.699219 26.9375 C 44.066406 26.496094 44.484375 25.988281 45.152344 25.78125 C 46.867188 25.25 48.398438 24.402344 50.007812 23.5 C 50.234375 23.371094 50.464844 23.246094 50.699219 23.117188 C 52.050781 22.371094 53.121094 22.179688 54.589844 23.402344 C 55.054688 23.789062 55.523438 24.175781 55.980469 24.527344 L 56.011719 24.550781 C 56.371094 24.832031 56.730469 25.109375 57.089844 25.078125 C 58.242188 24.960938 59.183594 25.363281 59.894531 26.265625 C 60.21875 26.683594 60.539062 27.109375 60.847656 27.519531 C 61.332031 28.160156 61.828125 28.824219 62.34375 29.441406 C 62.5 29.621094 62.640625 29.808594 62.777344 29.988281 C 63.261719 30.628906 63.675781 31.179688 64.445312 31.367188 C 65.132812 31.539062 65.679688 32.15625 65.949219 33.066406 C 66.078125 33.492188 66.167969 33.925781 66.25 34.347656 C 66.316406 34.648438 66.375 34.9375 66.4375 35.214844 C 66.554688 35.660156 66.644531 36.109375 66.734375 36.542969 C 66.984375 37.757812 67.214844 38.898438 67.84375 39.914062 C 68.425781 40.851562 68.523438 41.835938 68.578125 42.933594 C 68.644531 44.179688 68.75 45.453125 68.847656 46.683594 C 68.890625 47.207031 68.929688 47.726562 68.972656 48.25 C 68.996094 48.519531 68.792969 48.757812 68.523438 48.773438 C 68.480469 48.785156 68.464844 48.785156 68.457031 48.785156 Z M 68.457031 48.785156 " fill-opacity="1" fill-rule="nonzero"/></g><path fill="#000000" d="M 43.46875 48.375 C 43.28125 48.375 43.109375 48.265625 43.027344 48.085938 C 42.914062 47.839844 43.019531 47.542969 43.265625 47.429688 C 43.394531 47.363281 43.429688 47.355469 43.421875 47.070312 C 43.386719 46.085938 43.363281 44.796875 43.460938 43.484375 C 43.632812 41.351562 43.804688 39.136719 44.402344 36.996094 C 44.941406 35.058594 46.09375 33.320312 47.636719 32.089844 C 48.984375 31.015625 51.167969 29.941406 53.234375 30.144531 C 54.566406 30.277344 55.773438 30.769531 56.746094 31.566406 C 56.960938 31.738281 56.984375 32.050781 56.8125 32.253906 C 56.640625 32.46875 56.332031 32.492188 56.125 32.320312 C 55.308594 31.648438 54.28125 31.230469 53.144531 31.121094 C 51.363281 30.949219 49.449219 31.910156 48.25 32.859375 C 46.859375 33.960938 45.832031 35.527344 45.347656 37.265625 C 44.777344 39.316406 44.613281 41.472656 44.441406 43.566406 C 44.34375 44.820312 44.367188 46.085938 44.402344 47.035156 C 44.417969 47.472656 44.34375 48.011719 43.683594 48.316406 C 43.609375 48.355469 43.535156 48.375 43.46875 48.375 Z M 43.46875 48.375 " fill-opacity="1" fill-rule="nonzero"/><path fill="#000000" d="M 39.964844 50.679688 C 39.300781 50.679688 38.640625 50.671875 37.976562 50.660156 C 37.464844 50.652344 37.039062 50.398438 36.851562 49.996094 C 36.664062 49.605469 36.738281 49.128906 37.046875 48.742188 C 37.167969 48.585938 37.257812 48.421875 37.332031 48.234375 C 37.4375 47.953125 37.609375 47.699219 37.824219 47.488281 C 37.847656 47.460938 37.878906 47.4375 37.90625 47.40625 L 37.921875 47.398438 C 37.953125 47.363281 37.988281 47.339844 38.003906 47.316406 C 38.011719 47.308594 38.035156 47.265625 38.042969 47.242188 C 38.078125 47.175781 38.117188 47.101562 38.183594 47.019531 C 38.28125 46.886719 38.402344 46.773438 38.535156 46.675781 C 38.753906 46.511719 39.007812 46.394531 39.320312 46.324219 C 39.554688 46.265625 39.785156 46.242188 40.003906 46.214844 C 40.234375 46.191406 40.445312 46.167969 40.640625 46.109375 C 40.878906 46.042969 41.238281 46.027344 41.640625 46.332031 C 42.21875 46.757812 42.703125 47.109375 43.257812 47.363281 C 43.746094 47.59375 44.261719 48.117188 43.992188 49.300781 C 43.78125 50.210938 43.296875 50.671875 42.5625 50.671875 C 42.179688 50.671875 41.792969 50.671875 41.410156 50.679688 C 40.9375 50.679688 40.453125 50.679688 39.964844 50.679688 Z M 40.929688 47.050781 C 40.921875 47.050781 40.910156 47.050781 40.902344 47.050781 C 40.632812 47.125 40.371094 47.160156 40.121094 47.183594 C 39.914062 47.207031 39.726562 47.226562 39.554688 47.273438 C 39.375 47.316406 39.238281 47.378906 39.121094 47.453125 C 39.066406 47.496094 39.007812 47.554688 38.957031 47.609375 C 38.949219 47.625 38.933594 47.660156 38.917969 47.683594 C 38.878906 47.75 38.835938 47.839844 38.761719 47.929688 C 38.707031 47.996094 38.648438 48.054688 38.589844 48.101562 L 38.574219 48.117188 C 38.550781 48.136719 38.535156 48.160156 38.507812 48.175781 C 38.394531 48.28125 38.304688 48.421875 38.25 48.570312 C 38.140625 48.855469 38.003906 49.09375 37.816406 49.332031 C 37.742188 49.421875 37.71875 49.511719 37.734375 49.5625 C 37.757812 49.613281 37.847656 49.660156 37.996094 49.660156 C 39.128906 49.6875 40.28125 49.675781 41.402344 49.675781 C 41.785156 49.675781 42.171875 49.675781 42.554688 49.667969 C 42.734375 49.667969 42.898438 49.621094 43.027344 49.0625 C 43.183594 48.40625 42.953125 48.300781 42.832031 48.242188 C 42.195312 47.945312 41.648438 47.554688 41.050781 47.101562 C 40.992188 47.0625 40.953125 47.050781 40.929688 47.050781 Z M 38.257812 47.757812 Z M 38.257812 47.757812 " fill-opacity="1" fill-rule="nonzero"/><path fill="#000000" d="M 63.824219 51.171875 C 63.144531 51.171875 62.484375 51.164062 61.828125 51.152344 C 61.363281 51.144531 61.027344 51 60.824219 50.71875 C 60.613281 50.433594 60.570312 50.039062 60.710938 49.546875 C 60.980469 48.59375 61.675781 48.152344 62.289062 47.757812 C 62.574219 47.578125 62.835938 47.40625 63.046875 47.199219 C 63.144531 47.109375 63.242188 47.042969 63.316406 47.003906 C 63.339844 46.988281 63.367188 46.96875 63.382812 46.960938 C 63.277344 46.625 63.25 46.230469 63.292969 45.789062 C 63.457031 44.164062 63.25 42.582031 62.6875 41.097656 C 62.65625 41.023438 62.628906 40.941406 62.597656 40.867188 C 62.351562 40.242188 62.109375 39.597656 62.164062 38.839844 C 62.179688 38.570312 62.417969 38.367188 62.6875 38.382812 C 62.957031 38.398438 63.160156 38.636719 63.144531 38.90625 C 63.105469 39.449219 63.308594 39.964844 63.519531 40.507812 C 63.554688 40.589844 63.578125 40.664062 63.609375 40.746094 C 64.222656 42.375 64.453125 44.109375 64.273438 45.886719 C 64.183594 46.757812 64.421875 47.152344 65.1875 47.453125 C 66.144531 47.824219 66.78125 48.585938 66.984375 49.59375 C 67.050781 49.921875 67.109375 50.40625 66.824219 50.769531 C 66.617188 51.023438 66.300781 51.152344 65.851562 51.164062 C 65.171875 51.171875 64.492188 51.171875 63.824219 51.171875 Z M 61.609375 50.128906 C 61.625 50.136719 61.691406 50.167969 61.847656 50.167969 C 63.128906 50.195312 64.46875 50.195312 65.832031 50.167969 C 65.972656 50.167969 66.03125 50.144531 66.054688 50.136719 C 66.0625 50.105469 66.070312 50.003906 66.03125 49.777344 C 65.890625 49.085938 65.492188 48.609375 64.835938 48.355469 C 64.453125 48.210938 64.140625 48.019531 63.898438 47.78125 C 63.863281 47.800781 63.839844 47.816406 63.816406 47.832031 C 63.78125 47.847656 63.742188 47.871094 63.726562 47.890625 C 63.441406 48.167969 63.121094 48.375 62.808594 48.578125 C 62.269531 48.921875 61.8125 49.21875 61.640625 49.808594 C 61.59375 50.015625 61.601562 50.105469 61.609375 50.128906 Z M 61.609375 50.128906 " fill-opacity="1" fill-rule="nonzero"/><path fill="#000000" d="M 43.0625 34.765625 C 42.847656 34.765625 42.652344 34.625 42.585938 34.402344 C 42.414062 33.796875 42.800781 33.417969 43.011719 33.214844 C 43.042969 33.179688 43.078125 33.148438 43.109375 33.117188 C 43.59375 32.597656 44 32.132812 44.125 31.539062 C 44.425781 30.179688 45.332031 29.308594 46.183594 28.636719 C 46.28125 28.554688 46.378906 28.496094 46.476562 28.429688 C 46.785156 28.234375 46.820312 28.183594 46.820312 28.054688 C 46.8125 27.785156 47.023438 27.554688 47.292969 27.546875 C 47.5625 27.539062 47.792969 27.75 47.800781 28.019531 C 47.824219 28.734375 47.308594 29.0625 47 29.261719 C 46.917969 29.308594 46.84375 29.359375 46.785156 29.398438 C 46.035156 30 45.316406 30.695312 45.078125 31.746094 C 44.898438 32.574219 44.375 33.179688 43.820312 33.78125 C 43.78125 33.820312 43.738281 33.871094 43.691406 33.910156 C 43.632812 33.96875 43.535156 34.066406 43.519531 34.101562 C 43.519531 34.101562 43.519531 34.109375 43.527344 34.132812 C 43.601562 34.394531 43.445312 34.664062 43.183594 34.738281 C 43.144531 34.765625 43.101562 34.765625 43.0625 34.765625 Z M 43.0625 34.765625 " fill-opacity="1" fill-rule="nonzero"/><path fill="#000000" d="M 39.464844 47.144531 C 39.195312 47.144531 38.976562 46.921875 38.976562 46.652344 C 38.96875 45.445312 39.285156 44.320312 39.597656 43.238281 C 39.726562 42.785156 39.859375 42.320312 39.964844 41.859375 C 40.019531 41.597656 40.289062 41.433594 40.550781 41.492188 C 40.8125 41.546875 40.976562 41.820312 40.921875 42.082031 C 40.804688 42.566406 40.675781 43.050781 40.535156 43.507812 C 40.234375 44.574219 39.941406 45.574219 39.949219 46.640625 C 39.957031 46.921875 39.742188 47.144531 39.464844 47.144531 Z M 39.464844 47.144531 " fill-opacity="1" fill-rule="nonzero"/><path fill="#000000" d="M 44.6875 48.09375 C 44.539062 48.09375 44.410156 48.078125 44.292969 48.0625 C 44.179688 48.046875 44.074219 48.035156 43.984375 48.046875 C 43.714844 48.0625 43.476562 47.855469 43.46875 47.585938 C 43.460938 47.316406 43.65625 47.078125 43.925781 47.070312 C 44.105469 47.0625 44.269531 47.078125 44.410156 47.09375 C 44.574219 47.109375 44.703125 47.125 44.84375 47.101562 C 45.816406 46.90625 46.738281 46.496094 47.667969 45.855469 C 47.75 45.796875 47.847656 45.757812 47.957031 45.757812 C 48.226562 45.757812 48.445312 45.976562 48.445312 46.25 C 48.445312 46.414062 48.363281 46.558594 48.234375 46.660156 C 47.1875 47.378906 46.140625 47.839844 45.039062 48.0625 C 44.914062 48.085938 44.800781 48.09375 44.6875 48.09375 Z M 44.6875 48.09375 " fill-opacity="1" fill-rule="nonzero"/><path fill="#000000" d="M 63.960938 36.078125 C 63.945312 36.078125 63.9375 36.078125 63.921875 36.078125 C 63.652344 36.050781 63.449219 35.8125 63.472656 35.542969 C 63.488281 35.363281 63.429688 35.167969 63.359375 34.945312 C 63.308594 34.78125 63.261719 34.617188 63.226562 34.4375 C 63.1875 34.207031 63.121094 33.976562 63.039062 33.730469 C 62.828125 33.050781 62.589844 32.285156 63.023438 31.425781 C 63.144531 31.179688 63.441406 31.089844 63.683594 31.210938 C 63.929688 31.335938 64.019531 31.628906 63.898438 31.875 C 63.660156 32.351562 63.765625 32.777344 63.972656 33.445312 C 64.050781 33.714844 64.140625 33.984375 64.183594 34.28125 C 64.199219 34.402344 64.242188 34.527344 64.28125 34.664062 C 64.363281 34.945312 64.460938 35.265625 64.429688 35.632812 C 64.429688 35.878906 64.214844 36.078125 63.960938 36.078125 Z M 63.960938 36.078125 " fill-opacity="1" fill-rule="nonzero"/><g clip-path="url(#d0c94dff81)"><path fill="#000000" d="M 66.332031 49.277344 C 66.183594 49.277344 66.046875 49.210938 65.949219 49.085938 C 65.785156 48.875 65.816406 48.5625 66.03125 48.398438 C 66.355469 48.144531 66.714844 48.101562 67.003906 48.070312 C 67.082031 48.0625 67.15625 48.054688 67.230469 48.035156 C 67.835938 47.929688 68.414062 47.972656 68.980469 48.003906 C 69.28125 48.019531 69.558594 48.046875 69.847656 48.035156 C 70.117188 48.035156 70.335938 48.25 70.335938 48.527344 C 70.335938 48.800781 70.125 49.019531 69.847656 49.019531 C 69.527344 49.019531 69.214844 49.003906 68.90625 48.980469 C 68.375 48.949219 67.875 48.914062 67.386719 48.996094 C 67.289062 49.011719 67.191406 49.019531 67.101562 49.039062 C 66.871094 49.0625 66.734375 49.078125 66.625 49.160156 C 66.542969 49.242188 66.4375 49.277344 66.332031 49.277344 Z M 66.332031 49.277344 " fill-opacity="1" fill-rule="nonzero"/></g><g clip-path="url(#f928679acf)"><path fill="#000000" d="M 37.914062 48.292969 C 37.847656 48.292969 37.78125 48.273438 37.71875 48.25 C 36.859375 47.882812 35.953125 47.9375 34.9375 48.046875 C 34.667969 48.070312 34.433594 47.882812 34.398438 47.609375 C 34.367188 47.339844 34.5625 47.101562 34.832031 47.070312 C 35.945312 46.953125 37.03125 46.886719 38.101562 47.355469 C 38.347656 47.460938 38.460938 47.757812 38.355469 48.003906 C 38.28125 48.183594 38.101562 48.292969 37.914062 48.292969 Z M 37.914062 48.292969 " fill-opacity="1" fill-rule="nonzero"/></g><g clip-path="url(#d6f83f81f2)"><path fill="#000000" d="M 47.449219 52.484375 C 47.417969 52.484375 47.390625 52.484375 47.359375 52.484375 C 46.933594 52.457031 46.492188 52.464844 46.058594 52.476562 C 45.90625 52.476562 45.75 52.476562 45.59375 52.484375 C 45.316406 52.484375 44.664062 52.492188 44.253906 51.882812 C 44.171875 51.769531 44.148438 51.621094 44.1875 51.492188 C 44.449219 50.472656 45.160156 49.949219 45.75 49.605469 C 45.839844 49.554688 45.9375 49.53125 46.035156 49.539062 C 46.933594 49.421875 47.703125 49.726562 48.332031 50.433594 C 48.699219 50.84375 48.8125 51.34375 48.625 51.769531 C 48.4375 52.210938 47.988281 52.484375 47.449219 52.484375 Z M 46.640625 51.480469 C 46.894531 51.480469 47.15625 51.492188 47.417969 51.5 C 47.472656 51.5 47.675781 51.5 47.734375 51.367188 C 47.757812 51.316406 47.71875 51.195312 47.613281 51.070312 C 47.195312 50.597656 46.738281 50.425781 46.15625 50.507812 C 46.15625 50.507812 46.15625 50.507812 46.148438 50.507812 C 45.675781 50.792969 45.398438 51.089844 45.242188 51.449219 C 45.316406 51.472656 45.429688 51.492188 45.601562 51.492188 C 45.757812 51.492188 45.914062 51.492188 46.066406 51.480469 C 46.238281 51.480469 46.4375 51.480469 46.640625 51.480469 Z M 46.640625 51.480469 " fill-opacity="1" fill-rule="nonzero"/></g><path fill="#000000" d="M 62.117188 48.957031 L 59.175781 48.957031 C 58.90625 48.957031 58.683594 48.734375 58.683594 48.464844 C 58.683594 48.191406 58.90625 47.972656 59.175781 47.972656 L 62.117188 47.972656 C 62.386719 47.972656 62.605469 48.191406 62.605469 48.464844 C 62.605469 48.734375 62.386719 48.957031 62.117188 48.957031 Z M 62.117188 48.957031 " fill-opacity="1" fill-rule="nonzero"/><path fill="#000000" d="M 60.464844 48.867188 C 60.195312 48.867188 59.976562 48.644531 59.976562 48.375 C 59.976562 47.929688 59.976562 47.480469 59.976562 47.035156 C 59.976562 46.953125 59.976562 46.871094 59.976562 46.789062 L 47.957031 46.742188 C 47.6875 46.742188 47.464844 46.519531 47.464844 46.25 C 47.464844 45.820312 47.464844 45.402344 47.472656 44.976562 L 47.472656 44.714844 C 47.496094 42.113281 47.515625 39.433594 48.175781 36.878906 C 48.894531 34.101562 51.230469 31.84375 53.992188 31.269531 C 55.980469 30.859375 57.867188 31.894531 59.035156 34.027344 C 60.882812 37.398438 60.964844 41.867188 60.957031 46.257812 C 60.957031 46.265625 60.957031 46.28125 60.957031 46.289062 C 60.957031 46.296875 60.957031 46.3125 60.957031 46.324219 C 60.957031 46.558594 60.957031 46.789062 60.957031 47.027344 C 60.957031 47.480469 60.957031 47.921875 60.957031 48.363281 C 60.957031 48.644531 60.734375 48.867188 60.464844 48.867188 Z M 48.453125 45.765625 L 59.984375 45.804688 C 59.984375 41.6875 59.851562 37.5625 58.1875 34.511719 C 57.230469 32.769531 55.742188 31.917969 54.199219 32.238281 C 51.796875 32.738281 49.761719 34.699219 49.132812 37.125 C 48.503906 39.554688 48.476562 42.179688 48.460938 44.714844 L 48.460938 44.976562 C 48.453125 45.246094 48.453125 45.503906 48.453125 45.765625 Z M 48.453125 45.765625 " fill-opacity="1" fill-rule="nonzero"/><path fill="#000000" d="M 57.613281 27.90625 C 57.417969 27.90625 57.238281 27.792969 57.164062 27.601562 C 56.746094 26.59375 55.332031 25.289062 55.316406 25.28125 C 55.113281 25.101562 55.105469 24.789062 55.285156 24.585938 C 55.464844 24.378906 55.773438 24.371094 55.980469 24.550781 C 56.042969 24.609375 57.574219 26.011719 58.070312 27.226562 C 58.175781 27.480469 58.054688 27.765625 57.800781 27.867188 C 57.734375 27.898438 57.679688 27.90625 57.613281 27.90625 Z M 57.613281 27.90625 " fill-opacity="1" fill-rule="nonzero"/></svg>