<svg xmlns="http://www.w3.org/2000/svg" xmlns:xlink="http://www.w3.org/1999/xlink" width="140" zoomAndPan="magnify" viewBox="0 0 104.88 74.999997" height="100" preserveAspectRatio="xMidYMid meet" version="1.0"><defs><clipPath id="6da9479c39"><path d="M 0 0.0429688 L 104.761719 0.0429688 L 104.761719 74.957031 L 0 74.957031 Z M 0 0.0429688 " clip-rule="nonzero"/></clipPath><clipPath id="59a7c9c068"><path d="M 62 24 L 65.289062 24 L 65.289062 40 L 62 40 Z M 62 24 " clip-rule="nonzero"/></clipPath><clipPath id="3fc5833553"><path d="M 53 22.515625 L 64 22.515625 L 64 43 L 53 43 Z M 53 22.515625 " clip-rule="nonzero"/></clipPath><clipPath id="7497dcd3fa"><path d="M 39.816406 40 L 51 40 L 51 52 L 39.816406 52 Z M 39.816406 40 " clip-rule="nonzero"/></clipPath><clipPath id="5ac4a5bcf0"><path d="M 49 46 L 54 46 L 54 52.484375 L 49 52.484375 Z M 49 46 " clip-rule="nonzero"/></clipPath></defs><g clip-path="url(#6da9479c39)"><path fill="#ffffff" d="M 0 0.0429688 L 104.878906 0.0429688 L 104.878906 74.957031 L 0 74.957031 Z M 0 0.0429688 " fill-opacity="1" fill-rule="nonzero"/><path fill="#ffffff" d="M 0 0.0429688 L 104.878906 0.0429688 L 104.878906 74.957031 L 0 74.957031 Z M 0 0.0429688 " fill-opacity="1" fill-rule="nonzero"/></g><g clip-path="url(#59a7c9c068)"><path fill="#000000" d="M 63.9375 39.300781 C 63.714844 39.300781 63.535156 39.121094 63.535156 38.902344 L 63.535156 34.636719 L 62.105469 32.109375 C 62.019531 31.949219 62.046875 31.75 62.179688 31.625 L 64.386719 29.53125 L 64.480469 26.179688 L 63.109375 24.929688 C 62.949219 24.777344 62.933594 24.53125 63.089844 24.363281 C 63.242188 24.207031 63.488281 24.191406 63.65625 24.34375 L 65.152344 25.722656 C 65.242188 25.800781 65.289062 25.910156 65.28125 26.027344 L 65.179688 29.722656 C 65.179688 29.828125 65.132812 29.929688 65.058594 30 L 62.960938 31.996094 L 64.292969 34.347656 C 64.324219 34.40625 64.34375 34.472656 64.34375 34.539062 L 64.34375 38.910156 C 64.339844 39.121094 64.15625 39.300781 63.9375 39.300781 Z M 63.9375 39.300781 " fill-opacity="1" fill-rule="nonzero"/></g><g clip-path="url(#3fc5833553)"><path fill="#000000" d="M 54.539062 42.917969 C 54.472656 42.917969 54.410156 42.90625 54.351562 42.871094 C 54.15625 42.765625 54.082031 42.527344 54.183594 42.335938 L 54.617188 41.539062 L 55.746094 37.117188 C 55.773438 37.011719 55.839844 36.921875 55.933594 36.871094 L 57.785156 35.804688 L 57.574219 33.679688 C 57.558594 33.539062 57.621094 33.398438 57.734375 33.320312 L 59.277344 32.1875 L 63.042969 24.410156 L 63.042969 23.675781 L 53.722656 29.71875 C 53.535156 29.835938 53.289062 29.785156 53.167969 29.605469 C 53.046875 29.417969 53.101562 29.175781 53.28125 29.054688 L 63.214844 22.609375 C 63.335938 22.53125 63.496094 22.523438 63.625 22.589844 C 63.75 22.65625 63.832031 22.796875 63.832031 22.941406 L 63.832031 24.496094 C 63.832031 24.558594 63.816406 24.617188 63.789062 24.667969 L 59.941406 32.617188 C 59.914062 32.679688 59.867188 32.722656 59.820312 32.765625 L 58.375 33.824219 L 58.597656 35.984375 C 58.609375 36.136719 58.535156 36.289062 58.394531 36.367188 L 56.464844 37.472656 L 55.359375 41.777344 C 55.351562 41.8125 55.339844 41.839844 55.328125 41.871094 L 54.878906 42.707031 C 54.824219 42.84375 54.683594 42.917969 54.539062 42.917969 Z M 54.539062 42.917969 " fill-opacity="1" fill-rule="nonzero"/></g><path fill="#000000" d="M 52.621094 45.449219 C 52.597656 45.449219 52.578125 45.449219 52.550781 45.441406 C 52.417969 45.421875 52.304688 45.335938 52.25 45.214844 L 50.558594 41.535156 L 45.011719 41.25 C 44.269531 41.210938 43.6875 40.605469 43.6875 39.863281 L 43.6875 33.671875 C 43.6875 33.027344 44.128906 32.472656 44.757812 32.3125 L 49.351562 31.175781 L 52.050781 29.253906 C 52.667969 28.816406 53.507812 28.910156 54.007812 29.484375 C 54.285156 29.796875 54.402344 30.214844 54.351562 30.625 C 54.296875 31.035156 54.0625 31.398438 53.714844 31.632812 L 50.125 34.007812 C 50.078125 34.042969 50.023438 34.0625 49.964844 34.070312 L 47.472656 34.453125 C 47.25 34.484375 47.050781 34.339844 47.011719 34.121094 C 46.976562 33.902344 47.125 33.703125 47.34375 33.664062 L 49.75 33.292969 L 53.269531 30.960938 C 53.429688 30.855469 53.527344 30.699219 53.554688 30.503906 C 53.582031 30.3125 53.527344 30.132812 53.402344 29.996094 C 53.179688 29.738281 52.800781 29.691406 52.519531 29.890625 L 49.75 31.871094 C 49.710938 31.894531 49.664062 31.921875 49.617188 31.929688 L 44.953125 33.089844 C 44.675781 33.15625 44.488281 33.398438 44.488281 33.671875 L 44.488281 39.863281 C 44.488281 40.175781 44.738281 40.433594 45.050781 40.453125 L 50.847656 40.746094 C 50.996094 40.753906 51.128906 40.84375 51.195312 40.976562 L 52.734375 44.335938 L 53.789062 43.214844 L 51.796875 39.296875 L 47.246094 39.296875 C 47.023438 39.296875 46.84375 39.117188 46.84375 38.898438 L 46.84375 38.445312 C 46.84375 38.230469 47.023438 38.050781 47.246094 38.050781 C 47.464844 38.050781 47.644531 38.230469 47.644531 38.445312 L 47.644531 38.5 L 52.042969 38.5 C 52.199219 38.5 52.332031 38.585938 52.40625 38.71875 L 54.632812 43.109375 C 54.703125 43.257812 54.679688 43.433594 54.566406 43.5625 L 52.914062 45.316406 C 52.832031 45.410156 52.726562 45.449219 52.621094 45.449219 Z M 52.621094 45.449219 " fill-opacity="1" fill-rule="nonzero"/><path fill="#000000" d="M 48.195312 39.300781 C 47.972656 39.300781 47.792969 39.121094 47.792969 38.902344 L 47.792969 38.832031 L 44.558594 38.832031 C 44.335938 38.832031 44.15625 38.652344 44.15625 38.433594 C 44.15625 38.214844 44.335938 38.035156 44.558594 38.035156 L 47.792969 38.035156 L 47.792969 34.355469 C 47.792969 34.136719 47.972656 33.957031 48.195312 33.957031 C 48.414062 33.957031 48.59375 34.136719 48.59375 34.355469 L 48.59375 38.902344 C 48.59375 39.121094 48.414062 39.300781 48.195312 39.300781 Z M 48.195312 39.300781 " fill-opacity="1" fill-rule="nonzero"/><path fill="#000000" d="M 48.09375 36.945312 L 44.558594 36.945312 C 44.335938 36.945312 44.15625 36.765625 44.15625 36.546875 C 44.15625 36.328125 44.335938 36.148438 44.558594 36.148438 L 48.09375 36.148438 C 48.3125 36.148438 48.496094 36.328125 48.496094 36.546875 C 48.496094 36.765625 48.3125 36.945312 48.09375 36.945312 Z M 48.09375 36.945312 " fill-opacity="1" fill-rule="nonzero"/><path fill="#000000" d="M 46.828125 32.285156 C 45.847656 32.285156 45.042969 31.492188 45.042969 30.519531 C 45.042969 29.542969 45.847656 28.75 46.828125 28.75 C 47.8125 28.75 48.613281 29.542969 48.613281 30.519531 C 48.613281 31.492188 47.820312 32.285156 46.828125 32.285156 Z M 46.828125 29.550781 C 46.289062 29.550781 45.847656 29.988281 45.847656 30.523438 C 45.847656 31.0625 46.289062 31.5 46.828125 31.5 C 47.371094 31.5 47.8125 31.0625 47.8125 30.523438 C 47.8125 29.988281 47.371094 29.550781 46.828125 29.550781 Z M 46.828125 29.550781 " fill-opacity="1" fill-rule="nonzero"/><path fill="#000000" d="M 50.21875 39.164062 C 50.160156 39.164062 50.097656 39.148438 50.046875 39.121094 C 49.84375 39.023438 49.765625 38.785156 49.863281 38.59375 C 50.199219 37.910156 50.5 37.207031 50.746094 36.492188 C 51.230469 35.109375 51.550781 33.65625 51.703125 32.1875 C 51.722656 31.96875 51.925781 31.808594 52.144531 31.828125 C 52.363281 31.851562 52.527344 32.046875 52.503906 32.265625 C 52.351562 33.796875 52.015625 35.308594 51.507812 36.75 C 51.25 37.492188 50.941406 38.234375 50.585938 38.945312 C 50.511719 39.082031 50.367188 39.164062 50.21875 39.164062 Z M 50.21875 39.164062 " fill-opacity="1" fill-rule="nonzero"/><path fill="#000000" d="M 52.96875 31.65625 C 52.839844 31.65625 52.71875 31.597656 52.640625 31.492188 L 51.757812 30.261719 C 51.628906 30.082031 51.667969 29.835938 51.851562 29.703125 C 52.03125 29.578125 52.277344 29.617188 52.410156 29.796875 L 53.292969 31.027344 C 53.421875 31.207031 53.382812 31.453125 53.199219 31.585938 C 53.128906 31.632812 53.046875 31.65625 52.96875 31.65625 Z M 52.96875 31.65625 " fill-opacity="1" fill-rule="nonzero"/><g clip-path="url(#7497dcd3fa)"><path fill="#000000" d="M 43.753906 51.898438 C 43.003906 51.898438 42.171875 51.746094 41.46875 51.332031 C 40.539062 50.78125 39.984375 49.859375 39.855469 48.660156 C 39.515625 45.441406 41.269531 44.195312 42.671875 43.195312 C 42.777344 43.125 42.886719 43.042969 42.984375 42.972656 C 44.242188 42.0625 44.070312 40.746094 44.0625 40.691406 C 44.027344 40.472656 44.183594 40.273438 44.402344 40.242188 C 44.625 40.210938 44.824219 40.355469 44.859375 40.574219 C 44.871094 40.644531 45.125 42.414062 43.460938 43.613281 C 43.351562 43.6875 43.246094 43.765625 43.140625 43.84375 C 41.777344 44.8125 40.363281 45.820312 40.652344 48.582031 C 40.753906 49.535156 41.167969 50.230469 41.875 50.648438 C 42.925781 51.269531 44.390625 51.164062 45.050781 50.894531 C 46.027344 50.496094 46.945312 49.089844 47.050781 47.832031 C 47.058594 47.773438 47.625 42.003906 49.511719 40.765625 C 49.699219 40.644531 49.945312 40.691406 50.066406 40.878906 C 50.1875 41.0625 50.140625 41.308594 49.953125 41.429688 C 48.800781 42.183594 48 46.078125 47.847656 47.898438 C 47.710938 49.476562 46.617188 51.117188 45.351562 51.628906 C 44.976562 51.789062 44.394531 51.898438 43.753906 51.898438 Z M 43.753906 51.898438 " fill-opacity="1" fill-rule="nonzero"/></g><path fill="#000000" d="M 50.820312 47.488281 C 50.773438 47.488281 50.726562 47.480469 50.679688 47.460938 C 50.582031 47.421875 50.492188 47.351562 50.445312 47.242188 L 49.070312 44.085938 L 44.375 41.707031 C 44.175781 41.605469 44.101562 41.367188 44.203125 41.167969 C 44.304688 40.976562 44.542969 40.898438 44.742188 40.996094 L 49.5625 43.441406 C 49.644531 43.480469 49.710938 43.554688 49.75 43.640625 L 51.027344 46.554688 L 52.503906 45.824219 L 50.660156 42.824219 L 48.480469 41.566406 C 48.289062 41.453125 48.226562 41.214844 48.332031 41.023438 C 48.449219 40.832031 48.6875 40.773438 48.882812 40.878906 L 51.148438 42.191406 C 51.207031 42.222656 51.253906 42.269531 51.289062 42.328125 L 53.414062 45.785156 C 53.476562 45.878906 53.488281 46 53.453125 46.105469 C 53.421875 46.210938 53.347656 46.304688 53.246094 46.347656 L 51 47.460938 C 50.949219 47.476562 50.882812 47.488281 50.820312 47.488281 Z M 50.820312 47.488281 " fill-opacity="1" fill-rule="nonzero"/><path fill="#000000" d="M 54.003906 48.601562 C 53.84375 48.601562 53.695312 48.507812 53.628906 48.351562 C 53.609375 48.304688 53.195312 47.277344 53.113281 46.476562 C 53.054688 45.914062 53.640625 45.457031 54.265625 44.964844 C 54.636719 44.671875 55.332031 44.125 55.261719 43.890625 C 55.199219 43.714844 55.113281 43.652344 55.050781 43.628906 C 54.84375 43.535156 54.523438 43.621094 54.429688 43.660156 C 54.222656 43.738281 53.988281 43.648438 53.910156 43.441406 C 53.828125 43.234375 53.921875 43.011719 54.125 42.925781 C 54.195312 42.898438 54.824219 42.648438 55.386719 42.90625 C 55.6875 43.042969 55.910156 43.296875 56.023438 43.648438 C 56.269531 44.410156 55.46875 45.03125 54.757812 45.585938 C 54.449219 45.824219 53.941406 46.230469 53.910156 46.394531 C 53.984375 47.085938 54.371094 48.039062 54.371094 48.050781 C 54.449219 48.257812 54.351562 48.488281 54.148438 48.570312 C 54.101562 48.589844 54.050781 48.601562 54.003906 48.601562 Z M 54.003906 48.601562 " fill-opacity="1" fill-rule="nonzero"/><g clip-path="url(#5ac4a5bcf0)"><path fill="#000000" d="M 49.496094 52.457031 C 49.46875 52.457031 49.445312 52.457031 49.417969 52.449219 C 49.203125 52.402344 49.0625 52.199219 49.101562 51.980469 C 49.109375 51.945312 49.285156 51.105469 49.550781 50.222656 C 50.078125 48.496094 50.488281 48.183594 50.820312 48.097656 C 51.109375 48.023438 51.683594 47.78125 52.226562 47.441406 C 52.90625 47.019531 53.09375 46.734375 53.105469 46.667969 C 53.140625 46.449219 53.347656 46.304688 53.570312 46.34375 C 53.789062 46.375 53.9375 46.582031 53.894531 46.800781 C 53.742188 47.71875 51.722656 48.6875 51.027344 48.867188 C 50.742188 49.050781 50.207031 50.574219 49.886719 52.136719 C 49.851562 52.324219 49.683594 52.457031 49.496094 52.457031 Z M 51.042969 48.859375 Z M 51.042969 48.859375 " fill-opacity="1" fill-rule="nonzero"/></g><path fill="#000000" d="M 51.601562 48.363281 C 51.457031 48.363281 51.316406 48.285156 51.242188 48.144531 L 50.792969 47.269531 C 50.695312 47.070312 50.773438 46.832031 50.96875 46.734375 C 51.167969 46.632812 51.410156 46.714844 51.507812 46.90625 L 51.957031 47.78125 C 52.058594 47.980469 51.976562 48.21875 51.785156 48.316406 C 51.730469 48.351562 51.664062 48.363281 51.601562 48.363281 Z M 51.601562 48.363281 " fill-opacity="1" fill-rule="nonzero"/><path fill="#000000" d="M 55.613281 44.546875 C 55.5 44.546875 55.378906 44.496094 55.300781 44.402344 C 55.160156 44.230469 55.1875 43.976562 55.359375 43.84375 L 56.324219 43.070312 C 56.496094 42.929688 56.75 42.957031 56.882812 43.128906 C 57.023438 43.300781 57 43.554688 56.824219 43.6875 L 55.863281 44.460938 C 55.792969 44.519531 55.699219 44.546875 55.613281 44.546875 Z M 55.613281 44.546875 " fill-opacity="1" fill-rule="nonzero"/><path fill="#000000" d="M 42.683594 39.5 L 42.371094 39.5 C 41.375 39.5 40.558594 38.699219 40.558594 37.707031 L 40.558594 32.3125 C 40.558594 31.328125 41.367188 30.519531 42.371094 30.519531 L 42.683594 30.519531 C 43.679688 30.519531 44.496094 31.320312 44.496094 32.3125 L 44.496094 37.707031 C 44.488281 38.699219 43.679688 39.5 42.683594 39.5 Z M 42.363281 31.320312 C 41.808594 31.320312 41.355469 31.769531 41.355469 32.320312 L 41.355469 37.710938 C 41.355469 38.261719 41.808594 38.710938 42.363281 38.710938 L 42.679688 38.710938 C 43.234375 38.710938 43.6875 38.261719 43.6875 37.710938 L 43.6875 32.320312 C 43.6875 31.769531 43.234375 31.320312 42.679688 31.320312 Z M 42.363281 31.320312 " fill-opacity="1" fill-rule="nonzero"/><path fill="#000000" d="M 43.980469 35.527344 L 41.242188 35.527344 C 41.019531 35.527344 40.839844 35.347656 40.839844 35.128906 C 40.839844 34.910156 41.019531 34.730469 41.242188 34.730469 L 43.980469 34.730469 C 44.203125 34.730469 44.382812 34.910156 44.382812 35.128906 C 44.382812 35.347656 44.203125 35.527344 43.980469 35.527344 Z M 43.980469 35.527344 " fill-opacity="1" fill-rule="nonzero"/><path fill="#000000" d="M 43.828125 33.101562 L 41.101562 33.101562 C 40.878906 33.101562 40.699219 32.921875 40.699219 32.703125 C 40.699219 32.484375 40.878906 32.308594 41.101562 32.308594 L 43.828125 32.308594 C 44.046875 32.308594 44.230469 32.484375 44.230469 32.703125 C 44.230469 32.921875 44.046875 33.101562 43.828125 33.101562 Z M 43.828125 33.101562 " fill-opacity="1" fill-rule="nonzero"/><path fill="#000000" d="M 42.683594 37.375 L 41.199219 37.375 C 40.980469 37.375 40.800781 37.195312 40.800781 36.976562 C 40.800781 36.757812 40.980469 36.578125 41.199219 36.578125 L 42.683594 36.578125 C 42.90625 36.578125 43.085938 36.757812 43.085938 36.976562 C 43.085938 37.195312 42.90625 37.375 42.683594 37.375 Z M 42.683594 37.375 " fill-opacity="1" fill-rule="nonzero"/></svg>