<svg xmlns="http://www.w3.org/2000/svg" xmlns:xlink="http://www.w3.org/1999/xlink" width="140" zoomAndPan="magnify" viewBox="0 0 104.88 74.999997" height="100" preserveAspectRatio="xMidYMid meet" version="1.0"><defs><clipPath id="ecd3dad0a7"><path d="M 0 0.0429688 L 104.761719 0.0429688 L 104.761719 74.957031 L 0 74.957031 Z M 0 0.0429688 " clip-rule="nonzero"/></clipPath><clipPath id="abd65e88fb"><path d="M 48 37 L 69.578125 37 L 69.578125 48 L 48 48 Z M 48 37 " clip-rule="nonzero"/></clipPath><clipPath id="04fc973f3c"><path d="M 38 22.515625 L 46 22.515625 L 46 43 L 38 43 Z M 38 22.515625 " clip-rule="nonzero"/></clipPath><clipPath id="b821f70c35"><path d="M 35.117188 43 L 41 43 L 41 52.484375 L 35.117188 52.484375 Z M 35.117188 43 " clip-rule="nonzero"/></clipPath><clipPath id="a80a0c7729"><path d="M 35.117188 46 L 41 46 L 41 49 L 35.117188 49 Z M 35.117188 46 " clip-rule="nonzero"/></clipPath><clipPath id="5050203171"><path d="M 44 22.515625 L 54 22.515625 L 54 44 L 44 44 Z M 44 22.515625 " clip-rule="nonzero"/></clipPath></defs><g clip-path="url(#ecd3dad0a7)"><path fill="#ffffff" d="M 0 0.0429688 L 104.878906 0.0429688 L 104.878906 74.957031 L 0 74.957031 Z M 0 0.0429688 " fill-opacity="1" fill-rule="nonzero"/><path fill="#ffffff" d="M 0 0.0429688 L 104.878906 0.0429688 L 104.878906 74.957031 L 0 74.957031 Z M 0 0.0429688 " fill-opacity="1" fill-rule="nonzero"/></g><g clip-path="url(#abd65e88fb)"><path fill="#000000" d="M 58.085938 47.601562 C 54.320312 47.601562 50.800781 45.757812 48.910156 42.800781 C 48.816406 42.652344 48.816406 42.464844 48.910156 42.316406 C 50.808594 39.355469 54.328125 37.511719 58.085938 37.511719 C 59.976562 37.511719 61.832031 37.964844 63.449219 38.832031 C 63.984375 39.113281 65.367188 39.855469 65.734375 39.886719 C 65.75 39.855469 65.773438 39.808594 65.796875 39.769531 C 66.136719 39.089844 66.695312 38.332031 69.082031 38.082031 C 69.277344 38.058594 69.460938 38.167969 69.539062 38.347656 C 69.617188 38.527344 69.578125 38.738281 69.433594 38.863281 C 68.554688 39.660156 68.03125 41.035156 68.03125 42.558594 C 68.03125 44.078125 68.554688 45.460938 69.433594 46.25 C 69.578125 46.382812 69.617188 46.585938 69.539062 46.765625 C 69.460938 46.945312 69.277344 47.046875 69.082031 47.03125 C 66.703125 46.773438 66.136719 46.023438 65.796875 45.34375 C 65.773438 45.304688 65.75 45.257812 65.734375 45.21875 C 65.367188 45.25 64 45.984375 63.472656 46.265625 C 61.847656 47.148438 59.984375 47.601562 58.085938 47.601562 Z M 49.828125 42.566406 C 51.589844 45.125 54.730469 46.710938 58.09375 46.710938 C 59.84375 46.710938 61.5625 46.289062 63.058594 45.484375 C 64.996094 44.445312 65.578125 44.226562 66.035156 44.375 C 66.363281 44.476562 66.496094 44.742188 66.601562 44.953125 C 66.757812 45.257812 66.96875 45.679688 68.039062 45.953125 C 67.472656 45.023438 67.148438 43.828125 67.148438 42.574219 C 67.148438 41.308594 67.464844 40.113281 68.039062 39.191406 C 66.96875 39.472656 66.757812 39.894531 66.601562 40.191406 C 66.503906 40.402344 66.371094 40.660156 66.042969 40.769531 C 65.59375 40.917969 65.003906 40.691406 63.035156 39.644531 C 61.546875 38.847656 59.835938 38.433594 58.09375 38.433594 C 54.730469 38.417969 51.589844 39.996094 49.828125 42.566406 Z M 49.828125 42.566406 " fill-opacity="1" fill-rule="nonzero"/></g><path fill="#000000" d="M 52.90625 46.320312 C 52.835938 46.320312 52.757812 46.304688 52.695312 46.265625 C 51.132812 45.421875 49.820312 44.226562 48.910156 42.800781 C 48.816406 42.652344 48.816406 42.464844 48.910156 42.316406 C 49.820312 40.886719 51.132812 39.691406 52.695312 38.847656 C 52.890625 38.746094 53.121094 38.792969 53.253906 38.964844 C 54.03125 39.949219 54.457031 41.222656 54.457031 42.558594 C 54.457031 43.890625 54.03125 45.164062 53.253906 46.148438 C 53.167969 46.257812 53.035156 46.320312 52.90625 46.320312 Z M 49.828125 42.566406 C 50.582031 43.648438 51.589844 44.585938 52.78125 45.289062 C 53.292969 44.515625 53.566406 43.5625 53.566406 42.566406 C 53.566406 41.574219 53.285156 40.621094 52.78125 39.839844 C 51.582031 40.542969 50.574219 41.472656 49.828125 42.566406 Z M 49.828125 42.566406 " fill-opacity="1" fill-rule="nonzero"/><path fill="#000000" d="M 63.246094 39.691406 C 63.175781 39.691406 63.097656 39.675781 63.035156 39.636719 C 61.546875 38.839844 59.835938 38.417969 58.085938 38.417969 C 57.140625 38.417969 56.207031 38.542969 55.304688 38.785156 C 55.105469 38.839844 54.886719 38.746094 54.792969 38.550781 C 54.699219 38.363281 54.746094 38.128906 54.910156 37.996094 C 56.308594 36.863281 60.898438 34.457031 62.9375 35.777344 C 63.875 36.378906 64.125 37.582031 63.675781 39.347656 C 63.644531 39.480469 63.550781 39.589844 63.417969 39.644531 C 63.371094 39.675781 63.308594 39.691406 63.246094 39.691406 Z M 58.085938 37.519531 C 59.773438 37.519531 61.4375 37.886719 62.929688 38.582031 C 63.105469 37.542969 62.953125 36.855469 62.453125 36.535156 C 61.445312 35.878906 59.121094 36.605469 57.300781 37.542969 C 57.566406 37.527344 57.824219 37.519531 58.085938 37.519531 Z M 58.085938 37.519531 " fill-opacity="1" fill-rule="nonzero"/><path fill="#000000" d="M 61.414062 49.726562 C 59.152344 49.726562 56.027344 48.023438 54.917969 47.125 C 54.753906 46.992188 54.699219 46.757812 54.800781 46.570312 C 54.894531 46.382812 55.113281 46.28125 55.3125 46.335938 C 56.214844 46.578125 57.148438 46.703125 58.09375 46.703125 C 59.84375 46.703125 61.554688 46.28125 63.042969 45.484375 C 63.167969 45.421875 63.308594 45.414062 63.433594 45.46875 C 63.558594 45.523438 63.652344 45.632812 63.691406 45.765625 C 64.132812 47.53125 63.882812 48.734375 62.953125 49.335938 C 62.523438 49.617188 61.996094 49.726562 61.414062 49.726562 Z M 57.300781 47.578125 C 59.128906 48.515625 61.445312 49.242188 62.453125 48.585938 C 62.953125 48.265625 63.105469 47.578125 62.929688 46.539062 C 61.4375 47.234375 59.773438 47.601562 58.085938 47.601562 C 57.824219 47.601562 57.566406 47.59375 57.300781 47.578125 Z M 57.300781 47.578125 " fill-opacity="1" fill-rule="nonzero"/><path fill="#000000" d="M 63.378906 41.597656 L 62.578125 41.597656 C 62.328125 41.597656 62.128906 41.394531 62.128906 41.144531 C 62.128906 40.894531 62.328125 40.691406 62.578125 40.691406 L 63.378906 40.691406 C 63.628906 40.691406 63.828125 40.894531 63.828125 41.144531 C 63.828125 41.394531 63.628906 41.597656 63.378906 41.597656 Z M 63.378906 41.597656 " fill-opacity="1" fill-rule="nonzero"/><path fill="#000000" d="M 60 40.542969 L 59.199219 40.542969 C 58.949219 40.542969 58.746094 40.339844 58.746094 40.089844 C 58.746094 39.839844 58.949219 39.636719 59.199219 39.636719 L 60 39.636719 C 60.246094 39.636719 60.449219 39.839844 60.449219 40.089844 C 60.449219 40.339844 60.246094 40.542969 60 40.542969 Z M 60 40.542969 " fill-opacity="1" fill-rule="nonzero"/><path fill="#000000" d="M 56.183594 40.878906 L 55.382812 40.878906 C 55.132812 40.878906 54.933594 40.675781 54.933594 40.425781 C 54.933594 40.175781 55.132812 39.972656 55.382812 39.972656 L 56.183594 39.972656 C 56.433594 39.972656 56.632812 40.175781 56.632812 40.425781 C 56.632812 40.675781 56.433594 40.878906 56.183594 40.878906 Z M 56.183594 40.878906 " fill-opacity="1" fill-rule="nonzero"/><path fill="#000000" d="M 55.765625 45.640625 L 54.964844 45.640625 C 54.714844 45.640625 54.511719 45.4375 54.511719 45.1875 C 54.511719 44.9375 54.714844 44.734375 54.964844 44.734375 L 55.765625 44.734375 C 56.011719 44.734375 56.214844 44.9375 56.214844 45.1875 C 56.214844 45.4375 56.011719 45.640625 55.765625 45.640625 Z M 55.765625 45.640625 " fill-opacity="1" fill-rule="nonzero"/><path fill="#000000" d="M 59.960938 45.304688 L 59.160156 45.304688 C 58.910156 45.304688 58.707031 45.101562 58.707031 44.851562 C 58.707031 44.601562 58.910156 44.398438 59.160156 44.398438 L 59.960938 44.398438 C 60.207031 44.398438 60.410156 44.601562 60.410156 44.851562 C 60.410156 45.101562 60.207031 45.304688 59.960938 45.304688 Z M 59.960938 45.304688 " fill-opacity="1" fill-rule="nonzero"/><path fill="#000000" d="M 63.945312 44.078125 L 63.144531 44.078125 C 62.898438 44.078125 62.695312 43.875 62.695312 43.625 C 62.695312 43.375 62.898438 43.171875 63.144531 43.171875 L 63.945312 43.171875 C 64.195312 43.171875 64.398438 43.375 64.398438 43.625 C 64.398438 43.875 64.1875 44.078125 63.945312 44.078125 Z M 63.945312 44.078125 " fill-opacity="1" fill-rule="nonzero"/><path fill="#000000" d="M 60.457031 42.777344 L 59.65625 42.777344 C 59.410156 42.777344 59.207031 42.574219 59.207031 42.324219 C 59.207031 42.074219 59.410156 41.871094 59.65625 41.871094 L 60.457031 41.871094 C 60.707031 41.871094 60.90625 42.074219 60.90625 42.324219 C 60.90625 42.574219 60.707031 42.777344 60.457031 42.777344 Z M 60.457031 42.777344 " fill-opacity="1" fill-rule="nonzero"/><path fill="#000000" d="M 57.1875 43.070312 L 56.386719 43.070312 C 56.136719 43.070312 55.933594 42.871094 55.933594 42.621094 C 55.933594 42.371094 56.136719 42.167969 56.386719 42.167969 L 57.1875 42.167969 C 57.433594 42.167969 57.636719 42.371094 57.636719 42.621094 C 57.636719 42.871094 57.433594 43.070312 57.1875 43.070312 Z M 57.1875 43.070312 " fill-opacity="1" fill-rule="nonzero"/><path fill="#000000" d="M 65.910156 42.566406 L 65.113281 42.566406 C 64.863281 42.566406 64.660156 42.363281 64.660156 42.113281 C 64.660156 41.863281 64.863281 41.660156 65.113281 41.660156 L 65.910156 41.660156 C 66.160156 41.660156 66.363281 41.863281 66.363281 42.113281 C 66.363281 42.363281 66.160156 42.566406 65.910156 42.566406 Z M 65.910156 42.566406 " fill-opacity="1" fill-rule="nonzero"/><g clip-path="url(#04fc973f3c)"><path fill="#000000" d="M 40.675781 42.253906 C 40.558594 42.253906 40.441406 42.207031 40.355469 42.121094 C 40.136719 41.910156 39.875 41.753906 39.578125 41.667969 C 39.285156 41.589844 38.972656 41.589844 38.675781 41.667969 C 38.523438 41.707031 38.359375 41.660156 38.25 41.550781 C 38.140625 41.433594 38.09375 41.269531 38.132812 41.113281 L 42.695312 23.992188 C 42.914062 23.171875 43.757812 22.679688 44.574219 22.898438 C 44.972656 23.007812 45.304688 23.257812 45.507812 23.617188 C 45.710938 23.976562 45.773438 24.390625 45.664062 24.789062 L 41.101562 41.910156 C 41.0625 42.066406 40.9375 42.183594 40.785156 42.230469 C 40.753906 42.246094 40.714844 42.253906 40.675781 42.253906 Z M 39.175781 40.714844 C 39.390625 40.714844 39.609375 40.746094 39.820312 40.808594 C 40.03125 40.863281 40.230469 40.949219 40.417969 41.050781 L 44.808594 24.570312 C 44.855469 24.40625 44.832031 24.234375 44.746094 24.078125 C 44.660156 23.929688 44.519531 23.820312 44.359375 23.773438 C 44.015625 23.679688 43.65625 23.882812 43.574219 24.234375 Z M 39.175781 40.714844 " fill-opacity="1" fill-rule="nonzero"/></g><g clip-path="url(#b821f70c35)"><path fill="#000000" d="M 37.285156 52.460938 C 37.101562 52.460938 36.914062 52.4375 36.726562 52.382812 C 35.570312 52.070312 34.886719 50.875 35.195312 49.710938 L 36.679688 44.140625 C 36.726562 43.953125 36.890625 43.820312 37.078125 43.804688 C 37.261719 43.789062 37.441406 43.898438 37.519531 44.070312 C 37.738281 44.5625 38.15625 44.929688 38.667969 45.070312 C 39.191406 45.210938 39.734375 45.109375 40.160156 44.789062 C 40.316406 44.679688 40.519531 44.671875 40.683594 44.78125 C 40.835938 44.890625 40.90625 45.085938 40.859375 45.265625 L 39.375 50.835938 C 39.230469 51.398438 38.871094 51.867188 38.367188 52.15625 C 38.03125 52.359375 37.660156 52.460938 37.285156 52.460938 Z M 37.292969 45.304688 L 36.058594 49.953125 C 35.972656 50.28125 36.019531 50.625 36.191406 50.921875 C 36.363281 51.21875 36.632812 51.429688 36.960938 51.515625 C 37.285156 51.601562 37.628906 51.554688 37.921875 51.382812 C 38.21875 51.210938 38.429688 50.9375 38.515625 50.609375 L 39.75 45.960938 C 39.324219 46.0625 38.871094 46.0625 38.4375 45.945312 C 38 45.828125 37.613281 45.609375 37.292969 45.304688 Z M 37.292969 45.304688 " fill-opacity="1" fill-rule="nonzero"/></g><path fill="#000000" d="M 39.128906 46.039062 C 38.902344 46.039062 38.667969 46.007812 38.445312 45.945312 C 37.03125 45.5625 36.191406 44.101562 36.570312 42.683594 C 36.757812 41.996094 37.195312 41.417969 37.808594 41.066406 C 38.421875 40.707031 39.136719 40.613281 39.820312 40.800781 C 40.503906 40.988281 41.078125 41.425781 41.429688 42.042969 C 41.785156 42.660156 41.878906 43.375 41.691406 44.0625 C 41.375 45.257812 40.292969 46.039062 39.128906 46.039062 Z M 39.121094 41.613281 C 38.816406 41.613281 38.515625 41.691406 38.242188 41.847656 C 37.839844 42.082031 37.542969 42.464844 37.425781 42.917969 C 37.179688 43.851562 37.730469 44.820312 38.667969 45.078125 C 39.601562 45.328125 40.566406 44.773438 40.820312 43.828125 C 40.945312 43.375 40.882812 42.902344 40.644531 42.496094 C 40.410156 42.089844 40.03125 41.792969 39.578125 41.675781 C 39.429688 41.636719 39.277344 41.613281 39.121094 41.613281 Z M 39.121094 41.613281 " fill-opacity="1" fill-rule="nonzero"/><path fill="#000000" d="M 44.597656 29.796875 C 44.367188 29.796875 44.132812 29.765625 43.898438 29.703125 C 43.78125 29.671875 43.6875 29.59375 43.628906 29.492188 C 43.566406 29.390625 43.550781 29.265625 43.582031 29.148438 L 44.730469 24.828125 C 44.761719 24.710938 44.839844 24.617188 44.941406 24.554688 C 45.042969 24.492188 45.164062 24.476562 45.28125 24.507812 C 45.972656 24.695312 46.546875 25.140625 46.90625 25.757812 C 47.261719 26.382812 47.355469 27.101562 47.171875 27.796875 C 46.984375 28.492188 46.539062 29.070312 45.925781 29.429688 C 45.515625 29.679688 45.058594 29.796875 44.597656 29.796875 Z M 44.582031 28.898438 C 44.902344 28.898438 45.203125 28.820312 45.484375 28.65625 C 45.894531 28.414062 46.191406 28.03125 46.308594 27.570312 C 46.433594 27.109375 46.371094 26.625 46.128906 26.21875 C 45.964844 25.9375 45.742188 25.710938 45.46875 25.554688 Z M 44.582031 28.898438 " fill-opacity="1" fill-rule="nonzero"/><path fill="#000000" d="M 43.058594 35.535156 C 42.835938 35.535156 42.601562 35.503906 42.367188 35.441406 C 42.128906 35.378906 41.988281 35.128906 42.050781 34.886719 L 43.199219 30.570312 C 43.261719 30.328125 43.511719 30.1875 43.75 30.25 C 44.441406 30.4375 45.019531 30.882812 45.375 31.5 C 45.734375 32.121094 45.824219 32.839844 45.640625 33.535156 C 45.320312 34.746094 44.242188 35.535156 43.058594 35.535156 Z M 43.050781 34.636719 C 43.363281 34.636719 43.671875 34.558594 43.953125 34.394531 C 44.367188 34.152344 44.660156 33.769531 44.785156 33.308594 C 44.910156 32.847656 44.847656 32.363281 44.605469 31.960938 C 44.441406 31.679688 44.21875 31.453125 43.945312 31.296875 Z M 43.050781 34.636719 " fill-opacity="1" fill-rule="nonzero"/><path fill="#000000" d="M 41.527344 41.285156 C 41.304688 41.285156 41.070312 41.253906 40.835938 41.191406 C 40.722656 41.160156 40.628906 41.082031 40.566406 40.980469 C 40.503906 40.878906 40.488281 40.753906 40.519531 40.636719 L 41.667969 36.316406 C 41.699219 36.199219 41.777344 36.105469 41.878906 36.042969 C 41.980469 35.980469 42.105469 35.964844 42.21875 35.996094 C 43.644531 36.378906 44.488281 37.855469 44.109375 39.285156 C 43.789062 40.488281 42.710938 41.285156 41.527344 41.285156 Z M 41.519531 40.386719 C 42.3125 40.394531 43.035156 39.863281 43.246094 39.066406 C 43.371094 38.605469 43.308594 38.121094 43.066406 37.714844 C 42.90625 37.433594 42.679688 37.207031 42.40625 37.050781 Z M 41.519531 40.386719 " fill-opacity="1" fill-rule="nonzero"/><g clip-path="url(#a80a0c7729)"><path fill="#000000" d="M 39.773438 48.09375 C 39.734375 48.09375 39.695312 48.085938 39.65625 48.078125 L 36.332031 47.179688 C 36.089844 47.117188 35.949219 46.867188 36.011719 46.625 C 36.074219 46.382812 36.324219 46.242188 36.5625 46.304688 L 39.890625 47.203125 C 40.128906 47.265625 40.269531 47.515625 40.207031 47.757812 C 40.144531 47.960938 39.96875 48.09375 39.773438 48.09375 Z M 39.773438 48.09375 " fill-opacity="1" fill-rule="nonzero"/></g><g clip-path="url(#5050203171)"><path fill="#000000" d="M 49.285156 43.007812 C 49.121094 43.007812 48.964844 42.917969 48.878906 42.761719 C 48.792969 42.582031 46.796875 38.324219 51.484375 30.804688 C 51.613281 30.59375 51.886719 30.53125 52.097656 30.664062 C 52.304688 30.796875 52.367188 31.070312 52.238281 31.28125 C 49.9375 34.972656 49.363281 37.800781 49.292969 39.511719 C 49.214844 41.355469 49.679688 42.347656 49.679688 42.363281 C 49.789062 42.589844 49.695312 42.855469 49.46875 42.964844 C 49.414062 42.996094 49.355469 43.007812 49.285156 43.007812 Z M 52.875 29.296875 C 52.84375 29.296875 52.820312 29.296875 52.789062 29.289062 C 52.546875 29.242188 52.382812 29.007812 52.429688 28.765625 C 52.625 27.742188 52.773438 25.84375 51.574219 24.640625 C 50.339844 23.40625 47.976562 23.117188 44.550781 23.78125 C 44.3125 23.828125 44.078125 23.671875 44.03125 23.421875 C 43.984375 23.179688 44.140625 22.945312 44.386719 22.898438 C 48.125 22.171875 50.761719 22.546875 52.214844 24 C 53.695312 25.492188 53.542969 27.726562 53.316406 28.929688 C 53.277344 29.148438 53.082031 29.296875 52.875 29.296875 Z M 52.875 29.296875 " fill-opacity="1" fill-rule="nonzero"/></g><path fill="#000000" d="M 52.53125 31.695312 C 51.613281 31.695312 50.867188 30.945312 50.867188 30.023438 C 50.867188 29.101562 51.613281 28.351562 52.53125 28.351562 C 53.449219 28.351562 54.195312 29.101562 54.195312 30.023438 C 54.195312 30.945312 53.449219 31.695312 52.53125 31.695312 Z M 52.53125 29.25 C 52.105469 29.25 51.761719 29.59375 51.761719 30.023438 C 51.761719 30.453125 52.105469 30.796875 52.53125 30.796875 C 52.960938 30.796875 53.300781 30.453125 53.300781 30.023438 C 53.300781 29.59375 52.960938 29.25 52.53125 29.25 Z M 52.53125 29.25 " fill-opacity="1" fill-rule="nonzero"/><path fill="#000000" d="M 43.160156 46.71875 C 42.914062 46.71875 42.710938 46.515625 42.710938 46.265625 L 42.710938 44.804688 L 39.003906 43.804688 C 38.761719 43.742188 38.625 43.492188 38.683594 43.25 C 38.746094 43.007812 38.996094 42.871094 39.238281 42.933594 L 43.269531 44.015625 C 43.464844 44.070312 43.605469 44.25 43.605469 44.453125 L 43.605469 46.265625 C 43.613281 46.515625 43.410156 46.71875 43.160156 46.71875 Z M 43.160156 46.71875 " fill-opacity="1" fill-rule="nonzero"/><path fill="#000000" d="M 52.273438 43.007812 L 51.886719 43.007812 C 51.636719 43.007812 51.4375 42.808594 51.4375 42.558594 C 51.4375 42.308594 51.636719 42.105469 51.886719 42.105469 L 52.273438 42.105469 C 52.523438 42.105469 52.726562 42.308594 52.726562 42.558594 C 52.726562 42.808594 52.523438 43.007812 52.273438 43.007812 Z M 52.273438 43.007812 " fill-opacity="1" fill-rule="nonzero"/></svg>