<svg xmlns="http://www.w3.org/2000/svg" xmlns:xlink="http://www.w3.org/1999/xlink" width="140" zoomAndPan="magnify" viewBox="0 0 104.88 74.999997" height="100" preserveAspectRatio="xMidYMid meet" version="1.0"><defs><clipPath id="14a7e22ffd"><path d="M 0 0.0429688 L 104.761719 0.0429688 L 104.761719 74.957031 L 0 74.957031 Z M 0 0.0429688 " clip-rule="nonzero"/></clipPath><clipPath id="5126028d20"><path d="M 58 46 L 62 46 L 62 48.570312 L 58 48.570312 Z M 58 46 " clip-rule="nonzero"/></clipPath><clipPath id="c73bcf18d4"><path d="M 31.464844 26.097656 L 73.414062 26.097656 L 73.414062 48.570312 L 31.464844 48.570312 Z M 31.464844 26.097656 " clip-rule="nonzero"/></clipPath></defs><g clip-path="url(#14a7e22ffd)"><path fill="#ffffff" d="M 0 0.0429688 L 104.878906 0.0429688 L 104.878906 74.957031 L 0 74.957031 Z M 0 0.0429688 " fill-opacity="1" fill-rule="nonzero"/><path fill="#ffffff" d="M 0 0.0429688 L 104.878906 0.0429688 L 104.878906 74.957031 L 0 74.957031 Z M 0 0.0429688 " fill-opacity="1" fill-rule="nonzero"/></g><path fill="#000000" d="M 56.074219 38.628906 C 56.074219 38.097656 55.621094 37.636719 55.101562 37.636719 C 53.878906 37.636719 52.636719 37.636719 51.414062 37.636719 C 51.144531 37.636719 50.949219 37.652344 50.839844 37.6875 C 50.40625 37.832031 50.121094 38.21875 50.121094 38.679688 C 50.121094 39.671875 50.121094 40.542969 50.121094 41.269531 C 50.136719 41.90625 50.625 42.296875 51.269531 42.296875 C 52.511719 42.296875 53.769531 42.296875 55.011719 42.296875 C 55.460938 42.296875 55.785156 42.121094 55.984375 41.765625 C 56.074219 41.5 56.109375 41.214844 56.074219 40.949219 C 56.074219 40.152344 56.074219 39.390625 56.074219 38.628906 Z M 55.15625 41.214844 C 55.15625 41.285156 55.082031 41.355469 55.011719 41.355469 L 51.234375 41.355469 C 51.128906 41.355469 51.039062 41.269531 51.039062 41.164062 L 51.054688 39.746094 L 51.054688 38.664062 C 51.054688 38.609375 51.074219 38.59375 51.128906 38.574219 C 51.179688 38.558594 51.253906 38.539062 51.34375 38.539062 C 52.277344 38.539062 53.214844 38.539062 54.167969 38.558594 L 55.101562 38.558594 C 55.136719 38.558594 55.171875 38.59375 55.171875 38.628906 Z M 55.15625 41.214844 " fill-opacity="1" fill-rule="nonzero"/><path fill="#000000" d="M 47.117188 38.042969 C 46.828125 37.652344 46.488281 37.617188 45.964844 37.617188 C 45.265625 37.617188 44.546875 37.617188 43.84375 37.617188 C 43.519531 37.617188 43.285156 37.636719 43.144531 37.6875 C 42.835938 37.792969 42.621094 38.023438 42.511719 38.378906 C 42.28125 39.089844 42.0625 39.816406 41.832031 40.523438 C 41.703125 40.894531 41.648438 41.125 41.632812 41.179688 C 41.578125 41.695312 42.027344 42.242188 42.566406 42.242188 C 43.773438 42.242188 44.976562 42.242188 46.199219 42.242188 C 46.683594 42.242188 47.027344 42.03125 47.226562 41.605469 C 47.261719 41.5 47.296875 41.429688 47.296875 41.375 C 47.296875 40.949219 47.316406 40.082031 47.296875 38.824219 C 47.296875 38.539062 47.316406 38.289062 47.117188 38.042969 Z M 46.398438 41.199219 C 46.398438 41.285156 46.324219 41.355469 46.234375 41.355469 L 42.730469 41.355469 C 42.585938 41.355469 42.550781 41.285156 42.585938 41.164062 L 43.015625 39.851562 L 43.429688 38.628906 C 43.449219 38.574219 43.484375 38.558594 43.539062 38.558594 L 46.253906 38.558594 C 46.363281 38.558594 46.414062 38.644531 46.414062 38.824219 C 46.398438 39.601562 46.398438 40.382812 46.398438 41.199219 Z M 46.398438 41.199219 " fill-opacity="1" fill-rule="nonzero"/><g clip-path="url(#5126028d20)"><path fill="#000000" d="M 61.199219 46.515625 C 61.019531 46.355469 60.746094 46.390625 60.585938 46.566406 L 59.613281 47.683594 L 58.84375 48.570312 C 59.039062 48.570312 59.21875 48.570312 59.398438 48.570312 C 59.597656 48.570312 59.777344 48.570312 59.957031 48.570312 L 60.296875 48.179688 L 61.234375 47.117188 C 61.394531 46.921875 61.378906 46.65625 61.199219 46.515625 Z M 61.199219 46.515625 " fill-opacity="1" fill-rule="nonzero"/></g><g clip-path="url(#c73bcf18d4)"><path fill="#000000" d="M 73.085938 26.148438 C 72.996094 26.113281 72.867188 26.097656 72.671875 26.113281 C 66.414062 26.734375 60.191406 27.515625 53.96875 28.453125 C 53.949219 28.453125 53.933594 28.453125 53.933594 28.4375 C 53.410156 27.640625 52.222656 27.550781 51.359375 27.601562 C 50.675781 27.65625 49.976562 27.851562 49.5625 28.4375 C 49.542969 28.453125 49.542969 28.453125 49.527344 28.453125 C 48.015625 28.257812 46.503906 28.0625 45.011719 27.886719 C 40.714844 27.355469 36.417969 26.894531 32.121094 26.523438 C 31.957031 26.503906 31.851562 26.523438 31.777344 26.539062 C 31.507812 26.664062 31.488281 27.089844 31.722656 27.25 C 31.796875 27.285156 31.921875 27.320312 32.101562 27.335938 C 36.5625 27.746094 41.003906 28.222656 45.445312 28.753906 C 46.722656 28.914062 48.105469 29.039062 49.113281 29.109375 C 49.203125 29.109375 49.273438 29.128906 49.3125 29.144531 C 49.3125 29.144531 49.3125 29.144531 49.3125 29.164062 C 49.3125 29.164062 49.3125 29.179688 49.292969 29.179688 C 48.179688 29.179688 47.0625 29.199219 45.949219 29.25 C 41.507812 29.445312 37.066406 29.730469 32.625 30.085938 C 32.441406 30.101562 32.316406 30.121094 32.246094 30.15625 C 31.941406 30.332031 32.101562 30.863281 32.425781 30.917969 C 32.460938 30.917969 32.605469 30.917969 32.875 30.898438 C 38.449219 30.457031 44.023438 30.101562 49.617188 29.855469 C 49.707031 29.855469 49.761719 29.835938 49.832031 29.890625 C 50.121094 30.101562 50.460938 30.226562 50.820312 30.261719 C 50.839844 30.261719 50.839844 30.28125 50.839844 30.296875 L 50.839844 31.394531 C 50.839844 31.414062 50.820312 31.414062 50.804688 31.414062 C 50.15625 31.394531 49.4375 31.378906 48.863281 31.519531 C 48.015625 31.714844 47.351562 32.175781 46.882812 32.886719 C 46.867188 32.921875 46.847656 32.957031 46.828125 32.972656 L 43.664062 32.972656 C 43.304688 32.972656 42.964844 33.167969 42.785156 33.488281 L 41.578125 35.667969 C 41.523438 35.683594 41.488281 35.683594 41.433594 35.703125 C 41.328125 35.738281 41.199219 35.773438 41.09375 35.808594 C 38.738281 36.625 36.617188 38.21875 35.355469 40.382812 C 34.816406 41.304688 34.566406 42.261719 35.429688 43.113281 C 36.003906 43.679688 36.597656 44.121094 37.226562 44.421875 C 38.089844 44.847656 38.988281 45.167969 39.941406 45.363281 C 41.21875 45.628906 42.441406 45.769531 43.628906 45.769531 C 43.375 46.214844 43.070312 46.921875 43.015625 47.683594 L 39.601562 47.683594 L 38.628906 46.566406 C 38.46875 46.390625 38.199219 46.375 38.019531 46.515625 C 37.839844 46.675781 37.820312 46.941406 37.964844 47.117188 L 38.609375 47.863281 L 39.222656 48.570312 C 39.402344 48.570312 39.601562 48.570312 39.78125 48.570312 C 39.960938 48.570312 40.15625 48.570312 40.335938 48.570312 C 45.515625 48.570312 53.769531 48.570312 58.824219 48.570312 L 59.597656 47.683594 L 57.007812 47.683594 C 57.007812 47.683594 56.988281 47.667969 56.988281 47.667969 C 56.917969 46.941406 56.703125 46.25 56.304688 45.628906 C 56.289062 45.609375 56.304688 45.59375 56.324219 45.59375 C 56.558594 45.574219 56.792969 45.539062 57.027344 45.503906 C 58.265625 45.328125 59.292969 44.777344 60.101562 43.875 C 60.496094 43.414062 60.855469 42.792969 61.160156 42.226562 C 61.359375 41.871094 61.558594 41.515625 61.753906 41.164062 C 61.84375 41.003906 61.933594 40.84375 62.007812 40.703125 C 62.042969 40.628906 62.078125 40.578125 62.113281 40.507812 C 62.132812 40.488281 62.152344 40.472656 62.167969 40.472656 L 67.402344 39.851562 C 67.417969 39.851562 67.4375 39.851562 67.4375 39.867188 C 68.085938 40.914062 68.75 41.941406 69.398438 42.988281 C 69.613281 43.34375 69.8125 43.574219 70.171875 43.75 C 71.429688 44.351562 72.832031 43.078125 72.292969 41.78125 C 71.914062 40.878906 71.539062 39.976562 71.160156 39.054688 C 71.140625 39 71.125 38.964844 71.125 38.945312 C 71.125 38.929688 71.125 38.910156 71.125 38.894531 C 71.664062 38.203125 71.574219 37.457031 71.050781 36.800781 C 71.035156 36.785156 71.035156 36.765625 71.035156 36.75 C 71.375 35.332031 71.71875 33.894531 72.042969 32.460938 C 72.148438 32 72.148438 31.625 71.914062 31.253906 C 71.375 30.402344 70.226562 30.28125 69.523438 30.988281 C 69.414062 31.09375 69.273438 31.308594 69.109375 31.625 C 68.335938 33.097656 67.546875 34.570312 66.753906 36.023438 C 66.753906 36.039062 66.734375 36.039062 66.71875 36.039062 L 61.84375 35.613281 L 61.664062 35.597656 L 60.585938 35.492188 L 58.804688 35.3125 L 58.769531 35.3125 L 58.75 35.261719 L 58.210938 34.160156 L 57.78125 33.292969 L 57.242188 32.195312 C 56.882812 32.105469 56.539062 32.035156 56.179688 31.964844 C 55.046875 31.734375 53.878906 31.574219 52.671875 31.484375 C 52.65625 31.484375 52.636719 31.46875 52.636719 31.449219 L 52.636719 30.28125 C 52.636719 30.261719 52.65625 30.242188 52.671875 30.242188 C 53.050781 30.207031 53.410156 30.066406 53.714844 29.855469 C 53.734375 29.855469 53.753906 29.835938 53.769531 29.835938 C 58.589844 30.015625 63.390625 30.296875 68.191406 30.6875 C 68.445312 30.703125 68.605469 30.617188 68.660156 30.402344 C 68.714844 30.207031 68.679688 30.050781 68.535156 29.941406 C 68.460938 29.890625 68.371094 29.871094 68.246094 29.855469 C 64.308594 29.5 60.371094 29.269531 56.433594 29.164062 C 55.570312 29.144531 54.832031 29.128906 54.203125 29.144531 C 54.183594 29.144531 54.183594 29.144531 54.183594 29.144531 C 54.183594 29.128906 54.183594 29.128906 54.203125 29.128906 C 57.421875 28.773438 60.855469 28.292969 63.515625 27.957031 C 66.484375 27.585938 69.578125 27.230469 72.832031 26.910156 C 72.976562 26.894531 73.066406 26.875 73.136719 26.839844 C 73.390625 26.699219 73.335938 26.257812 73.085938 26.148438 Z M 43.394531 34.355469 L 43.429688 34.285156 C 43.519531 34.125 43.683594 34.019531 43.878906 34.019531 L 46.957031 34.019531 C 47.207031 34.019531 47.441406 33.878906 47.566406 33.648438 C 47.585938 33.628906 47.585938 33.59375 47.601562 33.578125 C 47.730469 33.347656 47.871094 33.152344 48.050781 32.992188 C 48.519531 32.566406 49.148438 32.335938 49.796875 32.351562 C 50.28125 32.351562 50.769531 32.351562 51.253906 32.351562 C 51.253906 32.351562 51.253906 32.351562 51.269531 32.351562 C 51.289062 32.351562 51.308594 32.371094 51.289062 32.390625 C 51.109375 32.902344 50.929688 33.417969 50.75 33.914062 C 50.625 34.265625 50.550781 34.640625 50.535156 35.03125 C 49.671875 35.046875 48.753906 35.066406 47.835938 35.101562 L 47.820312 35.101562 L 44.597656 35.277344 L 43.359375 35.347656 L 42.855469 35.382812 Z M 36.921875 39.726562 C 37.910156 38.558594 39.113281 37.652344 40.554688 37.03125 C 40.570312 37.03125 40.570312 37.03125 40.570312 37.050781 L 40.554688 37.546875 C 40.554688 37.652344 40.554688 37.722656 40.554688 37.757812 C 40.464844 38.945312 40.195312 40.082031 39.746094 41.179688 C 39.726562 41.214844 39.707031 41.234375 39.671875 41.234375 L 35.96875 41.234375 C 35.96875 41.234375 35.949219 41.214844 35.96875 41.214844 C 36.21875 40.683594 36.523438 40.1875 36.921875 39.726562 Z M 38.070312 43.804688 C 37.316406 43.464844 36.328125 42.898438 35.878906 42.171875 C 35.804688 42.101562 35.769531 42.011719 35.789062 41.90625 C 35.789062 41.890625 35.804688 41.890625 35.824219 41.890625 L 39.402344 41.890625 C 39.402344 41.890625 39.421875 41.890625 39.421875 41.890625 C 39.4375 41.90625 39.4375 41.925781 39.4375 41.941406 C 39.078125 42.617188 38.648438 43.21875 38.144531 43.804688 C 38.125 43.804688 38.089844 43.804688 38.070312 43.804688 Z M 45.335938 47.667969 L 43.878906 47.667969 C 43.96875 46.726562 44.5625 45.859375 44.617188 45.769531 C 44.617188 45.769531 44.636719 45.789062 44.652344 45.804688 C 45.050781 46.320312 45.355469 47.011719 45.371094 47.648438 C 45.355469 47.667969 45.335938 47.667969 45.335938 47.667969 Z M 53.699219 47.667969 L 46.308594 47.667969 C 46.289062 47.667969 46.289062 47.648438 46.273438 47.648438 C 46.21875 46.976562 46.019531 46.355469 45.679688 45.789062 C 45.679688 45.769531 45.679688 45.769531 45.695312 45.769531 C 48.574219 45.769531 51.433594 45.769531 54.308594 45.769531 C 54.078125 46.195312 53.769531 46.90625 53.699219 47.667969 Z M 56.199219 47.667969 L 54.5625 47.667969 C 54.652344 46.675781 55.300781 45.769531 55.316406 45.769531 L 55.261719 45.734375 C 55.316406 45.734375 55.371094 45.71875 55.441406 45.71875 C 55.460938 45.71875 55.480469 45.71875 55.480469 45.734375 C 55.910156 46.285156 56.179688 46.957031 56.234375 47.648438 C 56.234375 47.667969 56.214844 47.667969 56.199219 47.667969 Z M 71.394531 42.101562 C 71.519531 42.421875 71.449219 42.667969 71.160156 42.863281 C 70.800781 43.09375 70.476562 42.917969 70.261719 42.582031 C 69.578125 41.515625 68.914062 40.4375 68.246094 39.371094 C 68.246094 39.371094 68.246094 39.371094 68.246094 39.355469 C 68.246094 39.335938 68.246094 39.335938 68.265625 39.320312 L 70.117188 39.089844 C 70.152344 39.089844 70.171875 39.105469 70.1875 39.125 C 70.601562 40.117188 71 41.109375 71.394531 42.101562 Z M 67.5625 36.5 C 67.921875 35.792969 68.320312 35.101562 68.679688 34.390625 C 68.804688 34.144531 68.964844 33.894531 69.074219 33.683594 C 69.378906 33.117188 69.683594 32.53125 69.992188 31.964844 C 70.136719 31.679688 70.261719 31.539062 70.566406 31.503906 C 70.890625 31.46875 71.160156 31.679688 71.179688 32.015625 C 71.179688 32.195312 71.105469 32.441406 71.050781 32.636719 C 70.726562 34 70.421875 35.347656 70.097656 36.714844 C 70.097656 36.730469 70.0625 36.75 70.046875 36.75 L 67.582031 36.535156 C 67.582031 36.535156 67.582031 36.535156 67.5625 36.535156 C 67.5625 36.519531 67.5625 36.5 67.5625 36.5 Z M 61.574219 36.554688 C 65.980469 36.945312 68.730469 37.191406 69.828125 37.28125 C 70.171875 37.316406 70.386719 37.476562 70.496094 37.8125 C 70.53125 38.042969 70.476562 38.21875 70.296875 38.378906 C 70.207031 38.46875 70.136719 38.558594 69.972656 38.59375 C 67.382812 38.910156 64.777344 39.230469 62.1875 39.550781 C 62.222656 38.699219 62.078125 37.777344 61.683594 36.960938 C 61.648438 36.835938 61.59375 36.730469 61.558594 36.625 C 61.558594 36.570312 61.558594 36.554688 61.574219 36.554688 Z M 57.890625 36.339844 L 59.433594 36.449219 C 59.777344 36.464844 60.101562 36.5 60.441406 36.519531 C 61.179688 37.441406 61.429688 38.734375 61.304688 39.796875 C 61.269531 39.957031 61.214844 40.117188 61.125 40.292969 C 60.890625 40.789062 60.621094 41.269531 60.335938 41.730469 L 59.921875 42.421875 C 59.742188 42.738281 59.5625 43.023438 59.34375 43.269531 C 58.96875 43.695312 58.535156 44.015625 58.03125 44.230469 C 57.800781 44.335938 57.476562 44.421875 57.0625 44.511719 C 56.359375 44.652344 55.640625 44.742188 54.921875 44.796875 C 54.6875 44.8125 54.347656 44.8125 53.914062 44.8125 C 50.730469 44.8125 47.546875 44.8125 44.367188 44.832031 C 43.898438 44.832031 43.554688 44.832031 43.359375 44.832031 C 41.902344 44.777344 40.464844 44.566406 39.023438 44.15625 C 38.972656 44.140625 38.972656 44.105469 38.988281 44.070312 L 39.527344 43.378906 L 40.140625 42.386719 C 41.039062 40.59375 41.46875 38.714844 41.453125 36.714844 C 41.453125 36.695312 41.453125 36.695312 41.46875 36.679688 C 41.507812 36.679688 41.523438 36.660156 41.558594 36.660156 C 41.777344 36.605469 41.992188 36.554688 42.207031 36.5 C 42.40625 36.449219 42.601562 36.414062 42.820312 36.375 C 43.628906 36.269531 44.472656 36.183594 45.320312 36.109375 C 45.320312 36.109375 45.335938 36.109375 45.335938 36.109375 C 45.550781 36.09375 45.769531 36.074219 46.003906 36.058594 C 46.054688 36.058594 46.109375 36.058594 46.144531 36.058594 C 47.007812 36.023438 48.285156 35.96875 48.484375 36.023438 C 49.238281 36.023438 49.996094 36.023438 50.730469 36.023438 C 50.929688 36.023438 51.128906 36.039062 51.34375 36.058594 C 53.035156 36.09375 54.722656 36.144531 56.414062 36.234375 C 56.71875 36.253906 57.0625 36.269531 57.421875 36.304688 C 57.566406 36.324219 57.726562 36.324219 57.890625 36.339844 Z M 56.703125 33.042969 L 57.761719 35.207031 C 56.574219 35.136719 55.03125 35.066406 53.355469 35.03125 C 52.65625 35.011719 51.863281 35.011719 51.054688 35.011719 C 51.074219 34.585938 51.164062 34.230469 51.324219 33.808594 C 51.539062 33.257812 51.667969 32.867188 51.847656 32.40625 C 51.847656 32.390625 51.882812 32.371094 51.902344 32.371094 C 53.519531 32.476562 55.121094 32.691406 56.703125 33.042969 Z M 56.703125 33.042969 " fill-opacity="1" fill-rule="nonzero"/></g></svg>