<svg xmlns="http://www.w3.org/2000/svg" xmlns:xlink="http://www.w3.org/1999/xlink" width="140" zoomAndPan="magnify" viewBox="0 0 104.88 74.999997" height="100" preserveAspectRatio="xMidYMid meet" version="1.0"><defs><clipPath id="10c7ba4434"><path d="M 0 0.0429688 L 104.761719 0.0429688 L 104.761719 74.957031 L 0 74.957031 Z M 0 0.0429688 " clip-rule="nonzero"/></clipPath><clipPath id="0b5e72868d"><path d="M 37.695312 22.515625 L 66.910156 22.515625 L 66.910156 52.484375 L 37.695312 52.484375 Z M 37.695312 22.515625 " clip-rule="nonzero"/></clipPath><clipPath id="c4118b979b"><path d="M 53 40 L 58 40 L 58 52.484375 L 53 52.484375 Z M 53 40 " clip-rule="nonzero"/></clipPath><clipPath id="2d7f915996"><path d="M 59 32 L 65 32 L 65 52.484375 L 59 52.484375 Z M 59 32 " clip-rule="nonzero"/></clipPath></defs><g clip-path="url(#10c7ba4434)"><path fill="#ffffff" d="M 0 0.0429688 L 104.878906 0.0429688 L 104.878906 74.957031 L 0 74.957031 Z M 0 0.0429688 " fill-opacity="1" fill-rule="nonzero"/><path fill="#ffffff" d="M 0 0.0429688 L 104.878906 0.0429688 L 104.878906 74.957031 L 0 74.957031 Z M 0 0.0429688 " fill-opacity="1" fill-rule="nonzero"/></g><g clip-path="url(#0b5e72868d)"><path stroke-linecap="round" transform="matrix(0.0392696, 0, 0, 0.0396314, 37.694369, 22.51931)" fill="none" stroke-linejoin="round" d="M 376.528042 731.846389 C 375.035952 732.043517 373.543862 732.043517 371.9523 732.043517 C 173.205932 732.043517 11.960756 570.792127 11.960756 371.987693 C 11.960756 173.183258 173.205932 12.030432 371.9523 12.030432 C 570.798141 12.030432 732.043317 173.183258 732.043317 371.987693 C 732.043317 410.72351 725.876012 448.079425 714.436657 483.069794 " stroke="#000000" stroke-width="24" stroke-opacity="1" stroke-miterlimit="10"/></g><g clip-path="url(#c4118b979b)"><path stroke-linecap="round" transform="matrix(0.0392696, 0, 0, 0.0396314, 37.694369, 22.51931)" fill="none" stroke-linejoin="round" d="M 480.874859 463.554038 L 490.523707 707.993799 C 491.418961 727.706683 475.702281 743.969812 456.006695 743.969812 C 436.808472 743.969812 421.39021 728.495198 421.39021 709.57083 C 421.39021 708.979443 421.39021 708.486621 421.39021 707.993799 L 431.138531 463.554038 " stroke="#000000" stroke-width="24" stroke-opacity="1" stroke-miterlimit="10"/></g><path stroke-linecap="round" transform="matrix(0.0392696, 0, 0, 0.0396314, 37.694369, 22.51931)" fill="none" stroke-linejoin="round" d="M 383.988491 263.961089 L 383.988491 396.037411 C 383.988491 415.947424 392.045777 433.886148 405.076695 446.896652 C 412.437671 454.190419 421.191265 460.005719 431.138531 463.554038 " stroke="#000000" stroke-width="24" stroke-opacity="1" stroke-miterlimit="10"/><path stroke-linecap="round" transform="matrix(0.0392696, 0, 0, 0.0396314, 37.694369, 22.51931)" fill="none" stroke-linejoin="round" d="M 528.024898 263.961089 L 528.024898 396.037411 C 528.024898 426.986639 508.329312 453.500468 480.874859 463.554038 " stroke="#000000" stroke-width="24" stroke-opacity="1" stroke-miterlimit="10"/><path stroke-linecap="round" transform="matrix(0.0392696, 0, 0, 0.0396314, 37.694369, 22.51931)" fill="none" stroke-linejoin="round" d="M 432.033785 263.961089 L 432.033785 396.037411 " stroke="#000000" stroke-width="24" stroke-opacity="1" stroke-miterlimit="10"/><path stroke-linecap="round" transform="matrix(0.0392696, 0, 0, 0.0396314, 37.694369, 22.51931)" fill="none" stroke-linejoin="round" d="M 479.979605 263.961089 L 479.979605 396.037411 " stroke="#000000" stroke-width="24" stroke-opacity="1" stroke-miterlimit="10"/><g clip-path="url(#2d7f915996)"><path stroke-linecap="round" transform="matrix(0.0392696, 0, 0, 0.0396314, 37.694369, 22.51931)" fill="none" stroke-linejoin="round" d="M 602.032555 536.688838 L 573.284957 529.5922 C 567.41607 528.113733 563.536637 522.69269 564.034 516.778825 L 582.038551 321.128452 C 585.221676 286.236648 611.880348 257.948659 646.79525 252.133358 C 654.156227 250.950585 660.820895 256.470193 661.01984 263.76396 L 671.961832 708.486621 C 672.459196 727.903812 656.643043 743.969812 636.947457 743.969812 C 616.754508 743.969812 600.639938 727.213861 601.833609 707.303848 L 611.283512 549.107955 C 611.681402 543.292654 607.801969 538.06874 602.032555 536.688838 Z M 602.032555 536.688838 " stroke="#000000" stroke-width="24" stroke-opacity="1" stroke-miterlimit="10"/></g><path stroke-linecap="round" transform="matrix(0.0392696, 0, 0, 0.0396314, 37.694369, 22.51931)" fill="none" stroke-linejoin="round" d="M 377.622241 599.868631 C 375.732261 599.967195 373.941753 599.967195 371.9523 599.967195 C 246.119389 599.967195 143.960971 497.854456 143.960971 371.987693 C 143.960971 246.120929 246.119389 144.00819 371.9523 144.00819 C 437.504781 144.00819 496.591539 171.704792 538.071637 215.960216 " stroke="#000000" stroke-width="24" stroke-opacity="1" stroke-miterlimit="10"/></svg>