<svg xmlns="http://www.w3.org/2000/svg" xmlns:xlink="http://www.w3.org/1999/xlink" width="140" zoomAndPan="magnify" viewBox="0 0 104.88 74.999997" height="100" preserveAspectRatio="xMidYMid meet" version="1.0"><defs><clipPath id="b17cb640d1"><path d="M 0 0.0429688 L 104.761719 0.0429688 L 104.761719 74.957031 L 0 74.957031 Z M 0 0.0429688 " clip-rule="nonzero"/></clipPath><clipPath id="8119c4100e"><path d="M 38.375 38 L 62 38 L 62 52.484375 L 38.375 52.484375 Z M 38.375 38 " clip-rule="nonzero"/></clipPath><clipPath id="bc6c0376cd"><path d="M 61 22.515625 L 66.84375 22.515625 L 66.84375 31 L 61 31 Z M 61 22.515625 " clip-rule="nonzero"/></clipPath></defs><g clip-path="url(#b17cb640d1)"><path fill="#ffffff" d="M 0 0.0429688 L 104.878906 0.0429688 L 104.878906 74.957031 L 0 74.957031 Z M 0 0.0429688 " fill-opacity="1" fill-rule="nonzero"/><path fill="#ffffff" d="M 0 0.0429688 L 104.878906 0.0429688 L 104.878906 74.957031 L 0 74.957031 Z M 0 0.0429688 " fill-opacity="1" fill-rule="nonzero"/></g><g clip-path="url(#8119c4100e)"><path fill="#000000" d="M 49.878906 52.445312 C 46.839844 52.445312 43.980469 51.730469 41.820312 50.429688 C 39.59375 49.09375 38.375 47.292969 38.375 45.367188 C 38.375 43.050781 40.214844 40.871094 43.292969 39.558594 C 43.414062 39.503906 43.550781 39.519531 43.667969 39.59375 C 43.777344 39.667969 43.84375 39.789062 43.84375 39.914062 L 43.84375 43.171875 C 44 43.136719 44.164062 43.109375 44.328125 43.089844 L 44.328125 39.445312 C 44.328125 39.277344 44.4375 39.128906 44.601562 39.074219 C 46.21875 38.5625 48.046875 38.292969 49.878906 38.292969 C 50.289062 38.292969 50.707031 38.304688 51.121094 38.332031 C 51.246094 38.339844 51.355469 38.398438 51.421875 38.5 C 51.488281 38.601562 51.511719 38.722656 51.46875 38.835938 C 51.449219 38.90625 51.429688 38.980469 51.410156 39.046875 C 51.203125 39.835938 51.257812 40.46875 51.570312 40.933594 C 51.863281 41.371094 52.390625 41.65625 53.125 41.769531 C 54.933594 42.046875 56.617188 41.628906 57.867188 40.582031 C 58.003906 40.46875 58.195312 40.460938 58.335938 40.554688 C 60.300781 41.863281 61.386719 43.566406 61.386719 45.367188 C 61.386719 47.292969 60.164062 49.09375 57.941406 50.429688 C 55.78125 51.730469 52.914062 52.445312 49.878906 52.445312 Z M 43.054688 40.523438 C 40.605469 41.722656 39.160156 43.5 39.160156 45.367188 C 39.160156 47.011719 40.25 48.574219 42.226562 49.761719 C 44.261719 50.996094 46.980469 51.667969 49.878906 51.667969 C 52.777344 51.667969 55.492188 50.996094 57.53125 49.769531 C 59.511719 48.574219 60.601562 47.019531 60.601562 45.375 C 60.601562 43.917969 59.730469 42.503906 58.140625 41.371094 C 56.742188 42.421875 54.933594 42.839844 53.011719 42.542969 C 52.054688 42.394531 51.332031 41.992188 50.917969 41.371094 C 50.523438 40.777344 50.414062 39.988281 50.597656 39.09375 C 50.359375 39.085938 50.121094 39.082031 49.878906 39.082031 C 48.230469 39.082031 46.585938 39.308594 45.113281 39.742188 L 45.113281 43.445312 C 45.113281 43.648438 44.957031 43.816406 44.75 43.832031 C 44.328125 43.863281 43.925781 43.9375 43.566406 44.046875 C 43.449219 44.082031 43.320312 44.058594 43.21875 43.984375 C 43.113281 43.910156 43.058594 43.796875 43.058594 43.675781 L 43.058594 40.523438 Z M 44.71875 43.441406 Z M 44.71875 43.441406 " fill-opacity="1" fill-rule="nonzero"/></g><path fill="#000000" d="M 45.289062 47.207031 C 43.074219 47.207031 41.394531 46.3125 41.394531 45.117188 C 41.394531 43.925781 43.066406 43.027344 45.289062 43.027344 C 47.515625 43.027344 49.183594 43.925781 49.183594 45.117188 C 49.183594 46.304688 47.515625 47.207031 45.289062 47.207031 Z M 45.289062 43.804688 C 43.511719 43.804688 42.1875 44.5 42.1875 45.117188 C 42.1875 45.738281 43.515625 46.433594 45.289062 46.433594 C 47.070312 46.433594 48.394531 45.738281 48.394531 45.117188 C 48.394531 44.5 47.070312 43.804688 45.289062 43.804688 Z M 45.289062 43.804688 " fill-opacity="1" fill-rule="nonzero"/><path fill="#000000" d="M 56.320312 47.160156 C 55.179688 47.160156 54.253906 46.242188 54.253906 45.117188 C 54.253906 43.992188 55.179688 43.078125 56.320312 43.078125 C 57.457031 43.078125 58.386719 43.992188 58.386719 45.117188 C 58.386719 46.242188 57.457031 47.160156 56.320312 47.160156 Z M 56.320312 43.851562 C 55.617188 43.851562 55.035156 44.417969 55.035156 45.117188 C 55.035156 45.820312 55.609375 46.386719 56.320312 46.386719 C 57.027344 46.386719 57.601562 45.820312 57.601562 45.117188 C 57.601562 44.417969 57.019531 43.851562 56.320312 43.851562 Z M 56.320312 43.851562 " fill-opacity="1" fill-rule="nonzero"/><path fill="#000000" d="M 43.449219 44.058594 C 43.367188 44.058594 43.285156 44.035156 43.21875 43.984375 C 43.113281 43.910156 43.058594 43.796875 43.058594 43.675781 L 43.058594 30.402344 C 43.058594 30.253906 43.140625 30.117188 43.277344 30.058594 C 43.40625 29.988281 43.570312 30.003906 43.6875 30.089844 C 43.804688 30.179688 43.945312 30.21875 44.089844 30.21875 C 44.234375 30.21875 44.375 30.171875 44.492188 30.089844 C 44.617188 30.003906 44.773438 29.988281 44.902344 30.058594 C 45.03125 30.125 45.121094 30.257812 45.121094 30.402344 L 45.121094 43.445312 C 45.121094 43.648438 44.964844 43.816406 44.757812 43.832031 C 44.335938 43.863281 43.933594 43.9375 43.570312 44.046875 C 43.523438 44.054688 43.484375 44.058594 43.449219 44.058594 Z M 43.835938 30.964844 L 43.835938 43.171875 C 43.996094 43.136719 44.160156 43.109375 44.320312 43.089844 L 44.320312 30.964844 C 44.164062 30.992188 43.996094 30.992188 43.835938 30.964844 Z M 43.835938 30.964844 " fill-opacity="1" fill-rule="nonzero"/><path fill="#000000" d="M 44.082031 30.988281 C 43.273438 30.988281 42.617188 30.332031 42.617188 29.539062 C 42.617188 28.742188 43.277344 28.089844 44.082031 28.089844 C 44.886719 28.089844 45.550781 28.742188 45.550781 29.539062 C 45.550781 30.332031 44.886719 30.988281 44.082031 30.988281 Z M 44.082031 28.855469 C 43.707031 28.855469 43.402344 29.160156 43.402344 29.53125 C 43.402344 29.902344 43.707031 30.207031 44.082031 30.207031 C 44.457031 30.207031 44.765625 29.902344 44.765625 29.53125 C 44.765625 29.160156 44.457031 28.855469 44.082031 28.855469 Z M 44.082031 28.855469 " fill-opacity="1" fill-rule="nonzero"/><path fill="#000000" d="M 45.113281 36.753906 C 44.859375 36.753906 44.703125 36.742188 44.675781 36.742188 C 44.472656 36.722656 44.320312 36.554688 44.320312 36.359375 L 44.320312 31.382812 C 44.320312 31.167969 44.5 30.992188 44.71875 30.992188 C 44.730469 30.992188 44.75 30.992188 44.765625 30.992188 C 44.839844 30.992188 45.140625 31 45.789062 31 C 46.382812 31 47.226562 31.128906 47.867188 31.714844 C 48.238281 32.050781 48.488281 32.347656 48.695312 32.589844 C 49.21875 33.210938 49.457031 33.488281 51.136719 33.65625 C 51.285156 33.667969 51.414062 33.769531 51.46875 33.917969 C 51.523438 34.066406 51.484375 34.222656 51.367188 34.324219 C 49.019531 36.527344 46.191406 36.753906 45.113281 36.753906 Z M 45.105469 31.773438 L 45.105469 35.972656 C 45.957031 35.96875 48.183594 35.796875 50.167969 34.308594 C 48.988281 34.09375 48.625 33.722656 48.085938 33.089844 C 47.890625 32.855469 47.664062 32.589844 47.328125 32.289062 C 46.871094 31.871094 46.238281 31.78125 45.78125 31.78125 C 45.578125 31.78125 45.316406 31.78125 45.105469 31.773438 Z M 45.105469 31.382812 Z M 44.777344 31 C 44.964844 31.027344 45.105469 31.1875 45.105469 31.382812 C 45.105469 31.167969 44.941406 31.019531 44.777344 31 Z M 44.777344 31 " fill-opacity="1" fill-rule="nonzero"/><path fill="#000000" d="M 59.859375 38.378906 C 59.789062 38.378906 59.722656 38.359375 59.667969 38.332031 L 58.582031 37.734375 C 58.40625 37.632812 58.335938 37.421875 58.417969 37.242188 L 62.117188 28.890625 C 62.15625 28.796875 62.238281 28.722656 62.335938 28.683594 C 62.429688 28.640625 62.539062 28.648438 62.632812 28.6875 L 63.765625 29.179688 C 63.964844 29.269531 64.054688 29.496094 63.972656 29.691406 L 60.226562 38.144531 C 60.179688 38.246094 60.097656 38.320312 59.988281 38.359375 C 59.941406 38.371094 59.898438 38.378906 59.859375 38.378906 Z M 59.277344 37.21875 L 59.675781 37.441406 L 63.089844 29.738281 L 62.683594 29.566406 Z M 59.277344 37.21875 " fill-opacity="1" fill-rule="nonzero"/><g clip-path="url(#bc6c0376cd)"><path fill="#000000" d="M 64.027344 30.109375 C 63.972656 30.109375 63.917969 30.097656 63.867188 30.078125 L 61.890625 29.222656 C 61.796875 29.179688 61.71875 29.101562 61.679688 29.003906 C 61.636719 28.910156 61.644531 28.804688 61.6875 28.710938 L 64.027344 23.425781 C 64.183594 23.070312 64.46875 22.800781 64.835938 22.65625 C 65.207031 22.515625 65.609375 22.523438 65.960938 22.679688 C 66.324219 22.832031 66.597656 23.117188 66.738281 23.480469 C 66.882812 23.84375 66.875 24.242188 66.71875 24.589844 L 64.378906 29.875 C 64.324219 30.023438 64.183594 30.109375 64.027344 30.109375 Z M 62.566406 28.660156 L 63.828125 29.207031 L 66.011719 24.28125 C 66.085938 24.113281 66.085938 23.929688 66.015625 23.761719 C 65.949219 23.59375 65.820312 23.460938 65.65625 23.386719 C 65.484375 23.3125 65.300781 23.3125 65.128906 23.378906 C 64.960938 23.445312 64.824219 23.574219 64.75 23.734375 Z M 62.566406 28.660156 " fill-opacity="1" fill-rule="nonzero"/></g><path fill="#000000" d="M 54.191406 42.632812 C 53.800781 42.632812 53.40625 42.597656 52.996094 42.539062 C 52.042969 42.390625 51.320312 41.984375 50.902344 41.363281 C 50.472656 40.71875 50.378906 39.855469 50.636719 38.859375 C 50.902344 37.828125 51.449219 37.121094 52.179688 36.863281 C 52.65625 36.703125 53.433594 36.660156 54.441406 37.414062 C 54.628906 37.550781 54.8125 37.699219 54.996094 37.839844 C 55.464844 38.203125 55.957031 38.582031 56.320312 38.777344 C 56.777344 39.019531 57.191406 38.871094 57.492188 38.371094 L 58.25 37.09375 C 58.359375 36.910156 58.597656 36.84375 58.78125 36.949219 L 60.144531 37.710938 C 60.300781 37.800781 60.382812 37.988281 60.328125 38.164062 C 59.488281 40.933594 57.097656 42.632812 54.191406 42.632812 Z M 52.777344 37.542969 C 52.671875 37.542969 52.554688 37.558594 52.445312 37.597656 C 51.980469 37.757812 51.605469 38.285156 51.410156 39.046875 C 51.203125 39.835938 51.257812 40.46875 51.570312 40.933594 C 51.863281 41.371094 52.390625 41.65625 53.125 41.769531 C 56.039062 42.21875 58.554688 40.796875 59.484375 38.222656 L 58.734375 37.804688 L 58.171875 38.757812 C 57.664062 39.621094 56.796875 39.894531 55.957031 39.457031 C 55.535156 39.234375 55.015625 38.835938 54.519531 38.445312 C 54.339844 38.304688 54.148438 38.164062 53.980469 38.027344 C 53.652344 37.800781 53.214844 37.542969 52.777344 37.542969 Z M 52.777344 37.542969 " fill-opacity="1" fill-rule="nonzero"/></svg>