<svg xmlns="http://www.w3.org/2000/svg" xmlns:xlink="http://www.w3.org/1999/xlink" width="140" zoomAndPan="magnify" viewBox="0 0 104.88 74.999997" height="100" preserveAspectRatio="xMidYMid meet" version="1.0"><defs><clipPath id="56d8d673d6"><path d="M 0 0.0429688 L 104.761719 0.0429688 L 104.761719 74.957031 L 0 74.957031 Z M 0 0.0429688 " clip-rule="nonzero"/></clipPath><clipPath id="ac02a8fe80"><path d="M 55 51 L 57 51 L 57 52.484375 L 55 52.484375 Z M 55 51 " clip-rule="nonzero"/></clipPath><clipPath id="9f13633ea4"><path d="M 45 51 L 55 51 L 55 52.484375 L 45 52.484375 Z M 45 51 " clip-rule="nonzero"/></clipPath><clipPath id="b9ecb7776d"><path d="M 58 51 L 63 51 L 63 52.484375 L 58 52.484375 Z M 58 51 " clip-rule="nonzero"/></clipPath><clipPath id="ca6e01c44a"><path d="M 61 45 L 66.054688 45 L 66.054688 52.484375 L 61 52.484375 Z M 61 45 " clip-rule="nonzero"/></clipPath><clipPath id="7f8079ab78"><path d="M 41 48 L 47 48 L 47 52.484375 L 41 52.484375 Z M 41 48 " clip-rule="nonzero"/></clipPath><clipPath id="5b06532ece"><path d="M 47 22.515625 L 61 22.515625 L 61 30 L 47 30 Z M 47 22.515625 " clip-rule="nonzero"/></clipPath><clipPath id="79152f3bc2"><path d="M 39.085938 38 L 49 38 L 49 49 L 39.085938 49 Z M 39.085938 38 " clip-rule="nonzero"/></clipPath></defs><g clip-path="url(#56d8d673d6)"><path fill="#ffffff" d="M 0 0.0429688 L 104.878906 0.0429688 L 104.878906 74.957031 L 0 74.957031 Z M 0 0.0429688 " fill-opacity="1" fill-rule="nonzero"/><path fill="#ffffff" d="M 0 0.0429688 L 104.878906 0.0429688 L 104.878906 74.957031 L 0 74.957031 Z M 0 0.0429688 " fill-opacity="1" fill-rule="nonzero"/></g><path fill="#000000" d="M 49.394531 42.464844 C 49.230469 42.464844 49.136719 42.382812 49.121094 42.222656 C 49.105469 42.058594 49.175781 41.960938 49.339844 41.929688 C 49.746094 41.84375 50.15625 41.800781 50.570312 41.800781 L 51.15625 41.800781 C 51.234375 41.800781 51.296875 41.824219 51.351562 41.878906 C 51.40625 41.933594 51.433594 41.996094 51.433594 42.070312 C 51.433594 42.144531 51.40625 42.210938 51.351562 42.261719 C 51.296875 42.316406 51.234375 42.34375 51.15625 42.34375 L 50.570312 42.34375 C 50.195312 42.34375 49.820312 42.382812 49.449219 42.460938 C 49.433594 42.464844 49.414062 42.464844 49.394531 42.464844 Z M 49.394531 42.464844 " fill-opacity="1" fill-rule="nonzero"/><path fill="#000000" d="M 61.949219 44.574219 C 61.859375 44.574219 61.785156 44.539062 61.730469 44.464844 C 61.21875 43.796875 60.585938 43.277344 59.828125 42.90625 C 59.070312 42.53125 58.269531 42.34375 57.421875 42.34375 L 56.839844 42.34375 C 56.765625 42.34375 56.699219 42.316406 56.648438 42.261719 C 56.59375 42.210938 56.566406 42.144531 56.566406 42.070312 C 56.566406 41.996094 56.59375 41.933594 56.648438 41.878906 C 56.699219 41.824219 56.765625 41.800781 56.839844 41.800781 L 57.421875 41.800781 C 58.355469 41.800781 59.238281 42.007812 60.074219 42.417969 C 60.90625 42.828125 61.605469 43.402344 62.171875 44.136719 C 62.238281 44.226562 62.246094 44.324219 62.195312 44.421875 C 62.148438 44.523438 62.066406 44.574219 61.949219 44.574219 Z M 61.949219 44.574219 " fill-opacity="1" fill-rule="nonzero"/><path fill="#000000" d="M 53.316406 44.574219 C 53.238281 44.574219 53.171875 44.546875 53.117188 44.488281 L 50.960938 42.257812 C 50.898438 42.195312 50.875 42.121094 50.886719 42.03125 L 51.167969 39.863281 C 51.175781 39.789062 51.210938 39.726562 51.269531 39.679688 C 51.332031 39.632812 51.398438 39.617188 51.472656 39.625 C 51.550781 39.632812 51.609375 39.667969 51.65625 39.730469 C 51.703125 39.789062 51.722656 39.855469 51.710938 39.929688 L 51.449219 41.980469 L 53.515625 44.113281 C 53.597656 44.199219 53.617188 44.300781 53.566406 44.410156 C 53.519531 44.519531 53.4375 44.574219 53.316406 44.574219 Z M 53.316406 44.574219 " fill-opacity="1" fill-rule="nonzero"/><path fill="#000000" d="M 54.683594 44.574219 C 54.5625 44.574219 54.480469 44.519531 54.429688 44.410156 C 54.382812 44.300781 54.402344 44.199219 54.484375 44.113281 L 56.550781 41.980469 L 56.289062 39.929688 C 56.277344 39.855469 56.296875 39.789062 56.34375 39.730469 C 56.390625 39.671875 56.453125 39.636719 56.527344 39.628906 C 56.601562 39.617188 56.667969 39.636719 56.730469 39.683594 C 56.789062 39.730469 56.824219 39.789062 56.832031 39.863281 L 57.113281 42.03125 C 57.125 42.121094 57.101562 42.195312 57.039062 42.257812 L 54.882812 44.488281 C 54.828125 44.546875 54.761719 44.574219 54.683594 44.574219 Z M 54.683594 44.574219 " fill-opacity="1" fill-rule="nonzero"/><path fill="#000000" d="M 60.253906 35.417969 C 60.179688 35.417969 60.117188 35.390625 60.0625 35.339844 C 60.007812 35.285156 59.980469 35.222656 59.980469 35.148438 C 59.980469 35.074219 60.003906 35.011719 60.058594 34.957031 C 60.109375 34.902344 60.171875 34.875 60.25 34.871094 C 60.566406 34.898438 60.851562 34.8125 61.101562 34.613281 C 61.351562 34.417969 61.5 34.164062 61.546875 33.851562 L 61.546875 32.675781 C 61.546875 31.878906 61.457031 31.648438 60.875 31.648438 C 60.800781 31.648438 60.734375 31.621094 60.679688 31.566406 C 60.628906 31.515625 60.601562 31.449219 60.601562 31.375 C 60.601562 31.300781 60.628906 31.234375 60.679688 31.183594 C 60.734375 31.128906 60.800781 31.101562 60.875 31.101562 C 62.097656 31.101562 62.097656 32.085938 62.097656 32.675781 L 62.097656 33.851562 C 62.074219 34.074219 62.015625 34.285156 61.910156 34.484375 C 61.808594 34.683594 61.671875 34.855469 61.5 35 C 61.328125 35.148438 61.136719 35.257812 60.921875 35.328125 C 60.707031 35.398438 60.488281 35.429688 60.261719 35.417969 Z M 60.253906 35.417969 " fill-opacity="1" fill-rule="nonzero"/><path fill="#000000" d="M 47.746094 35.417969 L 47.738281 35.417969 C 47.511719 35.429688 47.292969 35.402344 47.078125 35.328125 C 46.863281 35.257812 46.671875 35.148438 46.5 35 C 46.328125 34.855469 46.191406 34.683594 46.089844 34.484375 C 45.984375 34.285156 45.921875 34.074219 45.902344 33.851562 L 45.902344 32.675781 C 45.902344 32.050781 45.902344 31.101562 47.125 31.101562 C 47.199219 31.101562 47.265625 31.128906 47.320312 31.183594 C 47.371094 31.234375 47.398438 31.300781 47.398438 31.375 C 47.398438 31.449219 47.371094 31.515625 47.320312 31.566406 C 47.265625 31.621094 47.199219 31.648438 47.125 31.648438 C 46.535156 31.648438 46.453125 31.867188 46.453125 32.675781 L 46.453125 33.851562 C 46.472656 34.003906 46.523438 34.144531 46.597656 34.277344 C 46.675781 34.410156 46.773438 34.523438 46.894531 34.621094 C 47.015625 34.714844 47.152344 34.785156 47.296875 34.828125 C 47.445312 34.871094 47.597656 34.886719 47.75 34.871094 C 47.828125 34.875 47.890625 34.902344 47.941406 34.957031 C 47.996094 35.007812 48.019531 35.074219 48.019531 35.148438 C 48.019531 35.222656 47.992188 35.285156 47.9375 35.339844 C 47.882812 35.390625 47.820312 35.417969 47.746094 35.417969 Z M 47.746094 35.417969 " fill-opacity="1" fill-rule="nonzero"/><path fill="#000000" d="M 54.003906 40.515625 C 53.8125 40.515625 53.617188 40.511719 53.433594 40.5 L 53.375 40.492188 L 53.304688 40.484375 C 52.652344 40.429688 52.007812 40.324219 51.371094 40.160156 C 51.160156 40.109375 51.035156 40.066406 51.035156 40.066406 C 49.988281 39.753906 49.15625 39.152344 48.539062 38.261719 C 48.476562 38.171875 48.417969 38.078125 48.367188 37.980469 C 47.960938 37.167969 47.679688 36.3125 47.519531 35.421875 C 47.507812 35.355469 47.496094 35.300781 47.484375 35.242188 C 47.246094 33.964844 47.128906 32.675781 47.136719 31.375 C 47.136719 31.300781 47.160156 31.238281 47.214844 31.183594 C 47.269531 31.128906 47.332031 31.105469 47.410156 31.105469 C 47.484375 31.105469 47.550781 31.128906 47.605469 31.183594 C 47.65625 31.238281 47.683594 31.300781 47.683594 31.375 C 47.679688 32.625 47.789062 33.863281 48.011719 35.09375 C 48.035156 35.195312 48.046875 35.261719 48.058594 35.324219 C 48.210938 36.164062 48.476562 36.964844 48.855469 37.730469 C 48.894531 37.808594 48.941406 37.882812 48.992188 37.953125 C 49.546875 38.738281 50.285156 39.269531 51.210938 39.550781 C 51.210938 39.550781 51.320312 39.589844 51.507812 39.632812 C 52.121094 39.789062 52.742188 39.894531 53.371094 39.945312 C 53.445312 39.953125 53.472656 39.953125 53.496094 39.960938 C 53.84375 39.976562 54.1875 39.972656 54.53125 39.957031 L 54.582031 39.949219 C 55.226562 39.898438 55.863281 39.792969 56.488281 39.636719 C 56.675781 39.589844 56.789062 39.550781 56.792969 39.550781 C 57.824219 39.257812 58.609375 38.652344 59.148438 37.730469 C 59.5625 36.894531 59.839844 36.015625 59.988281 35.09375 C 60.210938 33.867188 60.320312 32.625 60.3125 31.375 C 60.3125 31.300781 60.339844 31.238281 60.394531 31.183594 C 60.449219 31.128906 60.511719 31.105469 60.589844 31.105469 C 60.664062 31.105469 60.730469 31.128906 60.78125 31.183594 C 60.835938 31.238281 60.863281 31.300781 60.863281 31.375 C 60.867188 32.660156 60.757812 33.933594 60.527344 35.195312 C 60.371094 36.167969 60.074219 37.097656 59.632812 37.984375 C 59.027344 39.035156 58.140625 39.726562 56.96875 40.066406 C 56.964844 40.066406 56.839844 40.109375 56.625 40.164062 C 55.984375 40.324219 55.335938 40.433594 54.675781 40.488281 C 54.667969 40.488281 54.574219 40.496094 54.566406 40.5 C 54.378906 40.511719 54.195312 40.515625 54.003906 40.515625 Z M 54.003906 40.515625 " fill-opacity="1" fill-rule="nonzero"/><path fill="#000000" d="M 54 37.800781 C 53.429688 37.804688 52.929688 37.621094 52.496094 37.25 C 52.4375 37.203125 52.40625 37.140625 52.402344 37.066406 C 52.394531 36.992188 52.417969 36.925781 52.46875 36.867188 C 52.515625 36.8125 52.578125 36.78125 52.65625 36.773438 C 52.730469 36.769531 52.796875 36.789062 52.855469 36.839844 C 53.015625 36.976562 53.191406 37.078125 53.390625 37.152344 C 53.585938 37.222656 53.789062 37.257812 54 37.257812 C 54.210938 37.257812 54.414062 37.222656 54.613281 37.152344 C 54.808594 37.078125 54.988281 36.976562 55.148438 36.839844 C 55.203125 36.789062 55.269531 36.769531 55.347656 36.773438 C 55.421875 36.78125 55.484375 36.8125 55.535156 36.867188 C 55.582031 36.925781 55.605469 36.992188 55.601562 37.066406 C 55.59375 37.140625 55.5625 37.203125 55.507812 37.25 C 55.074219 37.621094 54.570312 37.804688 54 37.800781 Z M 54 37.800781 " fill-opacity="1" fill-rule="nonzero"/><path fill="#000000" d="M 51.765625 33.695312 C 51.765625 33.925781 51.710938 34.121094 51.59375 34.285156 C 51.480469 34.449219 51.339844 34.53125 51.179688 34.53125 C 51.019531 34.53125 50.878906 34.449219 50.765625 34.285156 C 50.652344 34.121094 50.59375 33.925781 50.59375 33.695312 C 50.59375 33.464844 50.652344 33.265625 50.765625 33.105469 C 50.878906 32.941406 51.019531 32.859375 51.179688 32.859375 C 51.339844 32.859375 51.480469 32.941406 51.59375 33.105469 C 51.710938 33.265625 51.765625 33.464844 51.765625 33.695312 Z M 51.765625 33.695312 " fill-opacity="1" fill-rule="nonzero"/><path fill="#000000" d="M 57.410156 33.695312 C 57.410156 33.925781 57.351562 34.121094 57.238281 34.285156 C 57.121094 34.449219 56.984375 34.53125 56.820312 34.53125 C 56.660156 34.53125 56.523438 34.449219 56.40625 34.285156 C 56.292969 34.121094 56.234375 33.925781 56.234375 33.695312 C 56.234375 33.464844 56.292969 33.265625 56.40625 33.105469 C 56.523438 32.941406 56.660156 32.859375 56.820312 32.859375 C 56.984375 32.859375 57.121094 32.941406 57.238281 33.105469 C 57.351562 33.265625 57.410156 33.464844 57.410156 33.695312 Z M 57.410156 33.695312 " fill-opacity="1" fill-rule="nonzero"/><path fill="#000000" d="M 57.824219 32.671875 C 57.785156 32.671875 57.746094 32.664062 57.707031 32.644531 C 57.117188 32.34375 56.527344 32.34375 55.9375 32.644531 C 55.867188 32.675781 55.800781 32.679688 55.726562 32.65625 C 55.65625 32.632812 55.605469 32.585938 55.570312 32.519531 C 55.539062 32.449219 55.535156 32.382812 55.558594 32.3125 C 55.585938 32.238281 55.628906 32.1875 55.699219 32.15625 C 56.050781 31.976562 56.425781 31.890625 56.820312 31.890625 C 57.21875 31.890625 57.59375 31.976562 57.945312 32.15625 C 58.078125 32.21875 58.125 32.320312 58.09375 32.460938 C 58.0625 32.601562 57.972656 32.671875 57.824219 32.671875 Z M 57.824219 32.671875 " fill-opacity="1" fill-rule="nonzero"/><path fill="#000000" d="M 52.183594 32.671875 C 52.140625 32.671875 52.101562 32.664062 52.0625 32.644531 C 51.472656 32.34375 50.886719 32.34375 50.296875 32.644531 C 50.226562 32.675781 50.15625 32.679688 50.085938 32.65625 C 50.015625 32.632812 49.960938 32.585938 49.929688 32.519531 C 49.894531 32.449219 49.890625 32.382812 49.917969 32.3125 C 49.941406 32.238281 49.988281 32.1875 50.054688 32.15625 C 50.410156 31.976562 50.785156 31.890625 51.179688 31.890625 C 51.574219 31.890625 51.949219 31.976562 52.304688 32.15625 C 52.433594 32.21875 52.484375 32.320312 52.453125 32.460938 C 52.417969 32.601562 52.328125 32.671875 52.183594 32.671875 Z M 52.183594 32.671875 " fill-opacity="1" fill-rule="nonzero"/><path fill="#000000" d="M 63.453125 45.757812 C 63.378906 45.757812 63.3125 45.730469 63.261719 45.675781 C 63.207031 45.625 63.179688 45.558594 63.179688 45.484375 L 63.179688 44.574219 L 49.449219 44.574219 C 49.375 44.574219 49.308594 44.546875 49.257812 44.496094 C 49.203125 44.441406 49.175781 44.378906 49.175781 44.300781 C 49.175781 44.226562 49.203125 44.164062 49.257812 44.109375 C 49.308594 44.058594 49.375 44.03125 49.449219 44.03125 L 63.453125 44.03125 C 63.53125 44.03125 63.59375 44.058594 63.648438 44.109375 C 63.703125 44.164062 63.730469 44.226562 63.730469 44.300781 L 63.730469 45.484375 C 63.730469 45.558594 63.703125 45.625 63.648438 45.675781 C 63.59375 45.730469 63.53125 45.757812 63.453125 45.757812 Z M 63.453125 45.757812 " fill-opacity="1" fill-rule="nonzero"/><g clip-path="url(#ac02a8fe80)"><path fill="#000000" d="M 56.582031 52.453125 L 55.761719 52.453125 C 55.6875 52.453125 55.621094 52.425781 55.566406 52.375 C 55.515625 52.320312 55.488281 52.257812 55.488281 52.183594 C 55.488281 52.105469 55.515625 52.042969 55.566406 51.988281 C 55.621094 51.9375 55.6875 51.910156 55.761719 51.910156 L 56.582031 51.910156 C 56.65625 51.910156 56.722656 51.9375 56.773438 51.988281 C 56.828125 52.042969 56.855469 52.105469 56.855469 52.183594 C 56.855469 52.257812 56.828125 52.320312 56.773438 52.375 C 56.722656 52.425781 56.65625 52.453125 56.582031 52.453125 Z M 56.582031 52.453125 " fill-opacity="1" fill-rule="nonzero"/></g><g clip-path="url(#9f13633ea4)"><path fill="#000000" d="M 53.867188 52.453125 L 45.726562 52.453125 C 45.652344 52.453125 45.585938 52.425781 45.53125 52.375 C 45.480469 52.320312 45.453125 52.257812 45.453125 52.183594 C 45.453125 52.105469 45.480469 52.042969 45.53125 51.988281 C 45.585938 51.9375 45.652344 51.910156 45.726562 51.910156 L 53.867188 51.910156 C 53.941406 51.910156 54.007812 51.9375 54.0625 51.988281 C 54.113281 52.042969 54.140625 52.105469 54.140625 52.183594 C 54.140625 52.257812 54.113281 52.320312 54.0625 52.375 C 54.007812 52.425781 53.941406 52.453125 53.867188 52.453125 Z M 53.867188 52.453125 " fill-opacity="1" fill-rule="nonzero"/></g><g clip-path="url(#b9ecb7776d)"><path fill="#000000" d="M 62.332031 52.453125 L 58.46875 52.453125 C 58.394531 52.453125 58.328125 52.425781 58.277344 52.375 C 58.222656 52.320312 58.195312 52.257812 58.195312 52.183594 C 58.195312 52.105469 58.222656 52.042969 58.277344 51.988281 C 58.328125 51.9375 58.394531 51.910156 58.46875 51.910156 L 62.332031 51.910156 C 62.40625 51.910156 62.472656 51.9375 62.527344 51.988281 C 62.578125 52.042969 62.605469 52.105469 62.605469 52.183594 C 62.605469 52.257812 62.578125 52.320312 62.527344 52.375 C 62.472656 52.425781 62.40625 52.453125 62.332031 52.453125 Z M 62.332031 52.453125 " fill-opacity="1" fill-rule="nonzero"/></g><g clip-path="url(#ca6e01c44a)"><path fill="#000000" d="M 64.625 52.449219 L 62.140625 52.449219 C 61.90625 52.449219 61.695312 52.382812 61.503906 52.25 C 61.3125 52.121094 61.175781 51.945312 61.09375 51.730469 C 61.011719 51.511719 61 51.292969 61.058594 51.066406 C 61.113281 50.84375 61.230469 50.65625 61.40625 50.503906 C 61.285156 50.398438 61.191406 50.273438 61.125 50.128906 C 61.054688 49.984375 61.023438 49.828125 61.023438 49.667969 C 61.023438 49.507812 61.054688 49.355469 61.125 49.210938 C 61.191406 49.066406 61.285156 48.9375 61.40625 48.835938 C 61.285156 48.730469 61.191406 48.605469 61.125 48.457031 C 61.054688 48.3125 61.023438 48.160156 61.023438 47.996094 C 61.023438 47.835938 61.054688 47.683594 61.125 47.539062 C 61.191406 47.390625 61.285156 47.265625 61.40625 47.160156 C 61.230469 47.007812 61.113281 46.820312 61.058594 46.597656 C 61 46.375 61.011719 46.152344 61.09375 45.9375 C 61.175781 45.71875 61.3125 45.546875 61.503906 45.414062 C 61.695312 45.28125 61.90625 45.214844 62.140625 45.214844 L 64.625 45.214844 C 64.820312 45.214844 65.007812 45.25 65.1875 45.324219 C 65.367188 45.398438 65.527344 45.503906 65.664062 45.640625 C 65.804688 45.777344 65.910156 45.933594 65.984375 46.113281 C 66.058594 46.292969 66.097656 46.476562 66.097656 46.671875 L 66.097656 50.996094 C 66.097656 51.1875 66.058594 51.371094 65.984375 51.550781 C 65.910156 51.730469 65.804688 51.886719 65.664062 52.023438 C 65.527344 52.160156 65.367188 52.265625 65.1875 52.339844 C 65.007812 52.414062 64.820312 52.449219 64.625 52.449219 Z M 62.414062 50.503906 C 62.414062 50.578125 62.386719 50.644531 62.335938 50.695312 C 62.28125 50.75 62.214844 50.777344 62.140625 50.777344 C 61.984375 50.777344 61.847656 50.832031 61.738281 50.941406 C 61.628906 51.054688 61.570312 51.1875 61.570312 51.339844 C 61.570312 51.496094 61.628906 51.628906 61.738281 51.738281 C 61.847656 51.851562 61.984375 51.90625 62.140625 51.90625 L 64.625 51.90625 C 64.878906 51.90625 65.097656 51.816406 65.277344 51.640625 C 65.457031 51.460938 65.546875 51.246094 65.546875 50.996094 L 65.546875 46.671875 C 65.546875 46.417969 65.457031 46.203125 65.277344 46.027344 C 65.097656 45.847656 64.878906 45.757812 64.625 45.757812 L 62.140625 45.757812 C 61.984375 45.757812 61.847656 45.8125 61.738281 45.925781 C 61.628906 46.035156 61.570312 46.167969 61.570312 46.324219 C 61.570312 46.480469 61.628906 46.613281 61.738281 46.722656 C 61.847656 46.832031 61.984375 46.886719 62.140625 46.890625 C 62.214844 46.890625 62.28125 46.914062 62.335938 46.96875 C 62.386719 47.023438 62.414062 47.085938 62.414062 47.160156 C 62.414062 47.234375 62.386719 47.300781 62.335938 47.351562 C 62.28125 47.40625 62.214844 47.433594 62.140625 47.433594 C 61.984375 47.433594 61.847656 47.488281 61.738281 47.597656 C 61.628906 47.710938 61.574219 47.84375 61.574219 47.996094 C 61.574219 48.152344 61.628906 48.285156 61.738281 48.398438 C 61.847656 48.507812 61.984375 48.5625 62.140625 48.5625 C 62.214844 48.5625 62.28125 48.589844 62.335938 48.644531 C 62.386719 48.695312 62.414062 48.761719 62.414062 48.835938 C 62.414062 48.910156 62.386719 48.972656 62.335938 49.027344 C 62.28125 49.082031 62.214844 49.105469 62.140625 49.105469 C 61.984375 49.105469 61.847656 49.164062 61.738281 49.273438 C 61.628906 49.382812 61.570312 49.515625 61.570312 49.667969 C 61.570312 49.824219 61.625 49.960938 61.738281 50.070312 C 61.847656 50.179688 61.984375 50.234375 62.140625 50.230469 C 62.214844 50.230469 62.28125 50.257812 62.335938 50.3125 C 62.386719 50.363281 62.414062 50.429688 62.414062 50.503906 Z M 62.414062 50.503906 " fill-opacity="1" fill-rule="nonzero"/></g><g clip-path="url(#7f8079ab78)"><path fill="#000000" d="M 45.855469 52.449219 L 43.371094 52.449219 C 43.179688 52.449219 42.992188 52.410156 42.8125 52.335938 C 42.632812 52.261719 42.472656 52.160156 42.335938 52.023438 C 42.195312 51.886719 42.089844 51.726562 42.015625 51.550781 C 41.941406 51.371094 41.90625 51.1875 41.902344 50.996094 L 41.902344 49.796875 C 41.902344 49.71875 41.929688 49.65625 41.984375 49.601562 C 42.039062 49.550781 42.101562 49.523438 42.179688 49.523438 C 42.253906 49.523438 42.320312 49.550781 42.371094 49.601562 C 42.425781 49.65625 42.453125 49.71875 42.453125 49.796875 L 42.453125 50.996094 C 42.453125 51.246094 42.542969 51.460938 42.722656 51.636719 C 42.902344 51.816406 43.117188 51.902344 43.371094 51.90625 L 45.855469 51.90625 C 46.015625 51.90625 46.148438 51.851562 46.257812 51.742188 C 46.371094 51.632812 46.425781 51.5 46.425781 51.347656 C 46.429688 51.1875 46.371094 51.054688 46.261719 50.945312 C 46.148438 50.832031 46.015625 50.777344 45.855469 50.777344 C 45.78125 50.777344 45.714844 50.75 45.664062 50.695312 C 45.609375 50.644531 45.582031 50.578125 45.582031 50.503906 C 45.582031 50.429688 45.609375 50.363281 45.664062 50.3125 C 45.714844 50.257812 45.78125 50.230469 45.855469 50.230469 C 46.015625 50.230469 46.148438 50.175781 46.261719 50.066406 C 46.371094 49.957031 46.425781 49.824219 46.425781 49.667969 C 46.425781 49.542969 46.390625 49.433594 46.3125 49.335938 C 46.269531 49.273438 46.25 49.207031 46.261719 49.132812 C 46.269531 49.058594 46.308594 49 46.367188 48.953125 C 46.425781 48.910156 46.496094 48.890625 46.570312 48.902344 C 46.644531 48.910156 46.707031 48.945312 46.75 49.007812 C 46.902344 49.203125 46.976562 49.421875 46.976562 49.667969 C 46.976562 50.003906 46.847656 50.285156 46.589844 50.503906 C 46.765625 50.65625 46.882812 50.84375 46.941406 51.066406 C 47 51.292969 46.988281 51.511719 46.90625 51.726562 C 46.824219 51.945312 46.6875 52.121094 46.496094 52.25 C 46.304688 52.382812 46.089844 52.449219 45.855469 52.449219 Z M 45.855469 52.449219 " fill-opacity="1" fill-rule="nonzero"/></g><path fill="#000000" d="M 62.117188 31.648438 L 45.886719 31.648438 C 45.738281 31.644531 45.597656 31.613281 45.464844 31.558594 C 45.328125 31.5 45.210938 31.417969 45.105469 31.316406 C 45.003906 31.210938 44.925781 31.09375 44.871094 30.957031 C 44.8125 30.824219 44.785156 30.683594 44.785156 30.539062 C 44.785156 30.394531 44.8125 30.253906 44.871094 30.121094 C 44.925781 29.984375 45.003906 29.867188 45.105469 29.761719 C 45.210938 29.660156 45.328125 29.578125 45.464844 29.519531 C 45.597656 29.464844 45.738281 29.433594 45.886719 29.429688 L 62.117188 29.429688 C 62.261719 29.433594 62.402344 29.464844 62.539062 29.519531 C 62.671875 29.578125 62.792969 29.660156 62.894531 29.761719 C 62.996094 29.867188 63.078125 29.984375 63.132812 30.121094 C 63.1875 30.253906 63.214844 30.394531 63.214844 30.539062 C 63.214844 30.683594 63.1875 30.824219 63.132812 30.957031 C 63.078125 31.09375 62.996094 31.210938 62.894531 31.316406 C 62.792969 31.417969 62.671875 31.5 62.539062 31.558594 C 62.402344 31.613281 62.261719 31.644531 62.117188 31.648438 Z M 45.886719 29.972656 C 45.734375 29.976562 45.605469 30.027344 45.496094 30.132812 C 45.390625 30.238281 45.335938 30.367188 45.335938 30.519531 C 45.328125 30.675781 45.375 30.8125 45.484375 30.925781 C 45.59375 31.042969 45.726562 31.101562 45.886719 31.105469 L 62.117188 31.105469 C 62.269531 31.105469 62.398438 31.050781 62.503906 30.945312 C 62.613281 30.839844 62.664062 30.710938 62.664062 30.558594 C 62.675781 30.402344 62.625 30.265625 62.515625 30.152344 C 62.410156 30.035156 62.273438 29.976562 62.117188 29.972656 Z M 45.886719 29.972656 " fill-opacity="1" fill-rule="nonzero"/><g clip-path="url(#5b06532ece)"><path fill="#000000" d="M 60.589844 29.972656 C 60.511719 29.976562 60.449219 29.949219 60.394531 29.894531 C 60.339844 29.84375 60.3125 29.777344 60.3125 29.703125 L 60.3125 26.722656 C 60.3125 26.238281 60.21875 25.777344 60.035156 25.332031 C 59.847656 24.886719 59.582031 24.496094 59.238281 24.15625 C 58.894531 23.8125 58.5 23.550781 58.050781 23.367188 C 57.601562 23.183594 57.132812 23.089844 56.644531 23.089844 L 51.351562 23.089844 C 50.867188 23.089844 50.398438 23.183594 49.949219 23.367188 C 49.5 23.550781 49.105469 23.8125 48.761719 24.15625 C 48.417969 24.496094 48.152344 24.886719 47.964844 25.332031 C 47.777344 25.777344 47.683594 26.238281 47.683594 26.722656 L 47.683594 29.703125 C 47.683594 29.777344 47.65625 29.84375 47.605469 29.894531 C 47.550781 29.949219 47.484375 29.972656 47.410156 29.972656 C 47.332031 29.972656 47.269531 29.949219 47.214844 29.894531 C 47.160156 29.84375 47.136719 29.777344 47.136719 29.703125 L 47.136719 26.722656 C 47.136719 26.449219 47.164062 26.175781 47.21875 25.90625 C 47.269531 25.636719 47.351562 25.378906 47.457031 25.125 C 47.5625 24.871094 47.695312 24.628906 47.847656 24.402344 C 48 24.175781 48.175781 23.964844 48.371094 23.769531 C 48.566406 23.578125 48.78125 23.402344 49.011719 23.25 C 49.242188 23.097656 49.484375 22.96875 49.738281 22.863281 C 49.996094 22.761719 50.257812 22.679688 50.53125 22.625 C 50.800781 22.574219 51.074219 22.546875 51.351562 22.546875 L 56.644531 22.546875 C 56.921875 22.546875 57.195312 22.574219 57.46875 22.625 C 57.738281 22.679688 58.003906 22.761719 58.257812 22.863281 C 58.515625 22.96875 58.757812 23.097656 58.988281 23.25 C 59.21875 23.402344 59.429688 23.578125 59.625 23.769531 C 59.824219 23.964844 59.996094 24.175781 60.152344 24.402344 C 60.304688 24.628906 60.433594 24.871094 60.542969 25.125 C 60.648438 25.378906 60.726562 25.636719 60.78125 25.90625 C 60.835938 26.175781 60.863281 26.449219 60.863281 26.722656 L 60.863281 29.703125 C 60.863281 29.777344 60.835938 29.84375 60.785156 29.894531 C 60.730469 29.949219 60.664062 29.976562 60.589844 29.972656 Z M 60.589844 29.972656 " fill-opacity="1" fill-rule="nonzero"/></g><g clip-path="url(#79152f3bc2)"><path fill="#000000" d="M 43.578125 40.171875 C 43.316406 40.167969 43.066406 40.21875 42.824219 40.320312 C 42.582031 40.417969 42.367188 40.558594 42.179688 40.742188 C 41.996094 40.925781 41.851562 41.136719 41.753906 41.378906 C 41.652344 41.617188 41.601562 41.867188 41.601562 42.128906 C 41.601562 42.96875 42.871094 45.042969 43.578125 46.101562 C 44.289062 45.042969 45.558594 42.96875 45.558594 42.128906 C 45.554688 41.867188 45.507812 41.617188 45.40625 41.378906 C 45.304688 41.140625 45.164062 40.925781 44.976562 40.742188 C 44.792969 40.558594 44.578125 40.417969 44.335938 40.320312 C 44.09375 40.21875 43.839844 40.171875 43.578125 40.171875 Z M 43.578125 43.019531 C 43.445312 43.019531 43.316406 42.996094 43.191406 42.945312 C 43.066406 42.894531 42.957031 42.824219 42.863281 42.730469 C 42.765625 42.636719 42.695312 42.527344 42.640625 42.40625 C 42.589844 42.28125 42.5625 42.15625 42.5625 42.023438 C 42.5625 41.890625 42.589844 41.761719 42.640625 41.640625 C 42.691406 41.515625 42.761719 41.40625 42.859375 41.3125 C 42.953125 41.21875 43.0625 41.144531 43.183594 41.09375 C 43.308594 41.042969 43.4375 41.019531 43.570312 41.019531 C 43.707031 41.019531 43.835938 41.042969 43.960938 41.09375 C 44.082031 41.144531 44.191406 41.21875 44.289062 41.3125 C 44.382812 41.40625 44.457031 41.511719 44.507812 41.636719 C 44.558594 41.757812 44.585938 41.886719 44.585938 42.019531 C 44.582031 42.292969 44.484375 42.527344 44.289062 42.722656 C 44.09375 42.917969 43.855469 43.015625 43.578125 43.019531 Z M 43.578125 41.5625 C 43.453125 41.5625 43.34375 41.605469 43.25 41.691406 C 43.160156 41.78125 43.113281 41.890625 43.113281 42.015625 C 43.113281 42.140625 43.15625 42.25 43.246094 42.339844 C 43.335938 42.429688 43.445312 42.476562 43.570312 42.476562 C 43.699219 42.476562 43.808594 42.433594 43.898438 42.34375 C 43.988281 42.253906 44.035156 42.144531 44.035156 42.019531 C 44.035156 41.894531 43.992188 41.785156 43.902344 41.695312 C 43.8125 41.609375 43.707031 41.5625 43.578125 41.5625 Z M 43.578125 40.171875 C 43.316406 40.167969 43.066406 40.21875 42.824219 40.320312 C 42.582031 40.417969 42.367188 40.558594 42.179688 40.742188 C 41.996094 40.925781 41.851562 41.136719 41.753906 41.378906 C 41.652344 41.617188 41.601562 41.867188 41.601562 42.128906 C 41.601562 42.96875 42.871094 45.042969 43.578125 46.101562 C 44.289062 45.042969 45.558594 42.96875 45.558594 42.128906 C 45.554688 41.867188 45.507812 41.617188 45.40625 41.378906 C 45.304688 41.140625 45.164062 40.925781 44.976562 40.742188 C 44.792969 40.558594 44.578125 40.417969 44.335938 40.320312 C 44.09375 40.21875 43.839844 40.171875 43.578125 40.171875 Z M 43.578125 43.019531 C 43.445312 43.019531 43.316406 42.996094 43.191406 42.945312 C 43.066406 42.894531 42.957031 42.824219 42.863281 42.730469 C 42.765625 42.636719 42.695312 42.527344 42.640625 42.40625 C 42.589844 42.28125 42.5625 42.15625 42.5625 42.023438 C 42.5625 41.890625 42.589844 41.761719 42.640625 41.640625 C 42.691406 41.515625 42.761719 41.40625 42.859375 41.3125 C 42.953125 41.21875 43.0625 41.144531 43.183594 41.09375 C 43.308594 41.042969 43.4375 41.019531 43.570312 41.019531 C 43.707031 41.019531 43.835938 41.042969 43.960938 41.09375 C 44.082031 41.144531 44.191406 41.21875 44.289062 41.3125 C 44.382812 41.40625 44.457031 41.511719 44.507812 41.636719 C 44.558594 41.757812 44.585938 41.886719 44.585938 42.019531 C 44.582031 42.292969 44.484375 42.527344 44.289062 42.722656 C 44.09375 42.917969 43.855469 43.015625 43.578125 43.019531 Z M 43.578125 41.5625 C 43.453125 41.5625 43.34375 41.605469 43.25 41.691406 C 43.160156 41.78125 43.113281 41.890625 43.113281 42.015625 C 43.113281 42.140625 43.15625 42.25 43.246094 42.339844 C 43.335938 42.429688 43.445312 42.476562 43.570312 42.476562 C 43.699219 42.476562 43.808594 42.433594 43.898438 42.34375 C 43.988281 42.253906 44.035156 42.144531 44.035156 42.019531 C 44.035156 41.894531 43.992188 41.785156 43.902344 41.695312 C 43.8125 41.609375 43.707031 41.5625 43.578125 41.5625 Z M 43.578125 38.597656 C 43.285156 38.597656 42.996094 38.628906 42.707031 38.683594 C 42.417969 38.742188 42.140625 38.824219 41.867188 38.9375 C 41.597656 39.046875 41.339844 39.183594 41.09375 39.347656 C 40.851562 39.507812 40.625 39.691406 40.417969 39.898438 C 40.210938 40.101562 40.023438 40.328125 39.859375 40.570312 C 39.699219 40.8125 39.558594 41.066406 39.449219 41.335938 C 39.335938 41.605469 39.25 41.882812 39.195312 42.167969 C 39.136719 42.453125 39.109375 42.738281 39.109375 43.03125 C 39.109375 43.320312 39.136719 43.609375 39.195312 43.894531 C 39.253906 44.179688 39.335938 44.457031 39.449219 44.726562 C 39.5625 44.992188 39.699219 45.25 39.863281 45.492188 C 40.027344 45.730469 40.214844 45.957031 40.421875 46.160156 C 40.628906 46.367188 40.855469 46.550781 41.097656 46.710938 C 41.34375 46.875 41.601562 47.007812 41.871094 47.121094 C 42.144531 47.230469 42.425781 47.316406 42.710938 47.371094 C 43 47.429688 43.292969 47.457031 43.585938 47.457031 C 43.878906 47.457031 44.167969 47.429688 44.457031 47.371094 C 44.746094 47.3125 45.027344 47.230469 45.296875 47.117188 C 45.566406 47.007812 45.824219 46.871094 46.070312 46.707031 C 46.3125 46.546875 46.539062 46.363281 46.746094 46.15625 C 46.957031 45.953125 47.140625 45.726562 47.304688 45.484375 C 47.464844 45.242188 47.605469 44.988281 47.714844 44.71875 C 47.828125 44.453125 47.914062 44.175781 47.96875 43.890625 C 48.027344 43.605469 48.054688 43.316406 48.054688 43.023438 C 48.054688 42.734375 48.027344 42.445312 47.96875 42.160156 C 47.910156 41.875 47.828125 41.597656 47.714844 41.332031 C 47.601562 41.0625 47.464844 40.808594 47.300781 40.566406 C 47.136719 40.324219 46.949219 40.101562 46.742188 39.894531 C 46.535156 39.6875 46.308594 39.503906 46.066406 39.34375 C 45.820312 39.183594 45.5625 39.046875 45.292969 38.933594 C 45.019531 38.824219 44.742188 38.738281 44.453125 38.683594 C 44.164062 38.625 43.875 38.597656 43.578125 38.597656 Z M 43.804688 46.746094 C 43.75 46.820312 43.675781 46.859375 43.578125 46.859375 C 43.484375 46.859375 43.410156 46.820312 43.355469 46.746094 C 43.117188 46.40625 41.054688 43.410156 41.054688 42.128906 C 41.054688 41.796875 41.117188 41.476562 41.246094 41.171875 C 41.375 40.863281 41.554688 40.59375 41.792969 40.359375 C 42.03125 40.125 42.304688 39.945312 42.613281 39.816406 C 42.921875 39.691406 43.246094 39.625 43.578125 39.625 C 43.914062 39.625 44.238281 39.691406 44.546875 39.816406 C 44.855469 39.945312 45.128906 40.125 45.367188 40.359375 C 45.601562 40.59375 45.785156 40.863281 45.914062 41.171875 C 46.042969 41.476562 46.105469 41.796875 46.105469 42.128906 C 46.105469 43.410156 44.039062 46.40625 43.804688 46.746094 Z M 43.578125 40.171875 C 43.316406 40.167969 43.066406 40.21875 42.824219 40.320312 C 42.582031 40.417969 42.367188 40.558594 42.179688 40.742188 C 41.996094 40.925781 41.851562 41.136719 41.753906 41.378906 C 41.652344 41.617188 41.601562 41.867188 41.601562 42.128906 C 41.601562 42.96875 42.871094 45.042969 43.578125 46.101562 C 44.289062 45.042969 45.558594 42.96875 45.558594 42.128906 C 45.554688 41.867188 45.507812 41.617188 45.40625 41.378906 C 45.304688 41.140625 45.164062 40.925781 44.976562 40.742188 C 44.792969 40.558594 44.578125 40.417969 44.335938 40.320312 C 44.09375 40.21875 43.839844 40.171875 43.578125 40.171875 Z M 43.578125 43.019531 C 43.445312 43.019531 43.316406 42.996094 43.191406 42.945312 C 43.066406 42.894531 42.957031 42.824219 42.863281 42.730469 C 42.765625 42.636719 42.695312 42.527344 42.640625 42.40625 C 42.589844 42.28125 42.5625 42.15625 42.5625 42.023438 C 42.5625 41.890625 42.589844 41.761719 42.640625 41.640625 C 42.691406 41.515625 42.761719 41.40625 42.859375 41.3125 C 42.953125 41.21875 43.0625 41.144531 43.183594 41.09375 C 43.308594 41.042969 43.4375 41.019531 43.570312 41.019531 C 43.707031 41.019531 43.835938 41.042969 43.960938 41.09375 C 44.082031 41.144531 44.191406 41.21875 44.289062 41.3125 C 44.382812 41.40625 44.457031 41.511719 44.507812 41.636719 C 44.558594 41.757812 44.585938 41.886719 44.585938 42.019531 C 44.582031 42.292969 44.484375 42.527344 44.289062 42.722656 C 44.09375 42.917969 43.855469 43.015625 43.578125 43.019531 Z M 43.578125 41.5625 C 43.453125 41.5625 43.34375 41.605469 43.25 41.691406 C 43.160156 41.78125 43.113281 41.890625 43.113281 42.015625 C 43.113281 42.140625 43.15625 42.25 43.246094 42.339844 C 43.335938 42.429688 43.445312 42.476562 43.570312 42.476562 C 43.699219 42.476562 43.808594 42.433594 43.898438 42.34375 C 43.988281 42.253906 44.035156 42.144531 44.035156 42.019531 C 44.035156 41.894531 43.992188 41.785156 43.902344 41.695312 C 43.8125 41.609375 43.707031 41.5625 43.578125 41.5625 Z M 43.578125 48 C 42.753906 48 41.976562 47.808594 41.25 47.433594 C 40.519531 47.054688 39.917969 46.527344 39.449219 45.859375 C 39.621094 46.261719 39.847656 46.628906 40.128906 46.964844 C 40.40625 47.300781 40.730469 47.589844 41.097656 47.832031 C 41.464844 48.074219 41.859375 48.257812 42.28125 48.382812 C 42.703125 48.507812 43.136719 48.570312 43.578125 48.570312 C 44.015625 48.570312 44.449219 48.507812 44.871094 48.382812 C 45.292969 48.257812 45.6875 48.074219 46.054688 47.832031 C 46.421875 47.589844 46.746094 47.300781 47.027344 46.964844 C 47.308594 46.628906 47.535156 46.261719 47.703125 45.859375 C 47.238281 46.527344 46.636719 47.054688 45.910156 47.433594 C 45.179688 47.8125 44.402344 48 43.578125 48 Z M 43.578125 48 " fill-opacity="1" fill-rule="nonzero"/></g></svg>