<svg xmlns="http://www.w3.org/2000/svg" xmlns:xlink="http://www.w3.org/1999/xlink" width="140" zoomAndPan="magnify" viewBox="0 0 104.88 74.999997" height="100" preserveAspectRatio="xMidYMid meet" version="1.0"><defs><clipPath id="12f0cd89ca"><path d="M 0 0.0429688 L 104.761719 0.0429688 L 104.761719 74.957031 L 0 74.957031 Z M 0 0.0429688 " clip-rule="nonzero"/></clipPath><clipPath id="991d1e0122"><path d="M 37.457031 22.515625 L 67.421875 22.515625 L 67.421875 52.484375 L 37.457031 52.484375 Z M 37.457031 22.515625 " clip-rule="nonzero"/></clipPath></defs><g clip-path="url(#12f0cd89ca)"><path fill="#ffffff" d="M 0 0.0429688 L 104.878906 0.0429688 L 104.878906 74.957031 L 0 74.957031 Z M 0 0.0429688 " fill-opacity="1" fill-rule="nonzero"/><path fill="#ffffff" d="M 0 0.0429688 L 104.878906 0.0429688 L 104.878906 74.957031 L 0 74.957031 Z M 0 0.0429688 " fill-opacity="1" fill-rule="nonzero"/></g><path fill="#000000" d="M 64.734375 37.308594 L 61.933594 37.308594 L 61.933594 35.894531 C 61.933594 35.789062 61.847656 35.703125 61.742188 35.703125 C 61.636719 35.703125 61.554688 35.789062 61.554688 35.894531 L 61.554688 37.308594 L 58.832031 37.308594 L 58.832031 35.894531 C 58.832031 35.789062 58.746094 35.703125 58.640625 35.703125 C 58.539062 35.703125 58.453125 35.789062 58.453125 35.894531 L 58.453125 37.308594 L 55.730469 37.308594 L 55.730469 35.894531 C 55.730469 35.789062 55.644531 35.703125 55.539062 35.703125 C 55.433594 35.703125 55.351562 35.789062 55.351562 35.894531 L 55.351562 37.308594 L 52.628906 37.308594 L 52.628906 34.589844 L 54.046875 34.589844 C 54.152344 34.589844 54.234375 34.503906 54.234375 34.398438 C 54.234375 34.296875 54.152344 34.210938 54.046875 34.210938 L 52.628906 34.210938 L 52.628906 31.488281 L 54.046875 31.488281 C 54.152344 31.488281 54.234375 31.402344 54.234375 31.296875 C 54.234375 31.191406 54.152344 31.109375 54.046875 31.109375 L 52.628906 31.109375 L 52.628906 28.386719 L 54.046875 28.386719 C 54.152344 28.386719 54.234375 28.300781 54.234375 28.199219 C 54.234375 28.09375 54.152344 28.007812 54.046875 28.007812 L 52.628906 28.007812 L 52.628906 25.207031 C 52.628906 25.101562 52.542969 25.015625 52.441406 25.015625 C 52.335938 25.015625 52.25 25.101562 52.25 25.207031 L 52.25 28.007812 L 50.835938 28.007812 C 50.730469 28.007812 50.644531 28.09375 50.644531 28.199219 C 50.644531 28.300781 50.730469 28.386719 50.835938 28.386719 L 52.25 28.386719 L 52.25 31.109375 L 50.835938 31.109375 C 50.730469 31.109375 50.644531 31.191406 50.644531 31.296875 C 50.644531 31.402344 50.730469 31.488281 50.835938 31.488281 L 52.25 31.488281 L 52.25 34.210938 L 50.835938 34.210938 C 50.730469 34.210938 50.644531 34.296875 50.644531 34.398438 C 50.644531 34.503906 50.730469 34.589844 50.835938 34.589844 L 52.25 34.589844 L 52.25 37.308594 L 49.527344 37.308594 L 49.527344 35.894531 C 49.527344 35.789062 49.445312 35.703125 49.339844 35.703125 C 49.234375 35.703125 49.148438 35.789062 49.148438 35.894531 L 49.148438 37.308594 L 46.429688 37.308594 L 46.429688 35.894531 C 46.429688 35.789062 46.34375 35.703125 46.238281 35.703125 C 46.132812 35.703125 46.046875 35.789062 46.046875 35.894531 L 46.046875 37.308594 L 43.328125 37.308594 L 43.328125 35.894531 C 43.328125 35.789062 43.242188 35.703125 43.136719 35.703125 C 43.03125 35.703125 42.949219 35.789062 42.949219 35.894531 L 42.949219 37.308594 L 40.148438 37.308594 C 40.042969 37.308594 39.957031 37.394531 39.957031 37.5 C 39.957031 37.605469 40.042969 37.691406 40.148438 37.691406 L 42.949219 37.691406 L 42.949219 39.105469 C 42.949219 39.210938 43.03125 39.296875 43.136719 39.296875 C 43.242188 39.296875 43.328125 39.210938 43.328125 39.105469 L 43.328125 37.691406 L 46.046875 37.691406 L 46.046875 39.105469 C 46.046875 39.210938 46.132812 39.296875 46.238281 39.296875 C 46.34375 39.296875 46.429688 39.210938 46.429688 39.105469 L 46.429688 37.691406 L 49.148438 37.691406 L 49.148438 39.105469 C 49.148438 39.210938 49.234375 39.296875 49.339844 39.296875 C 49.445312 39.296875 49.527344 39.210938 49.527344 39.105469 L 49.527344 37.691406 L 52.25 37.691406 L 52.25 40.410156 L 50.835938 40.410156 C 50.730469 40.410156 50.644531 40.496094 50.644531 40.601562 C 50.644531 40.707031 50.730469 40.789062 50.835938 40.789062 L 52.25 40.789062 L 52.25 43.511719 L 50.835938 43.511719 C 50.730469 43.511719 50.644531 43.597656 50.644531 43.703125 C 50.644531 43.804688 50.730469 43.890625 50.835938 43.890625 L 52.25 43.890625 L 52.25 46.613281 L 50.835938 46.613281 C 50.730469 46.613281 50.644531 46.699219 50.644531 46.800781 C 50.644531 46.90625 50.730469 46.992188 50.835938 46.992188 L 52.25 46.992188 L 52.25 49.792969 C 52.25 49.898438 52.335938 49.984375 52.441406 49.984375 C 52.542969 49.984375 52.628906 49.898438 52.628906 49.792969 L 52.628906 46.992188 L 54.046875 46.992188 C 54.152344 46.992188 54.234375 46.90625 54.234375 46.800781 C 54.234375 46.699219 54.152344 46.613281 54.046875 46.613281 L 52.628906 46.613281 L 52.628906 43.890625 L 54.046875 43.890625 C 54.152344 43.890625 54.234375 43.804688 54.234375 43.703125 C 54.234375 43.597656 54.152344 43.511719 54.046875 43.511719 L 52.628906 43.511719 L 52.628906 40.789062 L 54.046875 40.789062 C 54.152344 40.789062 54.234375 40.707031 54.234375 40.601562 C 54.234375 40.496094 54.152344 40.410156 54.046875 40.410156 L 52.628906 40.410156 L 52.628906 37.691406 L 55.351562 37.691406 L 55.351562 39.105469 C 55.351562 39.210938 55.433594 39.296875 55.539062 39.296875 C 55.644531 39.296875 55.730469 39.210938 55.730469 39.105469 L 55.730469 37.691406 L 58.453125 37.691406 L 58.453125 39.105469 C 58.453125 39.210938 58.539062 39.296875 58.640625 39.296875 C 58.746094 39.296875 58.832031 39.210938 58.832031 39.105469 L 58.832031 37.691406 L 61.554688 37.691406 L 61.554688 39.105469 C 61.554688 39.210938 61.636719 39.296875 61.742188 39.296875 C 61.847656 39.296875 61.933594 39.210938 61.933594 39.105469 L 61.933594 37.691406 L 64.734375 37.691406 C 64.835938 37.691406 64.921875 37.605469 64.921875 37.5 C 64.921875 37.394531 64.839844 37.308594 64.734375 37.308594 Z M 64.734375 37.308594 " fill-opacity="1" fill-rule="nonzero"/><path fill="#000000" d="M 52.441406 24.097656 C 45.050781 24.097656 39.039062 30.109375 39.039062 37.5 C 39.039062 44.890625 45.050781 50.902344 52.441406 50.902344 C 59.828125 50.902344 65.84375 44.890625 65.84375 37.5 C 65.84375 30.109375 59.828125 24.097656 52.441406 24.097656 Z M 52.441406 50.523438 C 45.257812 50.523438 39.417969 44.679688 39.417969 37.5 C 39.417969 30.320312 45.257812 24.476562 52.441406 24.476562 C 59.621094 24.476562 65.464844 30.320312 65.464844 37.5 C 65.464844 44.679688 59.621094 50.523438 52.441406 50.523438 Z M 52.441406 50.523438 " fill-opacity="1" fill-rule="nonzero"/><g clip-path="url(#991d1e0122)"><path fill="#000000" d="M 52.441406 22.515625 C 44.179688 22.515625 37.457031 29.238281 37.457031 37.5 C 37.457031 45.761719 44.179688 52.484375 52.441406 52.484375 C 60.703125 52.484375 67.421875 45.761719 67.421875 37.5 C 67.421875 29.238281 60.703125 22.515625 52.441406 22.515625 Z M 52.441406 52.105469 C 44.386719 52.105469 37.835938 45.550781 37.835938 37.5 C 37.835938 29.449219 44.386719 22.894531 52.441406 22.894531 C 60.492188 22.894531 67.042969 29.449219 67.042969 37.5 C 67.042969 45.550781 60.492188 52.105469 52.441406 52.105469 Z M 52.441406 52.105469 " fill-opacity="1" fill-rule="nonzero"/></g></svg>