<svg xmlns="http://www.w3.org/2000/svg" xmlns:xlink="http://www.w3.org/1999/xlink" width="140" zoomAndPan="magnify" viewBox="0 0 104.88 74.999997" height="100" preserveAspectRatio="xMidYMid meet" version="1.0"><defs><clipPath id="895d84fcf4"><path d="M 0 0.0429688 L 104.761719 0.0429688 L 104.761719 74.957031 L 0 74.957031 Z M 0 0.0429688 " clip-rule="nonzero"/></clipPath><clipPath id="ba036ac2fe"><path d="M 37.457031 24 L 67.421875 24 L 67.421875 51 L 37.457031 51 Z M 37.457031 24 " clip-rule="nonzero"/></clipPath></defs><g clip-path="url(#895d84fcf4)"><path fill="#ffffff" d="M 0 0.0429688 L 104.878906 0.0429688 L 104.878906 74.957031 L 0 74.957031 Z M 0 0.0429688 " fill-opacity="1" fill-rule="nonzero"/><path fill="#ffffff" d="M 0 0.0429688 L 104.878906 0.0429688 L 104.878906 74.957031 L 0 74.957031 Z M 0 0.0429688 " fill-opacity="1" fill-rule="nonzero"/></g><g clip-path="url(#ba036ac2fe)"><path fill="#000002" d="M 42.96875 44.988281 L 41.019531 44.988281 L 41.019531 46.742188 C 41.019531 47.128906 40.441406 47.128906 40.441406 46.742188 L 40.441406 42.667969 C 40.441406 42.285156 41.019531 42.285156 41.019531 42.667969 L 41.019531 44.40625 L 42.96875 44.40625 L 42.96875 42.667969 C 42.96875 42.285156 43.546875 42.285156 43.546875 42.667969 L 43.546875 46.742188 C 43.546875 47.128906 42.96875 47.128906 42.96875 46.742188 Z M 66.160156 50.640625 L 38.703125 50.640625 C 38.597656 50.640625 38.511719 50.585938 38.457031 50.5 C 38.316406 50.253906 37.457031 48.902344 37.457031 48.726562 L 37.457031 40.667969 C 37.457031 40.492188 38.316406 39.160156 38.457031 38.914062 C 38.511719 38.824219 38.597656 38.753906 38.703125 38.753906 L 42.757812 38.753906 L 42.757812 26.539062 C 42.757812 26.46875 42.792969 26.398438 42.828125 26.34375 L 44.460938 24.449219 C 44.515625 24.394531 44.601562 24.359375 44.671875 24.359375 L 60.191406 24.359375 C 60.277344 24.359375 60.367188 24.394531 60.417969 24.449219 L 62.050781 26.34375 C 62.085938 26.398438 62.121094 26.46875 62.121094 26.539062 L 62.121094 38.753906 L 66.160156 38.753906 C 66.265625 38.753906 66.371094 38.824219 66.421875 38.914062 C 66.5625 39.160156 67.421875 40.492188 67.421875 40.667969 L 67.421875 48.726562 C 67.421875 48.902344 66.5625 50.253906 66.421875 50.5 C 66.371094 50.585938 66.265625 50.640625 66.160156 50.640625 Z M 43.339844 38.753906 L 44.304688 38.753906 L 44.304688 27.097656 C 44.304688 26.90625 44.933594 26.257812 45.164062 25.992188 C 45.214844 25.941406 45.304688 25.886719 45.390625 25.886719 L 59.488281 25.886719 C 59.574219 25.886719 59.664062 25.941406 59.714844 25.992188 C 59.945312 26.257812 60.578125 26.90625 60.578125 27.097656 L 60.578125 38.753906 L 61.523438 38.753906 L 61.523438 26.640625 L 60.066406 24.941406 L 44.8125 24.941406 L 43.339844 26.640625 Z M 44.882812 38.753906 L 59.980469 38.753906 L 59.980469 27.203125 L 59.347656 26.484375 L 45.515625 26.484375 L 44.882812 27.203125 Z M 38.878906 50.058594 L 66 50.058594 L 66.824219 48.65625 L 66.824219 40.757812 L 66 39.351562 L 38.878906 39.351562 L 38.035156 40.757812 L 38.035156 48.65625 Z M 65.316406 49.253906 L 39.546875 49.253906 C 39.265625 49.253906 38.878906 48.429688 38.878906 48.289062 L 38.878906 41.109375 C 38.878906 41.109375 39.210938 40.160156 39.546875 40.160156 L 65.316406 40.160156 C 65.597656 40.160156 66 40.984375 66 41.109375 L 66 48.289062 C 66 48.289062 65.667969 49.253906 65.316406 49.253906 Z M 39.722656 48.65625 L 65.160156 48.65625 L 65.421875 48.21875 L 65.421875 41.195312 L 65.160156 40.738281 L 39.722656 40.738281 L 39.457031 41.195312 L 39.457031 48.21875 Z M 52.449219 37.808594 C 49.585938 37.808594 47.269531 35.472656 47.269531 32.628906 C 47.269531 28.378906 52.148438 25.957031 55.503906 28.449219 C 56.066406 27.890625 57.117188 28.273438 57.117188 29.136719 C 57.117188 31.769531 57.152344 31.574219 54.679688 31.574219 C 53.730469 31.574219 53.378906 30.3125 54.152344 29.835938 C 52.117188 28.554688 49.167969 29.925781 49.167969 32.628906 C 49.167969 34.417969 50.640625 35.894531 52.449219 35.894531 C 54.132812 35.894531 55.554688 34.578125 55.695312 32.910156 C 55.820312 31.644531 57.714844 31.820312 57.609375 33.066406 C 57.382812 35.71875 55.117188 37.808594 52.449219 37.808594 Z M 52.484375 28.027344 C 50.253906 28.027344 47.847656 29.785156 47.847656 32.628906 C 47.847656 35.15625 49.902344 37.210938 52.449219 37.210938 C 56.152344 37.210938 57.382812 33.226562 56.941406 32.75 C 56.785156 32.558594 56.328125 32.558594 56.292969 32.960938 C 56.117188 34.929688 54.433594 36.472656 52.449219 36.472656 C 50.324219 36.472656 48.585938 34.753906 48.585938 32.628906 C 48.585938 29.222656 52.589844 27.574219 55.011719 29.730469 C 55.203125 29.925781 55.082031 30.257812 54.820312 30.257812 C 54.082031 30.257812 54.257812 30.996094 54.679688 30.996094 C 55.011719 30.996094 56.277344 31.046875 56.433594 30.890625 C 56.574219 30.75 56.539062 29.695312 56.539062 29.136719 C 56.539062 28.75 55.996094 28.625 55.835938 28.976562 C 55.75 29.152344 55.519531 29.207031 55.378906 29.082031 C 54.539062 28.398438 53.539062 28.027344 52.484375 28.027344 Z M 52.359375 33.910156 C 51.132812 33.910156 50.886719 32.15625 52.0625 31.820312 L 52.0625 30.769531 C 52.0625 30.382812 52.640625 30.382812 52.640625 30.769531 L 52.640625 31.820312 C 53.273438 31.996094 53.605469 32.699219 53.328125 33.296875 C 53.605469 33.558594 54.046875 33.824219 53.800781 34.101562 C 53.539062 34.402344 53.222656 33.980469 52.941406 33.734375 C 52.765625 33.839844 52.570312 33.910156 52.359375 33.910156 Z M 52.359375 32.367188 C 51.730469 32.367188 51.730469 33.332031 52.359375 33.332031 C 52.992188 33.332031 52.992188 32.367188 52.359375 32.367188 Z M 45.074219 47.039062 C 44.898438 47.039062 44.777344 46.902344 44.777344 46.742188 L 44.777344 42.667969 C 44.777344 42.285156 45.355469 42.285156 45.355469 42.667969 L 45.355469 46.742188 C 45.355469 46.902344 45.234375 47.039062 45.074219 47.039062 Z M 47.675781 47.023438 C 47.113281 47.023438 46.253906 46.691406 46.566406 46.285156 C 46.867188 45.917969 47.042969 46.515625 47.8125 46.445312 C 48.605469 46.355469 49.007812 45.304688 47.710938 44.988281 C 45.726562 44.496094 46.234375 42.546875 47.65625 42.390625 C 48.445312 42.300781 49.339844 42.773438 48.992188 43.179688 C 48.675781 43.53125 48.550781 42.878906 47.726562 42.96875 C 46.9375 43.054688 46.515625 44.089844 47.847656 44.425781 C 49.851562 44.917969 49.304688 47.023438 47.675781 47.023438 Z M 51.464844 47.039062 C 51.289062 47.039062 51.167969 46.902344 51.167969 46.742188 L 51.167969 42.949219 L 50.007812 42.949219 C 49.640625 42.949219 49.640625 42.371094 50.007812 42.371094 L 52.90625 42.371094 C 53.292969 42.371094 53.292969 42.949219 52.90625 42.949219 L 51.746094 42.949219 L 51.746094 46.742188 C 51.746094 46.902344 51.625 47.039062 51.464844 47.039062 Z M 55.0625 47.039062 C 54.082031 47.039062 53.257812 45.988281 53.257812 44.707031 C 53.257812 43.425781 54.082031 42.371094 55.0625 42.371094 C 56.066406 42.371094 56.890625 43.425781 56.890625 44.707031 C 56.890625 45.988281 56.066406 47.039062 55.0625 47.039062 Z M 55.0625 42.949219 C 54.398438 42.949219 53.851562 43.742188 53.851562 44.707031 C 53.851562 45.671875 54.398438 46.445312 55.0625 46.445312 C 55.75 46.445312 56.292969 45.671875 56.292969 44.707031 C 56.292969 43.742188 55.75 42.949219 55.0625 42.949219 Z M 60.507812 47.039062 C 60.382812 47.039062 60.261719 46.953125 60.226562 46.847656 C 59.945312 46.09375 59.59375 45.375 59.417969 45.214844 L 58.277344 45.214844 L 58.277344 46.742188 C 58.277344 47.128906 57.699219 47.128906 57.699219 46.742188 L 57.699219 42.667969 C 57.699219 42.496094 57.820312 42.371094 57.996094 42.371094 L 59.46875 42.371094 C 60.699219 42.371094 60.875 44.425781 60.015625 45.039062 C 60.226562 45.339844 60.472656 45.8125 60.769531 46.636719 C 60.839844 46.832031 60.699219 47.039062 60.507812 47.039062 Z M 58.277344 44.636719 L 59.46875 44.636719 C 60.121094 44.636719 60.121094 42.949219 59.46875 42.949219 L 58.277344 42.949219 Z M 62.402344 44.933594 L 60.980469 42.828125 C 60.769531 42.511719 61.261719 42.179688 61.472656 42.496094 L 62.699219 44.320312 L 63.894531 42.496094 C 64.105469 42.179688 64.597656 42.496094 64.386719 42.828125 L 63 44.933594 L 63 46.742188 C 63 47.128906 62.402344 47.128906 62.402344 46.742188 Z M 62.402344 44.933594 " fill-opacity="1" fill-rule="evenodd"/></g></svg>