<svg xmlns="http://www.w3.org/2000/svg" xmlns:xlink="http://www.w3.org/1999/xlink" width="140" zoomAndPan="magnify" viewBox="0 0 104.88 74.999997" height="100" preserveAspectRatio="xMidYMid meet" version="1.0"><defs><clipPath id="755bb4a7fd"><path d="M 0 0.0429688 L 104.761719 0.0429688 L 104.761719 74.957031 L 0 74.957031 Z M 0 0.0429688 " clip-rule="nonzero"/></clipPath><clipPath id="6fb8f6d39d"><path d="M 37.457031 30 L 58 30 L 58 35 L 37.457031 35 Z M 37.457031 30 " clip-rule="nonzero"/></clipPath><clipPath id="f1527f02d2"><path d="M 37.457031 22.515625 L 58 22.515625 L 58 32 L 37.457031 32 Z M 37.457031 22.515625 " clip-rule="nonzero"/></clipPath><clipPath id="ef5720c65d"><path d="M 46 41 L 63 41 L 63 52.484375 L 46 52.484375 Z M 46 41 " clip-rule="nonzero"/></clipPath><clipPath id="166c9f05aa"><path d="M 61 43 L 67.421875 43 L 67.421875 51 L 61 51 Z M 61 43 " clip-rule="nonzero"/></clipPath></defs><g clip-path="url(#755bb4a7fd)"><path fill="#ffffff" d="M 0 0.0429688 L 104.878906 0.0429688 L 104.878906 74.957031 L 0 74.957031 Z M 0 0.0429688 " fill-opacity="1" fill-rule="nonzero"/><path fill="#ffffff" d="M 0 0.0429688 L 104.878906 0.0429688 L 104.878906 74.957031 L 0 74.957031 Z M 0 0.0429688 " fill-opacity="1" fill-rule="nonzero"/></g><g clip-path="url(#6fb8f6d39d)"><path fill="#000000" d="M 38.34375 31.042969 C 38.222656 31.042969 38.121094 31.144531 38.121094 31.269531 L 38.121094 33.246094 C 38.121094 33.371094 38.222656 33.472656 38.34375 33.472656 L 57.070312 33.472656 C 57.195312 33.472656 57.296875 33.371094 57.296875 33.246094 L 57.296875 31.269531 C 57.296875 31.144531 57.195312 31.042969 57.070312 31.042969 Z M 57.070312 34.128906 L 38.34375 34.128906 C 37.859375 34.128906 37.464844 33.730469 37.464844 33.246094 L 37.464844 31.269531 C 37.464844 30.785156 37.859375 30.390625 38.34375 30.390625 L 57.070312 30.386719 C 57.558594 30.386719 57.953125 30.785156 57.953125 31.269531 L 57.953125 33.246094 C 57.953125 33.730469 57.558594 34.128906 57.070312 34.128906 Z M 57.070312 34.128906 " fill-opacity="1" fill-rule="evenodd"/></g><path fill="#000000" d="M 56.769531 37.660156 C 56.589844 37.660156 56.441406 37.511719 56.441406 37.332031 L 56.441406 33.800781 C 56.441406 33.621094 56.589844 33.472656 56.769531 33.472656 C 56.949219 33.472656 57.097656 33.621094 57.097656 33.800781 L 57.097656 37.332031 C 57.097656 37.511719 56.949219 37.660156 56.769531 37.660156 Z M 47.09375 43.011719 L 39.53125 43.011719 C 38.863281 43.011719 38.320312 42.46875 38.320312 41.800781 L 38.320312 33.800781 C 38.320312 33.621094 38.46875 33.472656 38.648438 33.472656 C 38.828125 33.472656 38.976562 33.621094 38.976562 33.800781 L 38.976562 41.800781 C 38.976562 42.109375 39.226562 42.359375 39.53125 42.359375 L 47.09375 42.359375 C 47.277344 42.359375 47.421875 42.503906 47.421875 42.6875 C 47.421875 42.867188 47.277344 43.011719 47.09375 43.011719 Z M 47.09375 43.011719 " fill-opacity="1" fill-rule="evenodd"/><g clip-path="url(#f1527f02d2)"><path fill="#000000" d="M 56.496094 23.179688 C 56.476562 23.179688 56.457031 23.183594 56.4375 23.1875 L 38.347656 28.035156 C 38.230469 28.066406 38.15625 28.191406 38.191406 28.3125 L 38.703125 30.222656 C 38.71875 30.277344 38.753906 30.328125 38.808594 30.359375 C 38.859375 30.386719 38.921875 30.398438 38.980469 30.378906 L 57.066406 25.535156 C 57.1875 25.5 57.261719 25.378906 57.226562 25.257812 L 56.714844 23.347656 C 56.6875 23.246094 56.597656 23.179688 56.496094 23.179688 Z M 38.917969 31.042969 C 38.765625 31.042969 38.617188 31.003906 38.480469 30.925781 C 38.277344 30.804688 38.128906 30.617188 38.070312 30.390625 L 37.558594 28.480469 C 37.433594 28.011719 37.710938 27.527344 38.179688 27.402344 L 56.269531 22.554688 C 56.738281 22.429688 57.222656 22.707031 57.347656 23.175781 L 57.859375 25.085938 C 57.921875 25.3125 57.890625 25.550781 57.769531 25.753906 C 57.652344 25.960938 57.464844 26.105469 57.238281 26.167969 L 39.148438 31.011719 C 39.074219 31.035156 38.996094 31.042969 38.917969 31.042969 Z M 38.917969 31.042969 " fill-opacity="1" fill-rule="evenodd"/></g><path fill="#000000" d="M 40.625 34.128906 C 40.445312 34.128906 40.296875 33.980469 40.296875 33.800781 L 40.296875 30.714844 C 40.296875 30.535156 40.445312 30.390625 40.625 30.390625 C 40.804688 30.386719 40.953125 30.535156 40.953125 30.714844 L 40.953125 33.800781 C 40.953125 33.980469 40.804688 34.128906 40.625 34.128906 Z M 43.457031 34.128906 C 43.277344 34.128906 43.132812 33.980469 43.132812 33.800781 L 43.132812 30.714844 C 43.132812 30.535156 43.277344 30.390625 43.457031 30.390625 C 43.640625 30.386719 43.785156 30.535156 43.785156 30.714844 L 43.785156 33.800781 C 43.785156 33.980469 43.640625 34.128906 43.457031 34.128906 Z M 46.292969 34.128906 C 46.113281 34.128906 45.964844 33.980469 45.964844 33.800781 L 45.964844 30.714844 C 45.964844 30.535156 46.113281 30.390625 46.292969 30.390625 C 46.472656 30.386719 46.621094 30.535156 46.621094 30.714844 L 46.621094 33.800781 C 46.621094 33.980469 46.472656 34.128906 46.292969 34.128906 Z M 49.125 34.128906 C 48.945312 34.128906 48.796875 33.980469 48.796875 33.800781 L 48.796875 30.714844 C 48.796875 30.535156 48.945312 30.390625 49.125 30.390625 C 49.304688 30.386719 49.453125 30.535156 49.453125 30.714844 L 49.453125 33.800781 C 49.453125 33.980469 49.304688 34.128906 49.125 34.128906 Z M 51.957031 34.128906 C 51.777344 34.128906 51.632812 33.980469 51.632812 33.800781 L 51.632812 30.714844 C 51.632812 30.535156 51.777344 30.390625 51.957031 30.390625 C 52.140625 30.386719 52.285156 30.535156 52.285156 30.714844 L 52.285156 33.800781 C 52.285156 33.980469 52.140625 34.128906 51.957031 34.128906 Z M 54.792969 34.128906 C 54.613281 34.128906 54.464844 33.980469 54.464844 33.800781 L 54.464844 30.714844 C 54.464844 30.535156 54.613281 30.390625 54.792969 30.390625 C 54.972656 30.386719 55.117188 30.535156 55.117188 30.714844 L 55.121094 33.800781 C 55.121094 33.980469 54.972656 34.128906 54.792969 34.128906 Z M 54.792969 34.128906 " fill-opacity="1" fill-rule="evenodd"/><path fill="#000000" d="M 54.949219 26.765625 C 54.804688 26.765625 54.671875 26.671875 54.632812 26.523438 L 53.835938 23.546875 C 53.789062 23.371094 53.890625 23.191406 54.066406 23.144531 C 54.242188 23.097656 54.421875 23.203125 54.46875 23.375 L 55.265625 26.355469 C 55.3125 26.53125 55.210938 26.710938 55.035156 26.757812 C 55.007812 26.765625 54.976562 26.765625 54.949219 26.765625 Z M 52.214844 27.5 C 52.070312 27.5 51.9375 27.402344 51.898438 27.257812 L 51.097656 24.277344 C 51.050781 24.105469 51.15625 23.925781 51.332031 23.878906 C 51.503906 23.832031 51.683594 23.933594 51.730469 24.109375 L 52.527344 27.089844 C 52.574219 27.261719 52.472656 27.441406 52.296875 27.488281 C 52.269531 27.496094 52.242188 27.5 52.214844 27.5 Z M 49.476562 28.234375 C 49.332031 28.234375 49.199219 28.136719 49.160156 27.992188 L 48.363281 25.011719 C 48.316406 24.835938 48.417969 24.660156 48.59375 24.613281 C 48.765625 24.566406 48.949219 24.667969 48.992188 24.84375 L 49.792969 27.820312 C 49.839844 27.996094 49.734375 28.175781 49.5625 28.222656 C 49.53125 28.230469 49.503906 28.234375 49.476562 28.234375 Z M 46.738281 28.96875 C 46.59375 28.96875 46.460938 28.871094 46.421875 28.726562 L 45.625 25.746094 C 45.578125 25.570312 45.683594 25.390625 45.855469 25.34375 C 46.03125 25.296875 46.210938 25.402344 46.257812 25.578125 L 47.054688 28.554688 C 47.101562 28.730469 47 28.910156 46.824219 28.957031 C 46.796875 28.964844 46.765625 28.96875 46.738281 28.96875 Z M 44.003906 29.699219 C 43.859375 29.699219 43.726562 29.605469 43.6875 29.457031 L 42.886719 26.480469 C 42.84375 26.304688 42.945312 26.125 43.121094 26.078125 C 43.292969 26.03125 43.472656 26.136719 43.519531 26.308594 L 44.320312 29.289062 C 44.367188 29.464844 44.261719 29.640625 44.085938 29.6875 C 44.058594 29.695312 44.03125 29.699219 44.003906 29.699219 Z M 41.265625 30.433594 C 41.121094 30.433594 40.988281 30.335938 40.949219 30.191406 L 40.152344 27.210938 C 40.105469 27.039062 40.207031 26.859375 40.382812 26.8125 C 40.558594 26.765625 40.738281 26.867188 40.785156 27.042969 L 41.582031 30.023438 C 41.628906 30.195312 41.523438 30.375 41.351562 30.421875 C 41.320312 30.429688 41.292969 30.433594 41.265625 30.433594 Z M 41.265625 30.433594 " fill-opacity="1" fill-rule="evenodd"/><g clip-path="url(#ef5720c65d)"><path fill="#000000" d="M 48.5 42.140625 C 47.816406 42.140625 47.257812 42.695312 47.257812 43.378906 L 47.257812 50.601562 C 47.257812 51.285156 47.816406 51.839844 48.5 51.839844 L 60.4375 51.839844 C 61.121094 51.839844 61.679688 51.285156 61.679688 50.601562 L 61.679688 43.378906 C 61.679688 42.695312 61.121094 42.140625 60.4375 42.140625 Z M 60.4375 52.496094 L 48.5 52.496094 C 47.453125 52.496094 46.605469 51.644531 46.605469 50.601562 L 46.605469 43.378906 C 46.605469 42.335938 47.453125 41.484375 48.5 41.484375 L 60.4375 41.484375 C 61.484375 41.484375 62.332031 42.335938 62.332031 43.378906 L 62.332031 50.601562 C 62.332031 51.644531 61.484375 52.496094 60.4375 52.496094 Z M 60.4375 52.496094 " fill-opacity="1" fill-rule="evenodd"/></g><g clip-path="url(#166c9f05aa)"><path fill="#000000" d="M 65.597656 50.792969 C 65.386719 50.792969 65.171875 50.753906 64.960938 50.679688 L 61.894531 49.582031 C 61.726562 49.519531 61.636719 49.332031 61.699219 49.164062 C 61.757812 48.992188 61.945312 48.902344 62.117188 48.964844 L 65.179688 50.0625 C 65.5625 50.199219 65.941406 50.148438 66.273438 49.914062 C 66.605469 49.683594 66.78125 49.34375 66.78125 48.9375 L 66.78125 45.042969 C 66.78125 44.636719 66.605469 44.296875 66.273438 44.0625 C 65.941406 43.832031 65.5625 43.777344 65.179688 43.914062 L 62.117188 45.015625 C 61.945312 45.074219 61.757812 44.988281 61.699219 44.816406 C 61.636719 44.644531 61.726562 44.460938 61.894531 44.398438 L 64.960938 43.300781 C 65.542969 43.089844 66.140625 43.171875 66.648438 43.527344 C 67.15625 43.886719 67.433594 44.421875 67.433594 45.042969 L 67.433594 48.9375 C 67.433594 49.558594 67.15625 50.09375 66.648438 50.449219 C 66.328125 50.679688 65.964844 50.792969 65.597656 50.792969 Z M 65.597656 50.792969 " fill-opacity="1" fill-rule="evenodd"/></g><path fill="#000000" d="M 51.007812 36.050781 C 49.507812 36.050781 48.289062 37.269531 48.289062 38.765625 C 48.289062 40.265625 49.507812 41.484375 51.007812 41.484375 C 52.507812 41.484375 53.726562 40.265625 53.726562 38.765625 C 53.726562 37.269531 52.507812 36.050781 51.007812 36.050781 Z M 51.007812 42.140625 C 49.148438 42.140625 47.636719 40.628906 47.636719 38.765625 C 47.636719 36.90625 49.148438 35.394531 51.007812 35.394531 C 52.867188 35.394531 54.382812 36.90625 54.382812 38.765625 C 54.382812 40.628906 52.867188 42.140625 51.007812 42.140625 Z M 51.007812 42.140625 " fill-opacity="1" fill-rule="evenodd"/><path fill="#000000" d="M 58.425781 37.046875 C 57.203125 37.046875 56.207031 38.042969 56.207031 39.265625 C 56.207031 40.492188 57.203125 41.484375 58.425781 41.484375 C 59.652344 41.484375 60.648438 40.492188 60.648438 39.265625 C 60.648438 38.042969 59.652344 37.046875 58.425781 37.046875 Z M 58.425781 42.140625 C 56.84375 42.140625 55.554688 40.851562 55.554688 39.265625 C 55.554688 37.679688 56.84375 36.390625 58.425781 36.390625 C 60.011719 36.390625 61.300781 37.679688 61.300781 39.265625 C 61.300781 40.851562 60.011719 42.140625 58.425781 42.140625 Z M 58.425781 42.140625 " fill-opacity="1" fill-rule="evenodd"/><path fill="#000000" d="M 59.953125 44.433594 L 57.738281 44.433594 C 57.558594 44.433594 57.410156 44.285156 57.410156 44.105469 C 57.410156 43.925781 57.558594 43.777344 57.738281 43.777344 L 59.953125 43.777344 C 60.132812 43.777344 60.277344 43.925781 60.277344 44.105469 C 60.277344 44.285156 60.132812 44.433594 59.953125 44.433594 Z M 59.953125 44.433594 " fill-opacity="1" fill-rule="evenodd"/><path fill="#000000" d="M 59.953125 46.101562 L 57.738281 46.101562 C 57.558594 46.101562 57.410156 45.957031 57.410156 45.773438 C 57.410156 45.59375 57.558594 45.449219 57.738281 45.449219 L 59.953125 45.449219 C 60.132812 45.449219 60.277344 45.59375 60.277344 45.773438 C 60.277344 45.957031 60.132812 46.101562 59.953125 46.101562 Z M 59.953125 46.101562 " fill-opacity="1" fill-rule="evenodd"/><path fill="#000000" d="M 49.84375 48.347656 C 49.433594 48.347656 49.101562 48.683594 49.101562 49.089844 C 49.101562 49.5 49.433594 49.832031 49.84375 49.832031 C 50.253906 49.832031 50.585938 49.5 50.585938 49.089844 C 50.585938 48.683594 50.253906 48.347656 49.84375 48.347656 Z M 49.84375 50.488281 C 49.074219 50.488281 48.445312 49.859375 48.445312 49.089844 C 48.445312 48.320312 49.074219 47.695312 49.84375 47.695312 C 50.613281 47.695312 51.238281 48.320312 51.238281 49.089844 C 51.238281 49.859375 50.613281 50.488281 49.84375 50.488281 Z M 49.84375 50.488281 " fill-opacity="1" fill-rule="evenodd"/><path fill="#000000" d="M 53.257812 48.386719 C 52.847656 48.386719 52.515625 48.71875 52.515625 49.128906 C 52.515625 49.539062 52.847656 49.871094 53.257812 49.871094 C 53.664062 49.871094 53.996094 49.539062 53.996094 49.128906 C 53.996094 48.71875 53.664062 48.386719 53.257812 48.386719 Z M 53.257812 50.523438 C 52.484375 50.523438 51.859375 49.898438 51.859375 49.128906 C 51.859375 48.359375 52.484375 47.730469 53.257812 47.730469 C 54.027344 47.730469 54.652344 48.359375 54.652344 49.128906 C 54.652344 49.898438 54.027344 50.523438 53.257812 50.523438 Z M 53.257812 50.523438 " fill-opacity="1" fill-rule="evenodd"/><path fill="#000000" d="M 56.667969 48.425781 C 56.261719 48.425781 55.925781 48.757812 55.925781 49.167969 C 55.925781 49.574219 56.261719 49.90625 56.667969 49.90625 C 57.078125 49.90625 57.410156 49.574219 57.410156 49.167969 C 57.410156 48.757812 57.078125 48.425781 56.667969 48.425781 Z M 56.667969 50.5625 C 55.898438 50.5625 55.273438 49.9375 55.273438 49.167969 C 55.273438 48.394531 55.898438 47.769531 56.667969 47.769531 C 57.4375 47.769531 58.066406 48.394531 58.066406 49.167969 C 58.066406 49.9375 57.4375 50.5625 56.667969 50.5625 Z M 56.667969 50.5625 " fill-opacity="1" fill-rule="evenodd"/></svg>