<svg xmlns="http://www.w3.org/2000/svg" xmlns:xlink="http://www.w3.org/1999/xlink" width="140" zoomAndPan="magnify" viewBox="0 0 104.88 74.999997" height="100" preserveAspectRatio="xMidYMid meet" version="1.0"><defs><clipPath id="d57d905b8f"><path d="M 0 0.0429688 L 104.761719 0.0429688 L 104.761719 74.957031 L 0 74.957031 Z M 0 0.0429688 " clip-rule="nonzero"/></clipPath><clipPath id="2fd7d8800c"><path d="M 57 37 L 67.421875 37 L 67.421875 51 L 57 51 Z M 57 37 " clip-rule="nonzero"/></clipPath><clipPath id="465738b9bc"><path d="M 37.457031 36 L 40 36 L 40 51 L 37.457031 51 Z M 37.457031 36 " clip-rule="nonzero"/></clipPath><clipPath id="ad84b53ad8"><path d="M 37.457031 49 L 67.421875 49 L 67.421875 51 L 37.457031 51 Z M 37.457031 49 " clip-rule="nonzero"/></clipPath></defs><g clip-path="url(#d57d905b8f)"><path fill="#ffffff" d="M 0 0.0429688 L 104.878906 0.0429688 L 104.878906 74.957031 L 0 74.957031 Z M 0 0.0429688 " fill-opacity="1" fill-rule="nonzero"/><path fill="#ffffff" d="M 0 0.0429688 L 104.878906 0.0429688 L 104.878906 74.957031 L 0 74.957031 Z M 0 0.0429688 " fill-opacity="1" fill-rule="nonzero"/></g><path fill="#000000" d="M 57.199219 41.8125 L 46.554688 41.8125 C 46.082031 41.8125 45.695312 41.425781 45.695312 40.953125 L 45.695312 31.027344 C 45.695312 30.871094 45.835938 30.730469 45.992188 30.730469 C 46.152344 30.730469 46.292969 30.871094 46.292969 31.027344 L 46.292969 40.953125 C 46.292969 41.109375 46.398438 41.214844 46.554688 41.214844 L 57.199219 41.214844 C 57.359375 41.214844 57.464844 41.109375 57.464844 40.953125 L 57.464844 31.027344 C 57.464844 30.871094 57.605469 30.730469 57.761719 30.730469 C 57.921875 30.730469 58.042969 30.871094 58.042969 31.027344 L 58.042969 40.953125 C 58.042969 41.425781 57.675781 41.8125 57.199219 41.8125 Z M 57.199219 41.8125 " fill-opacity="1" fill-rule="evenodd"/><path fill="#000000" d="M 58.464844 31.324219 L 45.292969 31.324219 C 44.976562 31.324219 44.695312 31.042969 44.695312 30.730469 L 44.695312 29.183594 C 44.695312 29.078125 44.746094 28.988281 44.835938 28.9375 L 50.648438 25.355469 C 51.050781 25.109375 51.472656 24.96875 51.894531 24.96875 C 52.300781 24.96875 52.703125 25.089844 53.089844 25.320312 L 58.921875 28.9375 C 58.992188 28.988281 59.042969 29.078125 59.042969 29.183594 L 59.042969 30.730469 C 59.042969 31.042969 58.78125 31.324219 58.464844 31.324219 Z M 45.292969 30.730469 L 58.464844 30.730469 L 58.464844 29.339844 L 52.773438 25.8125 C 52.195312 25.460938 51.5625 25.476562 50.964844 25.84375 L 45.292969 29.339844 Z M 45.292969 30.730469 " fill-opacity="1" fill-rule="evenodd"/><path fill="#000000" d="M 48.785156 28.394531 C 48.679688 28.394531 48.59375 28.339844 48.539062 28.253906 C 48.453125 28.113281 48.488281 27.9375 48.628906 27.847656 L 50.875 26.460938 C 51.492188 26.054688 52.195312 26.039062 52.84375 26.425781 C 52.84375 26.425781 52.84375 26.425781 52.863281 26.425781 L 55.144531 27.847656 C 55.269531 27.9375 55.320312 28.113281 55.234375 28.253906 C 55.144531 28.394531 54.96875 28.425781 54.828125 28.339844 L 52.546875 26.917969 C 52.089844 26.652344 51.632812 26.671875 51.191406 26.953125 L 48.945312 28.339844 C 48.890625 28.375 48.839844 28.394531 48.785156 28.394531 Z M 48.785156 28.394531 " fill-opacity="1" fill-rule="evenodd"/><path fill="#000000" d="M 56.972656 50.03125 C 56.8125 50.03125 56.671875 49.890625 56.671875 49.734375 C 56.671875 49.59375 56.777344 49.46875 56.902344 49.453125 L 56.902344 41.511719 C 56.902344 41.355469 57.042969 41.214844 57.199219 41.214844 C 57.359375 41.214844 57.480469 41.355469 57.480469 41.511719 L 57.480469 49.503906 C 57.480469 49.785156 57.253906 50.03125 56.972656 50.03125 Z M 56.003906 50.03125 C 55.726562 50.03125 55.480469 49.785156 55.480469 49.503906 L 55.480469 41.511719 C 55.480469 41.355469 55.621094 41.214844 55.777344 41.214844 C 55.933594 41.214844 56.058594 41.355469 56.058594 41.511719 L 56.058594 49.453125 C 56.199219 49.46875 56.285156 49.59375 56.285156 49.734375 C 56.285156 49.890625 56.164062 50.03125 56.003906 50.03125 Z M 56.003906 50.03125 " fill-opacity="1" fill-rule="evenodd"/><path fill="#000000" d="M 50.578125 50.03125 C 50.421875 50.03125 50.28125 49.890625 50.28125 49.734375 L 50.28125 41.511719 C 50.28125 41.355469 50.421875 41.214844 50.578125 41.214844 C 50.734375 41.214844 50.875 41.355469 50.875 41.511719 L 50.875 49.734375 C 50.875 49.890625 50.734375 50.03125 50.578125 50.03125 Z M 46.554688 50.03125 C 46.398438 50.03125 46.257812 49.890625 46.257812 49.734375 L 46.257812 41.511719 C 46.257812 41.355469 46.398438 41.214844 46.554688 41.214844 C 46.714844 41.214844 46.855469 41.355469 46.855469 41.511719 L 46.855469 49.734375 C 46.855469 49.890625 46.714844 50.03125 46.554688 50.03125 Z M 46.554688 50.03125 " fill-opacity="1" fill-rule="evenodd"/><path fill="#000000" d="M 50.578125 43.269531 L 46.554688 43.269531 C 46.398438 43.269531 46.257812 43.128906 46.257812 42.972656 C 46.257812 42.8125 46.398438 42.671875 46.554688 42.671875 L 50.578125 42.671875 C 50.734375 42.671875 50.875 42.8125 50.875 42.972656 C 50.875 43.128906 50.734375 43.269531 50.578125 43.269531 Z M 50.578125 43.269531 " fill-opacity="1" fill-rule="evenodd"/><path fill="#000000" d="M 50.578125 45.027344 L 46.554688 45.027344 C 46.398438 45.027344 46.257812 44.886719 46.257812 44.726562 C 46.257812 44.570312 46.398438 44.429688 46.554688 44.429688 L 50.578125 44.429688 C 50.734375 44.429688 50.875 44.570312 50.875 44.726562 C 50.875 44.886719 50.734375 45.027344 50.578125 45.027344 Z M 50.578125 45.027344 " fill-opacity="1" fill-rule="evenodd"/><path fill="#000000" d="M 50.578125 46.800781 L 46.554688 46.800781 C 46.398438 46.800781 46.257812 46.660156 46.257812 46.503906 C 46.257812 46.34375 46.398438 46.203125 46.554688 46.203125 L 50.578125 46.203125 C 50.734375 46.203125 50.875 46.34375 50.875 46.503906 C 50.875 46.660156 50.734375 46.800781 50.578125 46.800781 Z M 50.578125 46.800781 " fill-opacity="1" fill-rule="evenodd"/><path fill="#000000" d="M 50.578125 48.574219 L 46.554688 48.574219 C 46.398438 48.574219 46.257812 48.433594 46.257812 48.277344 C 46.257812 48.117188 46.398438 47.976562 46.554688 47.976562 L 50.578125 47.976562 C 50.734375 47.976562 50.875 48.117188 50.875 48.277344 C 50.875 48.433594 50.734375 48.574219 50.578125 48.574219 Z M 50.578125 48.574219 " fill-opacity="1" fill-rule="evenodd"/><path fill="#000000" d="M 57.761719 37.527344 L 45.992188 37.527344 C 45.835938 37.527344 45.695312 37.386719 45.695312 37.226562 C 45.695312 37.070312 45.835938 36.929688 45.992188 36.929688 L 57.761719 36.929688 C 57.921875 36.929688 58.042969 37.070312 58.042969 37.226562 C 58.042969 37.386719 57.921875 37.527344 57.761719 37.527344 Z M 57.761719 37.527344 " fill-opacity="1" fill-rule="evenodd"/><path fill="#000000" d="M 50.578125 41.8125 C 50.421875 41.8125 50.28125 41.671875 50.28125 41.511719 L 50.28125 37.226562 C 50.28125 37.070312 50.421875 36.929688 50.578125 36.929688 C 50.734375 36.929688 50.875 37.070312 50.875 37.226562 L 50.875 41.511719 C 50.875 41.671875 50.734375 41.8125 50.578125 41.8125 Z M 50.578125 41.8125 " fill-opacity="1" fill-rule="evenodd"/><path fill="#000000" d="M 57.761719 39.667969 L 50.578125 39.667969 C 50.421875 39.667969 50.28125 39.527344 50.28125 39.371094 C 50.28125 39.210938 50.421875 39.070312 50.578125 39.070312 L 57.761719 39.070312 C 57.921875 39.070312 58.042969 39.210938 58.042969 39.371094 C 58.042969 39.527344 57.921875 39.667969 57.761719 39.667969 Z M 57.761719 39.667969 " fill-opacity="1" fill-rule="evenodd"/><g clip-path="url(#2fd7d8800c)"><path fill="#000000" d="M 63.855469 50.015625 C 62.980469 50.015625 62.152344 49.488281 61.785156 48.679688 C 61.765625 48.664062 61.765625 48.664062 61.765625 48.664062 L 58.796875 40.828125 C 58.796875 40.828125 58.78125 40.8125 58.78125 40.8125 C 58.78125 40.792969 58.761719 40.777344 58.761719 40.757812 C 58.691406 40.617188 58.585938 40.53125 58.273438 40.53125 L 57.761719 40.53125 C 57.605469 40.53125 57.464844 40.390625 57.464844 40.230469 C 57.464844 40.074219 57.605469 39.933594 57.761719 39.933594 L 58.273438 39.933594 C 58.761719 39.933594 59.097656 40.125 59.273438 40.476562 C 59.289062 40.496094 59.289062 40.511719 59.289062 40.511719 C 59.308594 40.53125 59.324219 40.566406 59.324219 40.582031 L 62.3125 48.433594 C 62.609375 49.101562 63.277344 49.488281 63.996094 49.417969 C 64.171875 49.417969 64.3125 49.523438 64.3125 49.699219 C 64.332031 49.855469 64.207031 49.996094 64.050781 50.015625 C 63.980469 50.015625 63.925781 50.015625 63.855469 50.015625 Z M 66.140625 50.015625 C 65.964844 50.015625 65.84375 49.875 65.84375 49.714844 C 65.84375 49.558594 65.964844 49.417969 66.140625 49.417969 C 66.527344 49.417969 66.84375 49.101562 66.84375 48.714844 C 66.84375 48.328125 66.527344 48.011719 66.140625 48.011719 L 63.875 48.011719 C 63.734375 48.011719 63.609375 47.90625 63.574219 47.785156 C 63.574219 47.765625 63.574219 47.765625 63.574219 47.765625 L 60.574219 39.898438 C 60.167969 39.019531 59.324219 38.511719 58.273438 38.511719 L 57.761719 38.511719 C 57.605469 38.511719 57.464844 38.371094 57.464844 38.210938 C 57.464844 38.054688 57.605469 37.914062 57.761719 37.914062 L 58.273438 37.914062 C 59.554688 37.914062 60.609375 38.582031 61.117188 39.667969 C 61.117188 39.667969 61.117188 39.6875 61.117188 39.6875 L 64.066406 47.414062 L 66.140625 47.414062 C 66.84375 47.414062 67.421875 48.011719 67.421875 48.714844 C 67.421875 49.433594 66.84375 50.015625 66.140625 50.015625 Z M 66.140625 50.015625 " fill-opacity="1" fill-rule="evenodd"/></g><g clip-path="url(#465738b9bc)"><path fill="#000000" d="M 38.878906 50.03125 C 38.722656 50.03125 38.582031 49.890625 38.582031 49.734375 C 38.582031 49.574219 38.703125 49.453125 38.84375 49.433594 L 38.84375 36.699219 L 38.441406 36.699219 C 38.230469 36.699219 38.054688 36.875 38.054688 37.105469 L 38.054688 49.433594 C 38.195312 49.453125 38.316406 49.574219 38.316406 49.734375 C 38.316406 49.890625 38.175781 50.03125 38.019531 50.03125 C 37.703125 50.03125 37.457031 49.785156 37.457031 49.46875 L 37.457031 37.105469 C 37.457031 36.558594 37.914062 36.105469 38.441406 36.105469 L 39.144531 36.105469 C 39.300781 36.105469 39.441406 36.242188 39.441406 36.402344 L 39.441406 49.46875 C 39.441406 49.769531 39.179688 50.03125 38.878906 50.03125 Z M 38.878906 50.03125 " fill-opacity="1" fill-rule="evenodd"/></g><path fill="#000000" d="M 45.992188 38.105469 L 39.144531 38.105469 C 38.984375 38.105469 38.84375 37.964844 38.84375 37.808594 C 38.84375 37.648438 38.984375 37.507812 39.144531 37.507812 L 45.992188 37.507812 C 46.152344 37.507812 46.292969 37.648438 46.292969 37.808594 C 46.292969 37.964844 46.152344 38.105469 45.992188 38.105469 Z M 45.992188 36.699219 L 39.144531 36.699219 C 38.984375 36.699219 38.84375 36.558594 38.84375 36.402344 C 38.84375 36.242188 38.984375 36.105469 39.144531 36.105469 L 45.992188 36.105469 C 46.152344 36.105469 46.292969 36.242188 46.292969 36.402344 C 46.292969 36.558594 46.152344 36.699219 45.992188 36.699219 Z M 45.992188 36.699219 " fill-opacity="1" fill-rule="evenodd"/><path fill="#000000" d="M 40.917969 46.363281 C 40.757812 46.363281 40.617188 46.222656 40.617188 46.0625 L 40.617188 37.808594 C 40.617188 37.648438 40.757812 37.507812 40.917969 37.507812 C 41.074219 37.507812 41.214844 37.648438 41.214844 37.808594 L 41.214844 46.0625 C 41.214844 46.222656 41.074219 46.363281 40.917969 46.363281 Z M 40.917969 46.363281 " fill-opacity="1" fill-rule="evenodd"/><path fill="#000000" d="M 44.21875 46.363281 C 44.0625 46.363281 43.921875 46.222656 43.921875 46.0625 L 43.921875 37.808594 C 43.921875 37.648438 44.0625 37.507812 44.21875 37.507812 C 44.378906 37.507812 44.519531 37.648438 44.519531 37.808594 L 44.519531 46.0625 C 44.519531 46.222656 44.378906 46.363281 44.21875 46.363281 Z M 44.21875 46.363281 " fill-opacity="1" fill-rule="evenodd"/><path fill="#000000" d="M 44.605469 47.574219 L 40.53125 47.574219 C 40.074219 47.574219 39.6875 47.1875 39.6875 46.730469 L 39.6875 46.605469 C 39.6875 46.152344 40.074219 45.765625 40.53125 45.765625 L 44.605469 45.765625 C 45.0625 45.765625 45.449219 46.152344 45.449219 46.605469 L 45.449219 46.730469 C 45.449219 47.1875 45.0625 47.574219 44.605469 47.574219 Z M 40.53125 46.363281 C 40.390625 46.363281 40.285156 46.46875 40.285156 46.605469 L 40.285156 46.730469 C 40.285156 46.871094 40.390625 46.976562 40.53125 46.976562 L 44.605469 46.976562 C 44.746094 46.976562 44.851562 46.871094 44.851562 46.730469 L 44.851562 46.605469 C 44.851562 46.46875 44.746094 46.363281 44.605469 46.363281 Z M 40.53125 46.363281 " fill-opacity="1" fill-rule="evenodd"/><g clip-path="url(#ad84b53ad8)"><path fill="#000000" d="M 67.140625 50.03125 L 37.753906 50.03125 C 37.597656 50.03125 37.457031 49.890625 37.457031 49.734375 C 37.457031 49.574219 37.597656 49.433594 37.753906 49.433594 L 67.140625 49.433594 C 67.300781 49.433594 67.421875 49.574219 67.421875 49.734375 C 67.421875 49.890625 67.300781 50.03125 67.140625 50.03125 Z M 67.140625 50.03125 " fill-opacity="1" fill-rule="evenodd"/></g><path fill="#000000" d="M 45.992188 34.574219 C 45.921875 34.574219 45.851562 34.539062 45.78125 34.488281 C 45.675781 34.382812 45.660156 34.1875 45.78125 34.082031 L 48.855469 30.835938 C 48.960938 30.710938 49.15625 30.710938 49.261719 30.816406 C 49.382812 30.921875 49.382812 31.113281 49.277344 31.238281 L 46.203125 34.488281 C 46.152344 34.539062 46.0625 34.574219 45.992188 34.574219 Z M 45.992188 34.574219 " fill-opacity="1" fill-rule="evenodd"/><path fill="#000000" d="M 57.761719 34.574219 C 57.675781 34.574219 57.605469 34.539062 57.550781 34.488281 L 54.476562 31.238281 C 54.355469 31.113281 54.371094 30.921875 54.476562 30.816406 C 54.601562 30.710938 54.792969 30.710938 54.898438 30.835938 L 57.972656 34.082031 C 58.078125 34.1875 58.078125 34.382812 57.957031 34.488281 C 57.902344 34.539062 57.832031 34.574219 57.761719 34.574219 Z M 57.761719 34.574219 " fill-opacity="1" fill-rule="evenodd"/></svg>