<svg xmlns="http://www.w3.org/2000/svg" xmlns:xlink="http://www.w3.org/1999/xlink" width="140" zoomAndPan="magnify" viewBox="0 0 104.88 74.999997" height="100" preserveAspectRatio="xMidYMid meet" version="1.0"><defs><clipPath id="616e3aba7f"><path d="M 0 0.0429688 L 104.761719 0.0429688 L 104.761719 74.957031 L 0 74.957031 Z M 0 0.0429688 " clip-rule="nonzero"/></clipPath><clipPath id="494ec9df9d"><path d="M 37.457031 36 L 50 36 L 50 44 L 37.457031 44 Z M 37.457031 36 " clip-rule="nonzero"/></clipPath><clipPath id="ec1fe84e4f"><path d="M 59 45 L 66 45 L 66 52.484375 L 59 52.484375 Z M 59 45 " clip-rule="nonzero"/></clipPath><clipPath id="4a26a8f7d6"><path d="M 61 31 L 67.421875 31 L 67.421875 37 L 61 37 Z M 61 31 " clip-rule="nonzero"/></clipPath><clipPath id="e8374dc64a"><path d="M 58 22.515625 L 65 22.515625 L 65 27 L 58 27 Z M 58 22.515625 " clip-rule="nonzero"/></clipPath><clipPath id="b272fa7bf7"><path d="M 63 22.515625 L 67.421875 22.515625 L 67.421875 27 L 63 27 Z M 63 22.515625 " clip-rule="nonzero"/></clipPath><clipPath id="5d114987bc"><path d="M 50 45 L 53 45 L 53 52.484375 L 50 52.484375 Z M 50 45 " clip-rule="nonzero"/></clipPath><clipPath id="2f6e8c205a"><path d="M 40 45 L 46 45 L 46 52.484375 L 40 52.484375 Z M 40 45 " clip-rule="nonzero"/></clipPath></defs><g clip-path="url(#616e3aba7f)"><path fill="#ffffff" d="M 0 0.0429688 L 104.878906 0.0429688 L 104.878906 74.957031 L 0 74.957031 Z M 0 0.0429688 " fill-opacity="1" fill-rule="nonzero"/><path fill="#ffffff" d="M 0 0.0429688 L 104.878906 0.0429688 L 104.878906 74.957031 L 0 74.957031 Z M 0 0.0429688 " fill-opacity="1" fill-rule="nonzero"/></g><path fill="#000000" d="M 42.910156 37.90625 C 42.566406 37.90625 42.230469 37.851562 41.90625 37.742188 C 41.578125 37.632812 41.277344 37.472656 41.003906 37.265625 C 40.726562 37.058594 40.492188 36.8125 40.300781 36.527344 C 40.105469 36.242188 39.960938 35.933594 39.867188 35.601562 C 39.824219 35.460938 39.839844 35.320312 39.910156 35.191406 C 39.984375 35.058594 40.089844 34.972656 40.234375 34.933594 C 40.378906 34.894531 40.515625 34.910156 40.648438 34.984375 C 40.777344 35.058594 40.859375 35.171875 40.898438 35.316406 C 40.96875 35.558594 41.078125 35.78125 41.226562 35.984375 C 41.378906 36.191406 41.558594 36.359375 41.769531 36.5 C 41.980469 36.636719 42.210938 36.734375 42.457031 36.789062 C 42.707031 36.84375 42.953125 36.851562 43.203125 36.816406 C 43.453125 36.78125 43.691406 36.703125 43.914062 36.582031 C 44.136719 36.464844 44.328125 36.308594 44.496094 36.117188 C 44.660156 35.925781 44.789062 35.710938 44.878906 35.476562 C 44.964844 35.238281 45.007812 34.992188 45.007812 34.738281 C 45.011719 34.035156 44.726562 33.476562 44.15625 33.0625 C 44.035156 32.976562 43.957031 32.859375 43.929688 32.710938 C 43.90625 32.5625 43.9375 32.429688 44.023438 32.304688 C 44.113281 32.183594 44.230469 32.113281 44.378906 32.089844 C 44.527344 32.066406 44.664062 32.101562 44.78125 32.195312 C 45.050781 32.390625 45.285156 32.625 45.480469 32.894531 C 45.675781 33.164062 45.824219 33.460938 45.925781 33.777344 C 46.03125 34.09375 46.082031 34.421875 46.078125 34.753906 C 46.078125 35.089844 46.027344 35.414062 45.921875 35.730469 C 45.820312 36.046875 45.667969 36.339844 45.472656 36.609375 C 45.273438 36.878906 45.039062 37.113281 44.769531 37.308594 C 44.5 37.503906 44.207031 37.652344 43.886719 37.753906 C 43.570312 37.859375 43.246094 37.910156 42.910156 37.910156 Z M 42.910156 37.90625 " fill-opacity="1" fill-rule="nonzero"/><path fill="#000000" d="M 40.039062 36.132812 C 39.894531 36.132812 39.761719 36.097656 39.636719 36.027344 C 39.386719 35.886719 39.246094 35.667969 39.21875 35.382812 C 39.203125 35.234375 39.199219 35.085938 39.203125 34.9375 C 39.210938 34.523438 39.28125 34.121094 39.417969 33.730469 C 39.550781 33.34375 39.746094 32.984375 39.996094 32.65625 C 40.246094 32.328125 40.542969 32.046875 40.886719 31.816406 C 41.226562 31.582031 41.59375 31.410156 41.992188 31.296875 C 42.953125 31.023438 43.882812 31.105469 44.78125 31.550781 C 44.90625 31.609375 45.003906 31.695312 45.085938 31.808594 C 45.164062 31.917969 45.214844 32.042969 45.230469 32.175781 C 45.25 32.3125 45.238281 32.445312 45.1875 32.574219 C 45.140625 32.699219 45.066406 32.8125 44.96875 32.902344 C 43.589844 34.164062 42.066406 35.214844 40.394531 36.054688 C 40.28125 36.109375 40.164062 36.132812 40.039062 36.132812 Z M 40.285156 35.277344 Z M 43.066406 32.21875 C 42.796875 32.21875 42.535156 32.253906 42.277344 32.328125 C 41.992188 32.410156 41.730469 32.53125 41.488281 32.699219 C 41.242188 32.863281 41.03125 33.0625 40.851562 33.296875 C 40.671875 33.527344 40.53125 33.785156 40.433594 34.0625 C 40.335938 34.339844 40.28125 34.625 40.273438 34.917969 C 41.601562 34.210938 42.832031 33.359375 43.960938 32.363281 C 43.671875 32.265625 43.371094 32.21875 43.066406 32.21875 Z M 44.253906 32.105469 Z M 44.253906 32.105469 " fill-opacity="1" fill-rule="nonzero"/><path fill="#000000" d="M 41.632812 38.933594 C 41.300781 38.933594 40.992188 38.847656 40.707031 38.683594 C 40.519531 38.589844 40.355469 38.46875 40.21875 38.3125 C 40.078125 38.15625 39.976562 37.980469 39.90625 37.785156 C 39.839844 37.589844 39.8125 37.386719 39.824219 37.179688 C 39.835938 36.972656 39.886719 36.773438 39.976562 36.585938 C 40.167969 36.257812 40.449219 36.050781 40.820312 35.964844 C 40.964844 35.933594 41.101562 35.953125 41.226562 36.03125 C 41.351562 36.109375 41.429688 36.21875 41.464844 36.363281 C 41.5 36.503906 41.480469 36.640625 41.402344 36.765625 C 41.324219 36.890625 41.214844 36.972656 41.070312 37.007812 C 40.996094 37.019531 40.941406 37.058594 40.902344 37.121094 C 40.816406 37.273438 40.941406 37.578125 41.242188 37.757812 C 41.539062 37.925781 41.867188 37.882812 41.957031 37.730469 C 41.992188 37.652344 41.996094 37.570312 41.964844 37.488281 C 41.921875 37.347656 41.9375 37.210938 42.007812 37.082031 C 42.078125 36.953125 42.183594 36.867188 42.328125 36.824219 C 42.46875 36.78125 42.605469 36.796875 42.734375 36.867188 C 42.863281 36.9375 42.949219 37.042969 42.992188 37.183594 C 43.113281 37.5625 43.078125 37.921875 42.882812 38.265625 C 42.75 38.484375 42.574219 38.648438 42.347656 38.769531 C 42.125 38.886719 41.886719 38.945312 41.632812 38.933594 Z M 41.632812 38.933594 " fill-opacity="1" fill-rule="nonzero"/><path fill="#000000" d="M 60.457031 48.894531 C 60.382812 48.894531 60.316406 48.878906 60.246094 48.851562 L 56.28125 47.164062 C 55.277344 46.738281 54.503906 46.054688 53.964844 45.105469 L 51.824219 41.371094 C 51.472656 41.195312 51.144531 41.046875 50.828125 40.917969 C 50.691406 40.863281 50.597656 40.765625 50.539062 40.628906 C 50.484375 40.496094 50.484375 40.359375 50.539062 40.222656 C 50.59375 40.085938 50.6875 39.988281 50.824219 39.933594 C 50.960938 39.875 51.097656 39.875 51.234375 39.929688 C 51.621094 40.085938 52.019531 40.269531 52.449219 40.488281 C 52.546875 40.535156 52.621094 40.605469 52.671875 40.699219 L 54.894531 44.574219 C 55.316406 45.3125 55.917969 45.847656 56.699219 46.175781 L 60.175781 47.65625 L 60.710938 46.410156 L 57.320312 44.667969 C 57.066406 44.539062 56.871094 44.351562 56.734375 44.101562 L 55.074219 41.140625 C 55.03125 41.058594 55.007812 40.976562 55.003906 40.882812 C 55.003906 40.792969 55.023438 40.707031 55.066406 40.628906 C 55.109375 40.546875 55.167969 40.484375 55.242188 40.433594 C 55.316406 40.382812 55.402344 40.351562 55.492188 40.34375 L 58.917969 40.027344 C 59.589844 39.964844 60.144531 39.675781 60.582031 39.15625 L 62.957031 36.347656 L 62.070312 35.59375 L 60.039062 37.9375 C 59.941406 38.050781 59.820312 38.109375 59.671875 38.121094 C 59.523438 38.132812 59.394531 38.089844 59.28125 37.992188 C 59.171875 37.894531 59.109375 37.773438 59.097656 37.625 C 59.089844 37.476562 59.132812 37.347656 59.230469 37.234375 L 61.605469 34.492188 C 61.703125 34.382812 61.824219 34.320312 61.96875 34.3125 C 62.117188 34.300781 62.246094 34.339844 62.355469 34.433594 L 64.058594 35.875 C 64.167969 35.96875 64.230469 36.089844 64.246094 36.238281 C 64.257812 36.386719 64.214844 36.515625 64.121094 36.628906 L 61.398438 39.847656 C 60.773438 40.589844 59.980469 41.003906 59.015625 41.089844 L 56.410156 41.332031 L 57.671875 43.582031 C 57.703125 43.640625 57.75 43.6875 57.808594 43.71875 L 61.644531 45.6875 C 61.769531 45.753906 61.855469 45.851562 61.90625 45.984375 C 61.953125 46.113281 61.949219 46.246094 61.890625 46.375 L 60.949219 48.570312 C 60.855469 48.785156 60.691406 48.894531 60.457031 48.894531 Z M 60.457031 48.894531 " fill-opacity="1" fill-rule="nonzero"/><g clip-path="url(#494ec9df9d)"><path fill="#000000" d="M 39.289062 43.890625 C 39.054688 43.890625 38.832031 43.847656 38.617188 43.761719 C 38.402344 43.679688 38.210938 43.558594 38.039062 43.398438 C 37.871094 43.242188 37.734375 43.058594 37.636719 42.851562 C 37.535156 42.644531 37.476562 42.425781 37.457031 42.195312 C 37.4375 41.964844 37.464844 41.738281 37.53125 41.515625 C 37.597656 41.296875 37.703125 41.09375 37.847656 40.914062 C 37.992188 40.730469 38.164062 40.582031 38.363281 40.464844 C 38.5625 40.351562 38.777344 40.273438 39.007812 40.238281 L 42.214844 39.742188 C 42.695312 39.671875 43.027344 39.410156 43.207031 38.957031 L 44.207031 36.46875 C 44.261719 36.332031 44.359375 36.230469 44.496094 36.171875 C 44.632812 36.113281 44.769531 36.113281 44.90625 36.167969 C 45.046875 36.222656 45.144531 36.320312 45.199219 36.457031 C 45.257812 36.59375 45.257812 36.730469 45.203125 36.867188 L 44.199219 39.355469 C 44.046875 39.742188 43.808594 40.0625 43.480469 40.320312 C 43.15625 40.578125 42.789062 40.738281 42.378906 40.800781 L 39.171875 41.296875 C 38.960938 41.328125 38.792969 41.429688 38.667969 41.601562 C 38.542969 41.769531 38.5 41.960938 38.53125 42.167969 C 38.5625 42.378906 38.664062 42.546875 38.835938 42.671875 C 39.003906 42.796875 39.195312 42.839844 39.402344 42.808594 L 43.355469 42.203125 C 44.230469 42.070312 44.9375 41.65625 45.480469 40.960938 L 46.929688 39.121094 C 47.050781 38.96875 47.207031 38.902344 47.402344 38.921875 C 48.011719 38.984375 48.609375 39.089844 49.203125 39.242188 C 49.347656 39.277344 49.460938 39.359375 49.539062 39.484375 C 49.617188 39.613281 49.636719 39.75 49.597656 39.898438 C 49.5625 40.042969 49.480469 40.152344 49.347656 40.226562 C 49.21875 40.300781 49.082031 40.320312 48.9375 40.28125 C 48.492188 40.164062 48.039062 40.078125 47.585938 40.019531 L 46.324219 41.621094 C 45.609375 42.539062 44.671875 43.085938 43.519531 43.261719 L 39.566406 43.867188 C 39.472656 43.882812 39.382812 43.890625 39.289062 43.890625 Z M 39.289062 43.890625 " fill-opacity="1" fill-rule="nonzero"/></g><g clip-path="url(#ec1fe84e4f)"><path fill="#000000" d="M 63.183594 52.480469 C 62.9375 52.480469 62.710938 52.414062 62.5 52.285156 C 62.292969 52.15625 62.132812 51.984375 62.023438 51.765625 C 61.46875 50.667969 60.804688 49.644531 60.03125 48.6875 C 59.941406 48.570312 59.90625 48.441406 59.925781 48.292969 C 59.941406 48.148438 60.011719 48.027344 60.128906 47.9375 C 60.246094 47.847656 60.375 47.8125 60.523438 47.828125 C 60.671875 47.847656 60.789062 47.917969 60.878906 48.035156 C 61.695312 49.042969 62.394531 50.125 62.980469 51.285156 C 63.011719 51.351562 63.066406 51.390625 63.140625 51.40625 C 63.21875 51.417969 63.285156 51.398438 63.339844 51.34375 C 63.949219 50.753906 64.40625 50.058594 64.710938 49.265625 C 64.738281 49.199219 64.730469 49.136719 64.6875 49.078125 C 63.839844 48.015625 62.835938 47.503906 61.175781 46.652344 L 61.644531 45.6875 C 63.390625 46.585938 64.53125 47.167969 65.523438 48.410156 C 65.828125 48.792969 65.886719 49.210938 65.703125 49.664062 C 65.34375 50.605469 64.796875 51.425781 64.070312 52.125 C 63.820312 52.359375 63.527344 52.480469 63.183594 52.480469 Z M 63.183594 52.480469 " fill-opacity="1" fill-rule="nonzero"/></g><g clip-path="url(#4a26a8f7d6)"><path fill="#000000" d="M 63.710938 36.820312 C 63.472656 36.820312 63.304688 36.710938 63.214844 36.488281 C 63.125 36.261719 63.167969 36.070312 63.339844 35.902344 C 64.253906 35.015625 65.25 34.234375 66.328125 33.554688 C 65.984375 33.089844 65.550781 32.734375 65.03125 32.480469 C 64.074219 33.300781 63.207031 34.199219 62.425781 35.183594 C 62.332031 35.296875 62.210938 35.363281 62.0625 35.378906 C 61.917969 35.390625 61.785156 35.351562 61.671875 35.257812 C 61.558594 35.164062 61.492188 35.042969 61.480469 34.894531 C 61.464844 34.75 61.503906 34.617188 61.597656 34.503906 C 62.421875 33.46875 63.335938 32.523438 64.339844 31.664062 C 64.503906 31.527344 64.691406 31.445312 64.898438 31.421875 C 65.109375 31.394531 65.3125 31.429688 65.503906 31.519531 C 66.144531 31.839844 66.699219 32.269531 67.160156 32.820312 C 67.375 33.070312 67.457031 33.359375 67.40625 33.6875 C 67.355469 34.019531 67.1875 34.277344 66.902344 34.457031 C 65.886719 35.097656 64.949219 35.835938 64.085938 36.667969 C 63.980469 36.769531 63.855469 36.820312 63.710938 36.820312 Z M 63.710938 36.820312 " fill-opacity="1" fill-rule="nonzero"/></g><path fill="#000000" d="M 55.914062 37.710938 C 55.65625 37.710938 55.402344 37.671875 55.15625 37.59375 L 49.144531 35.753906 C 48.816406 35.65625 48.515625 35.496094 48.25 35.273438 C 47.984375 35.054688 47.769531 34.792969 47.605469 34.488281 C 47.441406 34.183594 47.34375 33.859375 47.3125 33.515625 C 47.277344 33.171875 47.3125 32.832031 47.414062 32.503906 C 47.515625 32.171875 47.675781 31.875 47.894531 31.609375 C 48.117188 31.34375 48.378906 31.128906 48.683594 30.964844 C 48.988281 30.804688 49.316406 30.707031 49.660156 30.675781 C 50.003906 30.644531 50.339844 30.679688 50.671875 30.78125 L 56.679688 32.621094 C 56.976562 32.714844 57.25 32.855469 57.496094 33.042969 C 57.746094 33.230469 57.953125 33.457031 58.117188 33.722656 C 58.285156 33.984375 58.398438 34.269531 58.460938 34.574219 C 58.527344 34.878906 58.535156 35.1875 58.488281 35.496094 C 58.441406 35.804688 58.34375 36.09375 58.195312 36.367188 C 58.042969 36.640625 57.851562 36.878906 57.613281 37.082031 C 57.378906 37.285156 57.113281 37.441406 56.820312 37.546875 C 56.527344 37.65625 56.226562 37.710938 55.914062 37.710938 Z M 49.910156 31.738281 C 49.53125 31.738281 49.195312 31.859375 48.910156 32.105469 C 48.621094 32.355469 48.449219 32.664062 48.394531 33.039062 C 48.335938 33.414062 48.410156 33.761719 48.613281 34.085938 C 48.816406 34.40625 49.097656 34.621094 49.460938 34.730469 L 55.46875 36.574219 C 55.765625 36.664062 56.058594 36.664062 56.355469 36.574219 C 56.652344 36.484375 56.898438 36.320312 57.097656 36.082031 C 57.292969 35.84375 57.410156 35.570312 57.441406 35.261719 C 57.472656 34.957031 57.414062 34.664062 57.269531 34.390625 C 57.070312 34.015625 56.769531 33.769531 56.367188 33.644531 L 50.355469 31.804688 C 50.210938 31.757812 50.0625 31.738281 49.910156 31.738281 Z M 49.910156 31.738281 " fill-opacity="1" fill-rule="nonzero"/><path fill="#000000" d="M 50.207031 41.792969 C 50.066406 41.792969 49.933594 41.769531 49.800781 41.726562 L 49.265625 41.546875 C 49.101562 41.492188 48.957031 41.410156 48.828125 41.296875 C 48.699219 41.183594 48.597656 41.050781 48.519531 40.898438 C 48.445312 40.746094 48.398438 40.582031 48.386719 40.414062 C 48.375 40.242188 48.398438 40.074219 48.449219 39.914062 L 49.382812 37.128906 C 49.429688 36.992188 49.519531 36.890625 49.652344 36.824219 C 49.785156 36.757812 49.921875 36.75 50.058594 36.796875 C 50.199219 36.84375 50.300781 36.933594 50.367188 37.0625 C 50.433594 37.195312 50.445312 37.328125 50.398438 37.46875 L 49.464844 40.253906 C 49.417969 40.394531 49.464844 40.484375 49.605469 40.53125 L 50.140625 40.710938 C 50.277344 40.757812 50.371094 40.710938 50.417969 40.574219 L 51.386719 37.675781 C 51.4375 37.539062 51.523438 37.4375 51.65625 37.371094 C 51.789062 37.308594 51.925781 37.296875 52.0625 37.34375 C 52.203125 37.390625 52.304688 37.480469 52.371094 37.609375 C 52.4375 37.742188 52.449219 37.875 52.402344 38.015625 L 51.433594 40.914062 C 51.34375 41.175781 51.1875 41.386719 50.960938 41.550781 C 50.738281 41.710938 50.484375 41.792969 50.207031 41.792969 Z M 50.207031 41.792969 " fill-opacity="1" fill-rule="nonzero"/><g clip-path="url(#e8374dc64a)"><path fill="#000000" d="M 61.5 26.664062 C 61.015625 26.679688 60.550781 26.589844 60.105469 26.390625 C 59.660156 26.195312 59.28125 25.910156 58.96875 25.542969 C 58.75 25.261719 58.640625 24.945312 58.640625 24.589844 C 58.640625 24.234375 58.75 23.917969 58.96875 23.640625 C 59.371094 23.179688 59.859375 22.855469 60.441406 22.667969 C 61.019531 22.476562 61.609375 22.445312 62.203125 22.578125 C 62.753906 22.640625 63.25 22.832031 63.695312 23.164062 C 64.136719 23.492188 64.46875 23.910156 64.683594 24.417969 C 64.722656 24.535156 64.722656 24.648438 64.683594 24.761719 C 64.46875 25.269531 64.136719 25.6875 63.695312 26.019531 C 63.25 26.347656 62.753906 26.542969 62.203125 26.601562 C 61.972656 26.644531 61.738281 26.664062 61.5 26.664062 Z M 59.804688 24.875 C 60.089844 25.175781 60.429688 25.386719 60.824219 25.507812 C 61.21875 25.628906 61.617188 25.640625 62.019531 25.546875 C 62.691406 25.472656 63.21875 25.152344 63.59375 24.589844 C 63.21875 24.027344 62.691406 23.707031 62.019531 23.632812 C 61.617188 23.539062 61.21875 23.554688 60.824219 23.671875 C 60.429688 23.792969 60.089844 24.003906 59.804688 24.304688 C 59.660156 24.496094 59.660156 24.6875 59.804688 24.875 Z M 59.804688 24.875 " fill-opacity="1" fill-rule="nonzero"/></g><g clip-path="url(#b272fa7bf7)"><path fill="#000000" d="M 66.507812 26.664062 C 66.398438 26.664062 66.300781 26.632812 66.210938 26.574219 L 63.882812 25.035156 C 63.808594 24.988281 63.75 24.921875 63.707031 24.84375 C 63.664062 24.765625 63.640625 24.679688 63.640625 24.589844 C 63.640625 24.5 63.664062 24.417969 63.707031 24.335938 C 63.75 24.257812 63.808594 24.195312 63.882812 24.144531 L 66.210938 22.605469 C 66.34375 22.519531 66.484375 22.496094 66.640625 22.535156 C 66.792969 22.574219 66.90625 22.664062 66.980469 22.800781 C 67.269531 23.355469 67.417969 23.949219 67.417969 24.574219 C 67.421875 25.199219 67.28125 25.792969 66.992188 26.351562 C 66.898438 26.558594 66.738281 26.664062 66.507812 26.664062 Z M 65.148438 24.589844 L 66.238281 25.3125 C 66.378906 24.828125 66.386719 24.34375 66.257812 23.859375 Z M 65.148438 24.589844 " fill-opacity="1" fill-rule="nonzero"/></g><path fill="#000000" d="M 52.027344 29.480469 C 51.558594 29.496094 51.109375 29.410156 50.683594 29.21875 C 50.257812 29.027344 49.890625 28.757812 49.589844 28.398438 C 49.375 28.128906 49.269531 27.820312 49.269531 27.476562 C 49.269531 27.132812 49.375 26.824219 49.589844 26.550781 C 49.976562 26.109375 50.449219 25.796875 51.007812 25.613281 C 51.566406 25.429688 52.128906 25.402344 52.703125 25.53125 C 53.234375 25.589844 53.710938 25.777344 54.136719 26.09375 C 54.566406 26.410156 54.882812 26.816406 55.089844 27.304688 C 55.128906 27.417969 55.128906 27.53125 55.089844 27.644531 C 54.882812 28.136719 54.566406 28.539062 54.140625 28.859375 C 53.710938 29.175781 53.234375 29.363281 52.703125 29.421875 C 52.480469 29.460938 52.253906 29.480469 52.027344 29.480469 Z M 50.425781 27.734375 C 50.695312 28.019531 51.015625 28.21875 51.386719 28.332031 C 51.761719 28.445312 52.140625 28.457031 52.519531 28.367188 C 53.148438 28.296875 53.644531 28 54 27.476562 C 53.644531 26.953125 53.148438 26.65625 52.519531 26.585938 C 52.140625 26.496094 51.761719 26.507812 51.386719 26.621094 C 51.015625 26.734375 50.695312 26.933594 50.425781 27.21875 C 50.296875 27.390625 50.296875 27.5625 50.425781 27.734375 Z M 50.425781 27.734375 " fill-opacity="1" fill-rule="nonzero"/><path fill="#000000" d="M 56.8125 29.480469 C 56.703125 29.480469 56.605469 29.453125 56.515625 29.390625 L 54.289062 27.921875 C 54.214844 27.871094 54.15625 27.808594 54.113281 27.730469 C 54.070312 27.648438 54.050781 27.566406 54.050781 27.476562 C 54.050781 27.386719 54.070312 27.300781 54.113281 27.222656 C 54.15625 27.144531 54.214844 27.078125 54.289062 27.027344 L 56.515625 25.558594 C 56.648438 25.472656 56.789062 25.449219 56.941406 25.488281 C 57.097656 25.527344 57.210938 25.617188 57.285156 25.753906 C 57.5625 26.289062 57.703125 26.855469 57.707031 27.460938 C 57.707031 28.0625 57.574219 28.632812 57.296875 29.167969 C 57.230469 29.316406 57.117188 29.414062 56.957031 29.460938 C 56.910156 29.472656 56.859375 29.480469 56.8125 29.480469 Z M 55.554688 27.476562 L 56.539062 28.125 C 56.660156 27.691406 56.667969 27.253906 56.558594 26.8125 Z M 55.554688 27.476562 " fill-opacity="1" fill-rule="nonzero"/><path fill="#000000" d="M 40.378906 30.402344 C 40.148438 30.402344 39.929688 30.359375 39.71875 30.269531 C 39.503906 30.183594 39.316406 30.058594 39.15625 29.894531 C 38.992188 29.734375 38.867188 29.546875 38.78125 29.332031 C 38.691406 29.121094 38.648438 28.902344 38.648438 28.671875 C 38.648438 28.441406 38.691406 28.222656 38.78125 28.007812 C 38.867188 27.796875 38.992188 27.609375 39.15625 27.449219 C 39.316406 27.285156 39.503906 27.160156 39.71875 27.074219 C 39.929688 26.984375 40.148438 26.941406 40.378906 26.941406 C 40.609375 26.941406 40.828125 26.984375 41.042969 27.074219 C 41.253906 27.160156 41.441406 27.285156 41.601562 27.449219 C 41.765625 27.609375 41.890625 27.796875 41.976562 28.007812 C 42.066406 28.222656 42.109375 28.441406 42.109375 28.671875 C 42.109375 28.902344 42.066406 29.121094 41.976562 29.332031 C 41.890625 29.546875 41.765625 29.730469 41.601562 29.894531 C 41.441406 30.054688 41.253906 30.179688 41.042969 30.269531 C 40.828125 30.355469 40.609375 30.402344 40.378906 30.402344 Z M 40.378906 28.011719 C 40.199219 28.011719 40.042969 28.074219 39.914062 28.203125 C 39.785156 28.332031 39.71875 28.488281 39.71875 28.671875 C 39.71875 28.851562 39.785156 29.007812 39.914062 29.136719 C 40.042969 29.265625 40.195312 29.332031 40.378906 29.332031 C 40.5625 29.332031 40.71875 29.265625 40.847656 29.136719 C 40.976562 29.007812 41.039062 28.855469 41.039062 28.671875 C 41.039062 28.488281 40.976562 28.332031 40.847656 28.203125 C 40.71875 28.074219 40.5625 28.011719 40.378906 28.011719 Z M 40.378906 28.011719 " fill-opacity="1" fill-rule="nonzero"/><path fill="#000000" d="M 43.707031 27 C 43.476562 27 43.257812 26.953125 43.046875 26.867188 C 42.832031 26.777344 42.648438 26.652344 42.484375 26.492188 C 42.320312 26.328125 42.195312 26.144531 42.109375 25.929688 C 42.019531 25.71875 41.976562 25.496094 41.976562 25.269531 C 41.976562 25.039062 42.019531 24.816406 42.109375 24.605469 C 42.195312 24.394531 42.320312 24.207031 42.484375 24.042969 C 42.644531 23.882812 42.832031 23.757812 43.046875 23.667969 C 43.257812 23.582031 43.476562 23.539062 43.707031 23.539062 C 43.9375 23.539062 44.15625 23.582031 44.371094 23.667969 C 44.582031 23.757812 44.769531 23.882812 44.929688 24.042969 C 45.09375 24.207031 45.21875 24.394531 45.304688 24.605469 C 45.394531 24.816406 45.4375 25.039062 45.4375 25.269531 C 45.4375 25.496094 45.394531 25.71875 45.304688 25.929688 C 45.21875 26.140625 45.09375 26.328125 44.929688 26.492188 C 44.769531 26.652344 44.582031 26.777344 44.371094 26.867188 C 44.15625 26.953125 43.9375 27 43.707031 27 Z M 43.707031 24.609375 C 43.527344 24.609375 43.371094 24.671875 43.242188 24.800781 C 43.113281 24.929688 43.046875 25.085938 43.046875 25.269531 C 43.046875 25.449219 43.113281 25.605469 43.242188 25.734375 C 43.371094 25.863281 43.527344 25.929688 43.707031 25.929688 C 43.890625 25.929688 44.046875 25.863281 44.175781 25.734375 C 44.304688 25.605469 44.367188 25.449219 44.367188 25.269531 C 44.367188 25.085938 44.304688 24.929688 44.175781 24.800781 C 44.046875 24.671875 43.890625 24.609375 43.707031 24.609375 Z M 43.707031 24.609375 " fill-opacity="1" fill-rule="nonzero"/><path fill="#000000" d="M 45.292969 29.875 C 45.050781 29.875 44.886719 29.765625 44.796875 29.542969 C 44.707031 29.320312 44.746094 29.128906 44.917969 28.960938 C 45.023438 28.859375 45.148438 28.8125 45.292969 28.8125 C 45.4375 28.8125 45.566406 28.859375 45.671875 28.960938 C 45.695312 28.984375 45.714844 29.011719 45.734375 29.039062 C 45.753906 29.070312 45.773438 29.101562 45.785156 29.136719 C 45.800781 29.167969 45.808594 29.199219 45.816406 29.234375 C 45.824219 29.269531 45.828125 29.304688 45.828125 29.339844 C 45.828125 29.410156 45.816406 29.476562 45.789062 29.542969 C 45.757812 29.609375 45.71875 29.667969 45.671875 29.71875 C 45.621094 29.769531 45.5625 29.804688 45.496094 29.832031 C 45.429688 29.859375 45.363281 29.875 45.292969 29.875 Z M 45.292969 29.875 " fill-opacity="1" fill-rule="nonzero"/><path fill="#000000" d="M 47.4375 26.191406 C 47.289062 26.191406 47.164062 26.136719 47.058594 26.035156 C 46.957031 25.929688 46.902344 25.804688 46.902344 25.65625 C 46.902344 25.511719 46.953125 25.382812 47.054688 25.277344 C 47.164062 25.179688 47.289062 25.128906 47.4375 25.128906 C 47.582031 25.128906 47.710938 25.179688 47.816406 25.277344 C 47.839844 25.304688 47.859375 25.332031 47.878906 25.359375 C 47.902344 25.386719 47.917969 25.421875 47.929688 25.453125 C 47.945312 25.484375 47.957031 25.515625 47.960938 25.550781 C 47.96875 25.585938 47.972656 25.621094 47.972656 25.65625 C 47.96875 25.804688 47.917969 25.929688 47.8125 26.035156 C 47.710938 26.140625 47.585938 26.191406 47.4375 26.191406 Z M 47.4375 26.191406 " fill-opacity="1" fill-rule="nonzero"/><g clip-path="url(#5d114987bc)"><path fill="#000000" d="M 51.292969 52.484375 C 51.152344 52.484375 51.03125 52.433594 50.929688 52.339844 C 50.828125 52.246094 50.769531 52.128906 50.761719 51.988281 C 50.699219 51.183594 50.453125 47.117188 51.683594 45.886719 C 51.789062 45.78125 51.914062 45.726562 52.0625 45.726562 C 52.210938 45.722656 52.339844 45.777344 52.445312 45.882812 C 52.550781 45.988281 52.601562 46.113281 52.601562 46.265625 C 52.601562 46.414062 52.546875 46.539062 52.441406 46.644531 C 51.789062 47.292969 51.691406 50.113281 51.828125 51.90625 C 51.839844 52.054688 51.796875 52.183594 51.699219 52.296875 C 51.605469 52.410156 51.480469 52.46875 51.335938 52.480469 C 51.320312 52.480469 51.308594 52.484375 51.292969 52.484375 Z M 51.292969 52.484375 " fill-opacity="1" fill-rule="nonzero"/></g><path fill="#000000" d="M 51.25 51.484375 C 51.066406 51.484375 50.917969 51.410156 50.8125 51.257812 C 50.277344 50.707031 49.636719 50.347656 48.886719 50.179688 C 48.742188 50.140625 48.632812 50.054688 48.558594 49.921875 C 48.488281 49.789062 48.472656 49.652344 48.515625 49.507812 C 48.5625 49.363281 48.652344 49.257812 48.785156 49.1875 C 48.917969 49.117188 49.054688 49.109375 49.199219 49.15625 C 51.011719 49.710938 51.628906 50.554688 51.691406 50.648438 C 51.773438 50.769531 51.800781 50.90625 51.773438 51.050781 C 51.746094 51.195312 51.671875 51.308594 51.550781 51.390625 C 51.460938 51.453125 51.359375 51.484375 51.25 51.484375 Z M 51.25 51.484375 " fill-opacity="1" fill-rule="nonzero"/><path fill="#000000" d="M 51.289062 49.539062 C 51.042969 49.539062 50.875 49.425781 50.785156 49.191406 C 50.699219 48.960938 50.75 48.765625 50.933594 48.601562 C 51.585938 48.097656 52.324219 47.796875 53.144531 47.703125 C 53.289062 47.691406 53.417969 47.734375 53.53125 47.828125 C 53.644531 47.921875 53.707031 48.039062 53.722656 48.183594 C 53.734375 48.332031 53.695312 48.460938 53.605469 48.574219 C 53.511719 48.6875 53.394531 48.753906 53.25 48.769531 C 52.65625 48.839844 52.121094 49.050781 51.640625 49.40625 C 51.539062 49.496094 51.421875 49.539062 51.289062 49.539062 Z M 51.289062 49.539062 " fill-opacity="1" fill-rule="nonzero"/><g clip-path="url(#2f6e8c205a)"><path fill="#000000" d="M 44.496094 52.484375 C 44.414062 52.484375 44.332031 52.464844 44.257812 52.429688 C 44.183594 52.390625 44.121094 52.339844 44.070312 52.277344 C 44.023438 52.210938 43.988281 52.136719 43.972656 52.054688 C 43.953125 51.976562 43.957031 51.894531 43.976562 51.816406 C 44.019531 51.125 43.636719 47.160156 40.460938 46.074219 C 40.316406 46.027344 40.214844 45.9375 40.148438 45.804688 C 40.082031 45.671875 40.074219 45.535156 40.121094 45.394531 C 40.171875 45.253906 40.261719 45.148438 40.394531 45.085938 C 40.527344 45.019531 40.664062 45.011719 40.804688 45.0625 C 44.820312 46.433594 45.132812 51.394531 45.03125 52.011719 C 45.007812 52.144531 44.949219 52.253906 44.847656 52.34375 C 44.746094 52.433594 44.628906 52.476562 44.496094 52.484375 Z M 44.496094 52.484375 " fill-opacity="1" fill-rule="nonzero"/></g><path fill="#000000" d="M 43.386719 48.34375 C 43.363281 48.34375 43.335938 48.339844 43.3125 48.335938 C 43.164062 48.316406 43.046875 48.246094 42.960938 48.128906 C 42.871094 48.011719 42.835938 47.878906 42.859375 47.730469 C 42.871094 47.636719 43.21875 45.378906 45.207031 44.875 C 45.347656 44.839844 45.484375 44.859375 45.609375 44.9375 C 45.738281 45.011719 45.820312 45.121094 45.855469 45.265625 C 45.890625 45.40625 45.871094 45.542969 45.796875 45.667969 C 45.71875 45.796875 45.609375 45.878906 45.46875 45.914062 C 44.167969 46.242188 43.917969 47.867188 43.917969 47.882812 C 43.898438 48.015625 43.839844 48.125 43.738281 48.210938 C 43.636719 48.300781 43.519531 48.34375 43.386719 48.34375 Z M 43.386719 48.34375 " fill-opacity="1" fill-rule="nonzero"/><path fill="#000000" d="M 44.085938 49.859375 C 43.898438 49.859375 43.75 49.785156 43.644531 49.628906 C 43.597656 49.570312 42.761719 48.5 40.191406 49.269531 C 40.050781 49.3125 39.914062 49.300781 39.785156 49.230469 C 39.65625 49.160156 39.570312 49.054688 39.527344 48.910156 C 39.484375 48.769531 39.5 48.632812 39.566406 48.503906 C 39.636719 48.375 39.746094 48.289062 39.886719 48.246094 C 43.28125 47.226562 44.480469 48.953125 44.527344 49.027344 C 44.648438 49.207031 44.65625 49.390625 44.554688 49.578125 C 44.453125 49.765625 44.296875 49.859375 44.085938 49.859375 Z M 44.085938 49.859375 " fill-opacity="1" fill-rule="nonzero"/><path fill="#000000" d="M 44.429688 51.324219 C 44.285156 51.324219 44.160156 51.273438 44.058594 51.171875 C 44.011719 51.136719 43.570312 50.875 42.277344 51.15625 C 42.132812 51.183594 42 51.160156 41.878906 51.078125 C 41.757812 51 41.683594 50.886719 41.652344 50.746094 C 41.621094 50.605469 41.644531 50.472656 41.71875 50.347656 C 41.796875 50.226562 41.90625 50.144531 42.046875 50.113281 C 44.042969 49.671875 44.714844 50.304688 44.832031 50.433594 C 44.984375 50.605469 45.011719 50.796875 44.917969 51.007812 C 44.824219 51.21875 44.660156 51.320312 44.429688 51.324219 Z M 44.429688 51.324219 " fill-opacity="1" fill-rule="nonzero"/><path fill="#000000" d="M 44.230469 50.359375 C 44.140625 50.359375 44.058594 50.335938 43.980469 50.296875 C 43.898438 50.253906 43.835938 50.195312 43.785156 50.121094 C 43.738281 50.046875 43.707031 49.964844 43.699219 49.875 C 43.691406 49.785156 43.703125 49.699219 43.738281 49.617188 C 43.933594 49.136719 44.230469 48.734375 44.632812 48.410156 C 45.03125 48.082031 45.484375 47.871094 45.992188 47.777344 C 46.136719 47.761719 46.269531 47.796875 46.382812 47.886719 C 46.5 47.976562 46.566406 48.09375 46.585938 48.238281 C 46.605469 48.382812 46.570312 48.511719 46.484375 48.628906 C 46.398438 48.746094 46.28125 48.816406 46.136719 48.839844 C 45.816406 48.90625 45.53125 49.046875 45.28125 49.257812 C 45.03125 49.46875 44.84375 49.726562 44.726562 50.03125 C 44.632812 50.25 44.46875 50.359375 44.230469 50.359375 Z M 44.230469 50.359375 " fill-opacity="1" fill-rule="nonzero"/></svg>