<svg xmlns="http://www.w3.org/2000/svg" xmlns:xlink="http://www.w3.org/1999/xlink" width="140" zoomAndPan="magnify" viewBox="0 0 104.88 74.999997" height="100" preserveAspectRatio="xMidYMid meet" version="1.0"><defs><clipPath id="c9e8782680"><path d="M 0 0.0429688 L 104.761719 0.0429688 L 104.761719 74.957031 L 0 74.957031 Z M 0 0.0429688 " clip-rule="nonzero"/></clipPath><clipPath id="76a0804ffa"><path d="M 37.320312 22.515625 L 67.285156 22.515625 L 67.285156 52.484375 L 37.320312 52.484375 Z M 37.320312 22.515625 " clip-rule="nonzero"/></clipPath></defs><g clip-path="url(#c9e8782680)"><path fill="#ffffff" d="M 0 0.0429688 L 104.878906 0.0429688 L 104.878906 74.957031 L 0 74.957031 Z M 0 0.0429688 " fill-opacity="1" fill-rule="nonzero"/><path fill="#ffffff" d="M 0 0.0429688 L 104.878906 0.0429688 L 104.878906 74.957031 L 0 74.957031 Z M 0 0.0429688 " fill-opacity="1" fill-rule="nonzero"/></g><g clip-path="url(#76a0804ffa)"><path fill="#000000" d="M 67.269531 51.9375 L 66.257812 36.460938 C 66.253906 36.195312 66.039062 35.976562 65.773438 35.976562 L 63.425781 35.976562 L 63.425781 35.40625 C 63.425781 34.59375 63.066406 33.855469 62.492188 33.320312 C 62.328125 33.167969 62.144531 33.035156 61.949219 32.917969 L 61.65625 28.464844 C 61.65625 28.195312 61.441406 27.980469 61.171875 27.980469 L 56.988281 27.980469 L 56.988281 26.859375 C 56.988281 25.664062 56.460938 24.582031 55.617188 23.796875 C 54.78125 23.023438 53.628906 22.542969 52.371094 22.542969 C 51.703125 22.542969 51.066406 22.675781 50.488281 22.917969 C 49.914062 22.675781 49.277344 22.542969 48.609375 22.542969 C 47.347656 22.542969 46.199219 23.023438 45.363281 23.796875 C 44.519531 24.582031 43.992188 25.664062 43.992188 26.859375 L 43.992188 27.980469 L 43.082031 27.980469 C 43.070312 27.980469 43.054688 27.980469 43.042969 27.980469 L 40.097656 27.980469 C 39.851562 27.980469 39.640625 28.167969 39.617188 28.417969 L 37.320312 51.921875 L 37.320312 51.972656 C 37.320312 52.242188 37.539062 52.457031 37.804688 52.453125 L 44.324219 52.378906 C 44.398438 52.425781 44.488281 52.457031 44.582031 52.457031 L 54.828125 52.457031 L 66.816406 52.453125 C 67.082031 52.4375 67.285156 52.207031 67.269531 51.9375 Z M 62.457031 35.40625 L 62.457031 35.976562 L 62.148438 35.976562 L 62.035156 34.242188 C 62.300781 34.570312 62.457031 34.972656 62.457031 35.40625 Z M 57.175781 35.976562 L 55.054688 35.976562 L 55.054688 35.40625 C 55.054688 34.875 55.292969 34.390625 55.675781 34.035156 C 56.066406 33.671875 56.613281 33.445312 57.214844 33.445312 C 57.449219 33.445312 57.679688 33.480469 57.890625 33.546875 C 57.445312 34.050781 57.175781 34.703125 57.175781 35.40625 Z M 58.144531 35.40625 C 58.144531 34.878906 58.378906 34.394531 58.757812 34.042969 C 59.136719 34.394531 59.371094 34.878906 59.371094 35.40625 L 59.371094 35.976562 L 58.140625 35.976562 L 58.140625 35.40625 Z M 59.625 33.546875 C 59.835938 33.480469 60.0625 33.445312 60.300781 33.445312 C 60.554688 33.445312 60.796875 33.488281 61.023438 33.5625 L 61.179688 35.976562 L 60.335938 35.976562 L 60.335938 35.40625 C 60.335938 34.703125 60.070312 34.054688 59.625 33.546875 Z M 52.371094 23.515625 C 53.382812 23.515625 54.300781 23.898438 54.964844 24.511719 C 55.613281 25.117188 56.019531 25.949219 56.019531 26.859375 L 56.019531 27.980469 L 53.226562 27.980469 L 53.226562 26.859375 C 53.226562 25.664062 52.699219 24.582031 51.855469 23.796875 C 51.777344 23.722656 51.695312 23.65625 51.613281 23.589844 C 51.855469 23.542969 52.109375 23.515625 52.371094 23.515625 Z M 48.71875 27.980469 L 48.71875 26.859375 C 48.71875 25.949219 49.125 25.117188 49.777344 24.511719 C 49.988281 24.3125 50.230469 24.140625 50.488281 23.996094 C 50.75 24.140625 50.988281 24.3125 51.203125 24.511719 C 51.855469 25.117188 52.261719 25.949219 52.261719 26.859375 L 52.261719 27.980469 Z M 44.957031 26.859375 C 44.957031 25.949219 45.363281 25.117188 46.015625 24.511719 C 46.679688 23.898438 47.597656 23.515625 48.609375 23.515625 C 48.867188 23.515625 49.121094 23.542969 49.367188 23.589844 C 49.28125 23.65625 49.203125 23.722656 49.125 23.796875 C 48.277344 24.582031 47.753906 25.664062 47.753906 26.859375 L 47.753906 27.980469 L 44.957031 27.980469 Z M 47.753906 28.953125 L 47.753906 31.539062 C 47.753906 31.808594 47.96875 32.027344 48.238281 32.027344 C 48.503906 32.027344 48.71875 31.808594 48.71875 31.539062 L 48.71875 28.953125 L 56.019531 28.953125 L 56.019531 31.539062 C 56.019531 31.808594 56.238281 32.027344 56.503906 32.027344 C 56.769531 32.027344 56.984375 31.808594 56.984375 31.539062 L 56.984375 28.953125 L 60.722656 28.953125 L 60.957031 32.539062 C 60.746094 32.496094 60.527344 32.472656 60.300781 32.472656 C 59.742188 32.472656 59.214844 32.613281 58.757812 32.859375 C 58.300781 32.613281 57.773438 32.472656 57.214844 32.472656 C 56.363281 32.472656 55.589844 32.796875 55.023438 33.320312 C 54.449219 33.855469 54.089844 34.59375 54.089844 35.40625 L 54.089844 35.976562 L 53.824219 35.976562 C 53.820312 35.976562 53.816406 35.976562 53.8125 35.976562 L 51.769531 35.976562 C 51.523438 35.976562 51.316406 36.164062 51.289062 36.414062 L 49.707031 51.480469 C 48.472656 51.480469 45.035156 51.480469 45.035156 51.480469 L 43.558594 28.953125 Z M 40.53125 28.953125 L 42.59375 28.953125 L 44.0625 51.410156 C 42.574219 51.429688 38.332031 51.476562 38.332031 51.476562 Z M 52.199219 36.949219 L 53.363281 36.949219 L 54.3125 51.480469 C 53.199219 51.480469 50.671875 51.480469 50.671875 51.480469 Z M 55.277344 51.480469 L 54.328125 36.949219 L 57.175781 36.949219 L 57.175781 38.398438 C 57.175781 38.667969 57.394531 38.886719 57.660156 38.886719 C 57.925781 38.886719 58.144531 38.667969 58.144531 38.398438 L 58.144531 36.949219 L 62.457031 36.949219 L 62.457031 38.398438 C 62.457031 38.667969 62.675781 38.886719 62.941406 38.886719 C 63.207031 38.886719 63.425781 38.667969 63.425781 38.398438 L 63.425781 36.949219 L 65.320312 36.949219 L 66.273438 51.480469 Z M 55.277344 51.480469 " fill-opacity="1" fill-rule="nonzero"/></g></svg>