<svg xmlns="http://www.w3.org/2000/svg" xmlns:xlink="http://www.w3.org/1999/xlink" width="140" zoomAndPan="magnify" viewBox="0 0 104.88 74.999997" height="100" preserveAspectRatio="xMidYMid meet" version="1.0"><defs><clipPath id="6dcdcf50bb"><path d="M 0 0.0429688 L 104.761719 0.0429688 L 104.761719 74.957031 L 0 74.957031 Z M 0 0.0429688 " clip-rule="nonzero"/></clipPath><clipPath id="751739f197"><path d="M 41 46 L 64 46 L 64 52.484375 L 41 52.484375 Z M 41 46 " clip-rule="nonzero"/></clipPath><clipPath id="7642dbf613"><path d="M 38.320312 22.515625 L 66.785156 22.515625 L 66.785156 48 L 38.320312 48 Z M 38.320312 22.515625 " clip-rule="nonzero"/></clipPath></defs><g clip-path="url(#6dcdcf50bb)"><path fill="#ffffff" d="M 0 0.0429688 L 104.878906 0.0429688 L 104.878906 74.957031 L 0 74.957031 Z M 0 0.0429688 " fill-opacity="1" fill-rule="nonzero"/><path fill="#ffffff" d="M 0 0.0429688 L 104.878906 0.0429688 L 104.878906 74.957031 L 0 74.957031 Z M 0 0.0429688 " fill-opacity="1" fill-rule="nonzero"/></g><path fill="#000000" d="M 50.027344 47.582031 C 49.984375 47.582031 49.945312 47.574219 49.90625 47.5625 C 48.523438 47.03125 47.34375 46.109375 46.492188 44.894531 C 45.617188 43.648438 45.15625 42.1875 45.15625 40.664062 C 45.15625 38.699219 45.917969 36.847656 47.308594 35.457031 C 47.433594 35.328125 47.644531 35.328125 47.773438 35.453125 C 47.902344 35.582031 47.902344 35.789062 47.777344 35.914062 C 46.511719 37.1875 45.816406 38.871094 45.816406 40.664062 C 45.816406 43.433594 47.554688 45.960938 50.144531 46.949219 C 50.3125 47.015625 50.398438 47.203125 50.332031 47.371094 C 50.28125 47.503906 50.15625 47.582031 50.027344 47.582031 Z M 55.058594 47.582031 C 54.925781 47.582031 54.800781 47.503906 54.75 47.371094 C 54.6875 47.203125 54.769531 47.015625 54.941406 46.949219 C 57.527344 45.960938 59.269531 43.433594 59.269531 40.664062 C 59.269531 38.871094 58.574219 37.1875 57.308594 35.914062 C 57.179688 35.789062 57.183594 35.582031 57.3125 35.453125 C 57.441406 35.328125 57.652344 35.328125 57.777344 35.457031 C 59.164062 36.847656 59.929688 38.699219 59.929688 40.664062 C 59.929688 42.1875 59.46875 43.648438 58.59375 44.894531 C 57.742188 46.109375 56.558594 47.03125 55.175781 47.5625 C 55.140625 47.574219 55.097656 47.582031 55.058594 47.582031 Z M 55.058594 47.582031 " fill-opacity="1" fill-rule="evenodd"/><path fill="#000000" d="M 47.835938 33.476562 C 47.6875 33.476562 47.546875 33.574219 47.503906 33.726562 L 47.160156 34.882812 C 47.132812 34.980469 47.140625 35.0625 47.191406 35.152344 C 47.242188 35.238281 47.308594 35.289062 47.40625 35.316406 C 50.769531 36.179688 54.316406 36.179688 57.675781 35.316406 C 57.773438 35.289062 57.84375 35.238281 57.894531 35.152344 C 57.941406 35.0625 57.953125 34.980469 57.921875 34.882812 L 57.582031 33.726562 C 57.527344 33.546875 57.34375 33.441406 57.160156 33.488281 C 55.65625 33.871094 54.105469 34.066406 52.542969 34.066406 C 50.980469 34.066406 49.425781 33.871094 47.925781 33.488281 C 47.894531 33.480469 47.867188 33.476562 47.835938 33.476562 Z M 52.542969 36.621094 C 50.761719 36.621094 48.976562 36.394531 47.242188 35.949219 C 46.972656 35.878906 46.757812 35.714844 46.617188 35.472656 C 46.480469 35.230469 46.449219 34.964844 46.527344 34.699219 L 46.871094 33.542969 C 47.023438 33.023438 47.558594 32.71875 48.089844 32.855469 C 49.539062 33.222656 51.035156 33.410156 52.542969 33.410156 C 54.046875 33.410156 55.546875 33.222656 56.996094 32.855469 C 57.523438 32.71875 58.058594 33.023438 58.214844 33.542969 L 58.554688 34.699219 C 58.636719 34.964844 58.605469 35.230469 58.464844 35.472656 C 58.328125 35.714844 58.113281 35.878906 57.84375 35.949219 C 56.109375 36.394531 54.324219 36.621094 52.542969 36.621094 Z M 52.542969 36.621094 " fill-opacity="1" fill-rule="evenodd"/><path fill="#000000" d="M 49.851562 41.703125 C 49.671875 41.703125 49.496094 41.652344 49.335938 41.554688 L 48.296875 40.925781 C 47.828125 40.644531 47.675781 40.054688 47.941406 39.582031 C 48.582031 38.457031 49.097656 37.257812 49.476562 36.015625 C 49.527344 35.84375 49.714844 35.746094 49.886719 35.800781 C 50.0625 35.851562 50.160156 36.035156 50.109375 36.207031 C 49.714844 37.496094 49.179688 38.738281 48.515625 39.902344 C 48.425781 40.066406 48.476562 40.269531 48.640625 40.367188 L 49.675781 40.996094 C 49.761719 41.046875 49.847656 41.0625 49.945312 41.035156 C 50.042969 41.011719 50.113281 40.957031 50.164062 40.871094 C 51.003906 39.398438 51.65625 37.832031 52.101562 36.207031 C 52.152344 36.035156 52.332031 35.929688 52.507812 35.980469 C 52.683594 36.027344 52.789062 36.207031 52.738281 36.378906 C 52.277344 38.054688 51.605469 39.675781 50.734375 41.195312 C 50.597656 41.433594 50.382812 41.597656 50.113281 41.667969 C 50.023438 41.691406 49.9375 41.703125 49.851562 41.703125 Z M 49.851562 41.703125 " fill-opacity="1" fill-rule="evenodd"/><path fill="#000000" d="M 55.390625 40.222656 C 55.308594 40.222656 55.21875 40.210938 55.132812 40.1875 C 54.863281 40.121094 54.648438 39.957031 54.507812 39.714844 C 53.902344 38.652344 53.386719 37.535156 52.976562 36.390625 C 52.914062 36.222656 53.003906 36.035156 53.175781 35.972656 C 53.347656 35.914062 53.539062 36.003906 53.597656 36.171875 C 53.996094 37.28125 54.496094 38.363281 55.082031 39.390625 C 55.132812 39.476562 55.199219 39.53125 55.296875 39.554688 C 55.398438 39.582031 55.480469 39.566406 55.566406 39.515625 L 56.605469 38.886719 C 56.765625 38.789062 56.820312 38.585938 56.726562 38.421875 C 56.3125 37.691406 55.941406 36.921875 55.632812 36.136719 C 55.5625 35.96875 55.648438 35.777344 55.816406 35.710938 C 55.988281 35.644531 56.179688 35.726562 56.246094 35.894531 C 56.546875 36.652344 56.902344 37.394531 57.300781 38.101562 C 57.570312 38.574219 57.414062 39.164062 56.949219 39.445312 L 55.910156 40.074219 C 55.75 40.171875 55.574219 40.222656 55.390625 40.222656 Z M 55.390625 40.222656 " fill-opacity="1" fill-rule="evenodd"/><path fill="#000000" d="M 56.695312 33.59375 C 56.648438 33.59375 56.601562 33.582031 56.558594 33.5625 C 56.394531 33.488281 56.316406 33.296875 56.390625 33.132812 C 57.183594 31.375 56.667969 29.320312 55.140625 28.132812 C 53.609375 26.949219 51.476562 26.949219 49.945312 28.132812 C 48.417969 29.320312 47.902344 31.375 48.691406 33.132812 C 48.765625 33.296875 48.691406 33.492188 48.523438 33.5625 C 48.359375 33.636719 48.164062 33.5625 48.089844 33.398438 C 47.175781 31.367188 47.769531 28.988281 49.539062 27.617188 C 51.308594 26.246094 53.777344 26.246094 55.546875 27.617188 C 57.3125 28.988281 57.910156 31.367188 56.996094 33.398438 C 56.941406 33.519531 56.820312 33.59375 56.695312 33.59375 Z M 56.695312 33.59375 " fill-opacity="1" fill-rule="evenodd"/><path fill="#000000" d="M 52.933594 45.855469 L 52.152344 45.855469 C 51.972656 45.855469 51.824219 45.710938 51.824219 45.53125 C 51.824219 45.347656 51.972656 45.203125 52.152344 45.203125 L 52.933594 45.203125 C 53.113281 45.203125 53.261719 45.347656 53.261719 45.53125 C 53.261719 45.710938 53.113281 45.855469 52.933594 45.855469 Z M 52.933594 45.855469 " fill-opacity="1" fill-rule="evenodd"/><path fill="#000000" d="M 52.933594 43.5625 L 52.152344 43.5625 C 51.972656 43.5625 51.824219 43.417969 51.824219 43.238281 C 51.824219 43.054688 51.972656 42.910156 52.152344 42.910156 L 52.933594 42.910156 C 53.113281 42.910156 53.261719 43.054688 53.261719 43.238281 C 53.261719 43.417969 53.113281 43.5625 52.933594 43.5625 Z M 52.933594 43.5625 " fill-opacity="1" fill-rule="evenodd"/><path fill="#000000" d="M 52.933594 41.273438 L 52.152344 41.273438 C 51.972656 41.273438 51.824219 41.125 51.824219 40.945312 C 51.824219 40.765625 51.972656 40.617188 52.152344 40.617188 L 52.933594 40.617188 C 53.113281 40.617188 53.261719 40.765625 53.261719 40.945312 C 53.261719 41.125 53.113281 41.273438 52.933594 41.273438 Z M 52.933594 41.273438 " fill-opacity="1" fill-rule="evenodd"/><path fill="#000000" d="M 53.003906 31.929688 L 53.007812 31.929688 Z M 52.679688 30.78125 C 52.628906 30.78125 52.570312 30.804688 52.5 30.878906 L 51.476562 31.953125 L 52.929688 31.609375 C 53.09375 31.574219 53.121094 31.496094 53.128906 31.414062 C 53.152344 31.195312 52.972656 30.894531 52.773438 30.800781 C 52.746094 30.789062 52.714844 30.78125 52.679688 30.78125 Z M 50.480469 32.851562 C 50.363281 32.851562 50.253906 32.792969 50.191406 32.6875 C 50.121094 32.5625 50.140625 32.40625 50.238281 32.300781 L 52.023438 30.429688 C 52.308594 30.128906 52.691406 30.046875 53.046875 30.207031 C 53.503906 30.414062 53.835938 30.984375 53.785156 31.480469 C 53.75 31.863281 53.484375 32.152344 53.082031 32.246094 L 50.554688 32.84375 C 50.53125 32.847656 50.503906 32.851562 50.480469 32.851562 Z M 50.480469 32.851562 " fill-opacity="1" fill-rule="evenodd"/><path fill="#000000" d="M 55.15625 30.019531 C 55.023438 30.019531 54.898438 29.9375 54.847656 29.804688 C 54.8125 29.714844 54.664062 29.617188 54.460938 29.617188 C 54.257812 29.617188 54.109375 29.714844 54.074219 29.804688 C 54.011719 29.976562 53.820312 30.0625 53.652344 30 C 53.480469 29.9375 53.394531 29.746094 53.457031 29.578125 C 53.59375 29.210938 54 28.960938 54.460938 28.960938 C 54.925781 28.960938 55.328125 29.210938 55.464844 29.578125 C 55.527344 29.746094 55.441406 29.9375 55.273438 30 C 55.234375 30.011719 55.195312 30.019531 55.15625 30.019531 Z M 55.15625 30.019531 " fill-opacity="1" fill-rule="evenodd"/><path fill="#000000" d="M 50.109375 30.019531 C 50.070312 30.019531 50.03125 30.011719 49.992188 30 C 49.824219 29.9375 49.734375 29.746094 49.800781 29.578125 C 49.9375 29.210938 50.339844 28.960938 50.804688 28.960938 C 51.265625 28.960938 51.667969 29.210938 51.808594 29.578125 C 51.871094 29.746094 51.785156 29.9375 51.613281 30 C 51.441406 30.0625 51.253906 29.976562 51.1875 29.804688 C 51.15625 29.714844 51.007812 29.617188 50.804688 29.617188 C 50.597656 29.617188 50.453125 29.714844 50.417969 29.804688 C 50.367188 29.9375 50.242188 30.019531 50.109375 30.019531 Z M 50.109375 30.019531 " fill-opacity="1" fill-rule="evenodd"/><path fill="#000000" d="M 45.714844 39.207031 C 45.628906 39.207031 45.542969 39.175781 45.480469 39.109375 L 42.03125 35.691406 C 41.902344 35.5625 41.902344 35.355469 42.03125 35.230469 C 42.160156 35.101562 42.371094 35.101562 42.5 35.230469 L 45.949219 38.648438 C 46.074219 38.777344 46.074219 38.984375 45.949219 39.109375 C 45.882812 39.175781 45.796875 39.207031 45.714844 39.207031 Z M 45.714844 39.207031 " fill-opacity="1" fill-rule="evenodd"/><path fill="#000000" d="M 43.480469 36.992188 C 43.300781 36.992188 43.152344 36.847656 43.152344 36.664062 L 43.152344 34.902344 C 43.152344 34.722656 43.296875 34.574219 43.480469 34.574219 C 43.664062 34.574219 43.8125 34.722656 43.8125 34.902344 L 43.8125 36.664062 C 43.8125 36.847656 43.664062 36.992188 43.480469 36.992188 Z M 43.480469 36.992188 " fill-opacity="1" fill-rule="evenodd"/><path fill="#000000" d="M 41.953125 38.039062 C 41.808594 38.039062 41.675781 37.941406 41.636719 37.796875 C 41.589844 37.621094 41.691406 37.441406 41.867188 37.394531 L 43.902344 36.855469 C 44.082031 36.808594 44.261719 36.910156 44.308594 37.085938 C 44.355469 37.261719 44.25 37.4375 44.074219 37.484375 L 42.039062 38.027344 C 42.011719 38.035156 41.980469 38.039062 41.953125 38.039062 Z M 41.953125 38.039062 " fill-opacity="1" fill-rule="evenodd"/><path fill="#000000" d="M 59.371094 39.207031 C 59.285156 39.207031 59.203125 39.175781 59.136719 39.109375 C 59.007812 38.984375 59.007812 38.777344 59.136719 38.648438 L 62.585938 35.230469 C 62.714844 35.101562 62.921875 35.101562 63.050781 35.230469 C 63.179688 35.355469 63.179688 35.5625 63.050781 35.691406 L 59.605469 39.109375 C 59.539062 39.175781 59.457031 39.207031 59.371094 39.207031 Z M 59.371094 39.207031 " fill-opacity="1" fill-rule="evenodd"/><path fill="#000000" d="M 61.605469 36.992188 C 61.421875 36.992188 61.273438 36.847656 61.273438 36.664062 L 61.273438 34.902344 C 61.273438 34.722656 61.421875 34.574219 61.605469 34.574219 C 61.785156 34.574219 61.933594 34.722656 61.933594 34.902344 L 61.933594 36.664062 C 61.933594 36.847656 61.785156 36.992188 61.605469 36.992188 Z M 61.605469 36.992188 " fill-opacity="1" fill-rule="evenodd"/><path fill="#000000" d="M 63.128906 38.039062 C 63.101562 38.039062 63.074219 38.035156 63.042969 38.027344 L 61.007812 37.484375 C 60.832031 37.4375 60.730469 37.261719 60.777344 37.085938 C 60.824219 36.910156 61.003906 36.808594 61.179688 36.855469 L 63.214844 37.394531 C 63.390625 37.441406 63.496094 37.621094 63.449219 37.796875 C 63.410156 37.941406 63.277344 38.039062 63.128906 38.039062 Z M 63.128906 38.039062 " fill-opacity="1" fill-rule="evenodd"/><g clip-path="url(#751739f197)"><path fill="#000000" d="M 43.777344 47.582031 C 43.367188 47.582031 43.027344 47.816406 42.886719 48.195312 L 42.003906 50.574219 C 41.890625 50.875 41.929688 51.175781 42.117188 51.4375 C 42.300781 51.699219 42.570312 51.839844 42.890625 51.839844 L 62.191406 51.839844 C 62.515625 51.839844 62.785156 51.699219 62.96875 51.4375 C 63.15625 51.175781 63.191406 50.875 63.082031 50.574219 L 62.199219 48.195312 C 62.058594 47.816406 61.714844 47.582031 61.308594 47.582031 Z M 62.191406 52.492188 L 42.890625 52.492188 C 42.351562 52.492188 41.882812 52.25 41.574219 51.8125 C 41.265625 51.371094 41.195312 50.851562 41.382812 50.347656 L 42.269531 47.972656 C 42.503906 47.335938 43.09375 46.929688 43.777344 46.929688 L 61.308594 46.929688 C 61.988281 46.929688 62.582031 47.335938 62.816406 47.972656 L 63.699219 50.347656 C 63.886719 50.851562 63.820312 51.371094 63.511719 51.8125 C 63.203125 52.25 62.734375 52.492188 62.191406 52.492188 Z M 62.191406 52.492188 " fill-opacity="1" fill-rule="evenodd"/></g><g clip-path="url(#7642dbf613)"><path fill="#000000" d="M 61.308594 47.582031 C 61.214844 47.582031 61.117188 47.542969 61.054688 47.460938 C 60.9375 47.320312 60.960938 47.117188 61.101562 47 C 65.523438 43.421875 67.207031 37.433594 65.292969 32.097656 C 63.375 26.761719 58.253906 23.179688 52.542969 23.179688 C 46.832031 23.179688 41.710938 26.761719 39.792969 32.097656 C 37.875 37.429688 39.5625 43.421875 43.984375 47 C 44.125 47.117188 44.144531 47.320312 44.03125 47.460938 C 43.917969 47.601562 43.707031 47.625 43.566406 47.507812 C 38.929688 43.753906 37.160156 37.472656 39.171875 31.878906 C 41.179688 26.285156 46.554688 22.523438 52.542969 22.523438 C 58.53125 22.523438 63.902344 26.285156 65.914062 31.878906 C 67.921875 37.472656 66.15625 43.753906 61.519531 47.507812 C 61.457031 47.558594 61.382812 47.582031 61.308594 47.582031 Z M 61.308594 47.582031 " fill-opacity="1" fill-rule="evenodd"/></g><path fill="#000000" d="M 43.328125 42.242188 C 43.039062 42.242188 42.804688 42.472656 42.804688 42.757812 C 42.804688 43.042969 43.039062 43.273438 43.328125 43.273438 C 43.613281 43.273438 43.847656 43.042969 43.847656 42.757812 C 43.847656 42.472656 43.613281 42.242188 43.328125 42.242188 Z M 43.328125 43.929688 C 42.675781 43.929688 42.144531 43.402344 42.144531 42.757812 C 42.144531 42.113281 42.675781 41.585938 43.328125 41.585938 C 43.976562 41.585938 44.507812 42.113281 44.507812 42.757812 C 44.507812 43.402344 43.976562 43.929688 43.328125 43.929688 Z M 43.328125 43.929688 " fill-opacity="1" fill-rule="evenodd"/><path fill="#000000" d="M 61.757812 42.242188 C 61.46875 42.242188 61.238281 42.472656 61.238281 42.757812 C 61.238281 43.042969 61.46875 43.273438 61.757812 43.273438 C 62.046875 43.273438 62.277344 43.042969 62.277344 42.757812 C 62.277344 42.472656 62.046875 42.242188 61.757812 42.242188 Z M 61.757812 43.929688 C 61.105469 43.929688 60.578125 43.402344 60.578125 42.757812 C 60.578125 42.113281 61.105469 41.585938 61.757812 41.585938 C 62.410156 41.585938 62.9375 42.113281 62.9375 42.757812 C 62.9375 43.402344 62.410156 43.929688 61.757812 43.929688 Z M 61.757812 43.929688 " fill-opacity="1" fill-rule="evenodd"/><path fill="#000000" d="M 45.375 50.039062 L 44.378906 50.039062 C 44.195312 50.039062 44.046875 49.890625 44.046875 49.710938 C 44.046875 49.53125 44.195312 49.382812 44.378906 49.382812 L 45.375 49.382812 C 45.554688 49.382812 45.703125 49.53125 45.703125 49.710938 C 45.703125 49.890625 45.554688 50.039062 45.375 50.039062 Z M 45.375 50.039062 " fill-opacity="1" fill-rule="evenodd"/><path fill="#000000" d="M 47.929688 50.039062 L 46.933594 50.039062 C 46.75 50.039062 46.605469 49.890625 46.605469 49.710938 C 46.605469 49.53125 46.75 49.382812 46.933594 49.382812 L 47.929688 49.382812 C 48.113281 49.382812 48.257812 49.53125 48.257812 49.710938 C 48.257812 49.890625 48.113281 50.039062 47.929688 50.039062 Z M 47.929688 50.039062 " fill-opacity="1" fill-rule="evenodd"/><path fill="#000000" d="M 50.484375 50.039062 L 49.488281 50.039062 C 49.304688 50.039062 49.160156 49.890625 49.160156 49.710938 C 49.160156 49.53125 49.304688 49.382812 49.488281 49.382812 L 50.484375 49.382812 C 50.667969 49.382812 50.816406 49.53125 50.816406 49.710938 C 50.816406 49.890625 50.667969 50.039062 50.484375 50.039062 Z M 50.484375 50.039062 " fill-opacity="1" fill-rule="evenodd"/><path fill="#000000" d="M 53.039062 50.039062 L 52.042969 50.039062 C 51.863281 50.039062 51.714844 49.890625 51.714844 49.710938 C 51.714844 49.53125 51.863281 49.382812 52.042969 49.382812 L 53.039062 49.382812 C 53.222656 49.382812 53.371094 49.53125 53.371094 49.710938 C 53.371094 49.890625 53.222656 50.039062 53.039062 50.039062 Z M 53.039062 50.039062 " fill-opacity="1" fill-rule="evenodd"/><path fill="#000000" d="M 55.597656 50.039062 L 54.597656 50.039062 C 54.417969 50.039062 54.269531 49.890625 54.269531 49.710938 C 54.269531 49.53125 54.417969 49.382812 54.597656 49.382812 L 55.597656 49.382812 C 55.777344 49.382812 55.925781 49.53125 55.925781 49.710938 C 55.925781 49.890625 55.777344 50.039062 55.597656 50.039062 Z M 55.597656 50.039062 " fill-opacity="1" fill-rule="evenodd"/><path fill="#000000" d="M 58.152344 50.039062 L 57.15625 50.039062 C 56.972656 50.039062 56.824219 49.890625 56.824219 49.710938 C 56.824219 49.53125 56.972656 49.382812 57.15625 49.382812 L 58.152344 49.382812 C 58.335938 49.382812 58.480469 49.53125 58.480469 49.710938 C 58.480469 49.890625 58.335938 50.039062 58.152344 50.039062 Z M 58.152344 50.039062 " fill-opacity="1" fill-rule="evenodd"/><path fill="#000000" d="M 60.707031 50.039062 L 59.710938 50.039062 C 59.527344 50.039062 59.378906 49.890625 59.378906 49.710938 C 59.378906 49.53125 59.527344 49.382812 59.710938 49.382812 L 60.707031 49.382812 C 60.890625 49.382812 61.035156 49.53125 61.035156 49.710938 C 61.035156 49.890625 60.890625 50.039062 60.707031 50.039062 Z M 60.707031 50.039062 " fill-opacity="1" fill-rule="evenodd"/><path fill="#000000" d="M 44.066406 31.386719 C 43.777344 31.386719 43.542969 31.617188 43.542969 31.902344 C 43.542969 32.1875 43.777344 32.417969 44.066406 32.417969 C 44.351562 32.417969 44.585938 32.1875 44.585938 31.902344 C 44.585938 31.617188 44.351562 31.386719 44.066406 31.386719 Z M 44.066406 33.074219 C 43.414062 33.074219 42.886719 32.546875 42.886719 31.902344 C 42.886719 31.257812 43.414062 30.730469 44.066406 30.730469 C 44.714844 30.730469 45.246094 31.257812 45.246094 31.902344 C 45.246094 32.546875 44.714844 33.074219 44.066406 33.074219 Z M 44.066406 33.074219 " fill-opacity="1" fill-rule="evenodd"/><path fill="#000000" d="M 46.84375 27.105469 C 46.554688 27.105469 46.320312 27.339844 46.320312 27.625 C 46.320312 27.910156 46.554688 28.140625 46.84375 28.140625 C 47.128906 28.140625 47.363281 27.910156 47.363281 27.625 C 47.363281 27.339844 47.128906 27.105469 46.84375 27.105469 Z M 46.84375 28.792969 C 46.191406 28.792969 45.660156 28.269531 45.660156 27.625 C 45.660156 26.976562 46.191406 26.453125 46.84375 26.453125 C 47.492188 26.453125 48.023438 26.976562 48.023438 27.625 C 48.023438 28.269531 47.492188 28.792969 46.84375 28.792969 Z M 46.84375 28.792969 " fill-opacity="1" fill-rule="evenodd"/><path fill="#000000" d="M 61.019531 31.386719 C 60.730469 31.386719 60.496094 31.617188 60.496094 31.902344 C 60.496094 32.1875 60.730469 32.417969 61.019531 32.417969 C 61.304688 32.417969 61.539062 32.1875 61.539062 31.902344 C 61.539062 31.617188 61.304688 31.386719 61.019531 31.386719 Z M 61.019531 33.074219 C 60.367188 33.074219 59.839844 32.546875 59.839844 31.902344 C 59.839844 31.257812 60.367188 30.730469 61.019531 30.730469 C 61.667969 30.730469 62.199219 31.257812 62.199219 31.902344 C 62.199219 32.546875 61.667969 33.074219 61.019531 33.074219 Z M 61.019531 33.074219 " fill-opacity="1" fill-rule="evenodd"/><path fill="#000000" d="M 58.242188 27.105469 C 57.957031 27.105469 57.722656 27.339844 57.722656 27.625 C 57.722656 27.910156 57.957031 28.140625 58.242188 28.140625 C 58.53125 28.140625 58.761719 27.910156 58.761719 27.625 C 58.761719 27.339844 58.53125 27.105469 58.242188 27.105469 Z M 58.242188 28.792969 C 57.589844 28.792969 57.0625 28.269531 57.0625 27.625 C 57.0625 26.976562 57.589844 26.453125 58.242188 26.453125 C 58.894531 26.453125 59.421875 26.976562 59.421875 27.625 C 59.421875 28.269531 58.894531 28.792969 58.242188 28.792969 Z M 58.242188 28.792969 " fill-opacity="1" fill-rule="evenodd"/></svg>