<svg xmlns="http://www.w3.org/2000/svg" xmlns:xlink="http://www.w3.org/1999/xlink" width="140" zoomAndPan="magnify" viewBox="0 0 104.88 74.999997" height="100" preserveAspectRatio="xMidYMid meet" version="1.0"><defs><clipPath id="a37e1739b7"><path d="M 0 0.0429688 L 104.761719 0.0429688 L 104.761719 74.957031 L 0 74.957031 Z M 0 0.0429688 " clip-rule="nonzero"/></clipPath><clipPath id="ad87732c2c"><path d="M 52 22.515625 L 66.5625 22.515625 L 66.5625 52.484375 L 52 52.484375 Z M 52 22.515625 " clip-rule="nonzero"/></clipPath><clipPath id="07bee1c636"><path d="M 64 27 L 66.5625 27 L 66.5625 29 L 64 29 Z M 64 27 " clip-rule="nonzero"/></clipPath><clipPath id="c09378243d"><path d="M 64 31 L 66.5625 31 L 66.5625 33 L 64 33 Z M 64 31 " clip-rule="nonzero"/></clipPath><clipPath id="7fc1f33548"><path d="M 64 34 L 66.5625 34 L 66.5625 36 L 64 36 Z M 64 34 " clip-rule="nonzero"/></clipPath><clipPath id="87da7d666a"><path d="M 54 22.515625 L 61 22.515625 L 61 52.484375 L 54 52.484375 Z M 54 22.515625 " clip-rule="nonzero"/></clipPath><clipPath id="ab6fc8edb3"><path d="M 38.09375 22.515625 L 52 22.515625 L 52 52.484375 L 38.09375 52.484375 Z M 38.09375 22.515625 " clip-rule="nonzero"/></clipPath><clipPath id="bbb6637dc5"><path d="M 38.09375 27 L 41 27 L 41 29 L 38.09375 29 Z M 38.09375 27 " clip-rule="nonzero"/></clipPath><clipPath id="b1339a326e"><path d="M 38.09375 31 L 41 31 L 41 33 L 38.09375 33 Z M 38.09375 31 " clip-rule="nonzero"/></clipPath><clipPath id="262599f5f1"><path d="M 38.09375 34 L 41 34 L 41 36 L 38.09375 36 Z M 38.09375 34 " clip-rule="nonzero"/></clipPath><clipPath id="bbc7f61a20"><path d="M 38.09375 37 L 41 37 L 41 39 L 38.09375 39 Z M 38.09375 37 " clip-rule="nonzero"/></clipPath><clipPath id="7e13c148cd"><path d="M 38.09375 40 L 41 40 L 41 41 L 38.09375 41 Z M 38.09375 40 " clip-rule="nonzero"/></clipPath><clipPath id="39f353a90e"><path d="M 39 22.515625 L 46 22.515625 L 46 52.484375 L 39 52.484375 Z M 39 22.515625 " clip-rule="nonzero"/></clipPath></defs><g clip-path="url(#a37e1739b7)"><path fill="#ffffff" d="M 0 0.0429688 L 104.878906 0.0429688 L 104.878906 74.957031 L 0 74.957031 Z M 0 0.0429688 " fill-opacity="1" fill-rule="nonzero"/><path fill="#ffffff" d="M 0 0.0429688 L 104.878906 0.0429688 L 104.878906 74.957031 L 0 74.957031 Z M 0 0.0429688 " fill-opacity="1" fill-rule="nonzero"/></g><path fill="#000000" d="M 59.746094 50.824219 C 59.539062 50.824219 59.367188 50.65625 59.367188 50.445312 C 59.367188 50.238281 59.539062 50.066406 59.746094 50.066406 C 61.535156 50.066406 62.621094 49.027344 62.976562 46.96875 C 63.101562 46.222656 63.289062 43.742188 63.472656 41.347656 C 63.632812 39.171875 63.804688 36.910156 63.953125 35.640625 C 64.242188 33.101562 64.1875 31.082031 64.082031 29.277344 C 64.003906 28.035156 62.609375 24.921875 59.746094 24.921875 C 59.539062 24.921875 59.367188 24.75 59.367188 24.542969 C 59.367188 24.332031 59.539062 24.160156 59.746094 24.160156 C 61.554688 24.160156 62.773438 25.199219 63.476562 26.074219 C 64.242188 27.023438 64.769531 28.265625 64.828125 29.226562 C 64.933594 31.0625 64.996094 33.125 64.695312 35.722656 C 64.550781 36.980469 64.382812 39.226562 64.21875 41.398438 C 64.03125 43.925781 63.847656 46.304688 63.714844 47.089844 C 63.308594 49.503906 61.894531 50.824219 59.746094 50.824219 Z M 59.746094 50.824219 " fill-opacity="1" fill-rule="nonzero"/><g clip-path="url(#ad87732c2c)"><path fill="#000000" d="M 59.746094 52.472656 C 58.007812 52.472656 56.546875 51.8125 55.53125 50.574219 C 54.847656 49.738281 54.386719 48.660156 54.167969 47.386719 C 54.03125 46.585938 53.878906 44.640625 53.648438 41.539062 C 53.484375 39.378906 53.3125 37.152344 53.175781 35.921875 C 52.863281 33.195312 52.929688 30.960938 53.039062 29.144531 C 53.113281 27.832031 53.773438 26.269531 54.753906 25.046875 C 56.066406 23.421875 57.835938 22.527344 59.753906 22.527344 C 61.667969 22.527344 63.441406 23.421875 64.753906 25.046875 C 65.730469 26.261719 66.390625 27.832031 66.46875 29.144531 C 66.574219 30.96875 66.644531 33.195312 66.328125 35.921875 C 66.191406 37.152344 66.019531 39.378906 65.859375 41.539062 C 65.625 44.648438 65.46875 46.585938 65.332031 47.394531 C 65.109375 48.671875 64.652344 49.742188 63.96875 50.578125 C 62.941406 51.8125 61.484375 52.472656 59.746094 52.472656 Z M 59.746094 23.273438 C 58.0625 23.273438 56.492188 24.074219 55.332031 25.515625 C 54.445312 26.617188 53.847656 28.015625 53.785156 29.175781 C 53.679688 30.96875 53.617188 33.152344 53.917969 35.824219 C 54.0625 37.0625 54.230469 39.304688 54.394531 41.464844 C 54.625 44.546875 54.777344 46.46875 54.910156 47.242188 C 55.105469 48.386719 55.511719 49.339844 56.117188 50.078125 C 56.980469 51.140625 58.246094 51.707031 59.753906 51.707031 C 61.261719 51.707031 62.515625 51.140625 63.390625 50.078125 C 63.992188 49.34375 64.394531 48.386719 64.59375 47.242188 C 64.726562 46.46875 64.878906 44.546875 65.109375 41.46875 C 65.273438 39.304688 65.441406 37.0625 65.585938 35.824219 C 65.894531 33.152344 65.828125 30.960938 65.71875 29.175781 C 65.652344 28.015625 65.058594 26.617188 64.175781 25.515625 C 63 24.074219 61.429688 23.273438 59.746094 23.273438 Z M 59.746094 23.273438 " fill-opacity="1" fill-rule="nonzero"/></g><path fill="#000000" d="M 62.878906 25.882812 C 62.792969 25.882812 62.699219 25.851562 62.628906 25.78125 C 62.472656 25.644531 62.464844 25.402344 62.605469 25.246094 L 63.300781 24.464844 C 63.441406 24.308594 63.679688 24.300781 63.835938 24.441406 C 63.992188 24.578125 64 24.820312 63.859375 24.976562 L 63.164062 25.757812 C 63.085938 25.839844 62.980469 25.882812 62.878906 25.882812 Z M 62.878906 25.882812 " fill-opacity="1" fill-rule="nonzero"/><g clip-path="url(#07bee1c636)"><path fill="#000000" d="M 64.546875 28.726562 C 64.382812 28.726562 64.230469 28.617188 64.179688 28.449219 C 64.125 28.246094 64.242188 28.035156 64.445312 27.980469 L 65.769531 27.605469 C 65.972656 27.546875 66.179688 27.667969 66.234375 27.871094 C 66.292969 28.074219 66.171875 28.28125 65.972656 28.339844 L 64.644531 28.714844 C 64.613281 28.726562 64.578125 28.726562 64.546875 28.726562 Z M 64.546875 28.726562 " fill-opacity="1" fill-rule="nonzero"/></g><g clip-path="url(#c09378243d)"><path fill="#000000" d="M 66.171875 32.164062 L 64.785156 32.164062 C 64.578125 32.164062 64.40625 31.992188 64.40625 31.785156 C 64.40625 31.574219 64.578125 31.402344 64.785156 31.402344 L 66.171875 31.402344 C 66.378906 31.402344 66.546875 31.574219 66.546875 31.785156 C 66.546875 31.992188 66.386719 32.164062 66.171875 32.164062 Z M 66.171875 32.164062 " fill-opacity="1" fill-rule="nonzero"/></g><g clip-path="url(#7fc1f33548)"><path fill="#000000" d="M 65.871094 35.601562 L 64.546875 35.601562 C 64.335938 35.601562 64.167969 35.429688 64.167969 35.222656 C 64.167969 35.011719 64.335938 34.839844 64.546875 34.839844 L 65.871094 34.839844 C 66.078125 34.839844 66.246094 35.011719 66.246094 35.222656 C 66.246094 35.429688 66.078125 35.601562 65.871094 35.601562 Z M 65.871094 35.601562 " fill-opacity="1" fill-rule="nonzero"/></g><path fill="#000000" d="M 65.480469 38.222656 L 64.382812 38.222656 C 64.175781 38.222656 64.003906 38.050781 64.003906 37.84375 C 64.003906 37.632812 64.175781 37.460938 64.382812 37.460938 L 65.480469 37.460938 C 65.6875 37.460938 65.859375 37.632812 65.859375 37.84375 C 65.859375 38.050781 65.6875 38.222656 65.480469 38.222656 Z M 65.480469 38.222656 " fill-opacity="1" fill-rule="nonzero"/><path fill="#000000" d="M 65.492188 40.929688 L 64.269531 40.929688 C 64.0625 40.929688 63.890625 40.761719 63.890625 40.550781 C 63.890625 40.34375 64.0625 40.171875 64.269531 40.171875 L 65.492188 40.171875 C 65.699219 40.171875 65.871094 40.34375 65.871094 40.550781 C 65.871094 40.761719 65.699219 40.929688 65.492188 40.929688 Z M 65.492188 40.929688 " fill-opacity="1" fill-rule="nonzero"/><path fill="#000000" d="M 65.097656 42.691406 L 64.003906 42.691406 C 63.796875 42.691406 63.628906 42.519531 63.628906 42.3125 C 63.628906 42.101562 63.796875 41.929688 64.003906 41.929688 L 65.097656 41.929688 C 65.304688 41.929688 65.476562 42.101562 65.476562 42.3125 C 65.476562 42.519531 65.304688 42.691406 65.097656 42.691406 Z M 65.097656 42.691406 " fill-opacity="1" fill-rule="nonzero"/><path fill="#000000" d="M 65.042969 45.140625 L 64.066406 45.140625 C 63.859375 45.140625 63.691406 44.96875 63.691406 44.761719 C 63.691406 44.550781 63.859375 44.382812 64.066406 44.382812 L 65.042969 44.382812 C 65.25 44.382812 65.417969 44.550781 65.417969 44.761719 C 65.417969 44.96875 65.25 45.140625 65.042969 45.140625 Z M 65.042969 45.140625 " fill-opacity="1" fill-rule="nonzero"/><path fill="#000000" d="M 64.625 48.054688 C 64.582031 48.054688 64.539062 48.046875 64.5 48.027344 L 63.359375 47.609375 C 63.164062 47.539062 63.0625 47.320312 63.132812 47.121094 C 63.199219 46.925781 63.421875 46.824219 63.617188 46.894531 L 64.757812 47.3125 C 64.953125 47.382812 65.054688 47.601562 64.984375 47.800781 C 64.929688 47.957031 64.777344 48.054688 64.625 48.054688 Z M 64.625 48.054688 " fill-opacity="1" fill-rule="nonzero"/><path fill="#000000" d="M 63.515625 50.617188 C 63.425781 50.617188 63.34375 50.585938 63.269531 50.527344 L 62.460938 49.839844 C 62.300781 49.707031 62.285156 49.464844 62.414062 49.300781 C 62.546875 49.140625 62.785156 49.121094 62.949219 49.253906 L 63.761719 49.945312 C 63.917969 50.078125 63.9375 50.320312 63.804688 50.484375 C 63.726562 50.574219 63.621094 50.617188 63.515625 50.617188 Z M 63.515625 50.617188 " fill-opacity="1" fill-rule="nonzero"/><path fill="#000000" d="M 56.613281 25.882812 C 56.511719 25.882812 56.402344 25.839844 56.328125 25.757812 L 55.632812 24.976562 C 55.492188 24.820312 55.507812 24.578125 55.65625 24.441406 C 55.8125 24.300781 56.050781 24.3125 56.191406 24.464844 L 56.886719 25.246094 C 57.027344 25.402344 57.011719 25.644531 56.863281 25.78125 C 56.792969 25.851562 56.699219 25.882812 56.613281 25.882812 Z M 56.613281 25.882812 " fill-opacity="1" fill-rule="nonzero"/><path fill="#000000" d="M 54.945312 28.726562 C 54.914062 28.726562 54.878906 28.71875 54.847656 28.714844 L 53.519531 28.339844 C 53.320312 28.28125 53.199219 28.074219 53.257812 27.871094 C 53.3125 27.667969 53.519531 27.546875 53.722656 27.605469 L 55.046875 27.980469 C 55.25 28.035156 55.367188 28.246094 55.3125 28.449219 C 55.261719 28.617188 55.109375 28.726562 54.945312 28.726562 Z M 54.945312 28.726562 " fill-opacity="1" fill-rule="nonzero"/><path fill="#000000" d="M 54.703125 32.164062 L 53.3125 32.164062 C 53.105469 32.164062 52.9375 31.992188 52.9375 31.785156 C 52.9375 31.574219 53.105469 31.402344 53.3125 31.402344 L 54.703125 31.402344 C 54.910156 31.402344 55.078125 31.574219 55.078125 31.785156 C 55.078125 31.992188 54.914062 32.164062 54.703125 32.164062 Z M 54.703125 32.164062 " fill-opacity="1" fill-rule="nonzero"/><path fill="#000000" d="M 54.945312 35.601562 L 53.621094 35.601562 C 53.414062 35.601562 53.246094 35.429688 53.246094 35.222656 C 53.246094 35.011719 53.414062 34.839844 53.621094 34.839844 L 54.945312 34.839844 C 55.152344 34.839844 55.324219 35.011719 55.324219 35.222656 C 55.324219 35.429688 55.152344 35.601562 54.945312 35.601562 Z M 54.945312 35.601562 " fill-opacity="1" fill-rule="nonzero"/><path fill="#000000" d="M 55.109375 38.222656 L 54.011719 38.222656 C 53.804688 38.222656 53.632812 38.050781 53.632812 37.84375 C 53.632812 37.632812 53.804688 37.460938 54.011719 37.460938 L 55.109375 37.460938 C 55.316406 37.460938 55.488281 37.632812 55.488281 37.84375 C 55.488281 38.050781 55.316406 38.222656 55.109375 38.222656 Z M 55.109375 38.222656 " fill-opacity="1" fill-rule="nonzero"/><path fill="#000000" d="M 55.222656 40.929688 L 54 40.929688 C 53.792969 40.929688 53.621094 40.761719 53.621094 40.550781 C 53.621094 40.34375 53.792969 40.171875 54 40.171875 L 55.222656 40.171875 C 55.429688 40.171875 55.601562 40.34375 55.601562 40.550781 C 55.601562 40.761719 55.429688 40.929688 55.222656 40.929688 Z M 55.222656 40.929688 " fill-opacity="1" fill-rule="nonzero"/><path fill="#000000" d="M 55.480469 42.691406 L 54.394531 42.691406 C 54.1875 42.691406 54.015625 42.519531 54.015625 42.3125 C 54.015625 42.101562 54.1875 41.929688 54.394531 41.929688 L 55.488281 41.929688 C 55.695312 41.929688 55.863281 42.101562 55.863281 42.3125 C 55.863281 42.519531 55.695312 42.691406 55.480469 42.691406 Z M 55.480469 42.691406 " fill-opacity="1" fill-rule="nonzero"/><path fill="#000000" d="M 55.429688 45.140625 L 54.457031 45.140625 C 54.25 45.140625 54.082031 44.96875 54.082031 44.761719 C 54.082031 44.550781 54.25 44.382812 54.457031 44.382812 L 55.429688 44.382812 C 55.636719 44.382812 55.808594 44.550781 55.808594 44.761719 C 55.808594 44.96875 55.636719 45.140625 55.429688 45.140625 Z M 55.429688 45.140625 " fill-opacity="1" fill-rule="nonzero"/><path fill="#000000" d="M 54.867188 48.054688 C 54.707031 48.054688 54.5625 47.957031 54.511719 47.800781 C 54.445312 47.601562 54.546875 47.382812 54.738281 47.3125 L 55.882812 46.894531 C 56.078125 46.824219 56.296875 46.925781 56.367188 47.121094 C 56.4375 47.320312 56.335938 47.539062 56.140625 47.609375 L 54.996094 48.027344 C 54.953125 48.046875 54.910156 48.054688 54.867188 48.054688 Z M 54.867188 48.054688 " fill-opacity="1" fill-rule="nonzero"/><path fill="#000000" d="M 55.976562 50.617188 C 55.871094 50.617188 55.761719 50.574219 55.6875 50.484375 C 55.554688 50.324219 55.574219 50.085938 55.730469 49.945312 L 56.542969 49.253906 C 56.699219 49.121094 56.9375 49.140625 57.078125 49.300781 C 57.207031 49.457031 57.1875 49.699219 57.03125 49.839844 L 56.222656 50.527344 C 56.152344 50.585938 56.066406 50.617188 55.976562 50.617188 Z M 55.976562 50.617188 " fill-opacity="1" fill-rule="nonzero"/><g clip-path="url(#87da7d666a)"><path fill="#000000" d="M 59.746094 52.472656 C 59.539062 52.472656 59.367188 52.300781 59.367188 52.09375 L 59.367188 50.8125 C 57.429688 50.667969 56.160156 49.363281 55.769531 47.101562 C 55.636719 46.320312 55.457031 43.933594 55.265625 41.414062 C 55.105469 39.242188 54.933594 36.992188 54.789062 35.734375 C 54.496094 33.136719 54.550781 31.074219 54.65625 29.238281 C 54.714844 28.269531 55.25 27.035156 56.007812 26.085938 C 56.660156 25.277344 57.761719 24.320312 59.367188 24.1875 L 59.367188 23.25 C 59.367188 23.042969 59.539062 22.871094 59.746094 22.871094 C 59.953125 22.871094 60.121094 23.042969 60.121094 23.25 L 60.121094 24.542969 C 60.121094 24.75 59.953125 24.921875 59.746094 24.921875 C 56.882812 24.921875 55.488281 28.035156 55.410156 29.277344 C 55.304688 31.082031 55.25 33.101562 55.539062 35.640625 C 55.683594 36.917969 55.851562 39.171875 56.019531 41.347656 C 56.203125 43.742188 56.390625 46.21875 56.515625 46.96875 C 56.867188 49.023438 57.957031 50.066406 59.746094 50.066406 C 59.953125 50.066406 60.121094 50.238281 60.121094 50.445312 L 60.121094 52.09375 C 60.121094 52.300781 59.953125 52.472656 59.746094 52.472656 Z M 59.746094 52.472656 " fill-opacity="1" fill-rule="nonzero"/></g><path fill="#000000" d="M 61.46875 42.476562 L 58.023438 42.476562 C 57.589844 42.476562 57.226562 42.148438 57.1875 41.710938 L 56.46875 34.113281 C 56.441406 33.871094 56.523438 33.636719 56.679688 33.460938 C 56.835938 33.285156 57.070312 33.183594 57.300781 33.183594 L 62.191406 33.183594 C 62.429688 33.183594 62.652344 33.285156 62.8125 33.460938 C 62.96875 33.636719 63.050781 33.871094 63.023438 34.113281 L 62.300781 41.710938 C 62.265625 42.148438 61.90625 42.476562 61.46875 42.476562 Z M 57.300781 33.9375 C 57.269531 33.9375 57.253906 33.949219 57.238281 33.96875 C 57.226562 33.988281 57.214844 34.003906 57.214844 34.039062 L 57.9375 41.632812 C 57.941406 41.679688 57.980469 41.714844 58.023438 41.714844 L 61.46875 41.714844 C 61.511719 41.714844 61.546875 41.683594 61.554688 41.632812 L 62.277344 34.039062 C 62.277344 34.003906 62.265625 33.980469 62.253906 33.96875 C 62.238281 33.953125 62.222656 33.9375 62.191406 33.9375 Z M 57.300781 33.9375 " fill-opacity="1" fill-rule="nonzero"/><path fill="#000000" d="M 64.382812 35.550781 L 55.109375 35.550781 C 54.902344 35.550781 54.734375 35.378906 54.734375 35.171875 C 54.734375 34.960938 54.902344 34.789062 55.109375 34.789062 L 64.382812 34.789062 C 64.589844 34.789062 64.757812 34.960938 64.757812 35.171875 C 64.757812 35.378906 64.589844 35.550781 64.382812 35.550781 Z M 64.382812 35.550781 " fill-opacity="1" fill-rule="nonzero"/><path fill="#000000" d="M 63.796875 40.589844 L 55.695312 40.589844 C 55.488281 40.589844 55.316406 40.417969 55.316406 40.210938 C 55.316406 40 55.488281 39.828125 55.695312 39.828125 L 63.796875 39.828125 C 64.003906 39.828125 64.175781 40 64.175781 40.210938 C 64.175781 40.417969 64.003906 40.589844 63.796875 40.589844 Z M 63.796875 40.589844 " fill-opacity="1" fill-rule="nonzero"/><path fill="#000000" d="M 64.550781 30.949219 L 55.109375 30.949219 C 54.902344 30.949219 54.734375 30.777344 54.734375 30.566406 C 54.734375 30.359375 54.902344 30.1875 55.109375 30.1875 L 64.558594 30.1875 C 64.765625 30.1875 64.933594 30.359375 64.933594 30.566406 C 64.933594 30.777344 64.757812 30.949219 64.550781 30.949219 Z M 64.550781 30.949219 " fill-opacity="1" fill-rule="nonzero"/><path fill="#000000" d="M 62.703125 30.757812 C 62.496094 30.757812 62.328125 30.585938 62.328125 30.378906 C 62.328125 30.265625 62.285156 27.617188 59.746094 27.617188 C 59.539062 27.617188 59.367188 27.445312 59.367188 27.238281 C 59.367188 27.03125 59.539062 26.859375 59.746094 26.859375 C 61.46875 26.859375 62.289062 27.832031 62.671875 28.644531 C 63.074219 29.5 63.082031 30.339844 63.082031 30.378906 C 63.082031 30.585938 62.910156 30.757812 62.703125 30.757812 Z M 62.703125 30.757812 " fill-opacity="1" fill-rule="nonzero"/><path fill="#000000" d="M 56.789062 30.757812 C 56.582031 30.757812 56.410156 30.585938 56.410156 30.378906 C 56.410156 30.339844 56.417969 29.5 56.820312 28.644531 C 57.203125 27.828125 58.023438 26.859375 59.746094 26.859375 C 59.953125 26.859375 60.121094 27.03125 60.121094 27.238281 C 60.121094 27.445312 59.953125 27.617188 59.746094 27.617188 C 57.214844 27.617188 57.171875 30.269531 57.164062 30.378906 C 57.164062 30.59375 56.996094 30.757812 56.789062 30.757812 Z M 56.789062 30.757812 " fill-opacity="1" fill-rule="nonzero"/><path fill="#000000" d="M 59.746094 45.140625 C 59.539062 45.140625 59.367188 44.96875 59.367188 44.761719 L 59.367188 43.832031 C 59.367188 43.621094 59.539062 43.449219 59.746094 43.449219 C 59.953125 43.449219 60.121094 43.621094 60.121094 43.832031 L 60.121094 44.761719 C 60.121094 44.976562 59.953125 45.140625 59.746094 45.140625 Z M 59.746094 45.140625 " fill-opacity="1" fill-rule="nonzero"/><path fill="#000000" d="M 61.597656 45.753906 C 61.390625 45.753906 61.222656 45.585938 61.222656 45.375 L 61.222656 43.722656 C 61.222656 43.515625 61.390625 43.34375 61.597656 43.34375 C 61.804688 43.34375 61.976562 43.515625 61.976562 43.722656 L 61.976562 45.375 C 61.976562 45.585938 61.804688 45.753906 61.597656 45.753906 Z M 61.597656 45.753906 " fill-opacity="1" fill-rule="nonzero"/><path fill="#000000" d="M 60.605469 48.476562 C 60.398438 48.476562 60.230469 48.304688 60.230469 48.097656 L 60.230469 46.417969 C 60.230469 46.210938 60.398438 46.039062 60.605469 46.039062 C 60.8125 46.039062 60.984375 46.210938 60.984375 46.417969 L 60.984375 48.097656 C 60.984375 48.304688 60.8125 48.476562 60.605469 48.476562 Z M 60.605469 48.476562 " fill-opacity="1" fill-rule="nonzero"/><path fill="#000000" d="M 57.894531 45.753906 C 57.6875 45.753906 57.515625 45.585938 57.515625 45.375 L 57.515625 43.722656 C 57.515625 43.515625 57.6875 43.34375 57.894531 43.34375 C 58.101562 43.34375 58.269531 43.515625 58.269531 43.722656 L 58.269531 45.375 C 58.269531 45.585938 58.101562 45.753906 57.894531 45.753906 Z M 57.894531 45.753906 " fill-opacity="1" fill-rule="nonzero"/><path fill="#000000" d="M 58.886719 48.476562 C 58.679688 48.476562 58.507812 48.304688 58.507812 48.097656 L 58.507812 46.417969 C 58.507812 46.210938 58.679688 46.039062 58.886719 46.039062 C 59.09375 46.039062 59.261719 46.210938 59.261719 46.417969 L 59.261719 48.097656 C 59.261719 48.304688 59.09375 48.476562 58.886719 48.476562 Z M 58.886719 48.476562 " fill-opacity="1" fill-rule="nonzero"/><path fill="#000000" d="M 44.898438 50.824219 C 44.6875 50.824219 44.519531 50.65625 44.519531 50.445312 C 44.519531 50.238281 44.6875 50.066406 44.898438 50.066406 C 46.6875 50.066406 47.773438 49.027344 48.125 46.96875 C 48.257812 46.222656 48.4375 43.742188 48.621094 41.347656 C 48.785156 39.171875 48.953125 36.910156 49.105469 35.640625 C 49.394531 33.101562 49.335938 31.082031 49.230469 29.277344 C 49.15625 28.035156 47.761719 24.921875 44.898438 24.921875 C 44.6875 24.921875 44.519531 24.75 44.519531 24.542969 C 44.519531 24.332031 44.6875 24.160156 44.898438 24.160156 C 46.707031 24.160156 47.925781 25.199219 48.628906 26.074219 C 49.394531 27.023438 49.921875 28.265625 49.976562 29.226562 C 50.085938 31.0625 50.148438 33.125 49.847656 35.722656 C 49.703125 36.980469 49.53125 39.226562 49.367188 41.398438 C 49.179688 43.925781 49 46.304688 48.867188 47.089844 C 48.457031 49.503906 47.046875 50.824219 44.898438 50.824219 Z M 44.898438 50.824219 " fill-opacity="1" fill-rule="nonzero"/><g clip-path="url(#ab6fc8edb3)"><path fill="#000000" d="M 44.898438 52.472656 C 43.15625 52.472656 41.699219 51.8125 40.683594 50.574219 C 39.996094 49.738281 39.539062 48.660156 39.320312 47.386719 C 39.179688 46.585938 39.03125 44.640625 38.792969 41.539062 C 38.628906 39.378906 38.457031 37.152344 38.320312 35.921875 C 38.007812 33.195312 38.074219 30.960938 38.183594 29.144531 C 38.257812 27.832031 38.917969 26.269531 39.898438 25.046875 C 41.210938 23.421875 42.980469 22.527344 44.898438 22.527344 C 46.8125 22.527344 48.582031 23.421875 49.898438 25.046875 C 50.875 26.261719 51.535156 27.832031 51.613281 29.144531 C 51.71875 30.96875 51.789062 33.195312 51.472656 35.921875 C 51.335938 37.152344 51.164062 39.375 51.003906 41.527344 L 51.003906 41.539062 C 50.769531 44.640625 50.617188 46.585938 50.472656 47.386719 C 50.253906 48.667969 49.796875 49.738281 49.113281 50.574219 C 48.09375 51.8125 46.636719 52.472656 44.898438 52.472656 Z M 44.898438 23.273438 C 43.214844 23.273438 41.648438 24.074219 40.480469 25.515625 C 39.59375 26.617188 39.003906 28.023438 38.9375 29.183594 C 38.828125 30.972656 38.765625 33.15625 39.066406 35.828125 C 39.210938 37.070312 39.382812 39.308594 39.546875 41.46875 C 39.777344 44.550781 39.929688 46.476562 40.058594 47.25 C 40.253906 48.394531 40.664062 49.34375 41.265625 50.085938 C 42.132812 51.148438 43.394531 51.710938 44.902344 51.710938 C 46.410156 51.710938 47.667969 51.148438 48.539062 50.085938 C 49.144531 49.351562 49.546875 48.394531 49.746094 47.25 C 49.878906 46.476562 50.027344 44.550781 50.261719 41.476562 L 50.261719 41.460938 C 50.425781 39.304688 50.59375 37.070312 50.730469 35.828125 C 51.039062 33.15625 50.972656 30.96875 50.863281 29.183594 C 50.796875 28.023438 50.203125 26.625 49.320312 25.523438 C 48.152344 24.074219 46.582031 23.273438 44.898438 23.273438 Z M 44.898438 23.273438 " fill-opacity="1" fill-rule="nonzero"/></g><path fill="#000000" d="M 48.03125 25.882812 C 47.941406 25.882812 47.847656 25.851562 47.78125 25.78125 C 47.621094 25.644531 47.617188 25.402344 47.753906 25.246094 L 48.453125 24.464844 C 48.589844 24.308594 48.828125 24.300781 48.984375 24.441406 C 49.144531 24.578125 49.148438 24.820312 49.011719 24.976562 L 48.3125 25.757812 C 48.238281 25.839844 48.132812 25.882812 48.03125 25.882812 Z M 48.03125 25.882812 " fill-opacity="1" fill-rule="nonzero"/><path fill="#000000" d="M 49.695312 28.726562 C 49.53125 28.726562 49.382812 28.617188 49.332031 28.449219 C 49.273438 28.246094 49.394531 28.035156 49.59375 27.980469 L 50.921875 27.605469 C 51.121094 27.546875 51.328125 27.667969 51.386719 27.871094 C 51.441406 28.074219 51.324219 28.28125 51.121094 28.339844 L 49.796875 28.714844 C 49.765625 28.726562 49.726562 28.726562 49.695312 28.726562 Z M 49.695312 28.726562 " fill-opacity="1" fill-rule="nonzero"/><path fill="#000000" d="M 51.328125 32.164062 L 49.941406 32.164062 C 49.734375 32.164062 49.5625 31.992188 49.5625 31.785156 C 49.5625 31.574219 49.734375 31.402344 49.941406 31.402344 L 51.328125 31.402344 C 51.535156 31.402344 51.707031 31.574219 51.707031 31.785156 C 51.707031 31.992188 51.535156 32.164062 51.328125 32.164062 Z M 51.328125 32.164062 " fill-opacity="1" fill-rule="nonzero"/><path fill="#000000" d="M 51.019531 35.601562 L 49.695312 35.601562 C 49.488281 35.601562 49.320312 35.429688 49.320312 35.222656 C 49.320312 35.011719 49.488281 34.839844 49.695312 34.839844 L 51.019531 34.839844 C 51.226562 34.839844 51.398438 35.011719 51.398438 35.222656 C 51.398438 35.429688 51.234375 35.601562 51.019531 35.601562 Z M 51.019531 35.601562 " fill-opacity="1" fill-rule="nonzero"/><path fill="#000000" d="M 50.632812 38.222656 L 49.53125 38.222656 C 49.324219 38.222656 49.15625 38.050781 49.15625 37.84375 C 49.15625 37.632812 49.324219 37.460938 49.53125 37.460938 L 50.632812 37.460938 C 50.839844 37.460938 51.007812 37.632812 51.007812 37.84375 C 51.007812 38.050781 50.839844 38.222656 50.632812 38.222656 Z M 50.632812 38.222656 " fill-opacity="1" fill-rule="nonzero"/><path fill="#000000" d="M 50.644531 40.929688 L 49.417969 40.929688 C 49.210938 40.929688 49.042969 40.761719 49.042969 40.550781 C 49.042969 40.34375 49.210938 40.171875 49.417969 40.171875 L 50.644531 40.171875 C 50.851562 40.171875 51.019531 40.34375 51.019531 40.550781 C 51.019531 40.761719 50.859375 40.929688 50.644531 40.929688 Z M 50.644531 40.929688 " fill-opacity="1" fill-rule="nonzero"/><path fill="#000000" d="M 50.25 42.691406 L 49.15625 42.691406 C 48.949219 42.691406 48.777344 42.519531 48.777344 42.3125 C 48.777344 42.101562 48.949219 41.929688 49.15625 41.929688 L 50.25 41.929688 C 50.457031 41.929688 50.625 42.101562 50.625 42.3125 C 50.625 42.519531 50.457031 42.691406 50.25 42.691406 Z M 50.25 42.691406 " fill-opacity="1" fill-rule="nonzero"/><path fill="#000000" d="M 50.191406 45.140625 L 49.21875 45.140625 C 49.011719 45.140625 48.839844 44.96875 48.839844 44.761719 C 48.839844 44.550781 49.011719 44.382812 49.21875 44.382812 L 50.191406 44.382812 C 50.398438 44.382812 50.570312 44.550781 50.570312 44.761719 C 50.570312 44.96875 50.398438 45.140625 50.191406 45.140625 Z M 50.191406 45.140625 " fill-opacity="1" fill-rule="nonzero"/><path fill="#000000" d="M 49.777344 48.054688 C 49.734375 48.054688 49.6875 48.046875 49.652344 48.027344 L 48.507812 47.609375 C 48.3125 47.539062 48.214844 47.320312 48.28125 47.121094 C 48.351562 46.925781 48.570312 46.824219 48.765625 46.894531 L 49.910156 47.3125 C 50.105469 47.382812 50.203125 47.601562 50.136719 47.800781 C 50.078125 47.957031 49.933594 48.054688 49.777344 48.054688 Z M 49.777344 48.054688 " fill-opacity="1" fill-rule="nonzero"/><path fill="#000000" d="M 48.664062 50.617188 C 48.578125 50.617188 48.496094 50.585938 48.421875 50.527344 L 47.609375 49.832031 C 47.453125 49.699219 47.433594 49.457031 47.566406 49.292969 C 47.699219 49.136719 47.9375 49.117188 48.101562 49.25 L 48.910156 49.9375 C 49.066406 50.074219 49.085938 50.3125 48.953125 50.476562 C 48.878906 50.574219 48.773438 50.617188 48.664062 50.617188 Z M 48.664062 50.617188 " fill-opacity="1" fill-rule="nonzero"/><path fill="#000000" d="M 41.761719 25.882812 C 41.660156 25.882812 41.554688 25.839844 41.480469 25.757812 L 40.789062 24.984375 C 40.652344 24.828125 40.664062 24.585938 40.8125 24.445312 C 40.972656 24.308594 41.210938 24.320312 41.347656 24.472656 L 42.046875 25.25 C 42.183594 25.410156 42.171875 25.648438 42.019531 25.789062 C 41.945312 25.851562 41.851562 25.882812 41.761719 25.882812 Z M 41.761719 25.882812 " fill-opacity="1" fill-rule="nonzero"/><g clip-path="url(#bbb6637dc5)"><path fill="#000000" d="M 40.097656 28.726562 C 40.066406 28.726562 40.027344 28.71875 39.996094 28.714844 L 38.671875 28.339844 C 38.472656 28.28125 38.351562 28.074219 38.40625 27.871094 C 38.464844 27.667969 38.671875 27.546875 38.871094 27.605469 L 40.199219 27.980469 C 40.398438 28.035156 40.519531 28.246094 40.460938 28.449219 C 40.417969 28.617188 40.261719 28.726562 40.097656 28.726562 Z M 40.097656 28.726562 " fill-opacity="1" fill-rule="nonzero"/></g><g clip-path="url(#b1339a326e)"><path fill="#000000" d="M 39.859375 32.164062 L 38.472656 32.164062 C 38.261719 32.164062 38.09375 31.992188 38.09375 31.785156 C 38.09375 31.574219 38.261719 31.402344 38.472656 31.402344 L 39.859375 31.402344 C 40.066406 31.402344 40.234375 31.574219 40.234375 31.785156 C 40.234375 31.992188 40.066406 32.164062 39.859375 32.164062 Z M 39.859375 32.164062 " fill-opacity="1" fill-rule="nonzero"/></g><g clip-path="url(#262599f5f1)"><path fill="#000000" d="M 40.097656 35.601562 L 38.773438 35.601562 C 38.566406 35.601562 38.394531 35.429688 38.394531 35.222656 C 38.394531 35.011719 38.566406 34.839844 38.773438 34.839844 L 40.097656 34.839844 C 40.304688 34.839844 40.472656 35.011719 40.472656 35.222656 C 40.472656 35.429688 40.304688 35.601562 40.097656 35.601562 Z M 40.097656 35.601562 " fill-opacity="1" fill-rule="nonzero"/></g><g clip-path="url(#bbc7f61a20)"><path fill="#000000" d="M 40.261719 38.222656 L 39.160156 38.222656 C 38.953125 38.222656 38.785156 38.050781 38.785156 37.84375 C 38.785156 37.632812 38.953125 37.460938 39.160156 37.460938 L 40.261719 37.460938 C 40.46875 37.460938 40.636719 37.632812 40.636719 37.84375 C 40.636719 38.050781 40.46875 38.222656 40.261719 38.222656 Z M 40.261719 38.222656 " fill-opacity="1" fill-rule="nonzero"/></g><g clip-path="url(#7e13c148cd)"><path fill="#000000" d="M 40.375 40.929688 L 39.148438 40.929688 C 38.941406 40.929688 38.773438 40.761719 38.773438 40.550781 C 38.773438 40.34375 38.941406 40.171875 39.148438 40.171875 L 40.375 40.171875 C 40.582031 40.171875 40.75 40.34375 40.75 40.550781 C 40.75 40.761719 40.582031 40.929688 40.375 40.929688 Z M 40.375 40.929688 " fill-opacity="1" fill-rule="nonzero"/></g><path fill="#000000" d="M 40.636719 42.691406 L 39.546875 42.691406 C 39.335938 42.691406 39.167969 42.519531 39.167969 42.3125 C 39.167969 42.101562 39.335938 41.929688 39.546875 41.929688 L 40.636719 41.929688 C 40.84375 41.929688 41.015625 42.101562 41.015625 42.3125 C 41.015625 42.519531 40.84375 42.691406 40.636719 42.691406 Z M 40.636719 42.691406 " fill-opacity="1" fill-rule="nonzero"/><path fill="#000000" d="M 40.582031 45.140625 L 39.601562 45.140625 C 39.394531 45.140625 39.222656 44.96875 39.222656 44.761719 C 39.222656 44.550781 39.394531 44.382812 39.601562 44.382812 L 40.574219 44.382812 C 40.78125 44.382812 40.953125 44.550781 40.953125 44.761719 C 40.953125 44.96875 40.789062 45.140625 40.582031 45.140625 Z M 40.582031 45.140625 " fill-opacity="1" fill-rule="nonzero"/><path fill="#000000" d="M 40.015625 48.054688 C 39.859375 48.054688 39.714844 47.957031 39.664062 47.800781 C 39.59375 47.601562 39.695312 47.382812 39.890625 47.3125 L 41.035156 46.894531 C 41.226562 46.824219 41.449219 46.925781 41.515625 47.121094 C 41.585938 47.320312 41.484375 47.539062 41.292969 47.609375 L 40.148438 48.027344 C 40.105469 48.046875 40.058594 48.054688 40.015625 48.054688 Z M 40.015625 48.054688 " fill-opacity="1" fill-rule="nonzero"/><path fill="#000000" d="M 41.128906 50.617188 C 41.019531 50.617188 40.914062 50.574219 40.839844 50.484375 C 40.707031 50.324219 40.726562 50.085938 40.882812 49.945312 L 41.691406 49.253906 C 41.851562 49.121094 42.089844 49.140625 42.226562 49.300781 C 42.359375 49.457031 42.339844 49.699219 42.183594 49.839844 L 41.371094 50.527344 C 41.304688 50.585938 41.214844 50.617188 41.128906 50.617188 Z M 41.128906 50.617188 " fill-opacity="1" fill-rule="nonzero"/><g clip-path="url(#39f353a90e)"><path fill="#000000" d="M 44.898438 52.472656 C 44.6875 52.472656 44.519531 52.300781 44.519531 52.09375 L 44.519531 50.8125 C 42.585938 50.667969 41.308594 49.363281 40.921875 47.101562 C 40.789062 46.320312 40.605469 43.933594 40.417969 41.414062 C 40.253906 39.242188 40.085938 36.992188 39.941406 35.734375 C 39.644531 33.136719 39.703125 31.074219 39.808594 29.238281 C 39.867188 28.269531 40.398438 27.035156 41.160156 26.085938 C 41.8125 25.277344 42.910156 24.320312 44.511719 24.1875 L 44.511719 23.25 C 44.511719 23.042969 44.683594 22.871094 44.890625 22.871094 C 45.097656 22.871094 45.265625 23.042969 45.265625 23.25 L 45.265625 24.542969 C 45.265625 24.75 45.097656 24.921875 44.890625 24.921875 C 42.027344 24.921875 40.632812 28.035156 40.554688 29.277344 C 40.449219 31.082031 40.394531 33.101562 40.683594 35.640625 C 40.828125 36.917969 40.996094 39.171875 41.164062 41.347656 C 41.347656 43.742188 41.535156 46.21875 41.660156 46.96875 C 42.011719 49.023438 43.101562 50.066406 44.890625 50.066406 C 45.097656 50.066406 45.265625 50.238281 45.265625 50.445312 L 45.265625 52.09375 C 45.273438 52.300781 45.105469 52.472656 44.898438 52.472656 Z M 44.898438 52.472656 " fill-opacity="1" fill-rule="nonzero"/></g><path fill="#000000" d="M 46.617188 42.476562 L 43.175781 42.476562 C 42.742188 42.476562 42.378906 42.148438 42.339844 41.710938 L 41.617188 34.113281 C 41.59375 33.871094 41.675781 33.636719 41.832031 33.460938 C 41.988281 33.285156 42.214844 33.183594 42.453125 33.183594 L 47.339844 33.183594 C 47.578125 33.183594 47.804688 33.285156 47.960938 33.460938 C 48.117188 33.636719 48.199219 33.871094 48.175781 34.113281 L 47.453125 41.710938 C 47.414062 42.148438 47.058594 42.476562 46.617188 42.476562 Z M 42.453125 33.9375 C 42.421875 33.9375 42.402344 33.949219 42.390625 33.96875 C 42.378906 33.988281 42.367188 34.003906 42.367188 34.039062 L 43.085938 41.632812 C 43.09375 41.679688 43.132812 41.714844 43.175781 41.714844 L 46.617188 41.714844 C 46.660156 41.714844 46.699219 41.683594 46.707031 41.632812 L 47.429688 34.039062 C 47.429688 34.003906 47.414062 33.980469 47.402344 33.96875 C 47.390625 33.953125 47.371094 33.9375 47.339844 33.9375 Z M 42.453125 33.9375 " fill-opacity="1" fill-rule="nonzero"/><path fill="#000000" d="M 49.53125 35.550781 L 40.261719 35.550781 C 40.054688 35.550781 39.882812 35.378906 39.882812 35.171875 C 39.882812 34.960938 40.054688 34.789062 40.261719 34.789062 L 49.539062 34.789062 C 49.746094 34.789062 49.914062 34.960938 49.914062 35.171875 C 49.914062 35.378906 49.746094 35.550781 49.53125 35.550781 Z M 49.53125 35.550781 " fill-opacity="1" fill-rule="nonzero"/><path fill="#000000" d="M 48.949219 40.589844 L 40.84375 40.589844 C 40.636719 40.589844 40.46875 40.417969 40.46875 40.210938 C 40.46875 40 40.636719 39.828125 40.84375 39.828125 L 48.949219 39.828125 C 49.15625 39.828125 49.324219 40 49.324219 40.210938 C 49.324219 40.417969 49.15625 40.589844 48.949219 40.589844 Z M 48.949219 40.589844 " fill-opacity="1" fill-rule="nonzero"/><path fill="#000000" d="M 49.703125 30.949219 L 40.261719 30.949219 C 40.054688 30.949219 39.882812 30.777344 39.882812 30.566406 C 39.882812 30.359375 40.054688 30.1875 40.261719 30.1875 L 49.707031 30.1875 C 49.914062 30.1875 50.085938 30.359375 50.085938 30.566406 C 50.085938 30.777344 49.914062 30.949219 49.703125 30.949219 Z M 49.703125 30.949219 " fill-opacity="1" fill-rule="nonzero"/><path fill="#000000" d="M 47.855469 30.757812 C 47.648438 30.757812 47.476562 30.585938 47.476562 30.378906 C 47.476562 30.265625 47.433594 27.617188 44.898438 27.617188 C 44.6875 27.617188 44.519531 27.445312 44.519531 27.238281 C 44.519531 27.03125 44.6875 26.859375 44.898438 26.859375 C 46.617188 26.859375 47.441406 27.832031 47.824219 28.644531 C 48.226562 29.5 48.230469 30.339844 48.230469 30.378906 C 48.230469 30.585938 48.0625 30.757812 47.855469 30.757812 Z M 47.855469 30.757812 " fill-opacity="1" fill-rule="nonzero"/><path fill="#000000" d="M 41.9375 30.757812 C 41.730469 30.757812 41.5625 30.585938 41.5625 30.378906 C 41.5625 30.339844 41.566406 29.5 41.96875 28.644531 C 42.351562 27.828125 43.175781 26.859375 44.898438 26.859375 C 45.105469 26.859375 45.273438 27.03125 45.273438 27.238281 C 45.273438 27.445312 45.105469 27.617188 44.898438 27.617188 C 42.367188 27.617188 42.320312 30.269531 42.316406 30.378906 C 42.316406 30.59375 42.144531 30.757812 41.9375 30.757812 Z M 41.9375 30.757812 " fill-opacity="1" fill-rule="nonzero"/><path fill="#000000" d="M 44.898438 45.140625 C 44.6875 45.140625 44.519531 44.96875 44.519531 44.761719 L 44.519531 43.832031 C 44.519531 43.621094 44.6875 43.449219 44.898438 43.449219 C 45.105469 43.449219 45.273438 43.621094 45.273438 43.832031 L 45.273438 44.761719 C 45.273438 44.976562 45.105469 45.140625 44.898438 45.140625 Z M 44.898438 45.140625 " fill-opacity="1" fill-rule="nonzero"/><path fill="#000000" d="M 46.75 45.753906 C 46.542969 45.753906 46.371094 45.585938 46.371094 45.375 L 46.371094 43.722656 C 46.371094 43.515625 46.542969 43.34375 46.75 43.34375 C 46.957031 43.34375 47.125 43.515625 47.125 43.722656 L 47.125 45.375 C 47.125 45.585938 46.957031 45.753906 46.75 45.753906 Z M 46.75 45.753906 " fill-opacity="1" fill-rule="nonzero"/><path fill="#000000" d="M 45.757812 48.476562 C 45.550781 48.476562 45.378906 48.304688 45.378906 48.097656 L 45.378906 46.417969 C 45.378906 46.210938 45.550781 46.039062 45.757812 46.039062 C 45.964844 46.039062 46.132812 46.210938 46.132812 46.417969 L 46.132812 48.097656 C 46.132812 48.304688 45.964844 48.476562 45.757812 48.476562 Z M 45.757812 48.476562 " fill-opacity="1" fill-rule="nonzero"/><path fill="#000000" d="M 43.042969 45.753906 C 42.835938 45.753906 42.667969 45.585938 42.667969 45.375 L 42.667969 43.722656 C 42.667969 43.515625 42.835938 43.34375 43.042969 43.34375 C 43.25 43.34375 43.421875 43.515625 43.421875 43.722656 L 43.421875 45.375 C 43.421875 45.585938 43.25 45.753906 43.042969 45.753906 Z M 43.042969 45.753906 " fill-opacity="1" fill-rule="nonzero"/><path fill="#000000" d="M 44.035156 48.476562 C 43.828125 48.476562 43.660156 48.304688 43.660156 48.097656 L 43.660156 46.417969 C 43.660156 46.210938 43.828125 46.039062 44.035156 46.039062 C 44.242188 46.039062 44.414062 46.210938 44.414062 46.417969 L 44.414062 48.097656 C 44.414062 48.304688 44.242188 48.476562 44.035156 48.476562 Z M 44.035156 48.476562 " fill-opacity="1" fill-rule="nonzero"/></svg>