<svg xmlns="http://www.w3.org/2000/svg" xmlns:xlink="http://www.w3.org/1999/xlink" width="140" zoomAndPan="magnify" viewBox="0 0 104.88 74.999997" height="100" preserveAspectRatio="xMidYMid meet" version="1.0"><defs><clipPath id="4be538927e"><path d="M 0 0.0429688 L 104.761719 0.0429688 L 104.761719 74.957031 L 0 74.957031 Z M 0 0.0429688 " clip-rule="nonzero"/></clipPath><clipPath id="4fca5211df"><path d="M 36.605469 22.515625 L 68.070312 22.515625 L 68.070312 52.484375 L 36.605469 52.484375 Z M 36.605469 22.515625 " clip-rule="nonzero"/></clipPath></defs><g clip-path="url(#4be538927e)"><path fill="#ffffff" d="M 0 0.0429688 L 104.878906 0.0429688 L 104.878906 74.957031 L 0 74.957031 Z M 0 0.0429688 " fill-opacity="1" fill-rule="nonzero"/><path fill="#ffffff" d="M 0 0.0429688 L 104.878906 0.0429688 L 104.878906 74.957031 L 0 74.957031 Z M 0 0.0429688 " fill-opacity="1" fill-rule="nonzero"/></g><g clip-path="url(#4fca5211df)"><path fill="#000000" d="M 42.589844 31.402344 C 42.96875 31.402344 43.332031 31.328125 43.683594 31.183594 C 44.03125 31.039062 44.339844 30.832031 44.609375 30.5625 C 44.875 30.292969 45.082031 29.980469 45.226562 29.628906 C 45.371094 29.277344 45.441406 28.914062 45.441406 28.53125 C 45.441406 28.152344 45.371094 27.785156 45.226562 27.433594 C 45.082031 27.082031 44.875 26.773438 44.609375 26.503906 C 44.339844 26.234375 44.03125 26.027344 43.683594 25.878906 C 43.332031 25.734375 42.96875 25.660156 42.589844 25.660156 C 42.210938 25.660156 41.847656 25.734375 41.5 25.878906 C 41.148438 26.027344 40.839844 26.234375 40.574219 26.503906 C 40.308594 26.773438 40.101562 27.082031 39.957031 27.433594 C 39.8125 27.785156 39.738281 28.152344 39.738281 28.53125 C 39.738281 28.914062 39.8125 29.277344 39.957031 29.628906 C 40.101562 29.980469 40.308594 30.292969 40.574219 30.558594 C 40.84375 30.828125 41.152344 31.035156 41.5 31.183594 C 41.847656 31.328125 42.214844 31.402344 42.589844 31.402344 Z M 42.589844 26.789062 C 42.820312 26.789062 43.042969 26.835938 43.253906 26.921875 C 43.464844 27.011719 43.652344 27.136719 43.816406 27.300781 C 43.976562 27.464844 44.101562 27.652344 44.191406 27.867188 C 44.277344 28.078125 44.320312 28.300781 44.320312 28.53125 C 44.320312 28.761719 44.277344 28.984375 44.191406 29.199219 C 44.101562 29.410156 43.976562 29.601562 43.816406 29.761719 C 43.652344 29.925781 43.464844 30.050781 43.253906 30.140625 C 43.042969 30.230469 42.820312 30.273438 42.589844 30.273438 C 42.363281 30.273438 42.140625 30.230469 41.929688 30.140625 C 41.714844 30.050781 41.53125 29.925781 41.367188 29.761719 C 41.203125 29.601562 41.078125 29.410156 40.992188 29.199219 C 40.90625 28.984375 40.859375 28.761719 40.859375 28.53125 C 40.859375 28.300781 40.90625 28.078125 40.992188 27.867188 C 41.082031 27.652344 41.207031 27.464844 41.367188 27.300781 C 41.53125 27.136719 41.71875 27.011719 41.929688 26.921875 C 42.140625 26.835938 42.363281 26.789062 42.589844 26.789062 Z M 42.03125 24.480469 L 42.03125 23.082031 C 42.03125 22.925781 42.085938 22.792969 42.195312 22.683594 C 42.304688 22.570312 42.4375 22.515625 42.589844 22.515625 C 42.746094 22.515625 42.878906 22.570312 42.988281 22.683594 C 43.097656 22.792969 43.152344 22.925781 43.152344 23.082031 L 43.152344 24.480469 C 43.152344 24.636719 43.097656 24.769531 42.988281 24.878906 C 42.878906 24.988281 42.746094 25.042969 42.589844 25.042969 C 42.4375 25.042969 42.304688 24.988281 42.195312 24.878906 C 42.085938 24.769531 42.03125 24.636719 42.03125 24.480469 Z M 38.363281 25.078125 C 38.253906 24.964844 38.199219 24.832031 38.199219 24.679688 C 38.199219 24.523438 38.253906 24.390625 38.363281 24.277344 C 38.472656 24.167969 38.605469 24.113281 38.761719 24.113281 C 38.914062 24.113281 39.046875 24.167969 39.15625 24.277344 L 40.140625 25.265625 C 40.25 25.378906 40.304688 25.511719 40.304688 25.667969 C 40.304688 25.824219 40.25 25.957031 40.140625 26.066406 C 40.03125 26.175781 39.898438 26.230469 39.742188 26.230469 C 39.589844 26.230469 39.457031 26.175781 39.347656 26.066406 Z M 37.175781 29.097656 C 37.019531 29.097656 36.886719 29.042969 36.777344 28.929688 C 36.667969 28.820312 36.613281 28.6875 36.613281 28.53125 C 36.613281 28.375 36.667969 28.242188 36.777344 28.132812 C 36.886719 28.023438 37.019531 27.96875 37.175781 27.96875 L 38.5625 27.96875 C 38.71875 27.96875 38.851562 28.023438 38.960938 28.132812 C 39.070312 28.242188 39.125 28.375 39.125 28.53125 C 39.125 28.6875 39.070312 28.820312 38.960938 28.929688 C 38.851562 29.042969 38.71875 29.097656 38.5625 29.097656 Z M 40.140625 31 C 40.25 31.109375 40.304688 31.242188 40.304688 31.398438 C 40.304688 31.554688 40.25 31.6875 40.140625 31.796875 L 39.15625 32.785156 C 39.046875 32.894531 38.914062 32.949219 38.761719 32.949219 C 38.605469 32.949219 38.472656 32.894531 38.363281 32.785156 C 38.253906 32.675781 38.199219 32.542969 38.199219 32.386719 C 38.199219 32.230469 38.253906 32.097656 38.363281 31.988281 L 39.347656 31 C 39.457031 30.886719 39.589844 30.832031 39.742188 30.832031 C 39.898438 30.832031 40.03125 30.886719 40.140625 31 Z M 42.589844 32.019531 C 42.746094 32.019531 42.878906 32.074219 42.988281 32.183594 C 43.097656 32.296875 43.152344 32.429688 43.152344 32.585938 L 43.152344 33.984375 C 43.152344 34.136719 43.097656 34.269531 42.988281 34.382812 C 42.878906 34.492188 42.746094 34.546875 42.589844 34.546875 C 42.4375 34.546875 42.304688 34.492188 42.195312 34.382812 C 42.085938 34.269531 42.03125 34.136719 42.03125 33.984375 L 42.03125 32.585938 C 42.03125 32.429688 42.085938 32.296875 42.195312 32.183594 C 42.304688 32.074219 42.4375 32.019531 42.589844 32.019531 Z M 45.835938 31 L 46.816406 31.988281 C 46.925781 32.097656 46.980469 32.230469 46.980469 32.386719 C 46.980469 32.542969 46.925781 32.675781 46.816406 32.785156 C 46.707031 32.894531 46.574219 32.949219 46.421875 32.949219 C 46.265625 32.949219 46.132812 32.894531 46.023438 32.785156 L 45.042969 31.796875 C 44.933594 31.6875 44.878906 31.554688 44.878906 31.398438 C 44.878906 31.242188 44.933594 31.109375 45.042969 31 C 45.152344 30.886719 45.285156 30.832031 45.4375 30.832031 C 45.59375 30.832031 45.726562 30.886719 45.835938 31 Z M 46.816406 28.667969 L 48.054688 28.667969 C 48.210938 28.667969 48.34375 28.722656 48.453125 28.832031 C 48.5625 28.941406 48.617188 29.074219 48.617188 29.230469 C 48.617188 29.386719 48.5625 29.519531 48.453125 29.628906 C 48.34375 29.738281 48.210938 29.796875 48.054688 29.796875 L 46.816406 29.796875 C 46.660156 29.796875 46.527344 29.738281 46.417969 29.628906 C 46.308594 29.519531 46.253906 29.386719 46.253906 29.230469 C 46.253906 29.074219 46.308594 28.941406 46.417969 28.832031 C 46.527344 28.722656 46.660156 28.667969 46.816406 28.667969 Z M 45.042969 26.066406 C 44.933594 25.957031 44.878906 25.824219 44.878906 25.667969 C 44.878906 25.511719 44.933594 25.378906 45.042969 25.265625 L 46.023438 24.277344 C 46.132812 24.167969 46.265625 24.113281 46.421875 24.113281 C 46.574219 24.113281 46.707031 24.167969 46.816406 24.277344 C 46.925781 24.390625 46.980469 24.523438 46.980469 24.679688 C 46.980469 24.832031 46.925781 24.964844 46.816406 25.078125 L 45.835938 26.066406 C 45.726562 26.175781 45.59375 26.230469 45.4375 26.230469 C 45.285156 26.230469 45.152344 26.175781 45.042969 26.066406 Z M 67.457031 50.71875 C 66.835938 50.707031 66.230469 50.792969 65.640625 50.976562 C 66.117188 49.007812 66.355469 47.011719 66.359375 44.984375 C 66.363281 42.445312 66 39.964844 65.265625 37.535156 C 64.53125 35.109375 63.460938 32.839844 62.058594 30.734375 C 61.722656 30.234375 61.257812 29.988281 60.660156 29.988281 C 60.058594 29.988281 59.59375 30.238281 59.261719 30.738281 C 58.429688 31.992188 57.71875 33.308594 57.121094 34.691406 C 55.945312 33.359375 54.644531 32.164062 53.214844 31.113281 C 53.105469 31.03125 52.984375 30.964844 52.855469 30.910156 C 52.730469 30.859375 52.597656 30.824219 52.460938 30.804688 C 52.324219 30.785156 52.1875 30.78125 52.050781 30.796875 C 51.914062 30.8125 51.78125 30.84375 51.648438 30.890625 C 51.519531 30.9375 51.398438 31 51.285156 31.078125 C 51.171875 31.15625 51.066406 31.246094 50.972656 31.347656 C 50.882812 31.453125 50.804688 31.5625 50.738281 31.6875 C 50.671875 31.808594 50.625 31.9375 50.589844 32.070312 C 50.25 33.484375 50.027344 34.917969 49.933594 36.367188 C 49.925781 36.402344 49.925781 36.4375 49.925781 36.472656 C 49.875 37.246094 49.859375 38.023438 49.878906 38.796875 C 49.863281 38.882812 49.863281 38.964844 49.886719 39.050781 C 50.03125 43.210938 51.109375 47.109375 53.125 50.75 C 52.925781 50.730469 52.699219 50.71875 52.445312 50.71875 C 51.742188 50.707031 51.058594 50.816406 50.394531 51.050781 C 49.84375 51.25 49.277344 51.339844 48.691406 51.324219 C 48.105469 51.339844 47.535156 51.246094 46.984375 51.050781 C 46.324219 50.816406 45.644531 50.707031 44.945312 50.71875 C 44.242188 50.707031 43.558594 50.816406 42.894531 51.050781 C 42.34375 51.25 41.777344 51.339844 41.191406 51.324219 C 40.605469 51.339844 40.035156 51.25 39.484375 51.050781 C 38.824219 50.816406 38.140625 50.707031 37.4375 50.71875 C 37.28125 50.71875 37.148438 50.773438 37.039062 50.886719 C 36.929688 50.996094 36.875 51.128906 36.875 51.285156 C 36.875 51.441406 36.929688 51.574219 37.039062 51.683594 C 37.148438 51.792969 37.28125 51.847656 37.4375 51.847656 C 38.023438 51.832031 38.589844 51.925781 39.140625 52.125 C 39.804688 52.359375 40.488281 52.46875 41.191406 52.453125 C 41.894531 52.46875 42.574219 52.359375 43.238281 52.125 C 43.789062 51.925781 44.359375 51.832031 44.945312 51.847656 C 45.527344 51.832031 46.09375 51.925781 46.640625 52.125 C 47.304688 52.359375 47.988281 52.46875 48.691406 52.453125 C 49.390625 52.46875 50.074219 52.359375 50.738281 52.125 C 51.289062 51.925781 51.859375 51.832031 52.445312 51.847656 C 53.007812 51.832031 53.558594 51.917969 54.09375 52.105469 L 54.152344 52.125 C 54.8125 52.359375 55.492188 52.46875 56.1875 52.453125 C 56.3125 52.453125 56.425781 52.453125 56.507812 52.445312 C 57.101562 52.429688 57.679688 52.320312 58.242188 52.125 C 59.375 51.746094 60.511719 51.746094 61.644531 52.125 C 62.089844 52.277344 62.542969 52.378906 63.007812 52.421875 L 63.023438 52.421875 C 63.25 52.445312 63.476562 52.457031 63.703125 52.453125 C 64.128906 52.457031 64.550781 52.421875 64.96875 52.34375 L 64.980469 52.34375 C 65.238281 52.285156 65.492188 52.214844 65.742188 52.128906 C 66.296875 51.925781 66.867188 51.832031 67.457031 51.847656 C 67.609375 51.847656 67.742188 51.792969 67.851562 51.683594 C 67.960938 51.574219 68.015625 51.441406 68.015625 51.285156 C 68.015625 51.128906 67.960938 50.996094 67.851562 50.886719 C 67.742188 50.773438 67.609375 50.71875 67.457031 50.71875 Z M 60.191406 31.367188 C 60.304688 31.199219 60.460938 31.113281 60.660156 31.117188 C 60.859375 31.113281 61.015625 31.195312 61.125 31.363281 C 62.378906 33.242188 63.351562 35.261719 64.046875 37.414062 C 62.902344 38.570312 61.761719 39.164062 60.648438 39.164062 L 60.636719 39.164062 C 59.546875 39.160156 58.414062 38.585938 57.265625 37.476562 C 57.429688 36.960938 57.609375 36.445312 57.808594 35.941406 C 58.441406 34.332031 59.238281 32.804688 60.191406 31.367188 Z M 55.566406 51.296875 C 55.519531 51.292969 55.476562 51.285156 55.433594 51.28125 C 55.402344 51.277344 55.375 51.273438 55.347656 51.269531 C 55.308594 51.261719 55.269531 51.257812 55.230469 51.25 C 55.203125 51.242188 55.179688 51.238281 55.15625 51.234375 C 55.117188 51.226562 55.082031 51.21875 55.046875 51.210938 C 55.023438 51.203125 55 51.199219 54.976562 51.195312 C 54.941406 51.183594 54.90625 51.175781 54.871094 51.164062 C 54.847656 51.160156 54.828125 51.152344 54.808594 51.148438 C 54.769531 51.136719 54.734375 51.125 54.695312 51.113281 L 54.648438 51.097656 L 54.628906 51.09375 C 52.542969 47.679688 51.351562 43.976562 51.058594 39.980469 L 55.085938 42.558594 C 54.804688 45.515625 55.03125 48.433594 55.757812 51.3125 C 55.722656 51.308594 55.6875 51.308594 55.65625 51.304688 C 55.625 51.300781 55.597656 51.296875 55.566406 51.296875 Z M 55.234375 41.316406 L 50.992188 38.601562 C 50.988281 38.230469 50.988281 37.859375 51 37.488281 L 55.398438 40.3125 C 55.335938 40.644531 55.28125 40.980469 55.234375 41.316406 Z M 51.679688 32.339844 C 51.703125 32.25 51.746094 32.171875 51.808594 32.101562 C 51.871094 32.03125 51.945312 31.984375 52.035156 31.949219 C 52.121094 31.917969 52.210938 31.910156 52.304688 31.921875 C 52.394531 31.933594 52.480469 31.96875 52.554688 32.023438 C 54.066406 33.136719 55.429688 34.414062 56.644531 35.851562 C 56.464844 36.324219 56.300781 36.796875 56.148438 37.277344 C 56.070312 37.382812 56.03125 37.503906 56.039062 37.636719 C 55.890625 38.128906 55.761719 38.628906 55.644531 39.132812 L 51.066406 36.195312 C 51.167969 34.894531 51.371094 33.609375 51.679688 32.339844 Z M 59.941406 50.71875 C 59.242188 50.707031 58.5625 50.816406 57.898438 51.050781 C 57.832031 51.070312 57.769531 51.089844 57.707031 51.109375 L 57.648438 51.128906 C 57.585938 51.148438 57.519531 51.164062 57.453125 51.183594 L 57.417969 51.191406 C 57.359375 51.207031 57.296875 51.21875 57.234375 51.234375 C 57.203125 51.238281 57.175781 51.242188 57.144531 51.25 C 57.085938 51.257812 57.027344 51.269531 56.960938 51.277344 C 56.941406 51.28125 56.925781 51.28125 56.90625 51.285156 C 55.796875 47.082031 55.800781 42.878906 56.910156 38.675781 C 57.816406 39.527344 58.878906 40.054688 60.101562 40.257812 L 60.101562 48.160156 C 60.101562 48.316406 60.15625 48.449219 60.265625 48.558594 C 60.375 48.667969 60.507812 48.722656 60.660156 48.722656 C 60.816406 48.722656 60.949219 48.667969 61.058594 48.558594 C 61.167969 48.449219 61.222656 48.316406 61.222656 48.160156 L 61.222656 40.253906 C 62.453125 40.042969 63.511719 39.5 64.40625 38.628906 C 65.53125 42.84375 65.535156 47.0625 64.421875 51.28125 C 64.378906 51.285156 64.339844 51.292969 64.296875 51.296875 C 64.269531 51.300781 64.246094 51.300781 64.21875 51.304688 C 64.058594 51.316406 63.886719 51.324219 63.703125 51.324219 C 63.507812 51.328125 63.316406 51.320312 63.121094 51.300781 C 62.734375 51.261719 62.355469 51.179688 61.984375 51.046875 C 61.324219 50.816406 60.644531 50.707031 59.941406 50.71875 Z M 59.941406 50.71875 " fill-opacity="1" fill-rule="nonzero"/></g></svg>