<svg xmlns="http://www.w3.org/2000/svg" xmlns:xlink="http://www.w3.org/1999/xlink" width="140" zoomAndPan="magnify" viewBox="0 0 104.88 74.999997" height="100" preserveAspectRatio="xMidYMid meet" version="1.0"><defs><clipPath id="26ceed2344"><path d="M 0 0.0429688 L 104.761719 0.0429688 L 104.761719 74.957031 L 0 74.957031 Z M 0 0.0429688 " clip-rule="nonzero"/></clipPath><clipPath id="d8f763f421"><path d="M 36.914062 22.515625 L 67.628906 22.515625 L 67.628906 52.484375 L 36.914062 52.484375 Z M 36.914062 22.515625 " clip-rule="nonzero"/></clipPath></defs><g clip-path="url(#26ceed2344)"><path fill="#ffffff" d="M 0 0.0429688 L 104.878906 0.0429688 L 104.878906 74.957031 L 0 74.957031 Z M 0 0.0429688 " fill-opacity="1" fill-rule="nonzero"/><path fill="#ffffff" d="M 0 0.0429688 L 104.878906 0.0429688 L 104.878906 74.957031 L 0 74.957031 Z M 0 0.0429688 " fill-opacity="1" fill-rule="nonzero"/></g><g clip-path="url(#d8f763f421)"><path fill="#000000" d="M 56.871094 40.109375 C 57.234375 40.824219 57.519531 41.585938 57.722656 42.382812 L 58.078125 42.21875 C 58.308594 42.117188 58.582031 42.21875 58.6875 42.453125 C 58.789062 42.691406 58.683594 42.964844 58.453125 43.070312 L 57.921875 43.3125 C 58.019531 43.875 58.078125 44.449219 58.101562 45.027344 L 58.515625 45.027344 C 58.769531 45.027344 58.976562 45.238281 58.976562 45.496094 C 58.976562 45.753906 58.769531 45.960938 58.515625 45.960938 L 58.101562 45.960938 C 58.082031 46.46875 58.035156 46.972656 57.953125 47.46875 L 58.453125 47.695312 C 58.683594 47.800781 58.789062 48.078125 58.6875 48.3125 C 58.582031 48.546875 58.308594 48.652344 58.078125 48.546875 L 57.769531 48.410156 C 57.566406 49.273438 57.265625 50.105469 56.871094 50.878906 C 58.507812 51.664062 60.425781 51.644531 62.042969 50.824219 C 61.664062 50.066406 61.371094 49.253906 61.171875 48.410156 L 60.867188 48.546875 C 60.632812 48.652344 60.363281 48.546875 60.257812 48.3125 C 60.15625 48.078125 60.257812 47.800781 60.492188 47.695312 L 60.988281 47.472656 C 60.910156 46.972656 60.863281 46.46875 60.84375 45.960938 L 60.429688 45.960938 C 60.175781 45.960938 59.96875 45.753906 59.96875 45.496094 C 59.96875 45.238281 60.175781 45.027344 60.429688 45.027344 L 60.84375 45.027344 C 60.863281 44.449219 60.925781 43.875 61.023438 43.3125 L 60.492188 43.070312 C 60.257812 42.96875 60.15625 42.691406 60.257812 42.457031 C 60.363281 42.222656 60.632812 42.117188 60.867188 42.222656 L 61.222656 42.382812 C 61.421875 41.609375 61.695312 40.863281 62.042969 40.164062 C 60.425781 39.34375 58.507812 39.324219 56.871094 40.109375 Z M 56.070312 50.410156 C 56.445312 49.667969 56.726562 48.859375 56.910156 48.019531 L 56.585938 47.875 C 56.355469 47.769531 56.25 47.496094 56.355469 47.261719 C 56.457031 47.023438 56.730469 46.917969 56.964844 47.023438 L 57.078125 47.074219 C 57.128906 46.707031 57.160156 46.335938 57.171875 45.964844 L 56.972656 45.964844 C 56.71875 45.964844 56.507812 45.753906 56.507812 45.496094 C 56.507812 45.238281 56.71875 45.027344 56.972656 45.027344 L 57.171875 45.027344 C 57.15625 44.585938 57.113281 44.144531 57.046875 43.707031 L 56.964844 43.746094 C 56.730469 43.851562 56.457031 43.746094 56.355469 43.511719 C 56.25 43.273438 56.355469 43 56.585938 42.894531 L 56.863281 42.769531 C 56.679688 42 56.414062 41.265625 56.070312 40.578125 C 52.65625 42.945312 52.65625 48.042969 56.070312 50.410156 Z M 62.078125 42.769531 L 62.355469 42.894531 C 62.589844 43 62.695312 43.273438 62.589844 43.507812 C 62.484375 43.746094 62.214844 43.847656 61.980469 43.746094 L 61.894531 43.707031 C 61.828125 44.144531 61.789062 44.582031 61.769531 45.027344 L 61.972656 45.027344 C 62.226562 45.027344 62.433594 45.238281 62.433594 45.496094 C 62.433594 45.753906 62.226562 45.960938 61.972656 45.960938 L 61.769531 45.960938 C 61.785156 46.335938 61.816406 46.707031 61.863281 47.074219 L 61.980469 47.023438 C 62.214844 46.917969 62.484375 47.023438 62.589844 47.257812 C 62.695312 47.492188 62.589844 47.769531 62.355469 47.875 L 62.03125 48.019531 C 62.210938 48.832031 62.480469 49.617188 62.835938 50.339844 C 66.121094 47.964844 66.121094 43.023438 62.839844 40.644531 C 62.507812 41.3125 62.257812 42.027344 62.078125 42.769531 Z M 59.707031 38.605469 C 60.664062 38.648438 61.566406 38.886719 62.382812 39.289062 C 65.097656 37.769531 66.757812 34.835938 66.691406 31.71875 C 64.589844 33.980469 61.828125 35.898438 58.839844 36.640625 C 59.042969 37.328125 59.335938 37.992188 59.707031 38.605469 Z M 63.292969 39.828125 C 66.78125 42.277344 67.242188 47.324219 64.230469 50.371094 C 61.207031 53.421875 56.199219 52.945312 53.785156 49.402344 C 50.007812 53.425781 43.683594 53.53125 39.785156 49.589844 C 35.96875 45.734375 35.96875 39.480469 39.785156 35.625 C 42.191406 33.191406 45.722656 32.160156 49.121094 33.039062 C 48.5625 28.46875 51.410156 24.0625 55.933594 22.839844 C 60.882812 21.496094 65.972656 24.464844 67.300781 29.46875 C 67.382812 29.777344 67.484375 30.242188 67.519531 30.546875 C 67.78125 32.335938 67.515625 34.105469 66.828125 35.679688 C 66.09375 37.363281 64.871094 38.820312 63.292969 39.828125 Z M 53.292969 48.566406 L 53.28125 48.535156 L 51.539062 47.148438 L 48.988281 48.871094 L 49.597656 51.058594 C 51.023438 50.558594 52.296875 49.691406 53.292969 48.566406 Z M 52.722656 46.90625 C 52.480469 45.71875 52.550781 44.480469 52.921875 43.339844 C 52.714844 43.328125 52.546875 43.183594 52.496094 42.992188 L 52.492188 42.992188 L 52.175781 41.785156 L 50.078125 42.3125 L 49.074219 45.4375 L 50.128906 46.976562 L 51.304688 46.1875 C 51.484375 46.066406 51.710938 46.085938 51.867188 46.222656 Z M 53.296875 42.414062 C 53.75 41.503906 54.394531 40.703125 55.183594 40.078125 C 54.988281 39.414062 54.722656 38.78125 54.390625 38.191406 L 52.507812 39.429688 Z M 55.980469 39.527344 C 56.785156 39.054688 57.691406 38.746094 58.660156 38.636719 C 58.535156 38.40625 58.421875 38.164062 58.316406 37.921875 C 58.121094 37.46875 57.964844 36.992188 57.84375 36.5 C 57.832031 36.472656 57.820312 36.445312 57.8125 36.417969 C 57.457031 35.0625 57.480469 33.40625 57.8125 32.058594 C 56.933594 31.316406 55.925781 30.753906 54.855469 30.398438 C 54.589844 31.332031 54.445312 32.300781 54.402344 33.285156 C 54.347656 34.480469 54.449219 35.699219 54.671875 36.90625 L 54.9375 37.304688 C 55.371094 37.992188 55.722656 38.738281 55.980469 39.527344 Z M 46.234375 39.464844 L 46.234375 37.046875 L 44.828125 37.046875 C 44.609375 37.046875 44.429688 36.894531 44.378906 36.695312 L 43.585938 34.234375 C 41.9375 34.859375 40.515625 35.972656 39.5 37.40625 L 41.667969 38.832031 C 41.839844 38.945312 41.914062 39.152344 41.863281 39.34375 L 41.457031 40.882812 L 43.574219 41.414062 Z M 47.160156 37.046875 L 47.160156 39.464844 L 49.816406 41.417969 L 51.933594 40.882812 L 51.527344 39.34375 C 51.472656 39.132812 51.566406 38.917969 51.746094 38.816406 L 53.894531 37.410156 C 52.875 35.96875 51.449219 34.859375 49.804688 34.234375 L 49.003906 36.722656 C 48.941406 36.921875 48.757812 37.046875 48.5625 37.046875 Z M 49.359375 47.496094 L 48.324219 45.980469 L 45.03125 45.980469 L 43.789062 47.359375 L 44.875 48.1875 C 45.039062 48.3125 45.097656 48.527344 45.035156 48.710938 L 44.191406 51.183594 C 45.652344 51.617188 47.222656 51.664062 48.710938 51.316406 L 48.007812 48.796875 C 47.953125 48.589844 48.042969 48.375 48.21875 48.269531 Z M 43.046875 46.792969 L 44.304688 45.398438 L 43.3125 42.3125 L 41.21875 41.785156 L 40.894531 42.992188 C 40.84375 43.203125 40.652344 43.339844 40.449219 43.339844 L 37.890625 43.472656 C 38.027344 44.910156 38.5 46.25 39.230469 47.40625 L 41.351562 45.90625 C 41.515625 45.785156 41.738281 45.796875 41.890625 45.914062 Z M 49.175781 42.101562 L 46.695312 40.277344 L 44.214844 42.101562 L 45.164062 45.046875 L 48.230469 45.046875 Z M 43.320312 50.875 L 44.050781 48.726562 L 41.601562 46.863281 L 39.765625 48.164062 C 40.699219 49.351562 41.921875 50.289062 43.320312 50.875 Z M 44.46875 33.953125 L 45.164062 36.109375 L 48.230469 36.109375 L 48.921875 33.953125 C 47.46875 33.570312 45.921875 33.570312 44.46875 33.953125 Z M 37.851562 42.542969 L 40.089844 42.421875 L 40.882812 39.429688 L 39.003906 38.195312 C 38.277344 39.480469 37.863281 40.960938 37.851562 42.542969 Z M 50.101562 33.351562 C 51.398438 33.835938 52.570312 34.597656 53.546875 35.570312 C 53.367188 33.753906 53.46875 31.902344 53.964844 30.15625 C 52.722656 29.882812 51.417969 29.890625 50.144531 30.214844 C 49.941406 31.226562 49.917969 32.285156 50.101562 33.351562 Z M 58.453125 31.382812 C 59.574219 31.066406 60.597656 30.511719 61.464844 29.777344 L 61.097656 29.410156 C 61.097656 29.410156 60.410156 28.769531 60.359375 28.75 L 59.871094 28.371094 C 59.871094 28.371094 59.042969 27.769531 58.976562 27.753906 C 58.972656 27.75 58.042969 27.179688 57.960938 27.160156 L 57.261719 26.808594 C 55.910156 26.164062 54.449219 25.691406 52.980469 25.410156 C 51.796875 26.410156 50.910156 27.722656 50.417969 29.195312 C 53.285156 28.632812 56.234375 29.488281 58.453125 31.382812 Z M 62.136719 29.140625 C 63.027344 28.195312 63.691406 27.03125 64.054688 25.738281 C 61.351562 23.175781 57.25 22.6875 54 24.675781 C 55.472656 25.027344 56.902344 25.554688 58.242188 26.253906 L 58.90625 26.621094 C 58.96875 26.636719 59.824219 27.195312 59.824219 27.195312 L 60.496094 27.675781 C 60.550781 27.695312 61.261719 28.300781 61.261719 28.300781 C 61.324219 28.324219 62 28.996094 62.136719 29.140625 Z M 64.78125 26.519531 C 63.8125 29.320312 61.550781 31.476562 58.710938 32.28125 C 58.445312 33.34375 58.398438 34.636719 58.609375 35.742188 C 61.675781 34.980469 64.523438 32.863281 66.570312 30.457031 C 66.3125 28.980469 65.6875 27.628906 64.78125 26.519531 Z M 59.304688 27.964844 C 59.261719 27.933594 59.21875 27.90625 59.171875 27.878906 M 59.109375 27.835938 C 59.0625 27.808594 59.019531 27.777344 58.976562 27.753906 M 58.644531 27.546875 C 58.597656 27.519531 58.554688 27.492188 58.507812 27.464844 " fill-opacity="1" fill-rule="nonzero"/></g></svg>