<svg xmlns="http://www.w3.org/2000/svg" xmlns:xlink="http://www.w3.org/1999/xlink" width="140" zoomAndPan="magnify" viewBox="0 0 104.88 74.999997" height="100" preserveAspectRatio="xMidYMid meet" version="1.0"><defs><clipPath id="b871e634bc"><path d="M 0 0.0429688 L 104.761719 0.0429688 L 104.761719 74.957031 L 0 74.957031 Z M 0 0.0429688 " clip-rule="nonzero"/></clipPath><clipPath id="039c6dabe3"><path d="M 40 22.515625 L 47 22.515625 L 47 29 L 40 29 Z M 40 22.515625 " clip-rule="nonzero"/></clipPath><clipPath id="9b8997da48"><path d="M 34.46875 45 L 70.429688 45 L 70.429688 49 L 34.46875 49 Z M 34.46875 45 " clip-rule="nonzero"/></clipPath><clipPath id="7f8e69b945"><path d="M 34.46875 49 L 70.429688 49 L 70.429688 52.484375 L 34.46875 52.484375 Z M 34.46875 49 " clip-rule="nonzero"/></clipPath></defs><g clip-path="url(#b871e634bc)"><path fill="#ffffff" d="M 0 0.0429688 L 104.878906 0.0429688 L 104.878906 74.957031 L 0 74.957031 Z M 0 0.0429688 " fill-opacity="1" fill-rule="nonzero"/><path fill="#ffffff" d="M 0 0.0429688 L 104.878906 0.0429688 L 104.878906 74.957031 L 0 74.957031 Z M 0 0.0429688 " fill-opacity="1" fill-rule="nonzero"/></g><g clip-path="url(#039c6dabe3)"><path fill="#000000" d="M 43.410156 28.605469 C 42.785156 28.605469 42.175781 28.417969 41.65625 28.046875 C 40.988281 27.574219 40.546875 26.875 40.410156 26.074219 C 40.277344 25.273438 40.460938 24.460938 40.929688 23.800781 C 41.402344 23.132812 42.105469 22.691406 42.90625 22.558594 C 43.703125 22.417969 44.519531 22.609375 45.179688 23.078125 C 45.847656 23.546875 46.289062 24.25 46.421875 25.050781 C 46.703125 26.707031 45.585938 28.285156 43.929688 28.570312 C 43.753906 28.59375 43.578125 28.605469 43.410156 28.605469 Z M 43.417969 23.351562 C 43.289062 23.351562 43.164062 23.367188 43.039062 23.386719 C 42.453125 23.484375 41.949219 23.808594 41.605469 24.285156 C 41.261719 24.769531 41.136719 25.351562 41.234375 25.933594 C 41.332031 26.515625 41.65625 27.019531 42.132812 27.367188 C 42.617188 27.710938 43.199219 27.835938 43.78125 27.738281 C 44.984375 27.535156 45.789062 26.390625 45.585938 25.191406 C 45.488281 24.609375 45.164062 24.101562 44.6875 23.757812 C 44.308594 23.492188 43.875 23.351562 43.417969 23.351562 Z M 43.417969 23.351562 " fill-opacity="1" fill-rule="nonzero"/></g><path fill="#000000" d="M 51.320312 45.59375 C 51.1875 45.59375 51.0625 45.53125 50.976562 45.417969 L 48.449219 41.910156 L 42.898438 41.882812 C 41.535156 41.875 40.378906 40.890625 40.144531 39.550781 L 38.886719 32.21875 C 38.621094 30.683594 39.660156 29.21875 41.199219 28.949219 C 41.941406 28.824219 42.695312 28.992188 43.3125 29.429688 C 43.929688 29.863281 44.335938 30.515625 44.46875 31.257812 L 44.492188 31.371094 C 44.539062 31.660156 44.707031 31.917969 44.953125 32.078125 C 45.347656 32.339844 45.816406 32.4375 46.28125 32.359375 C 46.582031 32.3125 46.863281 32.183594 47.101562 31.996094 L 48.597656 30.824219 C 48.992188 30.515625 49.476562 30.390625 49.96875 30.460938 C 50.457031 30.53125 50.886719 30.796875 51.175781 31.195312 C 51.328125 31.421875 51.433594 31.667969 51.484375 31.933594 C 51.601562 32.640625 51.292969 33.351562 50.699219 33.742188 L 48.238281 35.347656 C 47.59375 35.769531 46.820312 35.945312 46.058594 35.847656 L 45.746094 35.804688 C 45.1875 35.726562 44.636719 35.558594 44.132812 35.300781 L 44.484375 37.355469 C 44.546875 37.714844 44.847656 37.972656 45.214844 37.972656 C 45.214844 37.972656 45.222656 37.972656 45.222656 37.972656 L 47.550781 37.945312 C 48.449219 37.9375 49.328125 38.175781 50.09375 38.648438 C 50.351562 38.808594 50.605469 38.992188 50.832031 39.203125 C 51.054688 39.40625 51.265625 39.636719 51.449219 39.882812 L 54.785156 44.386719 C 54.921875 44.574219 54.882812 44.835938 54.699219 44.976562 C 54.507812 45.117188 54.25 45.074219 54.109375 44.890625 L 50.773438 40.386719 C 50.628906 40.183594 50.453125 39.996094 50.269531 39.824219 C 50.078125 39.65625 49.875 39.503906 49.664062 39.371094 C 49.035156 38.984375 48.308594 38.78125 47.574219 38.792969 L 45.242188 38.824219 C 45.234375 38.824219 45.226562 38.824219 45.226562 38.824219 C 44.457031 38.824219 43.796875 38.273438 43.667969 37.511719 L 43.15625 34.515625 C 43.128906 34.339844 43.207031 34.171875 43.359375 34.078125 C 43.515625 33.988281 43.699219 34.003906 43.839844 34.113281 C 44.429688 34.585938 45.128906 34.878906 45.875 34.976562 L 46.183594 35.019531 C 46.746094 35.097656 47.320312 34.964844 47.789062 34.65625 L 50.246094 33.046875 C 50.5625 32.835938 50.734375 32.457031 50.667969 32.085938 C 50.648438 31.945312 50.59375 31.8125 50.507812 31.695312 C 50.351562 31.476562 50.128906 31.335938 49.863281 31.300781 C 49.601562 31.265625 49.34375 31.328125 49.132812 31.496094 L 47.636719 32.667969 C 47.285156 32.941406 46.871094 33.125 46.4375 33.203125 C 45.753906 33.320312 45.066406 33.175781 44.5 32.789062 C 44.0625 32.5 43.761719 32.039062 43.675781 31.519531 L 43.65625 31.40625 C 43.5625 30.878906 43.277344 30.425781 42.839844 30.121094 C 42.40625 29.8125 41.878906 29.695312 41.359375 29.785156 C 40.277344 29.96875 39.546875 31 39.738281 32.078125 L 40.996094 39.417969 C 41.15625 40.359375 41.964844 41.046875 42.925781 41.054688 L 48.6875 41.082031 C 48.824219 41.082031 48.949219 41.144531 49.027344 41.257812 L 51.679688 44.941406 C 51.8125 45.128906 51.773438 45.390625 51.582031 45.53125 C 51.492188 45.570312 51.40625 45.59375 51.320312 45.59375 Z M 51.320312 45.59375 " fill-opacity="1" fill-rule="nonzero"/><path fill="#000000" d="M 44.140625 46.828125 C 43.9375 46.828125 43.761719 46.679688 43.726562 46.476562 C 43.683594 46.246094 43.839844 46.027344 44.070312 45.992188 L 57.464844 43.699219 C 57.613281 43.671875 57.753906 43.609375 57.867188 43.507812 L 58.589844 42.878906 C 58.820312 42.675781 59.101562 42.542969 59.402344 42.492188 L 62.976562 41.882812 C 63.207031 41.839844 63.425781 41.992188 63.460938 42.226562 C 63.503906 42.457031 63.347656 42.675781 63.117188 42.710938 L 59.542969 43.320312 C 59.394531 43.347656 59.253906 43.410156 59.144531 43.507812 L 58.421875 44.140625 C 58.1875 44.335938 57.90625 44.46875 57.605469 44.527344 L 44.210938 46.820312 C 44.183594 46.820312 44.160156 46.828125 44.140625 46.828125 Z M 44.140625 46.828125 " fill-opacity="1" fill-rule="nonzero"/><path fill="#000000" d="M 57.492188 47.3125 C 57.296875 47.3125 57.121094 47.179688 57.078125 46.976562 C 57.03125 46.75 57.175781 46.527344 57.402344 46.476562 L 58.835938 46.175781 C 58.839844 46.175781 58.847656 46.175781 58.847656 46.175781 C 61.054688 45.796875 62.660156 43.902344 62.660156 41.671875 C 62.660156 41.46875 62.648438 41.257812 62.617188 41.054688 L 50.78125 32.21875 C 50.59375 32.078125 50.558594 31.820312 50.699219 31.632812 C 50.835938 31.441406 51.097656 31.40625 51.285156 31.546875 L 63.265625 40.476562 C 63.347656 40.542969 63.410156 40.640625 63.425781 40.746094 C 63.476562 41.046875 63.503906 41.363281 63.503906 41.664062 C 63.503906 44.308594 61.609375 46.546875 59.003906 47.003906 L 57.578125 47.304688 C 57.550781 47.3125 57.519531 47.3125 57.492188 47.3125 Z M 57.492188 47.3125 " fill-opacity="1" fill-rule="nonzero"/><g clip-path="url(#9b8997da48)"><path fill="#000000" d="M 61.214844 48.863281 C 60.054688 48.863281 58.925781 48.460938 58.027344 47.738281 C 56.488281 46.5 54.25 46.5 52.710938 47.738281 C 52.710938 47.738281 52.710938 47.738281 52.707031 47.738281 C 51.804688 48.460938 50.667969 48.863281 49.519531 48.863281 C 48.359375 48.863281 47.230469 48.460938 46.332031 47.738281 C 44.785156 46.5 42.554688 46.5 41.007812 47.738281 C 40.109375 48.460938 38.980469 48.863281 37.820312 48.863281 C 36.664062 48.863281 35.53125 48.460938 34.632812 47.738281 C 34.453125 47.59375 34.421875 47.324219 34.570312 47.152344 C 34.71875 46.96875 34.984375 46.941406 35.160156 47.085938 C 36.707031 48.328125 38.9375 48.328125 40.480469 47.085938 C 40.480469 47.085938 40.480469 47.085938 40.488281 47.085938 C 41.386719 46.363281 42.519531 45.964844 43.675781 45.964844 C 44.835938 45.964844 45.964844 46.363281 46.863281 47.085938 C 48.402344 48.328125 50.640625 48.328125 52.179688 47.085938 C 52.179688 47.085938 52.179688 47.085938 52.1875 47.082031 C 53.085938 46.359375 54.222656 45.957031 55.375 45.957031 C 56.53125 45.957031 57.660156 46.359375 58.558594 47.082031 C 60.097656 48.324219 62.335938 48.324219 63.882812 47.082031 C 63.882812 47.082031 63.882812 47.082031 63.890625 47.082031 C 64.789062 46.359375 65.925781 45.957031 67.078125 45.957031 C 68.234375 45.957031 69.367188 46.359375 70.265625 47.082031 C 70.445312 47.226562 70.472656 47.496094 70.328125 47.667969 C 70.179688 47.851562 69.914062 47.878906 69.738281 47.734375 C 68.199219 46.492188 65.960938 46.492188 64.414062 47.734375 C 64.414062 47.734375 64.414062 47.734375 64.410156 47.734375 C 63.503906 48.460938 62.371094 48.863281 61.214844 48.863281 Z M 61.214844 48.863281 " fill-opacity="1" fill-rule="nonzero"/></g><g clip-path="url(#7f8e69b945)"><path fill="#000000" d="M 61.214844 52.484375 C 60.054688 52.484375 58.925781 52.082031 58.027344 51.359375 C 56.480469 50.117188 54.25 50.117188 52.707031 51.359375 C 51.804688 52.082031 50.675781 52.484375 49.519531 52.484375 C 48.359375 52.484375 47.230469 52.082031 46.332031 51.359375 C 44.792969 50.117188 42.554688 50.117188 41.007812 51.359375 C 41.007812 51.359375 41.007812 51.359375 41 51.359375 C 40.101562 52.082031 38.964844 52.484375 37.8125 52.484375 C 36.65625 52.484375 35.527344 52.082031 34.628906 51.359375 C 34.445312 51.214844 34.417969 50.945312 34.5625 50.769531 C 34.710938 50.589844 34.976562 50.558594 35.152344 50.707031 C 36.691406 51.949219 38.929688 51.949219 40.476562 50.707031 C 40.476562 50.707031 40.476562 50.707031 40.480469 50.707031 C 41.382812 49.984375 42.519531 49.585938 43.667969 49.585938 C 44.828125 49.585938 45.957031 49.984375 46.855469 50.707031 C 48.402344 51.949219 50.632812 51.949219 52.179688 50.707031 C 53.078125 49.984375 54.207031 49.585938 55.367188 49.585938 C 56.523438 49.585938 57.65625 49.984375 58.554688 50.707031 C 60.097656 51.949219 62.332031 51.949219 63.875 50.707031 C 64.773438 49.984375 65.910156 49.585938 67.0625 49.585938 C 68.222656 49.585938 69.351562 49.984375 70.25 50.707031 C 70.433594 50.855469 70.460938 51.121094 70.3125 51.296875 C 70.164062 51.480469 69.898438 51.507812 69.722656 51.359375 C 68.179688 50.117188 65.945312 50.117188 64.402344 51.359375 C 63.503906 52.082031 62.371094 52.484375 61.214844 52.484375 Z M 61.214844 52.484375 " fill-opacity="1" fill-rule="nonzero"/></g></svg>