<svg xmlns="http://www.w3.org/2000/svg" xmlns:xlink="http://www.w3.org/1999/xlink" width="140" zoomAndPan="magnify" viewBox="0 0 104.88 74.999997" height="100" preserveAspectRatio="xMidYMid meet" version="1.0"><defs><clipPath id="56abf89559"><path d="M 0 0.0429688 L 104.761719 0.0429688 L 104.761719 74.957031 L 0 74.957031 Z M 0 0.0429688 " clip-rule="nonzero"/></clipPath><clipPath id="a29d838a00"><path d="M 37.457031 22.515625 L 67.421875 22.515625 L 67.421875 52 L 37.457031 52 Z M 37.457031 22.515625 " clip-rule="nonzero"/></clipPath></defs><g clip-path="url(#56abf89559)"><path fill="#ffffff" d="M 0 0.0429688 L 104.878906 0.0429688 L 104.878906 74.957031 L 0 74.957031 Z M 0 0.0429688 " fill-opacity="1" fill-rule="nonzero"/><path fill="#ffffff" d="M 0 0.0429688 L 104.878906 0.0429688 L 104.878906 74.957031 L 0 74.957031 Z M 0 0.0429688 " fill-opacity="1" fill-rule="nonzero"/></g><g clip-path="url(#a29d838a00)"><path fill="#000000" d="M 60.984375 31.507812 C 61.554688 30.671875 61.386719 29.515625 60.597656 28.878906 C 59.800781 28.226562 58.65625 28.296875 57.945312 29.042969 L 46.714844 40.726562 C 46.394531 40.777344 45.519531 40.957031 44.667969 41.5 C 43.683594 42.125 42.5625 43.359375 42.800781 45.691406 C 42.898438 46.636719 42.679688 47.386719 42.148438 47.925781 C 40.902344 49.183594 38.335938 48.960938 38.3125 48.957031 C 38.148438 48.949219 37.988281 49.046875 37.9375 49.207031 C 37.886719 49.367188 37.957031 49.539062 38.101562 49.625 C 38.335938 49.757812 42.304688 51.984375 45.652344 51.984375 C 47.035156 51.984375 48.308594 51.605469 49.171875 50.542969 C 51.660156 47.484375 51.839844 45.441406 51.839844 44.898438 Z M 48.617188 50.09375 C 46.6875 52.46875 41.988281 50.699219 39.71875 49.640625 C 40.660156 49.539062 41.851562 49.238281 42.652344 48.429688 C 43.34375 47.734375 43.632812 46.785156 43.511719 45.617188 C 43.160156 42.242188 46.085938 41.554688 46.78125 41.4375 L 51.125 44.964844 C 51.105469 45.46875 50.871094 47.324219 48.617188 50.09375 Z M 47.414062 41.03125 L 58.457031 29.535156 C 58.914062 29.0625 59.640625 29.015625 60.148438 29.429688 C 60.648438 29.839844 60.757812 30.574219 60.394531 31.105469 L 51.402344 44.273438 Z M 45.414062 32.003906 C 46.394531 32.003906 47.195312 31.203125 47.195312 30.222656 C 47.195312 29.238281 46.394531 28.4375 45.414062 28.4375 C 44.429688 28.4375 43.628906 29.238281 43.628906 30.222656 C 43.628906 31.203125 44.429688 32.003906 45.414062 32.003906 Z M 45.414062 29.152344 C 46.003906 29.152344 46.484375 29.632812 46.484375 30.222656 C 46.484375 30.8125 46.003906 31.292969 45.414062 31.292969 C 44.824219 31.292969 44.34375 30.8125 44.34375 30.222656 C 44.34375 29.632812 44.824219 29.152344 45.414062 29.152344 Z M 54.332031 27.367188 C 54.332031 26.382812 53.53125 25.585938 52.546875 25.585938 C 51.5625 25.585938 50.761719 26.382812 50.761719 27.367188 C 50.761719 28.351562 51.5625 29.152344 52.546875 29.152344 C 53.53125 29.152344 54.332031 28.351562 54.332031 27.367188 Z M 51.476562 27.367188 C 51.476562 26.777344 51.957031 26.296875 52.546875 26.296875 C 53.136719 26.296875 53.617188 26.777344 53.617188 27.367188 C 53.617188 27.957031 53.136719 28.4375 52.546875 28.4375 C 51.957031 28.4375 51.476562 27.957031 51.476562 27.367188 Z M 58.613281 47.34375 C 58.613281 46.363281 57.8125 45.5625 56.828125 45.5625 C 55.84375 45.5625 55.042969 46.363281 55.042969 47.34375 C 55.042969 48.328125 55.84375 49.128906 56.828125 49.128906 C 57.8125 49.128906 58.613281 48.328125 58.613281 47.34375 Z M 55.757812 47.34375 C 55.757812 46.753906 56.238281 46.273438 56.828125 46.273438 C 57.417969 46.273438 57.898438 46.753906 57.898438 47.34375 C 57.898438 47.933594 57.417969 48.414062 56.828125 48.414062 C 56.238281 48.414062 55.757812 47.933594 55.757812 47.34375 Z M 66.386719 38.027344 C 65.773438 38.734375 64.882812 39.140625 63.941406 39.140625 L 57.066406 39.140625 L 57.554688 38.425781 L 63.941406 38.425781 C 64.675781 38.425781 65.371094 38.109375 65.847656 37.558594 C 66.320312 37.011719 66.535156 36.289062 66.433594 35.578125 C 66.152344 33.589844 65.40625 31.738281 64.148438 29.910156 C 61.242188 25.675781 56.703125 23.265625 52.011719 23.453125 C 44.378906 23.769531 38.382812 30.222656 38.644531 37.839844 C 38.742188 40.804688 39.839844 43.628906 41.746094 45.945312 C 41.773438 46.375 41.703125 46.667969 41.605469 46.871094 C 39.347656 44.351562 38.042969 41.195312 37.929688 37.863281 C 37.65625 29.855469 43.960938 23.070312 51.980469 22.742188 C 56.925781 22.535156 61.6875 25.066406 64.738281 29.507812 C 66.039062 31.402344 66.847656 33.410156 67.140625 35.476562 C 67.273438 36.394531 66.996094 37.324219 66.386719 38.027344 Z M 61.542969 47.34375 C 61.542969 50.03125 59.347656 51.980469 56.320312 51.980469 L 53.089844 51.980469 C 51.933594 51.980469 50.78125 51.847656 49.65625 51.589844 C 49.777344 51.472656 49.894531 51.351562 50.003906 51.21875 C 50.070312 51.136719 50.128906 51.058594 50.191406 50.976562 C 51.144531 51.167969 52.113281 51.269531 53.089844 51.269531 L 56.320312 51.269531 C 58.933594 51.269531 60.832031 49.617188 60.832031 47.34375 C 60.832031 45.179688 59.0625 43.421875 56.890625 43.421875 L 56.175781 43.421875 C 55.566406 43.421875 55 43.195312 54.554688 42.816406 L 54.957031 42.226562 C 55.285156 42.527344 55.714844 42.707031 56.175781 42.707031 L 56.890625 42.707031 C 59.457031 42.707031 61.542969 44.789062 61.542969 47.34375 Z M 40.773438 37.355469 C 40.773438 38.339844 41.574219 39.140625 42.558594 39.140625 C 43.542969 39.140625 44.34375 38.339844 44.34375 37.355469 C 44.34375 36.371094 43.542969 35.574219 42.558594 35.574219 C 41.574219 35.574219 40.773438 36.371094 40.773438 37.355469 Z M 43.628906 37.355469 C 43.628906 37.945312 43.148438 38.425781 42.558594 38.425781 C 41.96875 38.425781 41.488281 37.945312 41.488281 37.355469 C 41.488281 36.765625 41.96875 36.285156 42.558594 36.285156 C 43.148438 36.285156 43.628906 36.765625 43.628906 37.355469 Z M 43.628906 37.355469 " fill-opacity="1" fill-rule="nonzero"/></g></svg>