<svg xmlns="http://www.w3.org/2000/svg" xmlns:xlink="http://www.w3.org/1999/xlink" width="140" zoomAndPan="magnify" viewBox="0 0 104.88 74.999997" height="100" preserveAspectRatio="xMidYMid meet" version="1.0"><defs><clipPath id="f4ea37b44e"><path d="M 0 0.0429688 L 104.761719 0.0429688 L 104.761719 74.957031 L 0 74.957031 Z M 0 0.0429688 " clip-rule="nonzero"/></clipPath><clipPath id="b79319bfe7"><path d="M 35.769531 43 L 40 43 L 40 48 L 35.769531 48 Z M 35.769531 43 " clip-rule="nonzero"/></clipPath><clipPath id="815579edbe"><path d="M 44 44 L 48 44 L 48 52.484375 L 44 52.484375 Z M 44 44 " clip-rule="nonzero"/></clipPath><clipPath id="d284f90cc4"><path d="M 44 44 L 46 44 L 46 52.484375 L 44 52.484375 Z M 44 44 " clip-rule="nonzero"/></clipPath><clipPath id="a163d6bc8b"><path d="M 42 44 L 45 44 L 45 52.484375 L 42 52.484375 Z M 42 44 " clip-rule="nonzero"/></clipPath><clipPath id="364c35a9ac"><path d="M 54 22.515625 L 68 22.515625 L 68 36 L 54 36 Z M 54 22.515625 " clip-rule="nonzero"/></clipPath><clipPath id="8535c7961d"><path d="M 56 22.515625 L 60 22.515625 L 60 26 L 56 26 Z M 56 22.515625 " clip-rule="nonzero"/></clipPath><clipPath id="adc153fea6"><path d="M 67 37 L 69.480469 37 L 69.480469 39 L 67 39 Z M 67 37 " clip-rule="nonzero"/></clipPath><clipPath id="a4de69dc74"><path d="M 40 51 L 50 51 L 50 52.484375 L 40 52.484375 Z M 40 51 " clip-rule="nonzero"/></clipPath></defs><g clip-path="url(#f4ea37b44e)"><path fill="#ffffff" d="M 0 0.0429688 L 104.878906 0.0429688 L 104.878906 74.957031 L 0 74.957031 Z M 0 0.0429688 " fill-opacity="1" fill-rule="nonzero"/><path fill="#ffffff" d="M 0 0.0429688 L 104.878906 0.0429688 L 104.878906 74.957031 L 0 74.957031 Z M 0 0.0429688 " fill-opacity="1" fill-rule="nonzero"/></g><path fill="#000000" d="M 44.738281 45.097656 C 44.53125 45.097656 44.335938 45.058594 44.144531 44.984375 C 43.953125 44.910156 43.785156 44.804688 43.636719 44.664062 C 43.488281 44.523438 43.371094 44.363281 43.285156 44.179688 C 43.195312 43.996094 43.148438 43.804688 43.136719 43.601562 C 43.125 43.398438 43.152344 43.203125 43.214844 43.007812 C 43.28125 42.816406 43.378906 42.644531 43.511719 42.488281 C 43.640625 42.332031 43.796875 42.207031 43.976562 42.113281 C 44.15625 42.015625 44.351562 41.957031 44.554688 41.933594 C 44.757812 41.910156 44.957031 41.921875 45.15625 41.976562 C 45.351562 42.027344 45.535156 42.113281 45.699219 42.234375 C 45.863281 42.355469 46 42.503906 46.105469 42.675781 C 46.214844 42.847656 46.285156 43.03125 46.320312 43.230469 C 46.359375 43.4375 46.355469 43.644531 46.308594 43.851562 C 46.261719 44.058594 46.179688 44.246094 46.058594 44.417969 C 45.9375 44.589844 45.785156 44.734375 45.605469 44.847656 C 45.425781 44.960938 45.230469 45.035156 45.023438 45.074219 C 44.925781 45.089844 44.832031 45.097656 44.738281 45.097656 Z M 44.738281 42.90625 C 44.644531 42.90625 44.558594 42.925781 44.476562 42.964844 C 44.394531 43 44.324219 43.054688 44.265625 43.125 C 44.210938 43.195312 44.167969 43.273438 44.148438 43.359375 C 44.125 43.445312 44.121094 43.535156 44.140625 43.621094 C 44.167969 43.785156 44.253906 43.914062 44.390625 44.011719 C 44.527344 44.105469 44.679688 44.140625 44.847656 44.109375 C 45.011719 44.082031 45.144531 44 45.242188 43.863281 C 45.335938 43.726562 45.371094 43.574219 45.34375 43.410156 C 45.316406 43.265625 45.246094 43.144531 45.132812 43.050781 C 45.019531 42.957031 44.890625 42.910156 44.742188 42.910156 Z M 44.738281 42.90625 " fill-opacity="1" fill-rule="nonzero"/><path fill="#000000" d="M 45.269531 43.042969 C 45.023438 43.042969 44.867188 42.925781 44.796875 42.691406 C 44.722656 42.460938 44.789062 42.277344 44.992188 42.140625 L 51.601562 37.761719 C 51.71875 37.679688 51.84375 37.652344 51.980469 37.675781 C 52.117188 37.703125 52.226562 37.773438 52.304688 37.886719 C 52.382812 38.003906 52.40625 38.128906 52.378906 38.261719 C 52.347656 38.398438 52.277344 38.503906 52.15625 38.578125 L 45.542969 42.957031 C 45.460938 43.011719 45.371094 43.039062 45.269531 43.042969 Z M 45.269531 43.042969 " fill-opacity="1" fill-rule="nonzero"/><path fill="#000000" d="M 42.3125 44.90625 C 41.96875 44.910156 41.699219 44.769531 41.503906 44.484375 L 39.863281 42.0625 C 39.714844 41.839844 39.664062 41.597656 39.714844 41.335938 C 39.769531 41.078125 39.90625 40.871094 40.128906 40.722656 L 49.433594 34.558594 C 49.546875 34.484375 49.671875 34.457031 49.808594 34.484375 C 49.941406 34.511719 50.046875 34.578125 50.125 34.691406 C 50.203125 34.804688 50.226562 34.929688 50.199219 35.0625 C 50.171875 35.195312 50.101562 35.300781 49.988281 35.375 L 40.703125 41.53125 L 42.316406 43.914062 L 43.363281 43.222656 C 43.476562 43.144531 43.601562 43.121094 43.734375 43.148438 C 43.871094 43.175781 43.976562 43.242188 44.050781 43.355469 C 44.128906 43.46875 44.15625 43.59375 44.128906 43.726562 C 44.101562 43.859375 44.03125 43.964844 43.917969 44.039062 L 42.851562 44.742188 C 42.691406 44.851562 42.511719 44.90625 42.3125 44.90625 Z M 42.3125 44.90625 " fill-opacity="1" fill-rule="nonzero"/><path fill="#000000" d="M 52.488281 39.183594 C 52.425781 39.183594 52.363281 39.179688 52.300781 39.164062 C 52.035156 39.113281 51.828125 38.980469 51.679688 38.757812 L 49.085938 34.929688 C 48.933594 34.707031 48.886719 34.464844 48.9375 34.207031 C 48.988281 33.945312 49.128906 33.738281 49.351562 33.59375 L 50.667969 32.71875 C 50.890625 32.570312 51.132812 32.523438 51.398438 32.574219 C 51.660156 32.625 51.867188 32.761719 52.019531 32.984375 L 54.613281 36.8125 C 54.761719 37.03125 54.8125 37.273438 54.761719 37.535156 C 54.707031 37.796875 54.570312 38 54.347656 38.148438 L 53.03125 39.019531 C 52.867188 39.128906 52.6875 39.183594 52.488281 39.183594 Z M 49.925781 34.402344 L 52.492188 38.195312 L 53.773438 37.351562 L 51.203125 33.550781 Z M 53.792969 37.335938 Z M 53.792969 37.335938 " fill-opacity="1" fill-rule="nonzero"/><path fill="#000000" d="M 38.820312 46.15625 C 38.574219 46.15625 38.417969 46.039062 38.34375 45.808594 C 38.273438 45.574219 38.339844 45.390625 38.542969 45.257812 L 41.363281 43.386719 C 41.476562 43.3125 41.601562 43.285156 41.738281 43.3125 C 41.871094 43.339844 41.976562 43.410156 42.054688 43.523438 C 42.128906 43.632812 42.15625 43.757812 42.128906 43.890625 C 42.101562 44.023438 42.03125 44.128906 41.917969 44.203125 L 39.097656 46.074219 C 39.011719 46.128906 38.921875 46.15625 38.820312 46.15625 Z M 38.820312 46.15625 " fill-opacity="1" fill-rule="nonzero"/><path fill="#000000" d="M 37.734375 44.558594 C 37.488281 44.558594 37.332031 44.441406 37.257812 44.207031 C 37.1875 43.976562 37.253906 43.792969 37.457031 43.65625 L 40.277344 41.789062 C 40.390625 41.710938 40.519531 41.683594 40.65625 41.707031 C 40.792969 41.734375 40.898438 41.804688 40.976562 41.917969 C 41.054688 42.03125 41.078125 42.15625 41.050781 42.292969 C 41.019531 42.425781 40.949219 42.53125 40.832031 42.605469 L 38.011719 44.476562 C 37.929688 44.53125 37.835938 44.558594 37.734375 44.558594 Z M 37.734375 44.558594 " fill-opacity="1" fill-rule="nonzero"/><g clip-path="url(#b79319bfe7)"><path fill="#000000" d="M 38.074219 47.398438 C 38.023438 47.398438 37.972656 47.394531 37.921875 47.382812 C 37.707031 47.34375 37.539062 47.230469 37.417969 47.050781 L 35.90625 44.820312 C 35.78125 44.640625 35.742188 44.445312 35.785156 44.234375 C 35.828125 44.023438 35.941406 43.855469 36.121094 43.734375 L 36.832031 43.261719 C 37.015625 43.140625 37.210938 43.101562 37.425781 43.144531 C 37.640625 43.1875 37.808594 43.296875 37.933594 43.476562 L 39.445312 45.707031 C 39.566406 45.886719 39.605469 46.082031 39.5625 46.292969 C 39.523438 46.503906 39.410156 46.671875 39.230469 46.792969 L 38.519531 47.265625 C 38.386719 47.355469 38.238281 47.402344 38.074219 47.398438 Z M 36.84375 44.441406 L 38.128906 46.339844 L 38.503906 46.089844 L 37.222656 44.191406 Z M 38.675781 45.976562 Z M 38.675781 45.976562 " fill-opacity="1" fill-rule="nonzero"/></g><path fill="#000000" d="M 46.765625 42.050781 C 46.589844 42.050781 46.453125 41.976562 46.351562 41.832031 L 44.183594 38.632812 C 44.105469 38.519531 44.082031 38.394531 44.109375 38.261719 C 44.136719 38.128906 44.207031 38.023438 44.320312 37.949219 C 44.433594 37.875 44.558594 37.847656 44.691406 37.875 C 44.828125 37.902344 44.933594 37.972656 45.011719 38.082031 L 47.179688 41.285156 C 47.257812 41.398438 47.28125 41.519531 47.253906 41.652344 C 47.226562 41.785156 47.15625 41.890625 47.042969 41.96875 C 46.960938 42.023438 46.867188 42.050781 46.765625 42.050781 Z M 46.765625 42.050781 " fill-opacity="1" fill-rule="nonzero"/><path fill="#000000" d="M 47.96875 41.253906 C 47.792969 41.253906 47.65625 41.179688 47.554688 41.035156 L 45.386719 37.835938 C 45.304688 37.722656 45.273438 37.597656 45.300781 37.460938 C 45.324219 37.320312 45.394531 37.214844 45.511719 37.136719 C 45.628906 37.058594 45.757812 37.035156 45.894531 37.0625 C 46.03125 37.09375 46.140625 37.167969 46.214844 37.285156 L 48.382812 40.488281 C 48.492188 40.648438 48.5 40.820312 48.410156 40.992188 C 48.316406 41.164062 48.167969 41.253906 47.96875 41.253906 Z M 47.96875 41.253906 " fill-opacity="1" fill-rule="nonzero"/><g clip-path="url(#815579edbe)"><path fill="#000000" d="M 47.332031 52.488281 C 47.085938 52.488281 46.925781 52.371094 46.855469 52.136719 L 44.585938 44.703125 C 44.539062 44.570312 44.546875 44.445312 44.609375 44.316406 C 44.675781 44.191406 44.777344 44.109375 44.910156 44.070312 C 45.046875 44.03125 45.179688 44.042969 45.300781 44.113281 C 45.425781 44.183594 45.503906 44.289062 45.539062 44.421875 L 47.808594 51.851562 C 47.847656 51.980469 47.835938 52.105469 47.773438 52.226562 C 47.707031 52.34375 47.609375 52.425781 47.476562 52.464844 C 47.429688 52.476562 47.382812 52.484375 47.332031 52.488281 Z M 47.332031 52.488281 " fill-opacity="1" fill-rule="nonzero"/></g><g clip-path="url(#d284f90cc4)"><path fill="#000000" d="M 45.074219 52.488281 C 44.9375 52.488281 44.824219 52.441406 44.726562 52.351562 C 44.632812 52.257812 44.582031 52.144531 44.574219 52.015625 L 44.285156 44.628906 C 44.28125 44.492188 44.324219 44.375 44.417969 44.277344 C 44.511719 44.175781 44.625 44.125 44.765625 44.117188 C 44.902344 44.113281 45.019531 44.15625 45.121094 44.25 C 45.222656 44.339844 45.277344 44.457031 45.28125 44.589844 L 45.570312 51.976562 C 45.578125 52.113281 45.53125 52.230469 45.4375 52.328125 C 45.34375 52.429688 45.230469 52.480469 45.09375 52.488281 Z M 45.074219 52.488281 " fill-opacity="1" fill-rule="nonzero"/></g><g clip-path="url(#a163d6bc8b)"><path fill="#000000" d="M 42.769531 52.488281 C 42.734375 52.488281 42.695312 52.484375 42.660156 52.472656 C 42.527344 52.445312 42.421875 52.371094 42.347656 52.253906 C 42.277344 52.140625 42.253906 52.015625 42.285156 51.882812 L 44.007812 44.46875 C 44.035156 44.335938 44.105469 44.230469 44.226562 44.152344 C 44.34375 44.078125 44.46875 44.054688 44.605469 44.085938 C 44.742188 44.117188 44.847656 44.191406 44.921875 44.3125 C 44.992188 44.429688 45.011719 44.554688 44.976562 44.691406 L 43.257812 52.105469 C 43.195312 52.359375 43.035156 52.488281 42.769531 52.488281 Z M 42.769531 52.488281 " fill-opacity="1" fill-rule="nonzero"/></g><g clip-path="url(#364c35a9ac)"><path fill="#000000" d="M 60.84375 35.710938 C 60.40625 35.710938 59.972656 35.667969 59.542969 35.585938 C 59.113281 35.5 58.695312 35.375 58.292969 35.210938 C 57.886719 35.042969 57.503906 34.839844 57.136719 34.601562 C 56.773438 34.359375 56.4375 34.085938 56.128906 33.78125 C 55.816406 33.472656 55.542969 33.140625 55.296875 32.78125 C 55.054688 32.417969 54.851562 32.039062 54.683594 31.640625 C 54.515625 31.238281 54.386719 30.828125 54.300781 30.402344 C 54.21875 29.976562 54.175781 29.546875 54.175781 29.117188 C 54.175781 28.683594 54.21875 28.253906 54.304688 27.828125 C 54.386719 27.402344 54.515625 26.992188 54.683594 26.589844 C 54.851562 26.191406 55.054688 25.8125 55.300781 25.449219 C 55.542969 25.089844 55.820312 24.757812 56.128906 24.453125 C 56.4375 24.144531 56.773438 23.871094 57.140625 23.632812 C 57.503906 23.390625 57.886719 23.1875 58.292969 23.023438 C 58.695312 22.855469 59.113281 22.730469 59.542969 22.648438 C 59.972656 22.5625 60.40625 22.519531 60.84375 22.519531 C 61.28125 22.519531 61.714844 22.5625 62.144531 22.648438 C 62.574219 22.730469 62.992188 22.855469 63.398438 23.023438 C 63.800781 23.1875 64.1875 23.390625 64.550781 23.632812 C 64.914062 23.871094 65.25 24.144531 65.5625 24.453125 C 65.871094 24.757812 66.148438 25.089844 66.390625 25.453125 C 66.632812 25.8125 66.839844 26.191406 67.007812 26.589844 C 67.175781 26.992188 67.300781 27.402344 67.386719 27.828125 C 67.472656 28.253906 67.515625 28.683594 67.515625 29.117188 C 67.515625 29.546875 67.472656 29.976562 67.386719 30.402344 C 67.300781 30.828125 67.171875 31.238281 67.003906 31.640625 C 66.835938 32.039062 66.632812 32.417969 66.386719 32.777344 C 66.144531 33.136719 65.867188 33.472656 65.558594 33.777344 C 65.25 34.082031 64.910156 34.355469 64.546875 34.597656 C 64.183594 34.839844 63.800781 35.042969 63.394531 35.207031 C 62.992188 35.375 62.574219 35.5 62.144531 35.582031 C 61.714844 35.667969 61.28125 35.710938 60.84375 35.710938 Z M 60.84375 23.503906 C 60.472656 23.503906 60.101562 23.539062 59.738281 23.613281 C 59.371094 23.683594 59.015625 23.789062 58.671875 23.933594 C 58.328125 24.074219 58 24.246094 57.691406 24.449219 C 57.382812 24.65625 57.09375 24.886719 56.832031 25.148438 C 56.566406 25.410156 56.332031 25.691406 56.125 26 C 55.917969 26.304688 55.746094 26.628906 55.601562 26.96875 C 55.460938 27.308594 55.351562 27.660156 55.277344 28.023438 C 55.207031 28.382812 55.171875 28.746094 55.171875 29.117188 C 55.171875 29.484375 55.207031 29.847656 55.277344 30.210938 C 55.351562 30.574219 55.460938 30.921875 55.601562 31.261719 C 55.746094 31.605469 55.917969 31.925781 56.125 32.234375 C 56.332031 32.539062 56.570312 32.824219 56.832031 33.082031 C 57.097656 33.34375 57.382812 33.578125 57.691406 33.78125 C 58.003906 33.984375 58.328125 34.160156 58.671875 34.300781 C 59.015625 34.441406 59.371094 34.546875 59.738281 34.621094 C 60.101562 34.691406 60.472656 34.726562 60.84375 34.726562 C 61.21875 34.726562 61.585938 34.691406 61.953125 34.621094 C 62.316406 34.546875 62.671875 34.441406 63.015625 34.300781 C 63.359375 34.160156 63.6875 33.984375 63.996094 33.78125 C 64.308594 33.578125 64.59375 33.34375 64.855469 33.082031 C 65.121094 32.824219 65.355469 32.539062 65.5625 32.234375 C 65.769531 31.925781 65.945312 31.601562 66.085938 31.261719 C 66.230469 30.921875 66.335938 30.570312 66.410156 30.210938 C 66.484375 29.847656 66.519531 29.484375 66.519531 29.117188 C 66.519531 28.746094 66.480469 28.382812 66.410156 28.019531 C 66.335938 27.660156 66.226562 27.308594 66.085938 26.96875 C 65.941406 26.628906 65.765625 26.304688 65.558594 26 C 65.351562 25.695312 65.117188 25.410156 64.855469 25.148438 C 64.589844 24.890625 64.304688 24.65625 63.996094 24.453125 C 63.683594 24.246094 63.359375 24.074219 63.015625 23.933594 C 62.671875 23.792969 62.316406 23.683594 61.949219 23.613281 C 61.585938 23.542969 61.214844 23.503906 60.84375 23.503906 Z M 60.84375 23.503906 " fill-opacity="1" fill-rule="nonzero"/></g><path fill="#000000" d="M 58.011719 29.566406 C 57.828125 29.566406 57.652344 29.53125 57.484375 29.460938 C 57.320312 29.394531 57.171875 29.296875 57.042969 29.167969 C 56.914062 29.042969 56.816406 28.894531 56.746094 28.730469 C 56.675781 28.566406 56.640625 28.390625 56.640625 28.214844 C 56.640625 28.035156 56.675781 27.859375 56.746094 27.695312 C 56.816406 27.53125 56.914062 27.382812 57.042969 27.257812 C 57.171875 27.128906 57.316406 27.03125 57.484375 26.964844 C 57.652344 26.894531 57.828125 26.859375 58.007812 26.859375 C 58.191406 26.859375 58.363281 26.894531 58.53125 26.964844 C 58.699219 27.03125 58.847656 27.128906 58.976562 27.257812 C 59.105469 27.382812 59.203125 27.53125 59.273438 27.695312 C 59.34375 27.863281 59.375 28.035156 59.375 28.214844 C 59.375 28.394531 59.339844 28.566406 59.273438 28.730469 C 59.203125 28.894531 59.105469 29.042969 58.976562 29.167969 C 58.847656 29.296875 58.699219 29.394531 58.53125 29.460938 C 58.367188 29.53125 58.191406 29.566406 58.011719 29.566406 Z M 58.011719 27.847656 C 57.90625 27.84375 57.820312 27.882812 57.746094 27.953125 C 57.671875 28.023438 57.636719 28.113281 57.636719 28.214844 C 57.636719 28.316406 57.671875 28.402344 57.746094 28.472656 C 57.820312 28.546875 57.90625 28.582031 58.007812 28.582031 C 58.113281 28.582031 58.199219 28.546875 58.273438 28.472656 C 58.34375 28.402344 58.382812 28.316406 58.382812 28.214844 C 58.378906 28.113281 58.34375 28.027344 58.273438 27.953125 C 58.199219 27.882812 58.113281 27.847656 58.011719 27.847656 Z M 58.011719 27.847656 " fill-opacity="1" fill-rule="nonzero"/><path fill="#000000" d="M 63.277344 32.695312 C 63.097656 32.695312 62.921875 32.664062 62.753906 32.59375 C 62.585938 32.527344 62.4375 32.429688 62.3125 32.300781 C 62.183594 32.175781 62.082031 32.027344 62.015625 31.863281 C 61.945312 31.699219 61.910156 31.523438 61.910156 31.347656 C 61.910156 31.167969 61.945312 30.996094 62.011719 30.828125 C 62.082031 30.664062 62.179688 30.515625 62.308594 30.390625 C 62.4375 30.261719 62.585938 30.164062 62.753906 30.097656 C 62.921875 30.027344 63.09375 29.992188 63.277344 29.992188 C 63.457031 29.992188 63.632812 30.027344 63.800781 30.097656 C 63.96875 30.164062 64.113281 30.261719 64.242188 30.390625 C 64.371094 30.515625 64.46875 30.664062 64.539062 30.828125 C 64.609375 30.992188 64.644531 31.164062 64.644531 31.34375 C 64.644531 31.523438 64.609375 31.695312 64.539062 31.863281 C 64.46875 32.027344 64.371094 32.171875 64.242188 32.300781 C 64.117188 32.425781 63.96875 32.523438 63.800781 32.59375 C 63.632812 32.660156 63.460938 32.695312 63.277344 32.695312 Z M 63.277344 30.976562 C 63.175781 30.976562 63.089844 31.015625 63.015625 31.085938 C 62.945312 31.15625 62.90625 31.246094 62.90625 31.34375 C 62.90625 31.445312 62.945312 31.535156 63.015625 31.605469 C 63.089844 31.675781 63.175781 31.710938 63.277344 31.710938 C 63.382812 31.710938 63.46875 31.675781 63.542969 31.605469 C 63.613281 31.53125 63.648438 31.445312 63.648438 31.34375 C 63.648438 31.242188 63.613281 31.15625 63.542969 31.085938 C 63.46875 31.011719 63.378906 30.976562 63.277344 30.976562 Z M 63.277344 30.976562 " fill-opacity="1" fill-rule="nonzero"/><path fill="#000000" d="M 62.183594 28.707031 C 61.960938 28.707031 61.746094 28.664062 61.542969 28.578125 C 61.335938 28.496094 61.15625 28.375 61 28.222656 C 60.84375 28.066406 60.722656 27.886719 60.636719 27.683594 C 60.550781 27.484375 60.511719 27.273438 60.511719 27.050781 C 60.511719 26.832031 60.550781 26.621094 60.636719 26.417969 C 60.722656 26.21875 60.84375 26.039062 61 25.882812 C 61.15625 25.726562 61.335938 25.609375 61.542969 25.523438 C 61.746094 25.441406 61.960938 25.398438 62.183594 25.398438 C 62.402344 25.398438 62.617188 25.441406 62.820312 25.523438 C 63.027344 25.609375 63.207031 25.726562 63.363281 25.882812 C 63.519531 26.039062 63.640625 26.21875 63.726562 26.417969 C 63.8125 26.621094 63.855469 26.832031 63.855469 27.050781 C 63.855469 27.273438 63.8125 27.484375 63.726562 27.683594 C 63.640625 27.886719 63.519531 28.066406 63.363281 28.222656 C 63.207031 28.375 63.027344 28.496094 62.820312 28.578125 C 62.617188 28.664062 62.402344 28.707031 62.183594 28.707031 Z M 62.183594 26.386719 C 61.996094 26.386719 61.835938 26.449219 61.703125 26.582031 C 61.570312 26.710938 61.503906 26.871094 61.507812 27.054688 C 61.507812 27.238281 61.570312 27.394531 61.703125 27.527344 C 61.835938 27.65625 61.996094 27.722656 62.183594 27.722656 C 62.371094 27.722656 62.527344 27.65625 62.660156 27.527344 C 62.792969 27.394531 62.859375 27.238281 62.859375 27.054688 C 62.859375 26.867188 62.792969 26.710938 62.660156 26.582031 C 62.527344 26.449219 62.367188 26.382812 62.183594 26.382812 Z M 62.183594 26.386719 " fill-opacity="1" fill-rule="nonzero"/><path fill="#000000" d="M 67.011719 29.867188 C 66.808594 29.867188 66.617188 29.832031 66.429688 29.761719 C 66.242188 29.691406 66.074219 29.589844 65.921875 29.460938 C 65.769531 29.332031 65.644531 29.179688 65.550781 29.007812 C 65.453125 28.832031 65.390625 28.648438 65.363281 28.453125 C 65.332031 28.257812 65.339844 28.0625 65.382812 27.871094 C 65.421875 27.675781 65.496094 27.496094 65.605469 27.328125 C 65.710938 27.160156 65.84375 27.015625 66.003906 26.898438 C 66.164062 26.777344 66.339844 26.6875 66.53125 26.632812 C 66.660156 26.589844 66.789062 26.597656 66.914062 26.664062 C 67.035156 26.726562 67.117188 26.824219 67.160156 26.957031 C 67.199219 27.085938 67.1875 27.214844 67.121094 27.335938 C 67.054688 27.457031 66.953125 27.535156 66.820312 27.574219 C 66.660156 27.621094 66.535156 27.714844 66.449219 27.855469 C 66.359375 27.996094 66.328125 28.144531 66.351562 28.308594 C 66.375 28.472656 66.449219 28.609375 66.578125 28.714844 C 66.703125 28.824219 66.847656 28.878906 67.015625 28.878906 C 67.152344 28.878906 67.269531 28.929688 67.367188 29.023438 C 67.464844 29.121094 67.511719 29.238281 67.511719 29.371094 C 67.511719 29.507812 67.464844 29.625 67.367188 29.71875 C 67.269531 29.816406 67.152344 29.863281 67.015625 29.863281 Z M 67.011719 29.867188 " fill-opacity="1" fill-rule="nonzero"/><path fill="#000000" d="M 59.257812 33.636719 C 59.035156 33.636719 58.820312 33.59375 58.617188 33.511719 C 58.414062 33.425781 58.230469 33.304688 58.074219 33.152344 C 57.917969 32.996094 57.796875 32.816406 57.710938 32.617188 C 57.628906 32.414062 57.585938 32.203125 57.585938 31.984375 C 57.585938 31.765625 57.628906 31.554688 57.710938 31.351562 C 57.796875 31.148438 57.917969 30.96875 58.074219 30.8125 C 58.230469 30.660156 58.414062 30.539062 58.617188 30.457031 C 58.820312 30.371094 59.035156 30.332031 59.257812 30.332031 C 59.476562 30.332031 59.691406 30.371094 59.894531 30.457031 C 60.101562 30.539062 60.28125 30.660156 60.4375 30.8125 C 60.59375 30.96875 60.714844 31.148438 60.800781 31.351562 C 60.886719 31.554688 60.925781 31.765625 60.925781 31.984375 C 60.925781 32.203125 60.886719 32.414062 60.800781 32.613281 C 60.714844 32.816406 60.59375 32.996094 60.4375 33.152344 C 60.28125 33.304688 60.101562 33.425781 59.894531 33.507812 C 59.691406 33.59375 59.476562 33.636719 59.257812 33.636719 Z M 59.257812 31.316406 C 59.070312 31.316406 58.910156 31.378906 58.777344 31.511719 C 58.648438 31.640625 58.582031 31.796875 58.582031 31.984375 C 58.582031 32.167969 58.648438 32.324219 58.777344 32.457031 C 58.910156 32.585938 59.070312 32.652344 59.257812 32.652344 C 59.441406 32.652344 59.601562 32.585938 59.734375 32.457031 C 59.867188 32.324219 59.933594 32.167969 59.933594 31.984375 C 59.933594 31.796875 59.867188 31.640625 59.734375 31.511719 C 59.601562 31.378906 59.441406 31.316406 59.257812 31.316406 Z M 59.257812 31.316406 " fill-opacity="1" fill-rule="nonzero"/><g clip-path="url(#8535c7961d)"><path fill="#000000" d="M 57.929688 25.410156 C 57.320312 25.414062 56.851562 25.160156 56.523438 24.652344 C 56.453125 24.539062 56.433594 24.414062 56.464844 24.285156 C 56.492188 24.152344 56.566406 24.054688 56.679688 23.980469 C 56.792969 23.90625 56.917969 23.886719 57.050781 23.914062 C 57.183594 23.941406 57.289062 24.007812 57.363281 24.121094 C 57.457031 24.265625 57.589844 24.363281 57.761719 24.40625 C 57.933594 24.449219 58.097656 24.429688 58.253906 24.347656 C 58.40625 24.265625 58.515625 24.140625 58.570312 23.976562 C 58.628906 23.808594 58.621094 23.648438 58.550781 23.488281 C 58.492188 23.363281 58.484375 23.234375 58.535156 23.105469 C 58.582031 22.976562 58.671875 22.882812 58.800781 22.828125 C 58.929688 22.773438 59.054688 22.769531 59.1875 22.824219 C 59.316406 22.875 59.40625 22.964844 59.460938 23.089844 C 59.515625 23.21875 59.554688 23.347656 59.578125 23.484375 C 59.601562 23.617188 59.609375 23.753906 59.597656 23.890625 C 59.585938 24.027344 59.558594 24.164062 59.511719 24.292969 C 59.46875 24.421875 59.40625 24.546875 59.332031 24.660156 C 59.253906 24.777344 59.167969 24.878906 59.0625 24.972656 C 58.960938 25.066406 58.851562 25.144531 58.726562 25.210938 C 58.605469 25.277344 58.476562 25.328125 58.34375 25.359375 C 58.207031 25.394531 58.070312 25.410156 57.929688 25.410156 Z M 57.929688 25.410156 " fill-opacity="1" fill-rule="nonzero"/></g><path fill="#000000" d="M 62.410156 45.222656 C 62.273438 45.222656 62.152344 45.175781 62.058594 45.078125 C 61.960938 44.984375 61.910156 44.867188 61.910156 44.730469 L 61.910156 43.722656 C 61.910156 43.585938 61.960938 43.46875 62.058594 43.375 C 62.152344 43.277344 62.273438 43.230469 62.410156 43.230469 C 62.546875 43.230469 62.664062 43.277344 62.761719 43.375 C 62.859375 43.46875 62.90625 43.585938 62.90625 43.722656 L 62.90625 44.730469 C 62.90625 44.867188 62.859375 44.984375 62.761719 45.078125 C 62.664062 45.175781 62.546875 45.222656 62.410156 45.222656 Z M 62.410156 45.222656 " fill-opacity="1" fill-rule="nonzero"/><path fill="#000000" d="M 62.410156 48.101562 C 62.273438 48.101562 62.152344 48.054688 62.058594 47.957031 C 61.960938 47.859375 61.910156 47.746094 61.910156 47.609375 L 61.910156 46.597656 C 61.910156 46.464844 61.960938 46.347656 62.058594 46.25 C 62.152344 46.15625 62.273438 46.105469 62.410156 46.105469 C 62.546875 46.105469 62.664062 46.15625 62.761719 46.25 C 62.859375 46.347656 62.90625 46.464844 62.90625 46.597656 L 62.90625 47.609375 C 62.90625 47.746094 62.859375 47.859375 62.761719 47.957031 C 62.664062 48.054688 62.546875 48.101562 62.410156 48.101562 Z M 62.410156 48.101562 " fill-opacity="1" fill-rule="nonzero"/><path fill="#000000" d="M 64.375 46.15625 L 63.355469 46.15625 C 63.214844 46.15625 63.097656 46.109375 63.003906 46.011719 C 62.90625 45.917969 62.855469 45.800781 62.855469 45.664062 C 62.855469 45.527344 62.90625 45.414062 63.003906 45.316406 C 63.097656 45.21875 63.214844 45.171875 63.355469 45.171875 L 64.375 45.171875 C 64.511719 45.171875 64.628906 45.21875 64.726562 45.316406 C 64.824219 45.414062 64.871094 45.527344 64.871094 45.664062 C 64.871094 45.800781 64.824219 45.917969 64.726562 46.011719 C 64.628906 46.109375 64.511719 46.15625 64.375 46.15625 Z M 64.375 46.15625 " fill-opacity="1" fill-rule="nonzero"/><path fill="#000000" d="M 61.464844 46.15625 L 60.445312 46.15625 C 60.304688 46.15625 60.1875 46.109375 60.089844 46.011719 C 59.996094 45.917969 59.945312 45.800781 59.945312 45.664062 C 59.945312 45.527344 59.996094 45.414062 60.089844 45.316406 C 60.1875 45.21875 60.304688 45.171875 60.445312 45.171875 L 61.464844 45.171875 C 61.601562 45.171875 61.71875 45.21875 61.816406 45.316406 C 61.914062 45.414062 61.960938 45.527344 61.960938 45.664062 C 61.960938 45.800781 61.914062 45.917969 61.816406 46.011719 C 61.71875 46.109375 61.601562 46.15625 61.464844 46.15625 Z M 61.464844 46.15625 " fill-opacity="1" fill-rule="nonzero"/><path fill="#000000" d="M 47.96875 25.449219 C 47.832031 25.449219 47.714844 25.402344 47.617188 25.304688 C 47.519531 25.210938 47.472656 25.09375 47.472656 24.957031 L 47.472656 23.949219 C 47.472656 23.8125 47.519531 23.695312 47.617188 23.601562 C 47.714844 23.503906 47.832031 23.457031 47.96875 23.457031 C 48.105469 23.457031 48.222656 23.503906 48.320312 23.601562 C 48.417969 23.695312 48.46875 23.8125 48.46875 23.949219 L 48.46875 24.957031 C 48.46875 25.09375 48.417969 25.210938 48.320312 25.304688 C 48.222656 25.402344 48.105469 25.449219 47.96875 25.449219 Z M 47.96875 25.449219 " fill-opacity="1" fill-rule="nonzero"/><path fill="#000000" d="M 47.96875 28.328125 C 47.832031 28.328125 47.714844 28.28125 47.617188 28.183594 C 47.519531 28.085938 47.472656 27.972656 47.472656 27.835938 L 47.472656 26.828125 C 47.472656 26.691406 47.519531 26.574219 47.617188 26.480469 C 47.714844 26.382812 47.832031 26.335938 47.96875 26.335938 C 48.105469 26.335938 48.222656 26.382812 48.320312 26.480469 C 48.417969 26.574219 48.46875 26.691406 48.46875 26.828125 L 48.46875 27.835938 C 48.46875 27.972656 48.417969 28.085938 48.320312 28.183594 C 48.222656 28.28125 48.105469 28.328125 47.96875 28.328125 Z M 47.96875 28.328125 " fill-opacity="1" fill-rule="nonzero"/><path fill="#000000" d="M 49.933594 26.382812 L 48.914062 26.382812 C 48.777344 26.382812 48.660156 26.335938 48.5625 26.238281 C 48.464844 26.144531 48.417969 26.027344 48.417969 25.890625 C 48.417969 25.757812 48.464844 25.640625 48.5625 25.542969 C 48.660156 25.449219 48.777344 25.398438 48.914062 25.398438 L 49.933594 25.398438 C 50.070312 25.398438 50.1875 25.449219 50.285156 25.542969 C 50.382812 25.640625 50.433594 25.757812 50.433594 25.890625 C 50.433594 26.027344 50.382812 26.144531 50.285156 26.238281 C 50.1875 26.335938 50.070312 26.382812 49.933594 26.382812 Z M 49.933594 26.382812 " fill-opacity="1" fill-rule="nonzero"/><path fill="#000000" d="M 47.023438 26.382812 L 46.003906 26.382812 C 45.867188 26.382812 45.75 26.335938 45.652344 26.238281 C 45.554688 26.144531 45.507812 26.027344 45.507812 25.890625 C 45.507812 25.757812 45.554688 25.640625 45.652344 25.542969 C 45.75 25.449219 45.867188 25.398438 46.003906 25.398438 L 47.023438 25.398438 C 47.160156 25.398438 47.28125 25.449219 47.375 25.542969 C 47.472656 25.640625 47.523438 25.757812 47.523438 25.890625 C 47.523438 26.027344 47.472656 26.144531 47.375 26.238281 C 47.28125 26.335938 47.160156 26.382812 47.023438 26.382812 Z M 47.023438 26.382812 " fill-opacity="1" fill-rule="nonzero"/><path fill="#000000" d="M 56.945312 40.316406 C 56.804688 40.316406 56.6875 40.269531 56.589844 40.171875 C 56.496094 40.078125 56.445312 39.960938 56.445312 39.824219 L 56.445312 38.816406 C 56.445312 38.683594 56.496094 38.566406 56.589844 38.46875 C 56.6875 38.375 56.804688 38.324219 56.945312 38.324219 C 57.082031 38.324219 57.199219 38.375 57.296875 38.46875 C 57.394531 38.566406 57.441406 38.683594 57.441406 38.816406 L 57.441406 39.824219 C 57.441406 39.960938 57.394531 40.078125 57.296875 40.171875 C 57.199219 40.269531 57.082031 40.316406 56.945312 40.316406 Z M 56.945312 40.316406 " fill-opacity="1" fill-rule="nonzero"/><path fill="#000000" d="M 56.945312 43.199219 C 56.804688 43.199219 56.6875 43.152344 56.589844 43.054688 C 56.496094 42.960938 56.445312 42.84375 56.445312 42.707031 L 56.445312 41.695312 C 56.445312 41.558594 56.496094 41.445312 56.589844 41.347656 C 56.6875 41.25 56.804688 41.203125 56.945312 41.203125 C 57.082031 41.203125 57.199219 41.25 57.296875 41.347656 C 57.394531 41.445312 57.441406 41.558594 57.441406 41.695312 L 57.441406 42.707031 C 57.441406 42.84375 57.394531 42.960938 57.296875 43.054688 C 57.199219 43.152344 57.082031 43.199219 56.945312 43.199219 Z M 56.945312 43.199219 " fill-opacity="1" fill-rule="nonzero"/><path fill="#000000" d="M 58.910156 41.253906 L 57.886719 41.253906 C 57.75 41.253906 57.632812 41.207031 57.535156 41.109375 C 57.4375 41.011719 57.390625 40.898438 57.390625 40.761719 C 57.390625 40.625 57.4375 40.507812 57.535156 40.414062 C 57.632812 40.316406 57.75 40.269531 57.886719 40.269531 L 58.90625 40.269531 C 59.046875 40.269531 59.164062 40.316406 59.261719 40.414062 C 59.355469 40.507812 59.40625 40.625 59.40625 40.761719 C 59.40625 40.898438 59.355469 41.011719 59.261719 41.109375 C 59.164062 41.207031 59.046875 41.253906 58.90625 41.253906 Z M 58.910156 41.253906 " fill-opacity="1" fill-rule="nonzero"/><path fill="#000000" d="M 56 41.253906 L 54.980469 41.253906 C 54.839844 41.253906 54.722656 41.207031 54.625 41.109375 C 54.53125 41.011719 54.480469 40.898438 54.480469 40.761719 C 54.480469 40.625 54.53125 40.507812 54.625 40.414062 C 54.722656 40.316406 54.839844 40.269531 54.980469 40.269531 L 56 40.269531 C 56.136719 40.269531 56.253906 40.316406 56.351562 40.414062 C 56.449219 40.507812 56.496094 40.625 56.496094 40.761719 C 56.496094 40.898438 56.449219 41.011719 56.351562 41.109375 C 56.253906 41.207031 56.136719 41.253906 56 41.253906 Z M 56 41.253906 " fill-opacity="1" fill-rule="nonzero"/><path fill="#000000" d="M 67.015625 37.117188 C 66.878906 37.117188 66.761719 37.070312 66.664062 36.976562 C 66.566406 36.878906 66.519531 36.761719 66.519531 36.625 L 66.519531 35.617188 C 66.519531 35.480469 66.566406 35.367188 66.664062 35.269531 C 66.761719 35.171875 66.878906 35.125 67.015625 35.125 C 67.152344 35.125 67.269531 35.171875 67.367188 35.269531 C 67.464844 35.367188 67.515625 35.480469 67.515625 35.617188 L 67.515625 36.625 C 67.515625 36.761719 67.464844 36.878906 67.367188 36.976562 C 67.269531 37.070312 67.152344 37.117188 67.015625 37.117188 Z M 67.015625 37.117188 " fill-opacity="1" fill-rule="nonzero"/><path fill="#000000" d="M 67.015625 39.996094 C 66.878906 39.996094 66.761719 39.949219 66.664062 39.851562 C 66.566406 39.757812 66.519531 39.640625 66.519531 39.503906 L 66.519531 38.496094 C 66.519531 38.359375 66.566406 38.242188 66.664062 38.148438 C 66.761719 38.050781 66.878906 38.003906 67.015625 38.003906 C 67.152344 38.003906 67.269531 38.050781 67.367188 38.148438 C 67.464844 38.242188 67.515625 38.359375 67.515625 38.496094 L 67.515625 39.503906 C 67.515625 39.640625 67.464844 39.757812 67.367188 39.851562 C 67.269531 39.949219 67.152344 39.996094 67.015625 39.996094 Z M 67.015625 39.996094 " fill-opacity="1" fill-rule="nonzero"/><g clip-path="url(#adc153fea6)"><path fill="#000000" d="M 68.980469 38.054688 L 67.960938 38.054688 C 67.824219 38.054688 67.707031 38.003906 67.609375 37.910156 C 67.511719 37.8125 67.464844 37.695312 67.464844 37.558594 C 67.464844 37.425781 67.511719 37.308594 67.609375 37.210938 C 67.707031 37.117188 67.824219 37.066406 67.960938 37.066406 L 68.980469 37.066406 C 69.117188 37.066406 69.238281 37.117188 69.332031 37.210938 C 69.429688 37.308594 69.480469 37.425781 69.480469 37.558594 C 69.480469 37.695312 69.429688 37.8125 69.332031 37.910156 C 69.238281 38.003906 69.117188 38.054688 68.980469 38.054688 Z M 68.980469 38.054688 " fill-opacity="1" fill-rule="nonzero"/></g><path fill="#000000" d="M 66.070312 38.054688 L 65.050781 38.054688 C 64.914062 38.054688 64.796875 38.003906 64.699219 37.910156 C 64.601562 37.8125 64.554688 37.695312 64.554688 37.558594 C 64.554688 37.425781 64.601562 37.308594 64.699219 37.210938 C 64.796875 37.117188 64.914062 37.066406 65.050781 37.066406 L 66.070312 37.066406 C 66.207031 37.066406 66.328125 37.117188 66.421875 37.210938 C 66.519531 37.308594 66.570312 37.425781 66.570312 37.558594 C 66.570312 37.695312 66.519531 37.8125 66.421875 37.910156 C 66.328125 38.003906 66.207031 38.054688 66.070312 38.054688 Z M 66.070312 38.054688 " fill-opacity="1" fill-rule="nonzero"/><path fill="#000000" d="M 44.234375 33.484375 C 44.097656 33.484375 43.976562 33.4375 43.882812 33.339844 C 43.785156 33.246094 43.734375 33.128906 43.734375 32.992188 L 43.734375 31.984375 C 43.734375 31.847656 43.785156 31.730469 43.882812 31.636719 C 43.976562 31.539062 44.097656 31.492188 44.234375 31.492188 C 44.371094 31.492188 44.488281 31.539062 44.585938 31.636719 C 44.683594 31.730469 44.730469 31.847656 44.730469 31.984375 L 44.730469 32.992188 C 44.730469 33.128906 44.683594 33.246094 44.585938 33.339844 C 44.488281 33.4375 44.371094 33.484375 44.234375 33.484375 Z M 44.234375 33.484375 " fill-opacity="1" fill-rule="nonzero"/><path fill="#000000" d="M 44.234375 36.363281 C 44.097656 36.363281 43.976562 36.316406 43.882812 36.21875 C 43.785156 36.125 43.734375 36.007812 43.734375 35.871094 L 43.734375 34.863281 C 43.734375 34.726562 43.785156 34.609375 43.882812 34.515625 C 43.976562 34.417969 44.097656 34.371094 44.234375 34.371094 C 44.371094 34.371094 44.488281 34.417969 44.585938 34.515625 C 44.683594 34.609375 44.730469 34.726562 44.730469 34.863281 L 44.730469 35.871094 C 44.730469 36.007812 44.683594 36.125 44.585938 36.21875 C 44.488281 36.316406 44.371094 36.363281 44.234375 36.363281 Z M 44.234375 36.363281 " fill-opacity="1" fill-rule="nonzero"/><path fill="#000000" d="M 46.195312 34.417969 L 45.175781 34.417969 C 45.039062 34.417969 44.921875 34.371094 44.824219 34.277344 C 44.726562 34.179688 44.679688 34.0625 44.679688 33.925781 C 44.679688 33.792969 44.726562 33.675781 44.824219 33.578125 C 44.921875 33.484375 45.039062 33.433594 45.175781 33.433594 L 46.195312 33.433594 C 46.335938 33.433594 46.453125 33.484375 46.546875 33.578125 C 46.644531 33.675781 46.695312 33.792969 46.695312 33.925781 C 46.695312 34.0625 46.644531 34.179688 46.546875 34.277344 C 46.453125 34.371094 46.335938 34.417969 46.195312 34.417969 Z M 46.195312 34.417969 " fill-opacity="1" fill-rule="nonzero"/><path fill="#000000" d="M 43.285156 34.417969 L 42.265625 34.417969 C 42.128906 34.417969 42.011719 34.371094 41.914062 34.277344 C 41.816406 34.179688 41.769531 34.0625 41.769531 33.925781 C 41.769531 33.792969 41.816406 33.675781 41.914062 33.578125 C 42.011719 33.484375 42.128906 33.433594 42.265625 33.433594 L 43.285156 33.433594 C 43.425781 33.433594 43.542969 33.484375 43.640625 33.578125 C 43.734375 33.675781 43.785156 33.792969 43.785156 33.925781 C 43.785156 34.0625 43.734375 34.179688 43.640625 34.277344 C 43.542969 34.371094 43.425781 34.417969 43.285156 34.417969 Z M 43.285156 34.417969 " fill-opacity="1" fill-rule="nonzero"/><g clip-path="url(#a4de69dc74)"><path fill="#000000" d="M 49.261719 52.488281 L 40.859375 52.488281 C 40.722656 52.488281 40.605469 52.4375 40.507812 52.34375 C 40.410156 52.246094 40.359375 52.128906 40.359375 51.996094 C 40.359375 51.859375 40.410156 51.742188 40.507812 51.648438 C 40.605469 51.550781 40.722656 51.503906 40.859375 51.503906 L 49.261719 51.503906 C 49.402344 51.503906 49.519531 51.550781 49.617188 51.648438 C 49.710938 51.742188 49.761719 51.859375 49.761719 51.996094 C 49.761719 52.128906 49.710938 52.246094 49.617188 52.34375 C 49.519531 52.4375 49.402344 52.488281 49.261719 52.488281 Z M 49.261719 52.488281 " fill-opacity="1" fill-rule="nonzero"/></g></svg>