<svg xmlns="http://www.w3.org/2000/svg" xmlns:xlink="http://www.w3.org/1999/xlink" width="140" zoomAndPan="magnify" viewBox="0 0 104.88 74.999997" height="100" preserveAspectRatio="xMidYMid meet" version="1.0"><defs><clipPath id="c5c1e58275"><path d="M 0 0.0429688 L 104.761719 0.0429688 L 104.761719 74.957031 L 0 74.957031 Z M 0 0.0429688 " clip-rule="nonzero"/></clipPath><clipPath id="4c923f7272"><path d="M 39 38 L 56 38 L 56 52.484375 L 39 52.484375 Z M 39 38 " clip-rule="nonzero"/></clipPath><clipPath id="97adbebff3"><path d="M 46 38 L 67 38 L 67 52.484375 L 46 52.484375 Z M 46 38 " clip-rule="nonzero"/></clipPath><clipPath id="11a4e5bc61"><path d="M 37 51 L 68.433594 51 L 68.433594 52.484375 L 37 52.484375 Z M 37 51 " clip-rule="nonzero"/></clipPath><clipPath id="9f422fda86"><path d="M 42 42 L 51 42 L 51 52.484375 L 42 52.484375 Z M 42 42 " clip-rule="nonzero"/></clipPath><clipPath id="f5faee5d4b"><path d="M 61 29 L 68.433594 29 L 68.433594 43 L 61 43 Z M 61 29 " clip-rule="nonzero"/></clipPath><clipPath id="c96aec5216"><path d="M 39 43 L 41 43 L 41 52.484375 L 39 52.484375 Z M 39 43 " clip-rule="nonzero"/></clipPath><clipPath id="7a07f05687"><path d="M 36.21875 31 L 44 31 L 44 45 L 36.21875 45 Z M 36.21875 31 " clip-rule="nonzero"/></clipPath><clipPath id="231fa85c61"><path d="M 58 22.515625 L 67 22.515625 L 67 28 L 58 28 Z M 58 22.515625 " clip-rule="nonzero"/></clipPath></defs><g clip-path="url(#c5c1e58275)"><path fill="#ffffff" d="M 0 0.0429688 L 104.878906 0.0429688 L 104.878906 74.957031 L 0 74.957031 Z M 0 0.0429688 " fill-opacity="1" fill-rule="nonzero"/><path fill="#ffffff" d="M 0 0.0429688 L 104.878906 0.0429688 L 104.878906 74.957031 L 0 74.957031 Z M 0 0.0429688 " fill-opacity="1" fill-rule="nonzero"/></g><g clip-path="url(#4c923f7272)"><path fill="#000000" d="M 54.722656 52.464844 L 39.605469 52.464844 C 39.460938 52.464844 39.324219 52.382812 39.242188 52.257812 C 39.171875 52.125 39.164062 51.972656 39.234375 51.839844 L 46.792969 38.246094 C 46.867188 38.113281 47.003906 38.035156 47.15625 38.035156 C 47.308594 38.035156 47.449219 38.113281 47.519531 38.246094 L 55.078125 51.839844 C 55.148438 51.972656 55.148438 52.132812 55.070312 52.257812 C 55.011719 52.390625 54.875 52.464844 54.722656 52.464844 Z M 40.324219 51.621094 L 54.007812 51.621094 L 47.164062 39.316406 Z M 40.324219 51.621094 " fill-opacity="1" fill-rule="nonzero"/></g><g clip-path="url(#97adbebff3)"><path fill="#000000" d="M 66.070312 52.464844 L 54.722656 52.464844 C 54.570312 52.464844 54.429688 52.382812 54.359375 52.25 L 46.800781 38.65625 C 46.722656 38.515625 46.726562 38.347656 46.824219 38.21875 C 46.910156 38.085938 47.0625 38.011719 47.222656 38.035156 L 59.363281 39.59375 C 59.496094 39.605469 59.613281 39.6875 59.675781 39.804688 L 66.441406 51.839844 C 66.515625 51.972656 66.515625 52.132812 66.441406 52.257812 C 66.363281 52.390625 66.222656 52.464844 66.070312 52.464844 Z M 54.96875 51.621094 L 65.359375 51.621094 L 59.050781 40.398438 L 47.941406 38.96875 Z M 54.96875 51.621094 " fill-opacity="1" fill-rule="nonzero"/></g><path fill="#000000" d="M 63.1875 50.734375 L 55.671875 50.734375 C 55.519531 50.734375 55.382812 50.65625 55.308594 50.523438 L 49.890625 40.769531 C 49.808594 40.632812 49.816406 40.464844 49.910156 40.332031 C 49.996094 40.199219 50.152344 40.125 50.308594 40.148438 L 58.339844 41.179688 C 58.472656 41.195312 58.585938 41.277344 58.652344 41.390625 L 63.550781 50.105469 C 63.621094 50.238281 63.621094 50.398438 63.550781 50.523438 C 63.46875 50.65625 63.332031 50.734375 63.1875 50.734375 Z M 55.921875 49.894531 L 62.46875 49.894531 L 58.019531 41.984375 L 51.023438 41.085938 Z M 55.921875 49.894531 " fill-opacity="1" fill-rule="nonzero"/><g clip-path="url(#11a4e5bc61)"><path fill="#000000" d="M 67.917969 52.464844 L 37.769531 52.464844 C 37.535156 52.464844 37.347656 52.273438 37.347656 52.039062 C 37.347656 51.804688 37.535156 51.613281 37.769531 51.613281 L 67.917969 51.613281 C 68.148438 51.613281 68.339844 51.804688 68.339844 52.039062 C 68.339844 52.273438 68.148438 52.464844 67.917969 52.464844 Z M 67.917969 52.464844 " fill-opacity="1" fill-rule="nonzero"/></g><g clip-path="url(#9f422fda86)"><path fill="#000000" d="M 49.640625 52.464844 L 42.628906 52.464844 C 42.484375 52.464844 42.351562 52.390625 42.28125 52.273438 C 42.199219 52.15625 42.195312 52.003906 42.25 51.871094 L 46.445312 42.628906 C 46.515625 42.46875 46.675781 42.371094 46.851562 42.378906 C 47.027344 42.394531 47.171875 42.511719 47.222656 42.679688 L 50.042969 51.921875 C 50.078125 52.046875 50.054688 52.183594 49.976562 52.292969 C 49.894531 52.40625 49.773438 52.464844 49.640625 52.464844 Z M 43.285156 51.621094 L 49.074219 51.621094 L 46.742188 43.984375 Z M 43.285156 51.621094 " fill-opacity="1" fill-rule="nonzero"/></g><path fill="#000000" d="M 49.21875 51.074219 C 49.039062 51.074219 48.878906 50.957031 48.820312 50.773438 C 48.753906 50.554688 48.878906 50.3125 49.097656 50.246094 L 50.957031 49.667969 L 46.867188 44.261719 C 46.726562 44.078125 46.765625 43.8125 46.945312 43.667969 C 47.128906 43.527344 47.390625 43.566406 47.535156 43.75 L 51.996094 49.636719 C 52.078125 49.75 52.105469 49.894531 52.0625 50.027344 C 52.019531 50.15625 51.917969 50.261719 51.785156 50.296875 L 49.34375 51.058594 C 49.300781 51.066406 49.257812 51.074219 49.21875 51.074219 Z M 49.21875 51.074219 " fill-opacity="1" fill-rule="nonzero"/><path fill="#000000" d="M 65.0625 50.664062 C 64.828125 50.664062 64.640625 50.472656 64.640625 50.238281 L 64.640625 42.25 C 64.640625 42.015625 64.828125 41.824219 65.0625 41.824219 C 65.292969 41.824219 65.484375 42.015625 65.484375 42.25 L 65.484375 50.238281 C 65.476562 50.472656 65.292969 50.664062 65.0625 50.664062 Z M 65.0625 50.664062 " fill-opacity="1" fill-rule="nonzero"/><g clip-path="url(#f5faee5d4b)"><path fill="#000000" d="M 68.035156 42.671875 L 62.089844 42.671875 C 61.9375 42.671875 61.792969 42.585938 61.71875 42.445312 C 61.644531 42.308594 61.652344 42.140625 61.742188 42.015625 L 62.984375 40.148438 L 62.082031 40.148438 C 61.929688 40.148438 61.785156 40.0625 61.710938 39.921875 C 61.640625 39.78125 61.644531 39.613281 61.734375 39.488281 L 62.976562 37.625 L 62.074219 37.625 C 61.921875 37.625 61.777344 37.535156 61.703125 37.398438 C 61.632812 37.257812 61.640625 37.089844 61.726562 36.964844 L 62.96875 35.101562 L 62.066406 35.101562 C 61.914062 35.101562 61.769531 35.011719 61.699219 34.875 C 61.625 34.734375 61.632812 34.566406 61.71875 34.441406 L 64.691406 29.992188 C 64.769531 29.875 64.902344 29.808594 65.039062 29.808594 C 65.179688 29.808594 65.308594 29.882812 65.390625 29.992188 L 68.359375 34.441406 C 68.449219 34.574219 68.457031 34.734375 68.382812 34.875 C 68.308594 35.011719 68.164062 35.101562 68.011719 35.101562 L 67.109375 35.101562 L 68.355469 36.964844 C 68.441406 37.097656 68.449219 37.257812 68.375 37.398438 C 68.300781 37.535156 68.15625 37.625 68.003906 37.625 L 67.105469 37.625 L 68.347656 39.488281 C 68.433594 39.621094 68.441406 39.78125 68.367188 39.921875 C 68.296875 40.0625 68.148438 40.148438 67.996094 40.148438 L 67.097656 40.148438 L 68.339844 42.015625 C 68.425781 42.144531 68.433594 42.308594 68.359375 42.445312 C 68.324219 42.585938 68.1875 42.671875 68.035156 42.671875 Z M 62.875 41.832031 L 67.25 41.832031 L 66.007812 39.964844 C 65.917969 39.835938 65.910156 39.671875 65.984375 39.535156 C 66.058594 39.394531 66.203125 39.308594 66.355469 39.308594 L 67.257812 39.308594 L 66.015625 37.441406 C 65.925781 37.308594 65.917969 37.148438 65.992188 37.011719 C 66.066406 36.871094 66.210938 36.78125 66.363281 36.78125 L 67.261719 36.78125 L 66.019531 34.917969 C 65.933594 34.785156 65.925781 34.625 66 34.484375 C 66.070312 34.347656 66.21875 34.257812 66.371094 34.257812 L 67.269531 34.257812 L 65.082031 30.980469 L 62.894531 34.257812 L 63.796875 34.257812 C 63.949219 34.257812 64.09375 34.347656 64.167969 34.484375 C 64.242188 34.625 64.234375 34.792969 64.144531 34.917969 L 62.902344 36.78125 L 63.804688 36.78125 C 63.957031 36.78125 64.101562 36.871094 64.175781 37.011719 C 64.246094 37.148438 64.242188 37.316406 64.152344 37.441406 L 62.910156 39.308594 L 63.8125 39.308594 C 63.964844 39.308594 64.109375 39.394531 64.183594 39.535156 C 64.253906 39.671875 64.246094 39.839844 64.160156 39.964844 Z M 62.875 41.832031 " fill-opacity="1" fill-rule="nonzero"/></g><g clip-path="url(#c96aec5216)"><path fill="#000000" d="M 39.605469 52.464844 C 39.375 52.464844 39.183594 52.273438 39.183594 52.039062 L 39.183594 44.054688 C 39.183594 43.820312 39.375 43.632812 39.605469 43.632812 C 39.839844 43.632812 40.027344 43.820312 40.027344 44.054688 L 40.027344 52.046875 C 40.027344 52.28125 39.839844 52.464844 39.605469 52.464844 Z M 39.605469 52.464844 " fill-opacity="1" fill-rule="nonzero"/></g><g clip-path="url(#7a07f05687)"><path fill="#000000" d="M 42.578125 44.480469 L 36.640625 44.480469 C 36.488281 44.480469 36.34375 44.390625 36.269531 44.253906 C 36.199219 44.113281 36.207031 43.945312 36.292969 43.820312 L 37.535156 41.957031 L 36.640625 41.957031 C 36.488281 41.957031 36.34375 41.867188 36.269531 41.730469 C 36.199219 41.589844 36.207031 41.421875 36.292969 41.296875 L 37.535156 39.433594 L 36.640625 39.433594 C 36.488281 39.433594 36.34375 39.34375 36.269531 39.203125 C 36.199219 39.066406 36.207031 38.898438 36.292969 38.773438 L 37.535156 36.90625 L 36.640625 36.90625 C 36.488281 36.90625 36.34375 36.820312 36.269531 36.679688 C 36.199219 36.542969 36.207031 36.375 36.292969 36.25 L 39.265625 31.800781 C 39.34375 31.683594 39.476562 31.617188 39.613281 31.617188 C 39.753906 31.617188 39.882812 31.691406 39.960938 31.800781 L 42.933594 36.25 C 43.023438 36.378906 43.027344 36.542969 42.957031 36.679688 C 42.882812 36.820312 42.738281 36.90625 42.585938 36.90625 L 41.683594 36.90625 L 42.925781 38.773438 C 43.015625 38.90625 43.023438 39.066406 42.949219 39.203125 C 42.875 39.34375 42.730469 39.433594 42.578125 39.433594 L 41.683594 39.433594 L 42.925781 41.296875 C 43.015625 41.429688 43.023438 41.589844 42.949219 41.730469 C 42.875 41.867188 42.730469 41.957031 42.578125 41.957031 L 41.683594 41.957031 L 42.925781 43.820312 C 43.015625 43.953125 43.023438 44.113281 42.949219 44.253906 C 42.875 44.390625 42.738281 44.480469 42.578125 44.480469 Z M 37.425781 43.632812 L 41.800781 43.632812 L 40.550781 41.765625 C 40.464844 41.632812 40.457031 41.472656 40.53125 41.335938 C 40.601562 41.195312 40.746094 41.105469 40.898438 41.105469 L 41.800781 41.105469 L 40.558594 39.242188 C 40.472656 39.109375 40.464844 38.949219 40.535156 38.808594 C 40.609375 38.671875 40.753906 38.582031 40.90625 38.582031 L 41.808594 38.582031 L 40.566406 36.71875 C 40.480469 36.585938 40.472656 36.425781 40.542969 36.285156 C 40.617188 36.144531 40.761719 36.058594 40.914062 36.058594 L 41.816406 36.058594 L 39.628906 32.78125 L 37.441406 36.058594 L 38.34375 36.058594 C 38.496094 36.058594 38.640625 36.144531 38.710938 36.285156 C 38.785156 36.425781 38.777344 36.59375 38.691406 36.71875 L 37.449219 38.582031 L 38.347656 38.582031 C 38.503906 38.582031 38.648438 38.671875 38.71875 38.808594 C 38.792969 38.949219 38.785156 39.117188 38.699219 39.242188 L 37.457031 41.105469 L 38.355469 41.105469 C 38.507812 41.105469 38.65625 41.195312 38.726562 41.335938 C 38.800781 41.472656 38.792969 41.640625 38.707031 41.765625 Z M 37.425781 43.632812 " fill-opacity="1" fill-rule="nonzero"/></g><path fill="#000000" d="M 45.472656 30.5625 L 41.175781 30.5625 C 40.160156 30.5625 39.324219 29.730469 39.324219 28.699219 C 39.324219 27.71875 40.078125 26.90625 41.039062 26.839844 C 41.371094 26.304688 41.953125 25.96875 42.601562 25.96875 C 42.949219 25.535156 43.480469 25.273438 44.039062 25.273438 C 44.96875 25.273438 45.746094 25.96875 45.871094 26.875 C 46.699219 27.058594 47.324219 27.804688 47.324219 28.699219 C 47.316406 29.730469 46.488281 30.5625 45.472656 30.5625 Z M 41.175781 27.679688 C 40.617188 27.679688 40.167969 28.140625 40.167969 28.699219 C 40.167969 29.253906 40.625 29.714844 41.175781 29.714844 L 45.472656 29.714844 C 46.03125 29.714844 46.480469 29.253906 46.480469 28.699219 C 46.480469 28.140625 46.023438 27.679688 45.472656 27.679688 C 45.355469 27.679688 45.238281 27.628906 45.160156 27.542969 C 45.078125 27.453125 45.035156 27.335938 45.050781 27.21875 C 45.050781 27.191406 45.050781 27.167969 45.050781 27.140625 C 45.050781 26.574219 44.589844 26.121094 44.039062 26.121094 C 43.675781 26.121094 43.347656 26.3125 43.167969 26.621094 C 43.082031 26.765625 42.914062 26.847656 42.746094 26.824219 C 42.703125 26.816406 42.652344 26.816406 42.601562 26.816406 C 42.195312 26.816406 41.832031 27.058594 41.671875 27.433594 C 41.597656 27.601562 41.429688 27.703125 41.25 27.6875 C 41.226562 27.679688 41.199219 27.679688 41.175781 27.679688 Z M 41.175781 27.679688 " fill-opacity="1" fill-rule="nonzero"/><path fill="#000000" d="M 56.277344 33.730469 L 51.980469 33.730469 C 50.964844 33.730469 50.128906 32.898438 50.128906 31.867188 C 50.128906 30.886719 50.882812 30.074219 51.84375 30.007812 C 52.179688 29.472656 52.757812 29.136719 53.40625 29.136719 C 53.753906 28.707031 54.285156 28.441406 54.84375 28.441406 C 55.773438 28.441406 56.550781 29.136719 56.675781 30.042969 C 57.503906 30.226562 58.128906 30.972656 58.128906 31.867188 C 58.128906 32.898438 57.300781 33.730469 56.277344 33.730469 Z M 51.980469 30.847656 C 51.421875 30.847656 50.972656 31.308594 50.972656 31.867188 C 50.972656 32.421875 51.429688 32.882812 51.980469 32.882812 L 56.277344 32.882812 C 56.835938 32.882812 57.285156 32.421875 57.285156 31.867188 C 57.285156 31.308594 56.828125 30.847656 56.277344 30.847656 C 56.160156 30.847656 56.042969 30.796875 55.964844 30.710938 C 55.882812 30.621094 55.839844 30.503906 55.855469 30.386719 C 55.855469 30.359375 55.855469 30.335938 55.855469 30.308594 C 55.855469 29.746094 55.398438 29.289062 54.84375 29.289062 C 54.480469 29.289062 54.15625 29.480469 53.972656 29.789062 C 53.886719 29.933594 53.71875 30.015625 53.550781 29.992188 C 53.507812 29.984375 53.457031 29.984375 53.40625 29.984375 C 53 29.984375 52.636719 30.226562 52.476562 30.601562 C 52.402344 30.769531 52.234375 30.871094 52.054688 30.855469 C 52.039062 30.855469 52.011719 30.847656 51.980469 30.847656 Z M 51.980469 30.847656 " fill-opacity="1" fill-rule="nonzero"/><g clip-path="url(#231fa85c61)"><path fill="#000000" d="M 64.296875 27.828125 L 60.003906 27.828125 C 58.988281 27.828125 58.152344 26.992188 58.152344 25.960938 C 58.152344 24.980469 58.90625 24.167969 59.867188 24.101562 C 60.199219 23.570312 60.789062 23.230469 61.429688 23.230469 C 61.777344 22.800781 62.308594 22.535156 62.867188 22.535156 C 63.796875 22.535156 64.574219 23.230469 64.699219 24.140625 C 65.527344 24.324219 66.152344 25.070312 66.152344 25.960938 C 66.152344 26.984375 65.316406 27.828125 64.296875 27.828125 Z M 60.003906 24.9375 C 59.445312 24.9375 58.992188 25.398438 58.992188 25.953125 C 58.992188 26.511719 59.453125 26.972656 60.003906 26.972656 L 64.296875 26.972656 C 64.859375 26.972656 65.308594 26.511719 65.308594 25.953125 C 65.308594 25.398438 64.859375 24.9375 64.296875 24.9375 C 64.183594 24.9375 64.066406 24.886719 63.988281 24.804688 C 63.90625 24.71875 63.863281 24.601562 63.878906 24.484375 C 63.878906 24.453125 63.878906 24.433594 63.878906 24.402344 C 63.878906 23.839844 63.417969 23.386719 62.867188 23.386719 C 62.503906 23.386719 62.175781 23.574219 61.996094 23.882812 C 61.90625 24.03125 61.742188 24.109375 61.574219 24.089844 C 61.53125 24.082031 61.480469 24.082031 61.429688 24.082031 C 61.023438 24.082031 60.660156 24.324219 60.5 24.695312 C 60.425781 24.863281 60.257812 24.957031 60.085938 24.953125 C 60.0625 24.945312 60.035156 24.9375 60.003906 24.9375 Z M 60.003906 24.9375 " fill-opacity="1" fill-rule="nonzero"/></g><path fill="#000000" d="M 49.4375 26.195312 C 49.226562 26.195312 49.046875 26.035156 49.023438 25.816406 C 48.957031 25.164062 48.472656 25.132812 48.449219 25.132812 C 48.21875 25.121094 48.042969 24.921875 48.050781 24.695312 C 48.058594 24.46875 48.261719 24.285156 48.488281 24.292969 C 48.90625 24.316406 49.738281 24.644531 49.84375 25.726562 C 49.867188 25.960938 49.699219 26.167969 49.476562 26.1875 C 49.46875 26.195312 49.453125 26.195312 49.4375 26.195312 Z M 49.4375 26.195312 " fill-opacity="1" fill-rule="nonzero"/><path fill="#000000" d="M 49.4375 26.195312 C 49.425781 26.195312 49.410156 26.195312 49.394531 26.195312 C 49.164062 26.171875 48.996094 25.960938 49.023438 25.734375 C 49.140625 24.644531 49.96875 24.324219 50.382812 24.300781 L 50.425781 25.140625 L 50.433594 25.140625 C 50.316406 25.148438 49.917969 25.230469 49.851562 25.824219 C 49.832031 26.035156 49.648438 26.195312 49.4375 26.195312 Z M 49.4375 26.195312 " fill-opacity="1" fill-rule="nonzero"/><path fill="#000000" d="M 60.59375 31.414062 C 60.382812 31.414062 60.199219 31.25 60.179688 31.03125 C 60.113281 30.4375 59.722656 30.359375 59.597656 30.351562 L 59.625 29.933594 L 59.648438 29.511719 C 60.070312 29.53125 60.898438 29.859375 61.007812 30.945312 C 61.027344 31.179688 60.863281 31.382812 60.636719 31.40625 C 60.621094 31.414062 60.605469 31.414062 60.59375 31.414062 Z M 60.59375 31.414062 " fill-opacity="1" fill-rule="nonzero"/><path fill="#000000" d="M 60.59375 31.414062 C 60.578125 31.414062 60.5625 31.414062 60.550781 31.414062 C 60.316406 31.390625 60.148438 31.179688 60.179688 30.953125 C 60.292969 29.859375 61.125 29.539062 61.539062 29.515625 L 61.582031 30.359375 L 61.589844 30.359375 C 61.472656 30.367188 61.074219 30.445312 61.007812 31.039062 C 60.984375 31.25 60.8125 31.414062 60.59375 31.414062 Z M 60.59375 31.414062 " fill-opacity="1" fill-rule="nonzero"/><path fill="#000000" d="M 55.265625 25.222656 C 55.054688 25.222656 54.875 25.0625 54.851562 24.84375 C 54.785156 24.25 54.394531 24.167969 54.269531 24.160156 L 54.300781 23.746094 L 54.320312 23.320312 C 54.742188 23.34375 55.570312 23.671875 55.679688 24.753906 C 55.703125 24.988281 55.535156 25.191406 55.308594 25.214844 C 55.296875 25.222656 55.28125 25.222656 55.265625 25.222656 Z M 55.265625 25.222656 " fill-opacity="1" fill-rule="nonzero"/><path fill="#000000" d="M 55.265625 25.222656 C 55.25 25.222656 55.238281 25.222656 55.222656 25.222656 C 54.988281 25.199219 54.824219 24.988281 54.851562 24.761719 C 54.96875 23.671875 55.796875 23.347656 56.210938 23.328125 L 56.253906 24.167969 L 56.261719 24.167969 C 56.144531 24.175781 55.746094 24.257812 55.679688 24.847656 C 55.660156 25.0625 55.476562 25.222656 55.265625 25.222656 Z M 55.265625 25.222656 " fill-opacity="1" fill-rule="nonzero"/><path fill="#000000" d="M 45.710938 34.851562 C 45.5 34.851562 45.316406 34.691406 45.296875 34.472656 C 45.230469 33.878906 44.839844 33.796875 44.714844 33.789062 L 44.746094 33.375 L 44.765625 32.949219 C 45.1875 32.972656 46.015625 33.300781 46.125 34.382812 C 46.148438 34.617188 45.980469 34.820312 45.753906 34.84375 C 45.738281 34.84375 45.726562 34.851562 45.710938 34.851562 Z M 45.710938 34.851562 " fill-opacity="1" fill-rule="nonzero"/><path fill="#000000" d="M 45.710938 34.851562 C 45.695312 34.851562 45.679688 34.851562 45.667969 34.851562 C 45.433594 34.828125 45.265625 34.617188 45.296875 34.390625 C 45.414062 33.300781 46.242188 32.976562 46.65625 32.957031 L 46.699219 33.796875 L 46.707031 33.796875 C 46.589844 33.804688 46.191406 33.886719 46.125 34.476562 C 46.101562 34.691406 45.921875 34.851562 45.710938 34.851562 Z M 45.710938 34.851562 " fill-opacity="1" fill-rule="nonzero"/><path fill="#000000" d="M 54.824219 37.113281 C 54.613281 37.113281 54.429688 36.953125 54.410156 36.730469 C 54.34375 36.140625 53.949219 36.058594 53.828125 36.050781 L 53.855469 35.632812 L 53.878906 35.210938 C 54.300781 35.230469 55.128906 35.5625 55.238281 36.644531 C 55.257812 36.878906 55.09375 37.082031 54.867188 37.105469 C 54.851562 37.113281 54.835938 37.113281 54.824219 37.113281 Z M 54.824219 37.113281 " fill-opacity="1" fill-rule="nonzero"/><path fill="#000000" d="M 54.824219 37.113281 C 54.808594 37.113281 54.792969 37.113281 54.78125 37.113281 C 54.546875 37.089844 54.378906 36.878906 54.410156 36.652344 C 54.523438 35.5625 55.355469 35.238281 55.769531 35.21875 L 55.8125 36.058594 L 55.820312 36.058594 C 55.703125 36.066406 55.300781 36.144531 55.238281 36.738281 C 55.214844 36.953125 55.035156 37.113281 54.824219 37.113281 Z M 54.824219 37.113281 " fill-opacity="1" fill-rule="nonzero"/></svg>