<svg xmlns="http://www.w3.org/2000/svg" xmlns:xlink="http://www.w3.org/1999/xlink" width="140" zoomAndPan="magnify" viewBox="0 0 104.88 74.999997" height="100" preserveAspectRatio="xMidYMid meet" version="1.0"><defs><clipPath id="6881bacf2a"><path d="M 0 0.0429688 L 104.761719 0.0429688 L 104.761719 74.957031 L 0 74.957031 Z M 0 0.0429688 " clip-rule="nonzero"/></clipPath><clipPath id="53a790f9d1"><path d="M 32 29 L 52 29 L 52 50.125 L 32 50.125 Z M 32 29 " clip-rule="nonzero"/></clipPath><clipPath id="b4fc8d07c0"><path d="M 52 29 L 73 29 L 73 50.125 L 52 50.125 Z M 52 29 " clip-rule="nonzero"/></clipPath><clipPath id="0cbe3d9386"><path d="M 51 24.652344 L 54 24.652344 L 54 27 L 51 27 Z M 51 24.652344 " clip-rule="nonzero"/></clipPath><clipPath id="a57e8906e2"><path d="M 31.464844 48 L 73.414062 48 L 73.414062 50.125 L 31.464844 50.125 Z M 31.464844 48 " clip-rule="nonzero"/></clipPath></defs><g clip-path="url(#6881bacf2a)"><path fill="#ffffff" d="M 0 0.0429688 L 104.878906 0.0429688 L 104.878906 74.957031 L 0 74.957031 Z M 0 0.0429688 " fill-opacity="1" fill-rule="nonzero"/><path fill="#ffffff" d="M 0 0.0429688 L 104.878906 0.0429688 L 104.878906 74.957031 L 0 74.957031 Z M 0 0.0429688 " fill-opacity="1" fill-rule="nonzero"/></g><g clip-path="url(#53a790f9d1)"><path fill="#000000" d="M 51.410156 50.121094 L 33.316406 50.121094 C 33.15625 50.121094 33.003906 50.054688 32.898438 49.945312 C 32.796875 49.832031 32.738281 49.671875 32.75 49.511719 L 33.417969 42.046875 C 33.417969 42.011719 33.429688 41.980469 33.4375 41.945312 L 36.28125 31.695312 C 36.328125 31.519531 36.460938 31.378906 36.640625 31.3125 C 36.8125 31.246094 37.011719 31.277344 37.160156 31.386719 L 39.242188 32.847656 L 40.949219 30.105469 C 41.101562 29.851562 41.433594 29.769531 41.695312 29.898438 L 44.039062 31.105469 L 45.351562 30.113281 C 45.515625 29.992188 45.722656 29.964844 45.910156 30.039062 C 46.101562 30.113281 46.230469 30.273438 46.261719 30.46875 L 47.402344 37.515625 L 50.144531 42.414062 C 50.164062 42.449219 50.183594 42.496094 50.199219 42.542969 L 51.976562 49.429688 C 52.023438 49.597656 51.988281 49.773438 51.875 49.914062 C 51.75 50.046875 51.582031 50.121094 51.410156 50.121094 Z M 33.929688 48.996094 L 50.671875 48.996094 L 49.09375 42.890625 L 46.355469 37.972656 C 46.328125 37.917969 46.296875 37.851562 46.289062 37.785156 L 45.277344 31.574219 L 44.425781 32.210938 C 44.257812 32.34375 44.019531 32.363281 43.824219 32.257812 L 41.628906 31.136719 L 39.882812 33.953125 C 39.796875 34.085938 39.664062 34.179688 39.515625 34.207031 C 39.363281 34.234375 39.203125 34.207031 39.070312 34.113281 L 37.160156 32.765625 L 34.542969 42.199219 Z M 33.929688 48.996094 " fill-opacity="1" fill-rule="nonzero"/></g><path fill="#000000" d="M 41.195312 44.519531 C 41.074219 44.519531 40.949219 44.484375 40.847656 44.398438 L 37.746094 41.945312 C 37.566406 41.804688 37.492188 41.5625 37.558594 41.335938 L 38.511719 38.339844 L 35.515625 35.601562 C 35.289062 35.398438 35.273438 35.042969 35.488281 34.808594 C 35.695312 34.582031 36.054688 34.5625 36.292969 34.777344 L 39.550781 37.757812 C 39.710938 37.90625 39.777344 38.132812 39.710938 38.339844 L 38.769531 41.308594 L 41.566406 43.527344 C 41.808594 43.722656 41.847656 44.070312 41.648438 44.3125 C 41.527344 44.453125 41.367188 44.519531 41.195312 44.519531 Z M 41.195312 44.519531 " fill-opacity="1" fill-rule="nonzero"/><path fill="#000000" d="M 45.097656 45.402344 C 45.03125 45.402344 44.964844 45.390625 44.898438 45.363281 C 44.605469 45.25 44.464844 44.921875 44.570312 44.640625 L 45.722656 41.652344 C 45.761719 41.5625 45.816406 41.484375 45.882812 41.429688 L 47.875 39.761719 C 48.113281 39.566406 48.472656 39.59375 48.679688 39.828125 C 48.878906 40.0625 48.847656 40.417969 48.613281 40.625 L 46.734375 42.199219 L 45.636719 45.046875 C 45.53125 45.269531 45.324219 45.402344 45.097656 45.402344 Z M 45.097656 45.402344 " fill-opacity="1" fill-rule="nonzero"/><g clip-path="url(#b4fc8d07c0)"><path fill="#000000" d="M 71.554688 50.121094 L 53.460938 50.121094 C 53.28125 50.121094 53.121094 50.039062 53.015625 49.90625 C 52.914062 49.765625 52.875 49.589844 52.914062 49.417969 L 54.6875 42.535156 C 54.699219 42.488281 54.71875 42.441406 54.746094 42.402344 L 57.484375 37.503906 L 58.628906 30.460938 C 58.65625 30.265625 58.789062 30.105469 58.976562 30.03125 C 59.167969 29.953125 59.375 29.984375 59.535156 30.105469 L 60.847656 31.097656 L 63.191406 29.890625 C 63.457031 29.757812 63.777344 29.84375 63.9375 30.09375 L 65.648438 32.839844 L 67.726562 31.378906 C 67.878906 31.277344 68.066406 31.246094 68.246094 31.304688 C 68.417969 31.371094 68.558594 31.511719 68.605469 31.6875 L 71.449219 41.945312 C 71.460938 41.972656 71.46875 42.011719 71.46875 42.046875 L 72.140625 49.511719 C 72.148438 49.671875 72.101562 49.820312 72 49.945312 C 71.894531 50.066406 71.714844 50.121094 71.554688 50.121094 Z M 54.199219 48.996094 L 70.941406 48.996094 L 70.328125 42.199219 L 67.710938 32.765625 L 65.800781 34.113281 C 65.667969 34.207031 65.515625 34.234375 65.355469 34.207031 C 65.207031 34.179688 65.074219 34.085938 64.988281 33.953125 L 63.238281 31.136719 L 61.046875 32.257812 C 60.847656 32.363281 60.621094 32.34375 60.441406 32.210938 L 59.59375 31.574219 L 58.582031 37.785156 C 58.570312 37.851562 58.554688 37.90625 58.515625 37.972656 L 55.765625 42.890625 Z M 54.199219 48.996094 " fill-opacity="1" fill-rule="nonzero"/></g><path fill="#000000" d="M 63.675781 44.519531 C 63.503906 44.519531 63.34375 44.445312 63.230469 44.304688 C 63.03125 44.0625 63.070312 43.707031 63.316406 43.519531 L 66.113281 41.296875 L 65.167969 38.328125 C 65.101562 38.121094 65.15625 37.898438 65.328125 37.75 L 68.585938 34.769531 C 68.816406 34.5625 69.171875 34.574219 69.390625 34.796875 C 69.597656 35.023438 69.589844 35.378906 69.363281 35.59375 L 66.367188 38.328125 L 67.320312 41.328125 C 67.386719 41.550781 67.320312 41.785156 67.132812 41.933594 L 64.035156 44.390625 C 63.921875 44.484375 63.796875 44.519531 63.675781 44.519531 Z M 63.675781 44.519531 " fill-opacity="1" fill-rule="nonzero"/><path fill="#000000" d="M 59.78125 45.402344 C 59.554688 45.402344 59.335938 45.261719 59.253906 45.035156 L 58.15625 42.1875 L 56.277344 40.613281 C 56.039062 40.417969 56.003906 40.0625 56.210938 39.816406 C 56.410156 39.585938 56.765625 39.546875 57.011719 39.753906 L 59.007812 41.421875 C 59.082031 41.484375 59.140625 41.5625 59.167969 41.644531 L 60.320312 44.632812 C 60.433594 44.921875 60.28125 45.25 59.988281 45.355469 C 59.914062 45.390625 59.847656 45.402344 59.78125 45.402344 Z M 59.78125 45.402344 " fill-opacity="1" fill-rule="nonzero"/><path fill="#000000" d="M 52.441406 32.738281 C 50.929688 32.738281 49.699219 31.519531 49.699219 30.019531 C 49.699219 28.523438 50.929688 27.304688 52.441406 27.304688 C 53.953125 27.304688 55.179688 28.523438 55.179688 30.019531 C 55.179688 31.519531 53.953125 32.738281 52.441406 32.738281 Z M 52.441406 28.417969 C 51.550781 28.417969 50.832031 29.128906 50.832031 30.011719 C 50.832031 30.890625 51.550781 31.605469 52.441406 31.605469 C 53.328125 31.605469 54.046875 30.890625 54.046875 30.011719 C 54.046875 29.128906 53.328125 28.417969 52.441406 28.417969 Z M 52.441406 28.417969 " fill-opacity="1" fill-rule="nonzero"/><g clip-path="url(#0cbe3d9386)"><path fill="#000000" d="M 52.441406 26.628906 C 52.128906 26.628906 51.875 26.375 51.875 26.066406 L 51.875 25.214844 C 51.875 24.90625 52.128906 24.652344 52.441406 24.652344 C 52.75 24.652344 53.007812 24.90625 53.007812 25.214844 L 53.007812 26.066406 C 53.007812 26.375 52.75 26.628906 52.441406 26.628906 Z M 52.441406 26.628906 " fill-opacity="1" fill-rule="nonzero"/></g><path fill="#000000" d="M 49.625 27.78125 C 49.484375 27.78125 49.332031 27.726562 49.226562 27.613281 L 48.621094 27.015625 C 48.40625 26.796875 48.40625 26.441406 48.621094 26.21875 C 48.839844 26.003906 49.199219 26.003906 49.425781 26.21875 L 50.03125 26.816406 C 50.246094 27.03125 50.246094 27.386719 50.03125 27.613281 C 49.90625 27.726562 49.765625 27.78125 49.625 27.78125 Z M 49.625 27.78125 " fill-opacity="1" fill-rule="nonzero"/><path fill="#000000" d="M 48.453125 30.574219 L 47.59375 30.574219 C 47.28125 30.574219 47.027344 30.320312 47.027344 30.011719 C 47.027344 29.703125 47.28125 29.449219 47.59375 29.449219 L 48.453125 29.449219 C 48.765625 29.449219 49.019531 29.703125 49.019531 30.011719 C 49.019531 30.320312 48.765625 30.574219 48.453125 30.574219 Z M 48.453125 30.574219 " fill-opacity="1" fill-rule="nonzero"/><path fill="#000000" d="M 49.011719 33.964844 C 48.867188 33.964844 48.71875 33.90625 48.613281 33.796875 C 48.394531 33.578125 48.394531 33.222656 48.613281 33 L 49.21875 32.398438 C 49.433594 32.183594 49.792969 32.183594 50.019531 32.398438 C 50.246094 32.613281 50.238281 32.972656 50.019531 33.195312 L 49.417969 33.796875 C 49.304688 33.917969 49.160156 33.964844 49.011719 33.964844 Z M 49.011719 33.964844 " fill-opacity="1" fill-rule="nonzero"/><path fill="#000000" d="M 52.441406 35.378906 C 52.128906 35.378906 51.875 35.125 51.875 34.816406 L 51.875 33.964844 C 51.875 33.65625 52.128906 33.402344 52.441406 33.402344 C 52.75 33.402344 53.007812 33.65625 53.007812 33.964844 L 53.007812 34.816406 C 53.007812 35.125 52.75 35.378906 52.441406 35.378906 Z M 52.441406 35.378906 " fill-opacity="1" fill-rule="nonzero"/><path fill="#000000" d="M 55.859375 33.964844 C 55.71875 33.964844 55.566406 33.90625 55.464844 33.796875 L 54.859375 33.195312 C 54.640625 32.980469 54.640625 32.625 54.859375 32.398438 C 55.074219 32.183594 55.433594 32.183594 55.660156 32.398438 L 56.265625 33 C 56.484375 33.214844 56.484375 33.570312 56.265625 33.796875 C 56.152344 33.917969 56.003906 33.964844 55.859375 33.964844 Z M 55.859375 33.964844 " fill-opacity="1" fill-rule="nonzero"/><path fill="#000000" d="M 57.277344 30.574219 L 56.417969 30.574219 C 56.105469 30.574219 55.851562 30.320312 55.851562 30.011719 C 55.851562 29.703125 56.105469 29.449219 56.417969 29.449219 L 57.277344 29.449219 C 57.589844 29.449219 57.84375 29.703125 57.84375 30.011719 C 57.84375 30.320312 57.589844 30.574219 57.277344 30.574219 Z M 57.277344 30.574219 " fill-opacity="1" fill-rule="nonzero"/><path fill="#000000" d="M 55.253906 27.78125 C 55.113281 27.78125 54.960938 27.726562 54.859375 27.613281 C 54.640625 27.398438 54.640625 27.042969 54.859375 26.816406 L 55.464844 26.21875 C 55.679688 26.003906 56.039062 26.003906 56.265625 26.21875 C 56.484375 26.433594 56.484375 26.789062 56.265625 27.015625 L 55.660156 27.613281 C 55.539062 27.726562 55.398438 27.78125 55.253906 27.78125 Z M 55.253906 27.78125 " fill-opacity="1" fill-rule="nonzero"/><g clip-path="url(#a57e8906e2)"><path fill="#000000" d="M 72.847656 50.121094 L 32.03125 50.121094 C 31.71875 50.121094 31.464844 49.867188 31.464844 49.558594 C 31.464844 49.25 31.71875 48.996094 32.03125 48.996094 L 72.847656 48.996094 C 73.160156 48.996094 73.414062 49.25 73.414062 49.558594 C 73.414062 49.867188 73.160156 50.121094 72.847656 50.121094 Z M 72.847656 50.121094 " fill-opacity="1" fill-rule="nonzero"/></g></svg>