<svg xmlns="http://www.w3.org/2000/svg" xmlns:xlink="http://www.w3.org/1999/xlink" width="140" zoomAndPan="magnify" viewBox="0 0 104.88 74.999997" height="100" preserveAspectRatio="xMidYMid meet" version="1.0"><defs><clipPath id="cc35dcfefb"><path d="M 0 0.0429688 L 104.761719 0.0429688 L 104.761719 74.957031 L 0 74.957031 Z M 0 0.0429688 " clip-rule="nonzero"/></clipPath><clipPath id="3730f2d157"><path d="M 40.324219 28 L 64.296875 28 L 64.296875 52.484375 L 40.324219 52.484375 Z M 40.324219 28 " clip-rule="nonzero"/></clipPath><clipPath id="6680c6bbf5"><path d="M 49 22.515625 L 55 22.515625 L 55 28 L 49 28 Z M 49 22.515625 " clip-rule="nonzero"/></clipPath></defs><g clip-path="url(#cc35dcfefb)"><path fill="#ffffff" d="M 0 0.0429688 L 104.878906 0.0429688 L 104.878906 74.957031 L 0 74.957031 Z M 0 0.0429688 " fill-opacity="1" fill-rule="nonzero"/><path fill="#ffffff" d="M 0 0.0429688 L 104.878906 0.0429688 L 104.878906 74.957031 L 0 74.957031 Z M 0 0.0429688 " fill-opacity="1" fill-rule="nonzero"/></g><g clip-path="url(#3730f2d157)"><path fill="#000000" d="M 52.308594 52.46875 C 45.699219 52.46875 40.324219 47.03125 40.324219 40.351562 C 40.324219 33.671875 45.699219 28.238281 52.308594 28.238281 C 58.917969 28.238281 64.296875 33.671875 64.296875 40.351562 C 64.296875 47.03125 58.914062 52.46875 52.308594 52.46875 Z M 52.308594 29.046875 C 46.140625 29.046875 41.121094 34.117188 41.121094 40.351562 C 41.121094 46.589844 46.140625 51.65625 52.308594 51.65625 C 58.480469 51.65625 63.496094 46.589844 63.496094 40.351562 C 63.488281 34.117188 58.472656 29.046875 52.308594 29.046875 Z M 52.308594 29.046875 " fill-opacity="1" fill-rule="nonzero"/></g><path fill="#000000" d="M 52.308594 50.550781 C 46.746094 50.550781 42.21875 45.972656 42.21875 40.351562 C 42.21875 34.730469 46.746094 30.152344 52.308594 30.152344 C 57.871094 30.152344 62.402344 34.730469 62.402344 40.351562 C 62.402344 45.972656 57.871094 50.550781 52.308594 50.550781 Z M 52.308594 30.953125 C 47.1875 30.953125 43.015625 35.167969 43.015625 40.34375 C 43.015625 45.523438 47.1875 49.738281 52.308594 49.738281 C 57.429688 49.738281 61.601562 45.523438 61.601562 40.34375 C 61.601562 35.167969 57.429688 30.953125 52.308594 30.953125 Z M 52.308594 30.953125 " fill-opacity="1" fill-rule="nonzero"/><path fill="#000000" d="M 52.308594 32.417969 C 52.089844 32.417969 51.910156 32.234375 51.910156 32.011719 L 51.910156 30.554688 C 51.910156 30.332031 52.089844 30.152344 52.308594 30.152344 C 52.527344 30.152344 52.710938 30.332031 52.710938 30.554688 L 52.710938 32.011719 C 52.710938 32.234375 52.527344 32.417969 52.308594 32.417969 Z M 52.308594 32.417969 " fill-opacity="1" fill-rule="nonzero"/><path fill="#000000" d="M 56.429688 33.535156 C 56.363281 33.535156 56.296875 33.515625 56.230469 33.480469 C 56.039062 33.367188 55.972656 33.125 56.085938 32.929688 L 56.804688 31.667969 C 56.917969 31.472656 57.15625 31.40625 57.351562 31.519531 C 57.546875 31.632812 57.613281 31.878906 57.5 32.074219 L 56.777344 33.332031 C 56.703125 33.460938 56.570312 33.535156 56.429688 33.535156 Z M 56.429688 33.535156 " fill-opacity="1" fill-rule="nonzero"/><path fill="#000000" d="M 59.453125 36.582031 C 59.3125 36.582031 59.179688 36.507812 59.105469 36.378906 C 58.992188 36.183594 59.058594 35.941406 59.253906 35.828125 L 60.5 35.101562 C 60.691406 34.984375 60.933594 35.050781 61.046875 35.25 C 61.160156 35.445312 61.09375 35.6875 60.898438 35.800781 L 59.652344 36.527344 C 59.585938 36.570312 59.519531 36.582031 59.453125 36.582031 Z M 59.453125 36.582031 " fill-opacity="1" fill-rule="nonzero"/><path fill="#000000" d="M 62 40.757812 L 60.558594 40.757812 C 60.339844 40.757812 60.160156 40.574219 60.160156 40.351562 C 60.160156 40.128906 60.339844 39.949219 60.558594 39.949219 L 62 39.949219 C 62.222656 39.949219 62.402344 40.128906 62.402344 40.351562 C 62.402344 40.574219 62.222656 40.757812 62 40.757812 Z M 62 40.757812 " fill-opacity="1" fill-rule="nonzero"/><path fill="#000000" d="M 60.699219 45.652344 C 60.632812 45.652344 60.566406 45.628906 60.5 45.597656 L 59.253906 44.867188 C 59.058594 44.753906 58.992188 44.511719 59.105469 44.316406 C 59.21875 44.121094 59.460938 44.054688 59.652344 44.167969 L 60.898438 44.894531 C 61.09375 45.011719 61.160156 45.253906 61.046875 45.449219 C 60.972656 45.582031 60.839844 45.652344 60.699219 45.652344 Z M 60.699219 45.652344 " fill-opacity="1" fill-rule="nonzero"/><path fill="#000000" d="M 57.152344 49.238281 C 57.011719 49.238281 56.878906 49.164062 56.804688 49.035156 L 56.085938 47.773438 C 55.972656 47.578125 56.039062 47.335938 56.230469 47.222656 C 56.425781 47.105469 56.664062 47.175781 56.777344 47.371094 L 57.5 48.628906 C 57.613281 48.828125 57.546875 49.070312 57.351562 49.183594 C 57.292969 49.222656 57.226562 49.238281 57.152344 49.238281 Z M 57.152344 49.238281 " fill-opacity="1" fill-rule="nonzero"/><path fill="#000000" d="M 52.308594 50.550781 C 52.089844 50.550781 51.910156 50.371094 51.910156 50.148438 L 51.910156 48.691406 C 51.910156 48.46875 52.089844 48.285156 52.308594 48.285156 C 52.527344 48.285156 52.710938 48.46875 52.710938 48.691406 L 52.710938 50.148438 C 52.710938 50.371094 52.527344 50.550781 52.308594 50.550781 Z M 52.308594 50.550781 " fill-opacity="1" fill-rule="nonzero"/><path fill="#000000" d="M 47.460938 49.238281 C 47.394531 49.238281 47.328125 49.21875 47.257812 49.183594 C 47.066406 49.070312 47 48.828125 47.113281 48.628906 L 47.832031 47.371094 C 47.945312 47.175781 48.1875 47.105469 48.378906 47.222656 C 48.574219 47.335938 48.640625 47.578125 48.527344 47.773438 L 47.804688 49.035156 C 47.734375 49.171875 47.601562 49.238281 47.460938 49.238281 Z M 47.460938 49.238281 " fill-opacity="1" fill-rule="nonzero"/><path fill="#000000" d="M 43.910156 45.652344 C 43.769531 45.652344 43.636719 45.578125 43.5625 45.449219 C 43.449219 45.253906 43.519531 45.011719 43.710938 44.894531 L 44.957031 44.167969 C 45.152344 44.054688 45.390625 44.121094 45.503906 44.316406 C 45.617188 44.511719 45.550781 44.753906 45.359375 44.867188 L 44.109375 45.597656 C 44.050781 45.636719 43.976562 45.652344 43.910156 45.652344 Z M 43.910156 45.652344 " fill-opacity="1" fill-rule="nonzero"/><path fill="#000000" d="M 44.058594 40.757812 L 42.617188 40.757812 C 42.398438 40.757812 42.21875 40.574219 42.21875 40.351562 C 42.21875 40.128906 42.398438 39.949219 42.617188 39.949219 L 44.058594 39.949219 C 44.277344 39.949219 44.457031 40.128906 44.457031 40.351562 C 44.457031 40.574219 44.277344 40.757812 44.058594 40.757812 Z M 44.058594 40.757812 " fill-opacity="1" fill-rule="nonzero"/><path fill="#000000" d="M 45.160156 36.582031 C 45.089844 36.582031 45.023438 36.5625 44.957031 36.527344 L 43.710938 35.800781 C 43.519531 35.6875 43.449219 35.445312 43.5625 35.25 C 43.675781 35.050781 43.917969 34.984375 44.109375 35.101562 L 45.359375 35.828125 C 45.550781 35.941406 45.617188 36.183594 45.503906 36.378906 C 45.433594 36.515625 45.296875 36.582031 45.160156 36.582031 Z M 45.160156 36.582031 " fill-opacity="1" fill-rule="nonzero"/><path fill="#000000" d="M 48.179688 33.535156 C 48.039062 33.535156 47.90625 33.460938 47.832031 33.332031 L 47.113281 32.074219 C 47 31.878906 47.066406 31.632812 47.257812 31.519531 C 47.453125 31.40625 47.691406 31.472656 47.804688 31.667969 L 48.527344 32.929688 C 48.640625 33.125 48.574219 33.367188 48.378906 33.480469 C 48.320312 33.515625 48.246094 33.535156 48.179688 33.535156 Z M 48.179688 33.535156 " fill-opacity="1" fill-rule="nonzero"/><path fill="#000000" d="M 52.308594 47.269531 C 52.136719 47.269531 51.980469 47.152344 51.929688 46.992188 L 50.742188 43.371094 C 50.679688 43.183594 50.761719 42.972656 50.941406 42.886719 L 52.640625 42.023438 C 52.769531 41.964844 52.914062 41.96875 53.035156 42.042969 L 53.824219 42.550781 C 53.976562 42.652344 54.050781 42.839844 53.988281 43.023438 L 52.683594 47.007812 C 52.628906 47.152344 52.476562 47.269531 52.308594 47.269531 Z M 51.609375 43.445312 L 52.308594 45.578125 L 53.136719 43.054688 L 52.800781 42.847656 Z M 54.582031 41.707031 C 54.449219 41.707031 54.316406 41.640625 54.242188 41.519531 L 53.976562 41.085938 C 53.902344 40.964844 53.894531 40.816406 53.957031 40.6875 L 54.644531 39.308594 C 54.722656 39.136719 54.910156 39.050781 55.089844 39.089844 L 58.839844 39.949219 C 59.019531 39.988281 59.152344 40.148438 59.152344 40.34375 C 59.152344 40.539062 59.027344 40.695312 58.839844 40.742188 L 54.671875 41.695312 C 54.644531 41.707031 54.609375 41.707031 54.582031 41.707031 Z M 55.21875 39.953125 L 54.777344 40.84375 L 56.9375 40.351562 Z M 49.613281 41.613281 C 49.585938 41.613281 49.554688 41.613281 49.527344 41.605469 L 45.777344 40.75 C 45.597656 40.710938 45.464844 40.546875 45.464844 40.351562 C 45.464844 40.15625 45.59375 40 45.777344 39.953125 L 49.949219 39.003906 C 50.113281 38.964844 50.28125 39.039062 50.375 39.183594 L 50.640625 39.617188 C 50.714844 39.738281 50.722656 39.886719 50.660156 40.015625 L 49.972656 41.398438 C 49.902344 41.53125 49.761719 41.613281 49.613281 41.613281 Z M 47.671875 40.351562 L 49.394531 40.742188 L 49.835938 39.851562 Z M 51.789062 38.726562 C 51.714844 38.726562 51.640625 38.707031 51.574219 38.667969 L 50.789062 38.160156 C 50.632812 38.058594 50.5625 37.871094 50.621094 37.6875 L 51.929688 33.703125 C 51.980469 33.535156 52.136719 33.429688 52.308594 33.429688 C 52.480469 33.429688 52.636719 33.542969 52.6875 33.703125 L 53.875 37.324219 C 53.9375 37.511719 53.855469 37.722656 53.675781 37.808594 L 51.976562 38.671875 C 51.914062 38.714844 51.847656 38.726562 51.789062 38.726562 Z M 51.480469 37.648438 L 51.816406 37.855469 L 53.007812 37.25 L 52.308594 35.121094 Z M 51.480469 37.648438 " fill-opacity="1" fill-rule="nonzero"/><path fill="#000000" d="M 47.753906 45.359375 C 47.644531 45.359375 47.546875 45.320312 47.472656 45.238281 C 47.351562 45.117188 47.320312 44.929688 47.398438 44.773438 L 49.847656 39.851562 L 47.414062 35.960938 C 47.3125 35.800781 47.332031 35.59375 47.464844 35.464844 C 47.601562 35.328125 47.804688 35.308594 47.960938 35.410156 L 51.808594 37.863281 L 56.679688 35.390625 C 56.832031 35.308594 57.019531 35.34375 57.136719 35.464844 C 57.257812 35.585938 57.292969 35.773438 57.210938 35.929688 L 54.761719 40.851562 L 57.191406 44.742188 C 57.292969 44.902344 57.273438 45.113281 57.136719 45.238281 C 57.003906 45.375 56.796875 45.394531 56.644531 45.292969 L 52.796875 42.839844 L 47.925781 45.3125 C 47.875 45.347656 47.8125 45.359375 47.753906 45.359375 Z M 49.035156 37.042969 L 50.640625 39.609375 C 50.714844 39.730469 50.722656 39.878906 50.660156 40.007812 L 48.652344 44.046875 L 52.648438 42.015625 C 52.777344 41.957031 52.921875 41.964844 53.042969 42.039062 L 55.589844 43.660156 L 53.976562 41.085938 C 53.902344 40.964844 53.894531 40.816406 53.957031 40.6875 L 55.964844 36.652344 L 51.96875 38.679688 C 51.84375 38.742188 51.695312 38.734375 51.574219 38.660156 Z M 49.035156 37.042969 " fill-opacity="1" fill-rule="nonzero"/><path fill="#000000" d="M 52.308594 41.519531 C 51.675781 41.519531 51.15625 40.992188 51.15625 40.351562 C 51.15625 39.710938 51.675781 39.183594 52.308594 39.183594 C 52.941406 39.183594 53.460938 39.710938 53.460938 40.351562 C 53.460938 40.992188 52.941406 41.519531 52.308594 41.519531 Z M 52.308594 39.996094 C 52.117188 39.996094 51.957031 40.15625 51.957031 40.351562 C 51.957031 40.546875 52.117188 40.710938 52.308594 40.710938 C 52.503906 40.710938 52.664062 40.546875 52.664062 40.351562 C 52.664062 40.15625 52.503906 39.996094 52.308594 39.996094 Z M 52.308594 39.996094 " fill-opacity="1" fill-rule="nonzero"/><path fill="#000000" d="M 51.527344 29.074219 C 51.429688 29.074219 51.328125 29.03125 51.253906 28.964844 C 51.175781 28.890625 51.128906 28.78125 51.128906 28.667969 L 51.128906 25.878906 C 51.128906 25.390625 51.523438 24.992188 52.003906 24.992188 L 52.609375 24.992188 C 53.089844 24.992188 53.484375 25.390625 53.484375 25.878906 L 53.484375 28.667969 C 53.484375 28.78125 53.4375 28.882812 53.355469 28.964844 C 53.277344 29.039062 53.167969 29.078125 53.054688 29.074219 C 52.796875 29.050781 52.542969 29.046875 52.300781 29.046875 C 52.0625 29.046875 51.808594 29.050781 51.546875 29.074219 C 51.542969 29.074219 51.535156 29.074219 51.527344 29.074219 Z M 52.308594 28.238281 C 52.4375 28.238281 52.5625 28.238281 52.6875 28.242188 L 52.6875 25.878906 C 52.6875 25.835938 52.65625 25.804688 52.617188 25.804688 L 52.007812 25.804688 C 51.96875 25.804688 51.933594 25.835938 51.933594 25.878906 L 51.933594 28.242188 C 52.054688 28.238281 52.183594 28.238281 52.308594 28.238281 Z M 52.308594 28.238281 " fill-opacity="1" fill-rule="nonzero"/><g clip-path="url(#6680c6bbf5)"><path fill="#000000" d="M 53.082031 27.765625 C 53.003906 27.765625 52.921875 27.738281 52.855469 27.691406 C 52.75 27.617188 52.683594 27.488281 52.683594 27.359375 L 52.683594 25.878906 C 52.683594 25.835938 52.648438 25.804688 52.609375 25.804688 L 52.003906 25.804688 C 51.960938 25.804688 51.929688 25.835938 51.929688 25.878906 L 51.929688 27.367188 C 51.929688 27.5 51.863281 27.625 51.753906 27.699219 C 51.648438 27.773438 51.507812 27.792969 51.386719 27.746094 C 50.347656 27.359375 49.648438 26.34375 49.648438 25.222656 C 49.648438 23.738281 50.839844 22.53125 52.308594 22.53125 C 53.777344 22.53125 54.96875 23.738281 54.96875 25.222656 C 54.96875 26.34375 54.269531 27.359375 53.230469 27.746094 C 53.175781 27.757812 53.128906 27.765625 53.082031 27.765625 Z M 52.308594 23.34375 C 51.28125 23.34375 50.449219 24.183594 50.449219 25.222656 C 50.449219 25.796875 50.707031 26.320312 51.128906 26.671875 L 51.128906 25.878906 C 51.128906 25.390625 51.523438 24.992188 52.003906 24.992188 L 52.609375 24.992188 C 53.089844 24.992188 53.484375 25.390625 53.484375 25.878906 L 53.484375 26.671875 C 53.902344 26.320312 54.164062 25.789062 54.164062 25.222656 C 54.164062 24.183594 53.328125 23.34375 52.308594 23.34375 Z M 52.308594 23.34375 " fill-opacity="1" fill-rule="nonzero"/></g></svg>