<svg xmlns="http://www.w3.org/2000/svg" xmlns:xlink="http://www.w3.org/1999/xlink" width="140" zoomAndPan="magnify" viewBox="0 0 104.88 74.999997" height="100" preserveAspectRatio="xMidYMid meet" version="1.0"><defs><clipPath id="1c67db0a60"><path d="M 0 0.0429688 L 104.761719 0.0429688 L 104.761719 74.957031 L 0 74.957031 Z M 0 0.0429688 " clip-rule="nonzero"/></clipPath><clipPath id="1c67c27422"><path d="M 32.496094 42 L 72.199219 42 L 72.199219 52.484375 L 32.496094 52.484375 Z M 32.496094 42 " clip-rule="nonzero"/></clipPath><clipPath id="d7536c5bca"><path d="M 63 22.515625 L 65 22.515625 L 65 35 L 63 35 Z M 63 22.515625 " clip-rule="nonzero"/></clipPath><clipPath id="c17f4e3053"><path d="M 61 22.515625 L 65 22.515625 L 65 26 L 61 26 Z M 61 22.515625 " clip-rule="nonzero"/></clipPath><clipPath id="714ac9ba06"><path d="M 63 22.515625 L 67 22.515625 L 67 26 L 63 26 Z M 63 22.515625 " clip-rule="nonzero"/></clipPath></defs><g clip-path="url(#1c67db0a60)"><path fill="#ffffff" d="M 0 0.0429688 L 104.878906 0.0429688 L 104.878906 74.957031 L 0 74.957031 Z M 0 0.0429688 " fill-opacity="1" fill-rule="nonzero"/><path fill="#ffffff" d="M 0 0.0429688 L 104.878906 0.0429688 L 104.878906 74.957031 L 0 74.957031 Z M 0 0.0429688 " fill-opacity="1" fill-rule="nonzero"/></g><g clip-path="url(#1c67c27422)"><path fill="#000000" d="M 34.957031 52.484375 C 33.902344 52.484375 32.953125 51.726562 32.746094 50.65625 C 32.5 49.425781 33.296875 48.230469 34.523438 47.988281 C 34.96875 47.898438 35.464844 47.898438 35.890625 47.90625 C 36.023438 47.90625 36.148438 47.90625 36.273438 47.90625 C 37.320312 47.898438 38.359375 47.890625 39.425781 47.890625 C 42.558594 47.882812 45.730469 47.890625 48.710938 47.898438 C 52.476562 47.90625 57.441406 47.917969 62.414062 47.945312 C 62.785156 47.933594 63.53125 47.675781 64.027344 47.433594 C 65.519531 46.703125 66.859375 45.332031 67.898438 43.476562 C 68.191406 42.949219 68.679688 42.566406 69.257812 42.40625 C 69.84375 42.246094 70.449219 42.316406 70.972656 42.609375 C 71.496094 42.90625 71.878906 43.394531 72.039062 43.976562 C 72.199219 44.5625 72.125 45.167969 71.832031 45.695312 C 70.34375 48.363281 68.328125 50.371094 66.007812 51.5 C 65.441406 51.777344 63.957031 52.4375 62.519531 52.472656 C 62.5 52.472656 62.476562 52.472656 62.449219 52.472656 C 58.460938 52.457031 54.226562 52.4375 48.695312 52.429688 C 45.828125 52.421875 42.761719 52.421875 39.699219 52.421875 C 38.695312 52.421875 37.621094 52.429688 36.566406 52.4375 C 36.441406 52.4375 36.308594 52.4375 36.183594 52.4375 C 35.847656 52.4375 35.535156 52.4375 35.226562 52.457031 L 35.191406 51.921875 L 35.226562 52.457031 C 35.136719 52.472656 35.046875 52.484375 34.957031 52.484375 Z M 35.179688 51.929688 Z M 42.496094 51.351562 C 44.617188 51.351562 46.707031 51.351562 48.703125 51.359375 C 54.234375 51.367188 58.46875 51.386719 62.457031 51.402344 C 62.464844 51.402344 62.484375 51.402344 62.492188 51.402344 C 63.34375 51.386719 64.480469 51.054688 65.539062 50.539062 C 67.660156 49.496094 69.515625 47.640625 70.902344 45.167969 C 71.0625 44.894531 71.097656 44.570312 71.007812 44.261719 C 70.917969 43.949219 70.722656 43.6875 70.449219 43.539062 C 70.171875 43.386719 69.855469 43.339844 69.542969 43.429688 C 69.230469 43.519531 68.972656 43.714844 68.824219 43.992188 C 67.679688 46.042969 66.175781 47.558594 64.492188 48.390625 C 64.039062 48.613281 63.097656 48.996094 62.429688 49.003906 C 62.414062 49.003906 62.402344 49.003906 62.394531 49.003906 C 57.433594 48.976562 52.46875 48.96875 48.703125 48.960938 C 45.71875 48.953125 42.550781 48.953125 39.425781 48.953125 C 38.359375 48.953125 37.320312 48.960938 36.28125 48.96875 C 36.148438 48.96875 36.015625 48.96875 35.882812 48.96875 C 35.484375 48.96875 35.066406 48.960938 34.726562 49.03125 C 34.078125 49.164062 33.664062 49.796875 33.785156 50.441406 C 33.910156 51.046875 34.488281 51.464844 35.101562 51.394531 C 35.117188 51.394531 35.128906 51.394531 35.144531 51.394531 C 35.5 51.367188 35.847656 51.367188 36.183594 51.367188 C 36.308594 51.367188 36.433594 51.367188 36.558594 51.367188 C 37.621094 51.359375 38.695312 51.359375 39.699219 51.351562 C 40.632812 51.351562 41.566406 51.351562 42.496094 51.351562 Z M 42.496094 51.351562 " fill-opacity="1" fill-rule="nonzero"/></g><path fill="#000000" d="M 57.859375 44.742188 L 36.226562 44.742188 C 35.933594 44.742188 35.695312 44.5 35.695312 44.207031 L 35.695312 31.808594 C 35.695312 31.613281 35.800781 31.433594 35.972656 31.347656 C 36.140625 31.25 36.34375 31.257812 36.511719 31.363281 L 46.75 37.792969 C 46.820312 37.828125 46.882812 37.847656 46.972656 37.847656 L 57.832031 38.292969 C 57.847656 38.292969 57.859375 38.292969 57.867188 38.292969 C 58.160156 38.292969 58.398438 38.535156 58.398438 38.828125 L 58.398438 44.207031 C 58.390625 44.5 58.152344 44.742188 57.859375 44.742188 Z M 36.761719 43.671875 L 57.324219 43.671875 L 57.324219 39.355469 L 46.917969 38.925781 C 46.671875 38.917969 46.457031 38.855469 46.234375 38.738281 C 46.226562 38.730469 46.207031 38.730469 46.199219 38.722656 L 36.761719 32.773438 Z M 36.761719 43.671875 " fill-opacity="1" fill-rule="nonzero"/><path fill="#000000" d="M 38.5625 48.960938 C 38.421875 48.960938 38.289062 48.90625 38.191406 48.800781 C 38.09375 48.703125 38.03125 48.558594 38.03125 48.425781 L 38.03125 44.207031 C 38.03125 43.914062 38.269531 43.671875 38.5625 43.671875 L 41.699219 43.671875 C 41.992188 43.671875 42.230469 43.914062 42.230469 44.207031 L 42.230469 48.417969 C 42.230469 48.710938 41.992188 48.953125 41.699219 48.953125 C 40.941406 48.953125 40.1875 48.953125 39.433594 48.953125 C 39.140625 48.960938 38.847656 48.960938 38.5625 48.960938 Z M 39.097656 44.742188 L 39.097656 47.890625 C 39.203125 47.890625 39.316406 47.890625 39.425781 47.890625 C 40.003906 47.890625 40.578125 47.890625 41.164062 47.890625 L 41.164062 44.742188 Z M 39.097656 44.742188 " fill-opacity="1" fill-rule="nonzero"/><path fill="#000000" d="M 55.523438 48.976562 C 54.476562 48.976562 53.4375 48.96875 52.386719 48.96875 C 52.09375 48.96875 51.855469 48.726562 51.855469 48.433594 L 51.855469 44.207031 C 51.855469 43.914062 52.09375 43.671875 52.386719 43.671875 L 55.523438 43.671875 C 55.816406 43.671875 56.054688 43.914062 56.054688 44.207031 L 56.054688 48.441406 C 56.054688 48.585938 56.003906 48.71875 55.894531 48.816406 C 55.796875 48.925781 55.664062 48.976562 55.523438 48.976562 Z M 52.921875 47.898438 C 53.613281 47.898438 54.296875 47.898438 54.988281 47.90625 L 54.988281 44.742188 L 52.921875 44.742188 Z M 52.921875 47.898438 " fill-opacity="1" fill-rule="nonzero"/><path fill="#000000" d="M 57.859375 39.371094 C 57.832031 39.371094 57.804688 39.371094 57.777344 39.371094 L 46.917969 38.925781 C 46.671875 38.917969 46.457031 38.855469 46.234375 38.738281 C 46.226562 38.730469 46.207031 38.730469 46.199219 38.722656 L 35.445312 31.945312 C 35.074219 31.738281 34.800781 31.398438 34.675781 30.988281 C 34.550781 30.570312 34.585938 30.132812 34.789062 29.75 C 34.996094 29.367188 35.332031 29.082031 35.75 28.957031 C 36.167969 28.832031 36.601562 28.867188 36.984375 29.070312 C 36.992188 29.082031 37.007812 29.082031 37.019531 29.089844 L 47.453125 35.671875 L 57.929688 36.101562 C 58.824219 36.144531 59.519531 36.910156 59.472656 37.8125 C 59.4375 38.695312 58.71875 39.371094 57.859375 39.371094 Z M 46.75 37.792969 C 46.820312 37.828125 46.882812 37.847656 46.972656 37.847656 L 57.832031 38.292969 C 58.140625 38.3125 58.410156 38.070312 58.417969 37.765625 C 58.433594 37.457031 58.195312 37.195312 57.882812 37.179688 L 47.265625 36.742188 C 47.175781 36.742188 47.078125 36.707031 47.007812 36.660156 L 36.46875 30.015625 C 36.34375 29.953125 36.191406 29.945312 36.058594 29.980469 C 35.917969 30.027344 35.800781 30.125 35.730469 30.25 C 35.660156 30.375 35.652344 30.535156 35.695312 30.675781 C 35.738281 30.820312 35.835938 30.9375 35.960938 31.007812 C 35.972656 31.015625 35.988281 31.015625 35.996094 31.023438 Z M 46.75 37.792969 " fill-opacity="1" fill-rule="nonzero"/><path fill="#000000" d="M 41.023438 44.742188 C 40.96875 44.742188 40.917969 44.734375 40.863281 44.714844 C 40.578125 44.625 40.429688 44.332031 40.507812 44.046875 C 40.625 43.664062 40.6875 43.269531 40.6875 42.867188 C 40.6875 40.65625 38.890625 38.855469 36.691406 38.855469 C 36.546875 38.855469 36.414062 38.863281 36.273438 38.875 C 35.980469 38.898438 35.722656 38.6875 35.6875 38.390625 C 35.652344 38.097656 35.875 37.839844 36.167969 37.804688 C 36.34375 37.785156 36.511719 37.777344 36.691406 37.777344 C 39.476562 37.777344 41.75 40.058594 41.75 42.859375 C 41.75 43.367188 41.679688 43.867188 41.527344 44.347656 C 41.46875 44.589844 41.253906 44.742188 41.023438 44.742188 Z M 41.023438 44.742188 " fill-opacity="1" fill-rule="nonzero"/><path fill="#000000" d="M 54.164062 41.96875 L 46.128906 41.96875 C 45.835938 41.96875 45.597656 41.726562 45.597656 41.433594 C 45.597656 41.140625 45.835938 40.898438 46.128906 40.898438 L 54.164062 40.898438 C 54.457031 40.898438 54.695312 41.140625 54.695312 41.433594 C 54.695312 41.726562 54.457031 41.96875 54.164062 41.96875 Z M 54.164062 41.96875 " fill-opacity="1" fill-rule="nonzero"/><g clip-path="url(#d7536c5bca)"><path fill="#000000" d="M 64.160156 34.949219 C 63.867188 34.949219 63.628906 34.707031 63.628906 34.414062 L 63.628906 23.050781 C 63.628906 22.757812 63.867188 22.515625 64.160156 22.515625 C 64.453125 22.515625 64.695312 22.757812 64.695312 23.050781 L 64.695312 34.414062 C 64.695312 34.707031 64.453125 34.949219 64.160156 34.949219 Z M 64.160156 34.949219 " fill-opacity="1" fill-rule="nonzero"/></g><g clip-path="url(#c17f4e3053)"><path fill="#000000" d="M 64.199219 25.488281 C 64.0625 25.488281 63.941406 25.441406 63.832031 25.34375 L 62.011719 23.648438 C 61.800781 23.445312 61.78125 23.105469 61.988281 22.890625 C 62.191406 22.675781 62.527344 22.660156 62.742188 22.863281 L 64.5625 24.558594 C 64.773438 24.765625 64.792969 25.101562 64.589844 25.316406 C 64.480469 25.425781 64.339844 25.488281 64.199219 25.488281 Z M 64.199219 25.488281 " fill-opacity="1" fill-rule="nonzero"/></g><g clip-path="url(#714ac9ba06)"><path fill="#000000" d="M 64.199219 25.488281 C 64.054688 25.488281 63.914062 25.433594 63.808594 25.316406 C 63.601562 25.101562 63.621094 24.765625 63.832031 24.558594 L 65.652344 22.863281 C 65.867188 22.660156 66.203125 22.675781 66.410156 22.890625 C 66.613281 23.105469 66.59375 23.445312 66.382812 23.648438 L 64.5625 25.34375 C 64.464844 25.433594 64.332031 25.488281 64.199219 25.488281 Z M 64.199219 25.488281 " fill-opacity="1" fill-rule="nonzero"/></g><path fill="#000000" d="M 59.277344 32.070312 C 59.09375 32.070312 58.914062 31.96875 58.816406 31.800781 C 58.664062 31.542969 58.753906 31.222656 59.011719 31.070312 L 68.816406 25.390625 C 69.070312 25.238281 69.390625 25.328125 69.542969 25.585938 C 69.695312 25.84375 69.605469 26.164062 69.347656 26.316406 L 59.554688 31.996094 C 59.464844 32.050781 59.375 32.070312 59.277344 32.070312 Z M 59.277344 32.070312 " fill-opacity="1" fill-rule="nonzero"/><path fill="#000000" d="M 67.464844 27.378906 C 67.429688 27.378906 67.386719 27.378906 67.351562 27.359375 C 67.066406 27.296875 66.886719 27.003906 66.949219 26.71875 L 67.507812 24.292969 C 67.570312 24.007812 67.863281 23.828125 68.148438 23.890625 C 68.433594 23.953125 68.609375 24.246094 68.546875 24.53125 L 67.988281 26.957031 C 67.925781 27.207031 67.703125 27.378906 67.464844 27.378906 Z M 67.464844 27.378906 " fill-opacity="1" fill-rule="nonzero"/><path fill="#000000" d="M 69.117188 32.070312 C 69.027344 32.070312 68.9375 32.042969 68.851562 31.996094 L 59.054688 26.316406 C 58.800781 26.164062 58.710938 25.84375 58.859375 25.585938 C 59.011719 25.328125 59.332031 25.238281 59.589844 25.390625 L 69.382812 31.070312 C 69.640625 31.222656 69.730469 31.542969 69.578125 31.800781 C 69.480469 31.980469 69.304688 32.070312 69.117188 32.070312 Z M 69.117188 32.070312 " fill-opacity="1" fill-rule="nonzero"/><path fill="#000000" d="M 60.9375 27.378906 C 60.699219 27.378906 60.476562 27.207031 60.425781 26.957031 L 59.863281 24.53125 C 59.800781 24.246094 59.980469 23.960938 60.265625 23.890625 C 60.546875 23.828125 60.839844 24.007812 60.902344 24.292969 L 61.460938 26.71875 C 61.523438 27.003906 61.347656 27.289062 61.0625 27.359375 C 61.019531 27.367188 60.972656 27.378906 60.9375 27.378906 Z M 60.9375 27.378906 " fill-opacity="1" fill-rule="nonzero"/><path fill="#000000" d="M 69.835938 28.109375 C 69.78125 28.109375 69.730469 28.101562 69.675781 28.082031 L 67.304688 27.351562 C 67.019531 27.261719 66.871094 26.96875 66.949219 26.683594 C 67.039062 26.398438 67.332031 26.246094 67.617188 26.324219 L 69.988281 27.054688 C 70.269531 27.144531 70.421875 27.441406 70.34375 27.726562 C 70.269531 27.957031 70.066406 28.109375 69.835938 28.109375 Z M 69.835938 28.109375 " fill-opacity="1" fill-rule="nonzero"/><path fill="#000000" d="M 60.9375 31.160156 C 60.886719 31.160156 60.832031 31.148438 60.777344 31.132812 L 58.410156 30.402344 C 58.125 30.3125 57.972656 30.015625 58.054688 29.730469 C 58.140625 29.445312 58.433594 29.296875 58.71875 29.375 L 61.089844 30.105469 C 61.375 30.195312 61.523438 30.488281 61.445312 30.777344 C 61.375 31.007812 61.167969 31.160156 60.9375 31.160156 Z M 60.9375 31.160156 " fill-opacity="1" fill-rule="nonzero"/><path fill="#000000" d="M 67.464844 31.160156 C 67.234375 31.160156 67.03125 31.007812 66.957031 30.785156 C 66.871094 30.5 67.03125 30.203125 67.3125 30.117188 L 69.683594 29.382812 C 69.96875 29.296875 70.261719 29.457031 70.351562 29.742188 C 70.441406 30.027344 70.28125 30.320312 69.996094 30.410156 L 67.625 31.140625 C 67.5625 31.148438 67.507812 31.160156 67.464844 31.160156 Z M 67.464844 31.160156 " fill-opacity="1" fill-rule="nonzero"/><path fill="#000000" d="M 58.566406 28.109375 C 58.335938 28.109375 58.132812 27.957031 58.0625 27.734375 C 57.972656 27.449219 58.132812 27.15625 58.417969 27.066406 L 60.789062 26.335938 C 61.070312 26.246094 61.363281 26.40625 61.453125 26.691406 C 61.542969 26.976562 61.382812 27.269531 61.097656 27.359375 L 58.726562 28.089844 C 58.664062 28.101562 58.621094 28.109375 58.566406 28.109375 Z M 58.566406 28.109375 " fill-opacity="1" fill-rule="nonzero"/><path fill="#000000" d="M 62.386719 34.746094 C 62.242188 34.746094 62.101562 34.691406 61.996094 34.574219 C 61.792969 34.359375 61.808594 34.023438 62.023438 33.816406 L 63.84375 32.121094 C 64.054688 31.917969 64.394531 31.933594 64.597656 32.148438 C 64.800781 32.363281 64.785156 32.703125 64.570312 32.90625 L 62.75 34.601562 C 62.644531 34.699219 62.511719 34.746094 62.386719 34.746094 Z M 62.386719 34.746094 " fill-opacity="1" fill-rule="nonzero"/><path fill="#000000" d="M 66.019531 34.746094 C 65.882812 34.746094 65.761719 34.699219 65.652344 34.601562 L 63.832031 32.90625 C 63.621094 32.703125 63.601562 32.363281 63.808594 32.148438 C 64.011719 31.933594 64.347656 31.917969 64.5625 32.121094 L 66.382812 33.816406 C 66.59375 34.023438 66.613281 34.359375 66.410156 34.574219 C 66.300781 34.691406 66.160156 34.746094 66.019531 34.746094 Z M 66.019531 34.746094 " fill-opacity="1" fill-rule="nonzero"/><path fill="#000000" d="M 60.378906 33.585938 C 60.34375 33.585938 60.300781 33.585938 60.265625 33.566406 C 59.980469 33.503906 59.800781 33.210938 59.863281 32.925781 L 60.425781 30.5 C 60.484375 30.214844 60.777344 30.035156 61.0625 30.097656 C 61.347656 30.160156 61.523438 30.453125 61.460938 30.738281 L 60.902344 33.164062 C 60.839844 33.414062 60.628906 33.585938 60.378906 33.585938 Z M 60.378906 33.585938 " fill-opacity="1" fill-rule="nonzero"/><path fill="#000000" d="M 68.015625 33.585938 C 67.777344 33.585938 67.554688 33.414062 67.5 33.164062 L 66.941406 30.738281 C 66.878906 30.453125 67.054688 30.167969 67.339844 30.097656 C 67.625 30.035156 67.910156 30.214844 67.980469 30.5 L 68.539062 32.925781 C 68.601562 33.210938 68.425781 33.496094 68.140625 33.566406 C 68.09375 33.585938 68.058594 33.585938 68.015625 33.585938 Z M 68.015625 33.585938 " fill-opacity="1" fill-rule="nonzero"/></svg>