<svg xmlns="http://www.w3.org/2000/svg" xmlns:xlink="http://www.w3.org/1999/xlink" width="140" zoomAndPan="magnify" viewBox="0 0 104.88 74.999997" height="100" preserveAspectRatio="xMidYMid meet" version="1.0"><defs><clipPath id="70b1b4043c"><path d="M 0 0.0429688 L 104.761719 0.0429688 L 104.761719 74.957031 L 0 74.957031 Z M 0 0.0429688 " clip-rule="nonzero"/></clipPath><clipPath id="a0dd3c0506"><path d="M 37.457031 22.515625 L 67.421875 22.515625 L 67.421875 52.484375 L 37.457031 52.484375 Z M 37.457031 22.515625 " clip-rule="nonzero"/></clipPath></defs><g clip-path="url(#70b1b4043c)"><path fill="#ffffff" d="M 0 0.0429688 L 104.878906 0.0429688 L 104.878906 74.957031 L 0 74.957031 Z M 0 0.0429688 " fill-opacity="1" fill-rule="nonzero"/><path fill="#ffffff" d="M 0 0.0429688 L 104.878906 0.0429688 L 104.878906 74.957031 L 0 74.957031 Z M 0 0.0429688 " fill-opacity="1" fill-rule="nonzero"/></g><g clip-path="url(#a0dd3c0506)"><path fill="#000000" d="M 67.296875 35.203125 C 67.152344 34.988281 66.925781 34.863281 66.667969 34.867188 C 65.707031 34.878906 64.859375 35.386719 64.398438 36.234375 L 63.613281 37.671875 L 63.613281 31.269531 C 63.613281 30.605469 63.070312 30.066406 62.40625 30.066406 C 62.246094 30.066406 62.089844 30.097656 61.945312 30.15625 L 61.945312 29.816406 C 61.945312 29.152344 61.40625 28.613281 60.742188 28.613281 C 60.074219 28.613281 59.570312 29.121094 59.539062 29.757812 C 59.394531 29.695312 59.238281 29.664062 59.074219 29.664062 C 58.410156 29.664062 57.867188 30.203125 57.867188 30.871094 L 57.867188 32.023438 C 57.726562 31.964844 57.570312 31.933594 57.40625 31.933594 C 56.742188 31.933594 56.203125 32.472656 56.203125 33.140625 L 56.203125 36.859375 C 55.300781 35.863281 53.378906 35.507812 51.386719 36.023438 C 49.882812 36.410156 48.640625 37.230469 48.019531 38.1875 C 47.398438 37.230469 46.152344 36.410156 44.652344 36.023438 C 42.421875 35.445312 40.277344 35.957031 39.558594 37.246094 C 39.523438 37.304688 39.496094 37.363281 39.472656 37.421875 L 39.003906 37.421875 C 38.152344 37.421875 37.457031 38.117188 37.457031 38.96875 L 37.457031 49.429688 C 37.457031 49.96875 37.71875 50.445312 38.171875 50.734375 C 38.625 51.023438 39.164062 51.058594 39.652344 50.835938 C 40.65625 50.371094 41.558594 50.136719 42.671875 50.054688 C 44.625 49.914062 45.671875 50.628906 46.925781 52 C 47.210938 52.316406 47.589844 52.484375 48.019531 52.484375 C 48.445312 52.484375 48.824219 52.316406 49.113281 52 C 50.363281 50.628906 51.410156 49.914062 53.363281 50.054688 C 54.394531 50.132812 55.25 50.339844 56.171875 50.738281 L 56.171875 52.109375 C 56.171875 52.316406 56.335938 52.484375 56.542969 52.484375 L 63.847656 52.484375 C 64.050781 52.484375 64.21875 52.316406 64.21875 52.109375 L 64.21875 47.515625 C 64.21875 47.308594 64.050781 47.140625 63.847656 47.140625 L 63.386719 47.140625 L 63.386719 45.722656 C 63.386719 45.515625 63.21875 45.347656 63.015625 45.347656 L 62.800781 45.347656 L 62.800781 44.289062 C 63.5 43.855469 64.214844 43.296875 64.535156 42.449219 L 67.359375 35.914062 C 67.460938 35.675781 67.4375 35.417969 67.292969 35.203125 Z M 51.570312 36.746094 C 53.449219 36.257812 55.28125 36.628906 55.828125 37.609375 C 55.898438 37.738281 55.929688 37.855469 55.929688 38 L 55.929688 46.472656 C 55.929688 46.742188 55.816406 46.964844 55.597656 47.121094 C 55.378906 47.277344 55.128906 47.316406 54.875 47.234375 C 53.871094 46.898438 52.632812 46.890625 51.386719 47.214844 C 50.269531 47.503906 49.273438 48.03125 48.574219 48.703125 C 48.519531 48.757812 48.457031 48.804688 48.390625 48.835938 L 48.390625 39.152344 C 48.390625 39.148438 48.390625 39.144531 48.390625 39.140625 C 48.664062 38.144531 49.960938 37.160156 51.574219 36.746094 Z M 40.105469 38 C 40.105469 37.855469 40.136719 37.734375 40.207031 37.609375 C 40.757812 36.628906 42.585938 36.257812 44.464844 36.746094 C 46.078125 37.160156 47.375 38.144531 47.648438 39.140625 C 47.648438 39.144531 47.648438 39.148438 47.648438 39.152344 L 47.648438 48.835938 C 47.582031 48.804688 47.519531 48.757812 47.460938 48.703125 C 46.765625 48.03125 45.769531 47.503906 44.652344 47.214844 C 44.042969 47.054688 43.433594 46.976562 42.851562 46.976562 C 42.273438 46.976562 41.675781 47.0625 41.164062 47.234375 C 40.90625 47.316406 40.660156 47.277344 40.441406 47.121094 C 40.222656 46.964844 40.109375 46.742188 40.109375 46.472656 L 40.109375 38 Z M 48.5625 51.496094 C 48.414062 51.660156 48.238281 51.738281 48.019531 51.738281 C 47.800781 51.738281 47.625 51.660156 47.476562 51.496094 C 46.332031 50.242188 45.097656 49.128906 42.617188 49.3125 C 41.425781 49.402344 40.414062 49.660156 39.339844 50.160156 C 39.078125 50.277344 38.8125 50.261719 38.574219 50.105469 C 38.332031 49.949219 38.203125 49.71875 38.203125 49.429688 L 38.203125 38.96875 C 38.203125 38.527344 38.5625 38.167969 39.003906 38.167969 L 39.359375 38.167969 L 39.359375 46.472656 C 39.359375 46.984375 39.589844 47.429688 40.003906 47.726562 C 40.417969 48.027344 40.914062 48.101562 41.398438 47.941406 C 42.257812 47.652344 43.375 47.652344 44.464844 47.933594 C 45.457031 48.191406 46.339844 48.65625 46.945312 49.242188 C 47.246094 49.53125 47.632812 49.679688 48.019531 49.679688 C 48.40625 49.679688 48.792969 49.53125 49.09375 49.242188 C 49.699219 48.65625 50.578125 48.191406 51.570312 47.933594 C 52.664062 47.652344 53.78125 47.652344 54.640625 47.941406 C 55.125 48.101562 55.621094 48.027344 56.035156 47.726562 C 56.449219 47.429688 56.675781 46.984375 56.675781 46.472656 L 56.675781 38.167969 L 57.035156 38.167969 C 57.476562 38.167969 57.835938 38.527344 57.835938 38.96875 L 57.835938 49.429688 C 57.835938 49.71875 57.707031 49.949219 57.464844 50.105469 C 57.222656 50.261719 56.957031 50.277344 56.699219 50.160156 C 55.621094 49.660156 54.609375 49.402344 53.421875 49.3125 C 50.941406 49.128906 49.707031 50.242188 48.5625 51.496094 Z M 63.472656 51.738281 L 56.917969 51.738281 L 56.917969 50.976562 C 57.246094 51.003906 57.574219 50.921875 57.867188 50.734375 C 58.320312 50.441406 58.578125 49.96875 58.578125 49.429688 L 58.578125 47.886719 L 63.472656 47.886719 Z M 58.582031 47.140625 L 58.582031 46.09375 L 62.644531 46.09375 L 62.644531 47.140625 Z M 66.675781 35.617188 L 63.847656 42.160156 C 63.84375 42.167969 63.84375 42.171875 63.839844 42.179688 C 63.578125 42.886719 62.882812 43.375 62.238281 43.761719 C 62.125 43.828125 62.054688 43.949219 62.054688 44.082031 L 62.054688 45.351562 L 58.582031 45.351562 L 58.582031 38.96875 C 58.582031 38.117188 57.886719 37.421875 57.035156 37.421875 L 56.949219 37.421875 L 56.949219 33.140625 C 56.949219 32.886719 57.15625 32.679688 57.40625 32.679688 C 57.617188 32.679688 57.804688 32.828125 57.855469 33.03125 C 57.859375 33.046875 57.863281 33.058594 57.867188 33.074219 L 57.867188 36.890625 C 57.867188 37.09375 58.035156 37.261719 58.242188 37.261719 C 58.445312 37.261719 58.613281 37.09375 58.613281 36.890625 L 58.613281 30.871094 C 58.613281 30.617188 58.820312 30.410156 59.074219 30.410156 C 59.28125 30.410156 59.460938 30.546875 59.519531 30.75 C 59.523438 30.765625 59.527344 30.78125 59.535156 30.792969 L 59.535156 35.835938 C 59.535156 36.042969 59.703125 36.210938 59.90625 36.210938 C 60.113281 36.210938 60.28125 36.042969 60.28125 35.835938 L 60.28125 29.816406 C 60.28125 29.566406 60.488281 29.359375 60.742188 29.359375 C 60.992188 29.359375 61.199219 29.566406 61.199219 29.816406 L 61.199219 35.835938 C 61.199219 36.042969 61.367188 36.210938 61.574219 36.210938 C 61.777344 36.210938 61.945312 36.042969 61.945312 35.835938 L 61.945312 31.195312 C 61.953125 31.183594 61.957031 31.167969 61.960938 31.152344 C 62.015625 30.949219 62.199219 30.8125 62.40625 30.8125 C 62.660156 30.8125 62.867188 31.015625 62.867188 31.269531 L 62.867188 38.171875 C 61.476562 38.554688 60.703125 39.425781 60.292969 41.035156 C 60.242188 41.234375 60.363281 41.4375 60.5625 41.488281 C 60.761719 41.539062 60.964844 41.417969 61.015625 41.21875 C 61.4375 39.566406 62.191406 39.082031 63.277344 38.835938 C 63.6875 38.742188 64.007812 38.5 64.210938 38.132812 L 65.054688 36.589844 C 65.386719 35.980469 65.976562 35.625 66.675781 35.617188 Z M 41.359375 39.230469 C 41.308594 39.03125 41.429688 38.828125 41.628906 38.777344 C 42.570312 38.542969 43.6875 38.574219 44.785156 38.855469 C 45.28125 38.984375 45.757812 39.160156 46.199219 39.382812 C 46.382812 39.472656 46.457031 39.699219 46.367188 39.882812 C 46.300781 40.011719 46.167969 40.089844 46.03125 40.089844 C 45.976562 40.089844 45.921875 40.078125 45.867188 40.050781 C 45.472656 39.851562 45.046875 39.695312 44.597656 39.578125 C 43.621094 39.324219 42.632812 39.296875 41.808594 39.5 C 41.609375 39.550781 41.40625 39.429688 41.359375 39.230469 Z M 41.359375 41.160156 C 41.308594 40.960938 41.429688 40.757812 41.628906 40.710938 C 42.570312 40.476562 43.6875 40.503906 44.785156 40.789062 C 45.28125 40.917969 45.757812 41.09375 46.199219 41.3125 C 46.382812 41.40625 46.457031 41.628906 46.367188 41.816406 C 46.300781 41.945312 46.167969 42.019531 46.03125 42.019531 C 45.976562 42.019531 45.921875 42.007812 45.867188 41.980469 C 45.472656 41.785156 45.046875 41.625 44.597656 41.511719 C 43.621094 41.257812 42.632812 41.230469 41.8125 41.433594 C 41.609375 41.484375 41.410156 41.363281 41.359375 41.160156 Z M 46.367188 43.746094 C 46.300781 43.878906 46.167969 43.953125 46.03125 43.953125 C 45.976562 43.953125 45.917969 43.941406 45.867188 43.914062 C 45.472656 43.71875 45.046875 43.558594 44.597656 43.441406 C 43.621094 43.191406 42.632812 43.164062 41.8125 43.367188 C 41.609375 43.414062 41.410156 43.292969 41.359375 43.09375 C 41.308594 42.894531 41.429688 42.691406 41.632812 42.640625 C 42.570312 42.410156 43.691406 42.4375 44.785156 42.71875 C 45.285156 42.851562 45.761719 43.027344 46.199219 43.246094 C 46.382812 43.339844 46.460938 43.5625 46.367188 43.746094 Z M 41.359375 45.027344 C 41.308594 44.824219 41.429688 44.625 41.628906 44.574219 C 42.570312 44.339844 43.6875 44.367188 44.785156 44.652344 C 45.285156 44.78125 45.757812 44.960938 46.199219 45.179688 C 46.382812 45.269531 46.457031 45.496094 46.367188 45.679688 C 46.300781 45.808594 46.167969 45.886719 46.03125 45.886719 C 45.976562 45.886719 45.921875 45.871094 45.867188 45.847656 C 45.472656 45.648438 45.046875 45.492188 44.597656 45.375 C 43.621094 45.121094 42.632812 45.09375 41.8125 45.296875 C 41.609375 45.347656 41.410156 45.226562 41.359375 45.027344 Z M 49.671875 39.882812 C 49.578125 39.699219 49.652344 39.472656 49.839844 39.382812 C 50.277344 39.164062 50.753906 38.984375 51.253906 38.855469 C 52.347656 38.574219 53.46875 38.542969 54.40625 38.777344 C 54.609375 38.828125 54.730469 39.03125 54.679688 39.230469 C 54.628906 39.429688 54.429688 39.550781 54.226562 39.5 C 53.40625 39.296875 52.417969 39.324219 51.441406 39.578125 C 50.992188 39.695312 50.566406 39.855469 50.171875 40.050781 C 50.117188 40.078125 50.0625 40.089844 50.003906 40.089844 C 49.867188 40.089844 49.738281 40.011719 49.671875 39.882812 Z M 49.671875 41.816406 C 49.578125 41.628906 49.652344 41.40625 49.839844 41.3125 C 50.277344 41.09375 50.753906 40.917969 51.253906 40.789062 C 52.347656 40.503906 53.46875 40.476562 54.40625 40.710938 C 54.605469 40.757812 54.730469 40.960938 54.679688 41.160156 C 54.628906 41.363281 54.425781 41.484375 54.226562 41.433594 C 53.40625 41.230469 52.417969 41.257812 51.441406 41.511719 C 50.992188 41.628906 50.566406 41.785156 50.171875 41.980469 C 50.117188 42.007812 50.0625 42.023438 50.003906 42.023438 C 49.867188 42.023438 49.738281 41.945312 49.671875 41.816406 Z M 49.671875 43.746094 C 49.578125 43.5625 49.652344 43.339844 49.839844 43.246094 C 50.277344 43.027344 50.753906 42.851562 51.253906 42.71875 C 52.347656 42.4375 53.46875 42.410156 54.40625 42.640625 C 54.609375 42.691406 54.730469 42.894531 54.679688 43.09375 C 54.628906 43.292969 54.429688 43.414062 54.226562 43.367188 C 53.40625 43.164062 52.417969 43.191406 51.441406 43.441406 C 50.992188 43.558594 50.566406 43.71875 50.171875 43.914062 C 50.121094 43.941406 50.0625 43.953125 50.007812 43.953125 C 49.871094 43.953125 49.738281 43.878906 49.671875 43.746094 Z M 54.679688 45.027344 C 54.628906 45.226562 54.425781 45.347656 54.226562 45.296875 C 53.40625 45.09375 52.417969 45.121094 51.441406 45.375 C 50.992188 45.492188 50.566406 45.648438 50.171875 45.847656 C 50.117188 45.871094 50.0625 45.886719 50.003906 45.886719 C 49.867188 45.886719 49.734375 45.808594 49.671875 45.679688 C 49.578125 45.496094 49.652344 45.269531 49.839844 45.179688 C 50.277344 44.960938 50.753906 44.78125 51.253906 44.652344 C 52.347656 44.367188 53.46875 44.339844 54.40625 44.574219 C 54.605469 44.625 54.730469 44.824219 54.679688 45.027344 Z M 42.195312 30.03125 L 43.210938 30.1875 C 43.300781 30.457031 43.40625 30.722656 43.539062 30.972656 L 42.929688 31.800781 C 42.820312 31.949219 42.835938 32.15625 42.964844 32.285156 L 44.386719 33.710938 C 44.519531 33.839844 44.726562 33.855469 44.875 33.746094 L 45.703125 33.136719 C 45.953125 33.265625 46.21875 33.375 46.488281 33.460938 L 46.644531 34.480469 C 46.671875 34.660156 46.828125 34.796875 47.011719 34.796875 L 49.023438 34.796875 C 49.207031 34.796875 49.363281 34.660156 49.394531 34.480469 L 49.546875 33.460938 C 49.820312 33.375 50.082031 33.265625 50.335938 33.136719 L 51.164062 33.746094 C 51.3125 33.855469 51.515625 33.839844 51.648438 33.710938 L 53.070312 32.285156 C 53.203125 32.15625 53.21875 31.949219 53.109375 31.800781 L 52.496094 30.972656 C 52.628906 30.722656 52.738281 30.457031 52.824219 30.1875 L 53.839844 30.03125 C 54.023438 30.003906 54.15625 29.847656 54.15625 29.664062 L 54.15625 27.652344 C 54.15625 27.46875 54.023438 27.308594 53.839844 27.28125 L 52.824219 27.128906 C 52.738281 26.855469 52.628906 26.59375 52.496094 26.339844 L 53.109375 25.511719 C 53.21875 25.363281 53.203125 25.15625 53.070312 25.027344 L 51.648438 23.605469 C 51.515625 23.472656 51.3125 23.457031 51.164062 23.566406 L 50.335938 24.175781 C 50.082031 24.046875 49.820312 23.9375 49.546875 23.851562 L 49.394531 22.835938 C 49.363281 22.652344 49.207031 22.519531 49.023438 22.519531 L 47.011719 22.519531 C 46.828125 22.519531 46.671875 22.652344 46.644531 22.835938 L 46.488281 23.851562 C 46.21875 23.9375 45.953125 24.046875 45.703125 24.175781 L 44.875 23.566406 C 44.726562 23.457031 44.519531 23.472656 44.386719 23.605469 L 42.964844 25.027344 C 42.835938 25.15625 42.820312 25.363281 42.929688 25.511719 L 43.539062 26.339844 C 43.40625 26.59375 43.296875 26.855469 43.210938 27.128906 L 42.195312 27.28125 C 42.011719 27.308594 41.878906 27.46875 41.878906 27.652344 L 41.878906 29.664062 C 41.878906 29.847656 42.011719 30.003906 42.195312 30.03125 Z M 42.625 27.972656 L 43.558594 27.828125 C 43.707031 27.804688 43.828125 27.699219 43.863281 27.554688 C 43.960938 27.1875 44.109375 26.832031 44.300781 26.5 C 44.378906 26.371094 44.367188 26.210938 44.28125 26.089844 L 43.71875 25.328125 L 44.691406 24.359375 L 45.453125 24.917969 C 45.574219 25.007812 45.734375 25.015625 45.859375 24.941406 C 46.191406 24.746094 46.546875 24.601562 46.917969 24.503906 C 47.0625 24.464844 47.167969 24.34375 47.191406 24.199219 L 47.332031 23.261719 L 48.703125 23.261719 L 48.847656 24.199219 C 48.871094 24.34375 48.976562 24.464844 49.121094 24.503906 C 49.492188 24.601562 49.84375 24.746094 50.175781 24.941406 C 50.304688 25.015625 50.464844 25.007812 50.585938 24.917969 L 51.347656 24.359375 L 52.316406 25.328125 L 51.757812 26.089844 C 51.667969 26.210938 51.660156 26.371094 51.734375 26.5 C 51.929688 26.828125 52.074219 27.183594 52.171875 27.554688 C 52.210938 27.699219 52.332031 27.804688 52.476562 27.828125 L 53.414062 27.972656 L 53.414062 29.34375 L 52.476562 29.484375 C 52.332031 29.507812 52.210938 29.613281 52.171875 29.757812 C 52.074219 30.128906 51.929688 30.484375 51.734375 30.816406 C 51.660156 30.945312 51.667969 31.105469 51.757812 31.222656 L 52.316406 31.984375 L 51.347656 32.957031 L 50.585938 32.394531 C 50.464844 32.308594 50.304688 32.300781 50.175781 32.375 C 49.847656 32.566406 49.492188 32.714844 49.121094 32.8125 C 48.976562 32.847656 48.871094 32.96875 48.847656 33.117188 L 48.703125 34.050781 L 47.332031 34.050781 L 47.191406 33.117188 C 47.167969 32.96875 47.0625 32.847656 46.917969 32.8125 C 46.546875 32.714844 46.191406 32.566406 45.859375 32.375 C 45.734375 32.300781 45.570312 32.308594 45.453125 32.394531 L 44.691406 32.957031 L 43.71875 31.984375 L 44.28125 31.222656 C 44.371094 31.101562 44.378906 30.941406 44.300781 30.816406 C 44.109375 30.484375 43.960938 30.128906 43.863281 29.757812 C 43.828125 29.613281 43.707031 29.507812 43.558594 29.484375 L 42.625 29.34375 Z M 48.019531 32.027344 C 49.875 32.027344 51.390625 30.515625 51.390625 28.65625 C 51.390625 26.796875 49.875 25.285156 48.019531 25.285156 C 46.160156 25.285156 44.648438 26.796875 44.648438 28.65625 C 44.648438 30.515625 46.160156 32.027344 48.019531 32.027344 Z M 48.019531 26.03125 C 49.464844 26.03125 50.644531 27.210938 50.644531 28.65625 C 50.644531 30.105469 49.464844 31.28125 48.019531 31.28125 C 46.570312 31.28125 45.394531 30.105469 45.394531 28.65625 C 45.394531 27.210938 46.570312 26.03125 48.019531 26.03125 Z M 48.019531 26.03125 " fill-opacity="1" fill-rule="nonzero"/></g></svg>