<svg xmlns="http://www.w3.org/2000/svg" xmlns:xlink="http://www.w3.org/1999/xlink" width="140" zoomAndPan="magnify" viewBox="0 0 104.88 74.999997" height="100" preserveAspectRatio="xMidYMid meet" version="1.0"><defs><clipPath id="f6086aece2"><path d="M 0 0.0429688 L 104.761719 0.0429688 L 104.761719 74.957031 L 0 74.957031 Z M 0 0.0429688 " clip-rule="nonzero"/></clipPath><clipPath id="b1a6b7c00f"><path d="M 47 33 L 60 33 L 60 52.484375 L 47 52.484375 Z M 47 33 " clip-rule="nonzero"/></clipPath><clipPath id="4c5b3a5dee"><path d="M 43 42 L 52 42 L 52 52.484375 L 43 52.484375 Z M 43 42 " clip-rule="nonzero"/></clipPath><clipPath id="c96499a8c1"><path d="M 58 39 L 62 39 L 62 52.484375 L 58 52.484375 Z M 58 39 " clip-rule="nonzero"/></clipPath><clipPath id="f7085e04f1"><path d="M 33.652344 25 L 45 25 L 45 42 L 33.652344 42 Z M 33.652344 25 " clip-rule="nonzero"/></clipPath><clipPath id="8b4926a22c"><path d="M 38 41 L 40 41 L 40 52.484375 L 38 52.484375 Z M 38 41 " clip-rule="nonzero"/></clipPath><clipPath id="96349c7021"><path d="M 60 25 L 71.109375 25 L 71.109375 42 L 60 42 Z M 60 25 " clip-rule="nonzero"/></clipPath><clipPath id="72bc7c9161"><path d="M 65 41 L 67 41 L 67 52.484375 L 65 52.484375 Z M 65 41 " clip-rule="nonzero"/></clipPath><clipPath id="fe4cac22b1"><path d="M 34 51 L 70 51 L 70 52.484375 L 34 52.484375 Z M 34 51 " clip-rule="nonzero"/></clipPath><clipPath id="420087fd47"><path d="M 45 22.515625 L 60 22.515625 L 60 31 L 45 31 Z M 45 22.515625 " clip-rule="nonzero"/></clipPath></defs><g clip-path="url(#f6086aece2)"><path fill="#ffffff" d="M 0 0.0429688 L 104.878906 0.0429688 L 104.878906 74.957031 L 0 74.957031 Z M 0 0.0429688 " fill-opacity="1" fill-rule="nonzero"/><path fill="#ffffff" d="M 0 0.0429688 L 104.878906 0.0429688 L 104.878906 74.957031 L 0 74.957031 Z M 0 0.0429688 " fill-opacity="1" fill-rule="nonzero"/></g><path fill="#000000" d="M 53.976562 34.179688 C 52.726562 34.179688 51.699219 33.160156 51.699219 31.898438 C 51.699219 30.632812 52.71875 29.613281 53.976562 29.613281 C 55.234375 29.613281 56.25 30.632812 56.25 31.898438 C 56.25 33.160156 55.226562 34.179688 53.976562 34.179688 Z M 53.976562 30.503906 C 53.207031 30.503906 52.578125 31.132812 52.578125 31.902344 C 52.578125 32.675781 53.207031 33.304688 53.976562 33.304688 C 54.746094 33.304688 55.375 32.675781 55.375 31.902344 C 55.375 31.132812 54.746094 30.503906 53.976562 30.503906 Z M 53.976562 30.503906 " fill-opacity="1" fill-rule="nonzero"/><g clip-path="url(#b1a6b7c00f)"><path fill="#000000" d="M 55.03125 52.453125 L 53.480469 52.453125 C 53.070312 52.453125 52.675781 52.277344 52.402344 51.96875 C 52.132812 51.660156 52.007812 51.25 52.058594 50.839844 L 52.652344 46.125 C 52.652344 46.105469 52.644531 46.082031 52.628906 46.066406 L 48.980469 43.265625 C 48.765625 43.101562 48.578125 42.90625 48.417969 42.691406 C 47.890625 41.980469 47.726562 41.046875 47.976562 40.195312 L 49.359375 35.472656 C 49.550781 34.816406 49.96875 34.273438 50.523438 33.945312 C 51.152344 33.570312 51.863281 33.503906 52.519531 33.769531 C 53.28125 34.070312 53.886719 34.78125 54.144531 35.660156 C 54.269531 36.078125 54.460938 36.511719 54.722656 36.9375 L 55.453125 38.15625 L 58.09375 37.570312 C 58.761719 37.421875 59.425781 37.804688 59.652344 38.421875 C 59.785156 38.78125 59.761719 39.183594 59.585938 39.523438 C 59.410156 39.859375 59.097656 40.117188 58.722656 40.210938 L 55.527344 41.039062 C 54.832031 41.222656 54.085938 40.945312 53.667969 40.351562 L 53.363281 39.902344 L 52.921875 41.972656 L 55.445312 44.878906 C 55.671875 45.144531 55.78125 45.496094 55.746094 45.839844 L 55.320312 49.796875 L 55.328125 49.796875 C 55.621094 49.871094 55.886719 50.039062 56.070312 50.273438 C 56.25 50.507812 56.355469 50.800781 56.355469 51.101562 C 56.375 51.851562 55.769531 52.453125 55.03125 52.453125 Z M 51.707031 34.488281 C 51.460938 34.488281 51.21875 34.5625 50.976562 34.699219 C 50.609375 34.921875 50.332031 35.28125 50.207031 35.71875 L 48.824219 40.445312 C 48.648438 41.035156 48.765625 41.679688 49.132812 42.179688 C 49.242188 42.324219 49.375 42.464844 49.519531 42.574219 L 53.171875 45.378906 C 53.433594 45.582031 53.574219 45.914062 53.53125 46.242188 L 52.9375 50.957031 C 52.914062 51.117188 52.964844 51.269531 53.070312 51.386719 C 53.179688 51.507812 53.324219 51.578125 53.484375 51.578125 L 55.035156 51.578125 C 55.292969 51.578125 55.503906 51.367188 55.503906 51.109375 C 55.503906 51.007812 55.46875 50.902344 55.402344 50.824219 C 55.335938 50.742188 55.25 50.683594 55.148438 50.65625 L 54.765625 50.558594 C 54.554688 50.507812 54.40625 50.300781 54.4375 50.082031 L 54.90625 45.738281 C 54.917969 45.636719 54.882812 45.523438 54.816406 45.453125 L 52.148438 42.382812 C 52.058594 42.28125 52.023438 42.140625 52.050781 42.003906 L 52.710938 38.90625 L 51.695312 37.445312 C 51.554688 37.246094 51.605469 36.96875 51.804688 36.828125 C 52 36.6875 52.277344 36.742188 52.417969 36.9375 L 53.539062 38.558594 L 54.421875 39.84375 C 54.628906 40.136719 54.992188 40.269531 55.335938 40.183594 L 58.535156 39.34375 C 58.664062 39.308594 58.773438 39.226562 58.832031 39.101562 C 58.898438 38.980469 58.90625 38.847656 58.855469 38.714844 C 58.773438 38.496094 58.546875 38.363281 58.308594 38.414062 L 55.359375 39.066406 C 55.175781 39.109375 54.984375 39.023438 54.890625 38.863281 L 54 37.371094 C 53.699219 36.871094 53.472656 36.375 53.332031 35.882812 C 53.148438 35.257812 52.738281 34.765625 52.226562 34.5625 C 52.039062 34.515625 51.871094 34.488281 51.707031 34.488281 Z M 51.707031 34.488281 " fill-opacity="1" fill-rule="nonzero"/></g><g clip-path="url(#4c5b3a5dee)"><path fill="#000000" d="M 45.949219 52.378906 C 45.597656 52.378906 45.25 52.238281 45 51.960938 L 43.550781 50.375 C 43.316406 50.117188 43.207031 49.773438 43.25 49.429688 C 43.296875 49.085938 43.492188 48.785156 43.777344 48.59375 L 46.566406 46.808594 C 47.96875 45.871094 48.285156 44.429688 48.335938 42.429688 C 48.34375 42.1875 48.539062 41.996094 48.789062 42.003906 C 49.03125 42.007812 49.222656 42.207031 49.214844 42.457031 C 49.167969 44.253906 48.957031 46.28125 47.046875 47.550781 C 47.046875 47.550781 47.039062 47.550781 47.039062 47.558594 L 44.246094 49.347656 C 44.144531 49.414062 44.121094 49.503906 44.113281 49.554688 C 44.105469 49.605469 44.105469 49.699219 44.1875 49.789062 L 45.636719 51.375 C 45.789062 51.542969 46.054688 51.558594 46.222656 51.402344 C 46.308594 51.324219 46.359375 51.210938 46.359375 51.09375 C 46.359375 51.027344 46.347656 50.960938 46.316406 50.902344 L 45.988281 50.273438 C 45.886719 50.074219 45.941406 49.832031 46.125 49.707031 L 48.21875 48.253906 C 49.214844 47.566406 49.910156 46.53125 50.179688 45.339844 L 50.457031 44.109375 C 50.507812 43.875 50.742188 43.726562 50.984375 43.777344 C 51.21875 43.828125 51.371094 44.070312 51.3125 44.308594 L 51.035156 45.539062 C 50.714844 46.941406 49.894531 48.160156 48.714844 48.980469 L 46.953125 50.191406 L 47.097656 50.476562 C 47.195312 50.660156 47.246094 50.875 47.246094 51.082031 C 47.246094 51.445312 47.09375 51.792969 46.820312 52.042969 C 46.574219 52.269531 46.265625 52.378906 45.949219 52.378906 Z M 45.949219 52.378906 " fill-opacity="1" fill-rule="nonzero"/></g><path fill="#000000" d="M 47.28125 40.769531 C 46.988281 40.769531 46.691406 40.703125 46.417969 40.570312 C 45.527344 40.132812 45.101562 39.089844 45.4375 38.148438 L 46.910156 34.0625 C 47.105469 33.519531 47.523438 33.085938 48.058594 32.871094 C 48.589844 32.660156 49.191406 32.691406 49.703125 32.953125 L 51.285156 33.769531 C 51.496094 33.878906 51.582031 34.140625 51.472656 34.363281 C 51.363281 34.574219 51.101562 34.664062 50.882812 34.554688 L 49.300781 33.738281 C 49.015625 33.59375 48.679688 33.570312 48.378906 33.695312 C 48.078125 33.8125 47.84375 34.054688 47.734375 34.363281 L 46.265625 38.449219 C 46.082031 38.972656 46.308594 39.542969 46.804688 39.785156 C 47.09375 39.925781 47.429688 39.933594 47.722656 39.800781 C 48.015625 39.667969 48.234375 39.417969 48.320312 39.109375 L 48.738281 37.652344 C 48.804688 37.414062 49.046875 37.285156 49.28125 37.347656 C 49.511719 37.414062 49.644531 37.65625 49.578125 37.894531 L 49.164062 39.351562 C 49 39.910156 48.605469 40.375 48.078125 40.609375 C 47.816406 40.710938 47.546875 40.769531 47.28125 40.769531 Z M 47.28125 40.769531 " fill-opacity="1" fill-rule="nonzero"/><path fill="#000000" d="M 49.609375 36.652344 C 49.578125 36.652344 49.550781 36.652344 49.511719 36.644531 C 48.234375 36.375 46.851562 35.332031 46.792969 35.289062 C 46.601562 35.140625 46.558594 34.863281 46.703125 34.671875 C 46.851562 34.480469 47.128906 34.4375 47.320312 34.582031 C 47.332031 34.589844 48.605469 35.550781 49.695312 35.777344 C 49.929688 35.832031 50.085938 36.066406 50.03125 36.300781 C 49.988281 36.503906 49.804688 36.652344 49.609375 36.652344 Z M 49.609375 36.652344 " fill-opacity="1" fill-rule="nonzero"/><g clip-path="url(#c96499a8c1)"><path fill="#000000" d="M 61.085938 52.460938 C 60.890625 52.460938 60.714844 52.328125 60.664062 52.128906 L 58.722656 44.394531 C 58.511719 43.550781 58.351562 42.675781 58.25 41.804688 L 58.023438 39.875 C 57.992188 39.632812 58.167969 39.410156 58.410156 39.382812 C 58.652344 39.351562 58.871094 39.527344 58.898438 39.769531 L 59.125 41.703125 C 59.222656 42.539062 59.375 43.367188 59.582031 44.175781 L 61.519531 51.910156 C 61.578125 52.144531 61.4375 52.386719 61.195312 52.445312 C 61.152344 52.453125 61.117188 52.460938 61.085938 52.460938 Z M 61.085938 52.460938 " fill-opacity="1" fill-rule="nonzero"/></g><path fill="#000000" d="M 58.242188 38.429688 C 58.023438 38.429688 57.832031 38.265625 57.800781 38.039062 L 57.472656 35.222656 C 57.445312 34.980469 57.621094 34.757812 57.859375 34.730469 C 58.101562 34.699219 58.320312 34.875 58.351562 35.117188 L 58.671875 37.9375 C 58.703125 38.179688 58.527344 38.398438 58.285156 38.429688 C 58.269531 38.429688 58.257812 38.429688 58.242188 38.429688 Z M 58.242188 38.429688 " fill-opacity="1" fill-rule="nonzero"/><g clip-path="url(#f7085e04f1)"><path fill="#000000" d="M 44.078125 41.964844 L 34.089844 41.964844 C 33.929688 41.964844 33.785156 41.878906 33.703125 41.730469 C 33.628906 41.589844 33.636719 41.414062 33.726562 41.277344 L 36.140625 37.644531 L 34.089844 37.644531 C 33.929688 37.644531 33.785156 37.554688 33.703125 37.410156 C 33.628906 37.269531 33.636719 37.09375 33.726562 36.953125 L 36.726562 32.433594 L 35.019531 32.433594 C 34.859375 32.433594 34.714844 32.34375 34.632812 32.199219 C 34.558594 32.058594 34.566406 31.882812 34.65625 31.742188 L 38.714844 25.609375 C 38.796875 25.484375 38.933594 25.410156 39.082031 25.410156 C 39.226562 25.410156 39.367188 25.484375 39.445312 25.609375 L 43.507812 31.742188 C 43.59375 31.875 43.601562 32.050781 43.527344 32.199219 C 43.457031 32.335938 43.300781 32.433594 43.140625 32.433594 L 41.4375 32.433594 L 44.4375 36.953125 C 44.523438 37.085938 44.53125 37.261719 44.457031 37.410156 C 44.386719 37.546875 44.230469 37.644531 44.070312 37.644531 L 42.023438 37.644531 L 44.4375 41.28125 C 44.523438 41.414062 44.53125 41.589844 44.457031 41.738281 C 44.386719 41.878906 44.238281 41.964844 44.078125 41.964844 Z M 34.910156 41.085938 L 43.257812 41.085938 L 40.84375 37.445312 C 40.757812 37.3125 40.75 37.136719 40.820312 36.988281 C 40.894531 36.851562 41.050781 36.753906 41.210938 36.753906 L 43.257812 36.753906 L 40.257812 32.234375 C 40.171875 32.101562 40.164062 31.925781 40.238281 31.78125 C 40.308594 31.640625 40.464844 31.542969 40.625 31.542969 L 42.328125 31.542969 L 39.082031 26.648438 L 35.832031 31.542969 L 37.539062 31.542969 C 37.699219 31.542969 37.84375 31.632812 37.925781 31.78125 C 38 31.917969 37.992188 32.09375 37.902344 32.234375 L 34.902344 36.753906 L 36.953125 36.753906 C 37.113281 36.753906 37.257812 36.84375 37.339844 36.988281 C 37.414062 37.128906 37.40625 37.304688 37.316406 37.445312 Z M 34.910156 41.085938 " fill-opacity="1" fill-rule="nonzero"/></g><g clip-path="url(#8b4926a22c)"><path fill="#000000" d="M 39.089844 52.453125 C 38.847656 52.453125 38.648438 52.253906 38.648438 52.011719 L 38.648438 41.523438 C 38.648438 41.28125 38.847656 41.085938 39.089844 41.085938 C 39.328125 41.085938 39.527344 41.28125 39.527344 41.523438 L 39.527344 52.011719 C 39.527344 52.261719 39.328125 52.453125 39.089844 52.453125 Z M 39.089844 52.453125 " fill-opacity="1" fill-rule="nonzero"/></g><g clip-path="url(#96349c7021)"><path fill="#000000" d="M 70.671875 41.964844 L 60.683594 41.964844 C 60.523438 41.964844 60.378906 41.878906 60.296875 41.730469 C 60.222656 41.589844 60.230469 41.414062 60.320312 41.277344 L 62.734375 37.636719 L 60.683594 37.636719 C 60.523438 37.636719 60.378906 37.546875 60.296875 37.402344 C 60.222656 37.261719 60.230469 37.085938 60.320312 36.945312 L 63.320312 32.425781 L 61.613281 32.425781 C 61.453125 32.425781 61.304688 32.335938 61.226562 32.191406 C 61.152344 32.050781 61.160156 31.875 61.25 31.734375 L 65.308594 25.601562 C 65.390625 25.476562 65.527344 25.402344 65.675781 25.402344 C 65.820312 25.402344 65.960938 25.476562 66.039062 25.601562 L 70.101562 31.734375 C 70.1875 31.867188 70.195312 32.042969 70.121094 32.191406 C 70.050781 32.328125 69.894531 32.425781 69.734375 32.425781 L 68.039062 32.425781 L 71.035156 36.945312 C 71.125 37.078125 71.132812 37.253906 71.058594 37.402344 C 70.984375 37.539062 70.832031 37.636719 70.671875 37.636719 L 68.621094 37.636719 L 71.035156 41.277344 C 71.125 41.40625 71.132812 41.585938 71.058594 41.730469 C 70.976562 41.878906 70.832031 41.964844 70.671875 41.964844 Z M 61.503906 41.085938 L 69.851562 41.085938 L 67.4375 37.445312 C 67.347656 37.3125 67.34375 37.136719 67.414062 36.988281 C 67.488281 36.851562 67.640625 36.753906 67.804688 36.753906 L 69.851562 36.753906 L 66.851562 32.234375 C 66.765625 32.101562 66.757812 31.925781 66.832031 31.78125 C 66.902344 31.640625 67.058594 31.542969 67.21875 31.542969 L 68.921875 31.542969 L 65.675781 26.648438 L 62.425781 31.542969 L 64.128906 31.542969 C 64.292969 31.542969 64.4375 31.632812 64.519531 31.78125 C 64.589844 31.917969 64.585938 32.09375 64.496094 32.234375 L 61.496094 36.753906 L 63.546875 36.753906 C 63.707031 36.753906 63.851562 36.84375 63.933594 36.988281 C 64.007812 37.128906 64 37.304688 63.910156 37.445312 Z M 61.503906 41.085938 " fill-opacity="1" fill-rule="nonzero"/></g><g clip-path="url(#72bc7c9161)"><path fill="#000000" d="M 65.675781 52.453125 C 65.433594 52.453125 65.234375 52.253906 65.234375 52.011719 L 65.234375 41.523438 C 65.234375 41.28125 65.433594 41.085938 65.675781 41.085938 C 65.914062 41.085938 66.113281 41.28125 66.113281 41.523438 L 66.113281 52.011719 C 66.113281 52.261719 65.921875 52.453125 65.675781 52.453125 Z M 65.675781 52.453125 " fill-opacity="1" fill-rule="nonzero"/></g><g clip-path="url(#fe4cac22b1)"><path fill="#000000" d="M 69.449219 52.453125 L 35.3125 52.453125 C 35.070312 52.453125 34.875 52.253906 34.875 52.011719 C 34.875 51.769531 35.070312 51.570312 35.3125 51.570312 L 69.441406 51.570312 C 69.683594 51.570312 69.878906 51.769531 69.878906 52.011719 C 69.878906 52.253906 69.691406 52.453125 69.449219 52.453125 Z M 69.449219 52.453125 " fill-opacity="1" fill-rule="nonzero"/></g><path fill="#000000" d="M 41.429688 29.84375 C 41.3125 29.84375 41.195312 29.789062 41.109375 29.703125 C 40.945312 29.527344 40.953125 29.246094 41.136719 29.078125 L 45.46875 25.085938 C 45.554688 25.003906 45.679688 24.960938 45.804688 24.96875 C 45.929688 24.984375 46.039062 25.042969 46.113281 25.144531 L 48.292969 28.058594 C 48.4375 28.25 48.402344 28.527344 48.203125 28.675781 C 48.015625 28.820312 47.734375 28.785156 47.589844 28.585938 L 45.703125 26.0625 L 41.722656 29.730469 C 41.640625 29.804688 41.53125 29.84375 41.429688 29.84375 Z M 41.429688 29.84375 " fill-opacity="1" fill-rule="nonzero"/><g clip-path="url(#420087fd47)"><path fill="#000000" d="M 46.191406 30.503906 C 46.082031 30.503906 45.964844 30.457031 45.878906 30.371094 C 45.710938 30.195312 45.710938 29.914062 45.878906 29.746094 L 52.996094 22.664062 C 53.164062 22.496094 53.441406 22.496094 53.609375 22.664062 L 59.242188 28.160156 C 59.417969 28.332031 59.417969 28.609375 59.25 28.785156 C 59.082031 28.960938 58.804688 28.960938 58.628906 28.792969 L 53.304688 23.597656 L 46.492188 30.378906 C 46.417969 30.457031 46.300781 30.503906 46.191406 30.503906 Z M 46.191406 30.503906 " fill-opacity="1" fill-rule="nonzero"/></g><path fill="#000000" d="M 63.75 29.21875 C 63.625 29.21875 63.5 29.167969 63.414062 29.058594 L 59.742188 24.625 L 57.40625 26.988281 C 57.238281 27.164062 56.960938 27.164062 56.785156 26.988281 C 56.609375 26.820312 56.609375 26.539062 56.785156 26.363281 L 59.457031 23.65625 C 59.542969 23.566406 59.660156 23.523438 59.785156 23.523438 C 59.910156 23.53125 60.027344 23.589844 60.105469 23.683594 L 64.085938 28.492188 C 64.242188 28.675781 64.21875 28.953125 64.027344 29.109375 C 63.949219 29.179688 63.851562 29.21875 63.75 29.21875 Z M 63.75 29.21875 " fill-opacity="1" fill-rule="nonzero"/></svg>