<svg xmlns="http://www.w3.org/2000/svg" xmlns:xlink="http://www.w3.org/1999/xlink" width="140" zoomAndPan="magnify" viewBox="0 0 104.88 74.999997" height="100" preserveAspectRatio="xMidYMid meet" version="1.0"><defs><clipPath id="a084f95795"><path d="M 0 0.0429688 L 104.761719 0.0429688 L 104.761719 74.957031 L 0 74.957031 Z M 0 0.0429688 " clip-rule="nonzero"/></clipPath><clipPath id="e469423b60"><path d="M 40.058594 22.515625 L 64.78125 22.515625 L 64.78125 52.484375 L 40.058594 52.484375 Z M 40.058594 22.515625 " clip-rule="nonzero"/></clipPath></defs><g clip-path="url(#a084f95795)"><path fill="#ffffff" d="M 0 0.0429688 L 104.878906 0.0429688 L 104.878906 74.957031 L 0 74.957031 Z M 0 0.0429688 " fill-opacity="1" fill-rule="nonzero"/><path fill="#ffffff" d="M 0 0.0429688 L 104.878906 0.0429688 L 104.878906 74.957031 L 0 74.957031 Z M 0 0.0429688 " fill-opacity="1" fill-rule="nonzero"/></g><path fill="#000000" d="M 43.324219 38.972656 C 42.925781 39.671875 42.886719 40.652344 43.230469 41.417969 L 43.289062 41.402344 C 43.148438 39.429688 43.65625 38.75 44.707031 38.121094 L 44.6875 38.066406 C 43.949219 38.144531 43.539062 38.601562 43.324219 38.972656 Z M 43.324219 38.972656 " fill-opacity="1" fill-rule="nonzero"/><g clip-path="url(#e469423b60)"><path fill="#000000" d="M 63.09375 32.777344 C 63.085938 32.742188 63.074219 32.710938 63.058594 32.679688 C 62.777344 32.132812 62.417969 31.855469 61.996094 31.855469 C 61.980469 31.855469 61.96875 31.855469 61.953125 31.855469 C 61.449219 31.878906 61.011719 32.292969 60.589844 32.695312 C 60.410156 32.867188 60.226562 33.042969 60.058594 33.164062 C 59.960938 32.894531 59.800781 32.6875 59.632812 32.472656 C 59.511719 32.316406 59.386719 32.152344 59.273438 31.949219 C 59.121094 31.226562 58.671875 30.546875 58.238281 29.890625 C 57.90625 29.386719 57.589844 28.90625 57.441406 28.46875 C 57.472656 28.46875 57.503906 28.464844 57.535156 28.464844 C 57.625 28.460938 57.714844 28.449219 57.808594 28.4375 C 57.8125 28.4375 57.816406 28.4375 57.820312 28.4375 C 58.289062 28.4375 58.441406 28.652344 58.632812 28.925781 C 58.804688 29.171875 59.019531 29.476562 59.453125 29.476562 C 59.464844 29.476562 59.480469 29.476562 59.492188 29.476562 C 59.519531 29.472656 59.550781 29.472656 59.578125 29.46875 C 59.59375 29.46875 59.605469 29.46875 59.617188 29.46875 C 59.644531 29.46875 59.664062 29.46875 59.6875 29.464844 C 60.019531 29.449219 60.15625 29.300781 60.210938 29.171875 C 60.238281 29.175781 60.269531 29.175781 60.296875 29.175781 C 60.308594 29.175781 60.320312 29.175781 60.328125 29.175781 C 60.878906 29.152344 60.988281 28.5625 61.035156 28.226562 C 61.253906 27.738281 61.109375 27.183594 60.664062 26.824219 C 60.652344 26.8125 60.640625 26.804688 60.628906 26.800781 C 60.234375 26.542969 59.894531 26.171875 59.570312 25.8125 C 59.171875 25.375 58.757812 24.925781 58.210938 24.621094 L 58.179688 24.605469 C 58.171875 24.601562 58.160156 24.59375 58.152344 24.589844 C 58.136719 24.585938 58.121094 24.574219 58.101562 24.566406 C 58.167969 24.355469 58.222656 24.074219 58.132812 23.675781 C 58.101562 23.550781 58.015625 23.449219 57.894531 23.402344 C 57.851562 23.382812 57.804688 23.375 57.753906 23.375 C 57.722656 23.375 57.691406 23.378906 57.65625 23.386719 C 57.664062 23.207031 57.640625 23.011719 57.574219 22.800781 C 57.535156 22.667969 57.429688 22.570312 57.296875 22.539062 C 57.265625 22.53125 57.234375 22.527344 57.207031 22.527344 C 57.101562 22.527344 57.003906 22.566406 56.929688 22.644531 C 56.863281 22.707031 56.792969 22.773438 56.714844 22.84375 C 56.601562 22.941406 56.484375 23.046875 56.371094 23.175781 C 56.097656 22.832031 55.664062 22.59375 55.21875 22.59375 C 55.199219 22.59375 55.179688 22.59375 55.164062 22.59375 C 55.066406 22.597656 54.972656 22.613281 54.882812 22.644531 C 54.746094 22.6875 54.644531 22.804688 54.621094 22.945312 C 54.613281 22.945312 54.609375 22.945312 54.605469 22.945312 C 54.585938 22.945312 54.566406 22.945312 54.550781 22.945312 C 54.203125 22.960938 53.898438 23.121094 53.601562 23.277344 C 53.34375 23.414062 53.074219 23.558594 52.761719 23.613281 C 52.601562 23.640625 52.472656 23.769531 52.449219 23.933594 C 52.421875 24.097656 52.503906 24.261719 52.652344 24.335938 C 52.722656 24.375 52.792969 24.40625 52.867188 24.429688 C 52.808594 24.460938 52.761719 24.480469 52.726562 24.480469 C 52.710938 24.480469 52.6875 24.464844 52.675781 24.453125 C 52.601562 24.382812 52.507812 24.347656 52.414062 24.347656 C 52.351562 24.347656 52.285156 24.363281 52.226562 24.398438 C 52.082031 24.476562 52.003906 24.640625 52.03125 24.804688 C 52.082031 25.09375 52.210938 25.320312 52.398438 25.46875 C 52.253906 25.542969 52.113281 25.636719 51.976562 25.753906 C 51.847656 25.839844 51.722656 25.921875 51.625 25.925781 C 51.59375 25.925781 51.5625 25.921875 51.515625 25.894531 C 51.457031 25.863281 51.394531 25.847656 51.332031 25.847656 C 51.253906 25.847656 51.179688 25.871094 51.113281 25.917969 C 50.992188 26 50.929688 26.140625 50.949219 26.285156 C 50.972656 26.476562 51.054688 26.640625 51.1875 26.761719 C 51.207031 26.777344 51.222656 26.792969 51.242188 26.808594 C 51.171875 26.800781 51.074219 26.761719 50.953125 26.605469 C 50.875 26.511719 50.765625 26.460938 50.648438 26.460938 C 50.601562 26.460938 50.554688 26.472656 50.507812 26.488281 C 50.347656 26.554688 50.25 26.710938 50.265625 26.882812 C 50.292969 27.214844 50.4375 27.519531 50.667969 27.742188 C 50.863281 27.929688 51.113281 28.050781 51.378906 28.085938 C 51.25 28.273438 51.15625 28.453125 51.066406 28.613281 C 50.8125 29.078125 50.683594 29.3125 50.035156 29.355469 C 49.90625 29.367188 49.789062 29.4375 49.726562 29.550781 C 49.660156 29.660156 49.65625 29.796875 49.714844 29.914062 C 49.871094 30.238281 50.269531 30.433594 50.777344 30.433594 C 50.808594 30.433594 50.839844 30.433594 50.875 30.429688 C 51.078125 30.421875 51.277344 30.382812 51.460938 30.320312 C 51.304688 30.488281 51.128906 30.589844 50.914062 30.597656 C 50.902344 30.597656 50.890625 30.601562 50.875 30.601562 C 50.832031 30.601562 50.78125 30.597656 50.734375 30.589844 C 50.714844 30.585938 50.695312 30.585938 50.679688 30.585938 C 50.527344 30.585938 50.390625 30.671875 50.328125 30.8125 C 50.253906 30.96875 50.296875 31.152344 50.425781 31.265625 C 50.535156 31.359375 50.644531 31.4375 50.757812 31.503906 C 50.742188 31.511719 50.722656 31.523438 50.707031 31.535156 C 50.574219 31.644531 50.527344 31.828125 50.59375 31.988281 C 50.742188 32.34375 50.96875 32.621094 51.253906 32.800781 C 51.246094 32.800781 51.234375 32.800781 51.226562 32.800781 C 51.097656 32.800781 50.972656 32.867188 50.902344 32.976562 C 50.816406 33.109375 50.820312 33.28125 50.910156 33.410156 C 51.132812 33.730469 51.460938 33.964844 51.820312 34.070312 C 51.070312 34.730469 50.101562 35.320312 49.511719 35.5 C 48.015625 35.9375 47.027344 36.605469 46.5 37.539062 C 45.957031 37.28125 45.421875 37.152344 44.910156 37.152344 C 44.863281 37.152344 44.820312 37.152344 44.773438 37.15625 C 43.878906 37.195312 43.117188 37.644531 42.632812 38.414062 C 41.941406 39.507812 41.917969 41.097656 42.574219 42.664062 C 42.660156 42.863281 42.644531 43.070312 42.535156 43.242188 C 42.394531 43.460938 42.132812 43.589844 41.789062 43.605469 C 41.765625 43.609375 41.742188 43.609375 41.714844 43.609375 C 41.390625 43.609375 41.019531 43.511719 40.613281 43.324219 C 40.558594 43.296875 40.503906 43.285156 40.449219 43.285156 C 40.371094 43.285156 40.296875 43.308594 40.230469 43.355469 C 40.117188 43.429688 40.054688 43.5625 40.0625 43.699219 C 40.09375 44.160156 40.292969 44.578125 40.648438 44.90625 C 41.117188 45.34375 41.804688 45.59375 42.53125 45.59375 C 42.578125 45.59375 42.628906 45.589844 42.675781 45.589844 C 43.464844 45.550781 44.160156 45.210938 44.582031 44.652344 C 44.644531 44.574219 44.699219 44.492188 44.746094 44.40625 C 44.75 44.410156 44.757812 44.410156 44.761719 44.414062 C 44.820312 44.445312 44.882812 44.460938 44.945312 44.460938 C 45.042969 44.460938 45.136719 44.425781 45.207031 44.359375 C 46.210938 43.429688 46.070312 42.046875 45.515625 41.148438 C 45.289062 40.738281 45.277344 40.144531 45.488281 39.730469 C 45.617188 39.472656 45.8125 39.316406 46.070312 39.269531 C 46.0625 40.230469 46.351562 41.210938 46.652344 42.042969 C 46.710938 42.207031 46.839844 42.660156 46.855469 42.761719 C 46.890625 43.421875 46.582031 43.800781 46.257812 44.199219 C 45.949219 44.582031 45.597656 45.015625 45.636719 45.667969 C 45.636719 46.742188 45.566406 48.082031 45.015625 48.929688 C 44.828125 49.1875 44.769531 49.484375 44.84375 49.773438 C 44.667969 49.796875 44.507812 49.867188 44.394531 49.972656 C 43.875 50.449219 44.257812 51.808594 44.382812 52.121094 C 44.390625 52.144531 44.40625 52.167969 44.417969 52.191406 C 44.519531 52.34375 44.664062 52.441406 44.828125 52.46875 C 44.863281 52.472656 44.898438 52.476562 44.929688 52.476562 C 44.941406 52.476562 44.949219 52.476562 44.960938 52.476562 C 45.566406 52.449219 46.203125 51.453125 46.289062 51.035156 C 46.289062 51.03125 46.289062 51.03125 46.289062 51.027344 C 46.316406 50.875 46.414062 50.734375 46.53125 50.574219 C 46.691406 50.347656 46.875 50.089844 46.898438 49.722656 C 46.921875 49.492188 46.945312 49.25 46.964844 48.992188 C 47.023438 48.28125 47.09375 47.476562 47.246094 46.859375 C 47.421875 46.125 47.964844 45.757812 48.589844 45.335938 C 48.65625 45.292969 48.722656 45.25 48.789062 45.203125 C 48.777344 45.222656 48.769531 45.242188 48.761719 45.261719 C 48.355469 45.996094 48.96875 46.464844 49.238281 46.667969 C 49.84375 47.15625 50.554688 48.027344 50.707031 48.660156 C 50.734375 48.917969 50.820312 49.097656 50.921875 49.261719 C 50.894531 49.289062 50.867188 49.320312 50.84375 49.34375 C 50.613281 49.539062 50.578125 49.6875 50.585938 49.917969 L 50.585938 49.933594 C 50.605469 50.691406 50.96875 51.335938 51.632812 51.800781 C 51.722656 51.875 51.828125 51.910156 51.933594 51.910156 C 51.941406 51.910156 51.949219 51.910156 51.957031 51.910156 C 52.050781 51.90625 52.1875 51.871094 52.3125 51.730469 C 52.628906 51.375 52.742188 50.367188 52.742188 50.144531 C 52.738281 49.890625 52.746094 49.621094 52.820312 49.363281 C 53.132812 48.527344 52.550781 47.960938 52.125 47.550781 C 52.0625 47.488281 52 47.429688 51.9375 47.367188 C 51.65625 47.066406 51.210938 46.367188 51.019531 45.972656 C 51.015625 45.964844 51.011719 45.957031 51.007812 45.953125 C 50.832031 45.644531 50.902344 45.519531 51.535156 44.976562 C 52.175781 44.429688 53.050781 43.679688 53.015625 42.1875 L 53.015625 42.113281 C 53.007812 41.707031 53.003906 41.207031 53.183594 40.875 C 53.21875 40.8125 53.242188 40.746094 53.242188 40.671875 C 53.242188 40.621094 53.230469 40.578125 53.214844 40.535156 C 54.707031 40.085938 56.214844 39.578125 57.214844 38.296875 C 57.246094 38.253906 57.3125 38.175781 57.332031 38.066406 C 57.390625 38.078125 57.449219 38.082031 57.507812 38.082031 C 57.527344 38.082031 57.546875 38.082031 57.5625 38.078125 C 57.734375 38.070312 57.910156 38.023438 58.074219 37.9375 C 58.113281 37.917969 58.148438 37.890625 58.179688 37.859375 C 58.476562 37.539062 58.875 37.292969 59.261719 37.050781 C 59.597656 36.84375 59.941406 36.632812 60.253906 36.359375 C 60.429688 37.207031 60.199219 37.507812 59.996094 37.773438 C 59.859375 37.957031 59.675781 38.195312 59.746094 38.535156 C 59.050781 38.589844 58.753906 39.722656 58.78125 40.351562 C 58.816406 41.109375 59.304688 41.144531 59.402344 41.144531 C 59.40625 41.144531 59.421875 41.144531 59.429688 41.144531 C 59.464844 41.144531 59.503906 41.136719 59.542969 41.128906 C 59.574219 41.125 59.601562 41.113281 59.628906 41.097656 C 59.699219 41.0625 59.785156 41.023438 59.878906 40.984375 C 60.328125 40.789062 60.886719 40.542969 61.082031 39.957031 C 61.082031 39.953125 61.082031 39.949219 61.085938 39.949219 C 61.175781 39.636719 61.390625 39.410156 61.601562 39.210938 C 61.625 39.1875 61.644531 39.167969 61.660156 39.140625 C 62.039062 38.578125 61.945312 37.746094 61.851562 36.9375 C 61.792969 36.433594 61.734375 35.910156 61.808594 35.535156 C 61.816406 35.492188 61.820312 35.449219 61.8125 35.40625 C 61.765625 35.074219 61.664062 34.835938 61.53125 34.664062 C 61.550781 34.636719 61.570312 34.609375 61.585938 34.582031 C 61.597656 34.566406 61.605469 34.550781 61.613281 34.53125 C 61.710938 34.300781 61.8125 34.191406 61.871094 34.191406 C 61.996094 34.191406 62.300781 34.429688 62.578125 34.945312 C 62.585938 34.964844 62.597656 34.984375 62.613281 35 C 62.671875 35.074219 62.65625 35.191406 62.628906 35.378906 C 62.601562 35.578125 62.554688 35.890625 62.734375 36.152344 C 62.488281 36.226562 62.214844 36.390625 62.226562 36.773438 C 62.164062 37.195312 62.296875 38.097656 62.605469 38.480469 C 62.773438 38.6875 62.957031 38.730469 63.082031 38.730469 C 63.089844 38.730469 63.101562 38.730469 63.109375 38.730469 C 63.222656 38.722656 63.332031 38.683594 63.4375 38.609375 C 63.464844 38.589844 63.492188 38.566406 63.515625 38.535156 L 63.613281 38.414062 C 63.902344 38.0625 64.230469 37.660156 64.359375 37.171875 C 64.371094 37.132812 64.375 37.089844 64.375 37.046875 C 64.355469 36.765625 64.507812 36.492188 64.671875 36.203125 C 65.035156 35.5625 64.445312 34.792969 63.878906 34.050781 C 63.546875 33.613281 63.167969 33.121094 63.097656 32.78125 Z M 64.328125 36.007812 C 64.144531 36.332031 63.957031 36.671875 63.984375 37.066406 C 63.875 37.472656 63.585938 37.828125 63.304688 38.167969 L 63.210938 38.289062 C 63.167969 38.320312 63.125 38.335938 63.085938 38.339844 C 63.082031 38.339844 63.082031 38.339844 63.078125 38.339844 C 63.019531 38.339844 62.957031 38.304688 62.902344 38.234375 C 62.652344 37.925781 62.546875 37.054688 62.613281 36.789062 C 62.585938 36.566406 62.785156 36.515625 63.074219 36.46875 C 63.234375 36.441406 63.371094 36.417969 63.40625 36.332031 C 63.429688 36.277344 63.40625 36.214844 63.347656 36.132812 L 63.339844 36.125 L 63.332031 36.121094 C 62.929688 35.972656 62.964844 35.722656 63.007812 35.433594 C 63.039062 35.214844 63.074219 34.96875 62.914062 34.761719 C 62.664062 34.292969 62.261719 33.800781 61.871094 33.800781 C 61.863281 33.800781 61.859375 33.800781 61.851562 33.800781 C 61.609375 33.8125 61.40625 34.007812 61.25 34.378906 C 61.207031 34.453125 61.167969 34.484375 61.121094 34.488281 C 61.121094 34.488281 61.121094 34.488281 61.117188 34.488281 C 61.089844 34.488281 61.050781 34.476562 61.007812 34.449219 C 60.914062 34.394531 60.78125 34.367188 60.617188 34.367188 C 60.59375 34.367188 60.570312 34.367188 60.546875 34.367188 C 59.746094 34.402344 58.390625 35.027344 57.742188 35.324219 L 57.605469 35.390625 L 57.613281 35.445312 C 57.640625 35.445312 57.667969 35.449219 57.695312 35.449219 C 57.710938 35.449219 57.730469 35.449219 57.75 35.445312 C 58.132812 35.429688 58.601562 35.242188 59.101562 35.046875 C 59.605469 34.847656 60.121094 34.644531 60.539062 34.625 C 60.5625 34.625 60.582031 34.621094 60.601562 34.621094 C 61.082031 34.621094 61.34375 34.890625 61.425781 35.457031 C 61.339844 35.890625 61.402344 36.445312 61.464844 36.980469 C 61.546875 37.714844 61.636719 38.476562 61.335938 38.921875 C 61.09375 39.148438 60.832031 39.429688 60.710938 39.832031 C 60.570312 40.253906 60.121094 40.453125 59.71875 40.628906 C 59.625 40.667969 59.535156 40.710938 59.453125 40.75 C 59.4375 40.753906 59.421875 40.753906 59.40625 40.757812 C 59.40625 40.757812 59.402344 40.757812 59.398438 40.757812 C 59.210938 40.757812 59.171875 40.492188 59.164062 40.332031 C 59.140625 39.796875 59.410156 38.933594 59.78125 38.917969 C 59.78125 38.917969 59.785156 38.917969 59.789062 38.917969 C 59.851562 38.917969 59.914062 38.941406 59.976562 38.992188 C 59.992188 39.003906 60.007812 39.007812 60.027344 39.007812 C 60.03125 39.007812 60.03125 39.007812 60.035156 39.007812 C 60.109375 39.003906 60.207031 38.925781 60.246094 38.851562 C 60.273438 38.808594 60.28125 38.769531 60.265625 38.734375 C 60.246094 38.703125 60.226562 38.671875 60.207031 38.640625 C 60.1875 38.617188 60.171875 38.59375 60.160156 38.570312 C 60.050781 38.335938 60.148438 38.203125 60.300781 38.003906 C 60.53125 37.703125 60.847656 37.289062 60.617188 36.226562 C 60.574219 36.042969 60.511719 35.875 60.363281 35.875 C 60.359375 35.875 60.355469 35.875 60.351562 35.875 C 60.277344 35.875 60.1875 35.917969 60.058594 36.007812 C 59.753906 36.289062 59.398438 36.507812 59.058594 36.722656 C 58.648438 36.972656 58.226562 37.238281 57.894531 37.59375 C 57.777344 37.652344 57.660156 37.6875 57.542969 37.691406 C 57.53125 37.691406 57.519531 37.691406 57.507812 37.691406 C 57 37.691406 56.546875 37.195312 56.140625 36.757812 C 55.972656 36.574219 55.8125 36.402344 55.660156 36.273438 L 55.601562 36.226562 L 55.613281 36.300781 C 55.664062 36.703125 56.058594 37.503906 56.886719 37.929688 C 56.917969 37.949219 56.953125 37.96875 56.953125 37.980469 C 56.957031 37.984375 56.953125 38.003906 56.910156 38.046875 C 55.929688 39.316406 54.355469 39.789062 52.835938 40.246094 C 52.726562 40.277344 52.621094 40.308594 52.511719 40.339844 C 51.984375 40.449219 51.476562 40.589844 51.023438 40.863281 C 50.972656 40.886719 50.917969 40.90625 50.871094 40.929688 C 50.855469 40.527344 50.867188 40.132812 50.910156 39.617188 L 50.851562 39.605469 C 50.628906 40.191406 50.605469 40.75 50.582031 41.285156 C 50.5625 41.746094 50.542969 42.179688 50.402344 42.609375 C 50.28125 42.988281 50.070312 43.363281 49.800781 43.71875 C 49.730469 43.796875 49.660156 43.875 49.582031 43.949219 C 49.417969 44.078125 49.292969 44.230469 49.191406 44.386719 C 48.945312 44.613281 48.671875 44.824219 48.375 45.011719 C 47.710938 45.460938 47.078125 45.886719 46.867188 46.765625 C 46.707031 47.414062 46.640625 48.234375 46.578125 48.957031 C 46.558594 49.214844 46.535156 49.460938 46.511719 49.695312 C 46.5 49.953125 46.359375 50.144531 46.214844 50.351562 C 46.082031 50.53125 45.949219 50.722656 45.90625 50.960938 C 45.839844 51.285156 45.296875 52.074219 44.941406 52.089844 C 44.9375 52.089844 44.933594 52.089844 44.929688 52.089844 C 44.917969 52.089844 44.90625 52.089844 44.894531 52.085938 C 44.832031 52.078125 44.777344 52.039062 44.738281 51.976562 C 44.554688 51.511719 44.382812 50.507812 44.652344 50.257812 C 44.71875 50.195312 44.832031 50.15625 44.953125 50.152344 C 44.960938 50.152344 44.972656 50.152344 44.980469 50.152344 C 45.019531 50.152344 45.058594 50.15625 45.097656 50.160156 C 45.117188 50.167969 45.140625 50.171875 45.160156 50.171875 C 45.164062 50.171875 45.167969 50.171875 45.171875 50.171875 C 45.242188 50.167969 45.300781 50.125 45.328125 50.066406 C 45.355469 50.003906 45.34375 49.929688 45.296875 49.875 C 45.152344 49.628906 45.164062 49.378906 45.332031 49.148438 C 45.945312 48.210938 46.023438 46.789062 46.023438 45.65625 C 45.988281 45.144531 46.265625 44.804688 46.558594 44.441406 C 46.898438 44.023438 47.285156 43.546875 47.238281 42.730469 C 47.234375 42.625 47.074219 42.078125 47.015625 41.910156 C 46.628906 40.835938 46.253906 39.5 46.578125 38.347656 C 46.617188 38.21875 46.660156 38.09375 46.714844 37.972656 C 46.738281 37.925781 46.753906 37.878906 46.777344 37.835938 C 47.234375 36.9375 48.167969 36.292969 49.628906 35.871094 C 50.484375 35.605469 52.011719 34.59375 52.78125 33.636719 L 52.742188 33.59375 C 52.609375 33.683594 52.453125 33.734375 52.28125 33.742188 C 52.265625 33.742188 52.25 33.742188 52.234375 33.742188 C 51.847656 33.742188 51.464844 33.53125 51.226562 33.1875 C 51.304688 33.203125 51.386719 33.210938 51.46875 33.210938 C 51.488281 33.210938 51.511719 33.210938 51.53125 33.207031 C 52.160156 33.179688 52.789062 32.742188 53.140625 32.378906 L 53.097656 32.335938 C 52.867188 32.523438 52.535156 32.644531 52.207031 32.660156 C 52.1875 32.664062 52.164062 32.664062 52.140625 32.664062 C 51.789062 32.664062 51.242188 32.539062 50.953125 31.839844 C 51.144531 31.972656 51.34375 32.039062 51.554688 32.039062 C 51.570312 32.039062 51.585938 32.039062 51.601562 32.039062 C 51.792969 32.027344 51.996094 31.964844 52.226562 31.839844 C 52.683594 31.449219 52.988281 30.84375 53.121094 30.40625 L 53.066406 30.382812 C 52.863281 30.84375 52.328125 31.324219 51.691406 31.355469 C 51.671875 31.355469 51.652344 31.355469 51.632812 31.355469 C 51.296875 31.355469 50.976562 31.226562 50.679688 30.972656 C 50.75 30.980469 50.816406 30.988281 50.878906 30.988281 C 50.898438 30.988281 50.917969 30.988281 50.9375 30.984375 C 51.714844 30.949219 52.078125 30.171875 52.398438 29.484375 C 52.546875 29.164062 52.683594 28.863281 52.855469 28.652344 L 52.8125 28.613281 C 52.527344 28.875 52.402344 29.023438 52.253906 29.191406 C 52.15625 29.308594 52.050781 29.433594 51.878906 29.609375 C 51.683594 29.855469 51.28125 30.023438 50.859375 30.042969 C 50.832031 30.046875 50.804688 30.046875 50.78125 30.046875 C 50.425781 30.046875 50.15625 29.929688 50.0625 29.742188 C 50.925781 29.683594 51.140625 29.292969 51.410156 28.796875 C 51.679688 28.300781 52.015625 27.683594 53.113281 27.125 L 53.09375 27.070312 C 52.78125 27.125 52.578125 27.269531 52.378906 27.40625 C 52.1875 27.542969 52.007812 27.667969 51.742188 27.695312 C 51.699219 27.703125 51.652344 27.710938 51.609375 27.710938 C 51.59375 27.710938 51.578125 27.714844 51.566406 27.714844 C 51.328125 27.714844 51.105469 27.625 50.9375 27.460938 C 50.769531 27.304688 50.671875 27.089844 50.652344 26.851562 C 50.839844 27.082031 51.042969 27.195312 51.277344 27.195312 C 51.285156 27.195312 51.296875 27.195312 51.308594 27.195312 C 51.605469 27.183594 51.90625 26.992188 52.203125 26.804688 C 52.367188 26.699219 52.539062 26.59375 52.707031 26.519531 L 52.6875 26.460938 C 52.460938 26.546875 52.203125 26.605469 51.988281 26.613281 C 51.964844 26.617188 51.945312 26.617188 51.921875 26.617188 C 51.714844 26.617188 51.550781 26.570312 51.453125 26.476562 C 51.386719 26.417969 51.347656 26.335938 51.335938 26.234375 C 51.429688 26.289062 51.523438 26.3125 51.621094 26.3125 C 51.628906 26.3125 51.640625 26.3125 51.648438 26.3125 C 51.847656 26.304688 52.03125 26.191406 52.214844 26.0625 C 52.496094 25.816406 52.824219 25.691406 53.140625 25.566406 C 53.472656 25.4375 53.820312 25.300781 54.125 25.027344 L 54.089844 24.976562 L 54.035156 25.003906 C 53.828125 25.09375 53.4375 25.269531 53.09375 25.285156 C 53.078125 25.285156 53.058594 25.285156 53.042969 25.285156 C 52.6875 25.285156 52.480469 25.105469 52.417969 24.738281 C 52.511719 24.828125 52.617188 24.871094 52.726562 24.871094 C 52.734375 24.871094 52.742188 24.871094 52.746094 24.871094 C 52.941406 24.863281 53.132812 24.730469 53.359375 24.578125 C 53.632812 24.394531 53.941406 24.183594 54.308594 24.167969 C 54.324219 24.167969 54.339844 24.167969 54.359375 24.167969 C 54.597656 24.167969 54.835938 24.246094 55.085938 24.414062 L 55.128906 24.371094 C 54.925781 24.089844 54.714844 23.960938 54.441406 23.960938 C 54.425781 23.960938 54.414062 23.960938 54.398438 23.960938 C 54.257812 23.96875 54.117188 24.003906 53.96875 24.042969 C 53.804688 24.082031 53.636719 24.125 53.457031 24.132812 C 53.4375 24.132812 53.414062 24.132812 53.394531 24.132812 C 53.195312 24.132812 53.015625 24.089844 52.832031 23.996094 C 53.203125 23.929688 53.511719 23.765625 53.785156 23.621094 C 54.054688 23.480469 54.308594 23.347656 54.570312 23.335938 C 54.582031 23.335938 54.597656 23.332031 54.609375 23.332031 C 54.925781 23.332031 55.242188 23.523438 55.589844 23.921875 L 55.664062 24.007812 L 55.640625 23.898438 C 55.542969 23.417969 55.34375 23.144531 55.003906 23.015625 C 55.0625 22.996094 55.121094 22.984375 55.183594 22.984375 C 55.199219 22.984375 55.210938 22.980469 55.222656 22.980469 C 55.6875 22.980469 56.183594 23.378906 56.25 23.820312 C 56.261719 23.882812 56.269531 23.945312 56.277344 24.011719 L 56.28125 24.058594 L 56.339844 24.058594 C 56.425781 23.617188 56.703125 23.371094 56.972656 23.136719 C 57.054688 23.0625 57.136719 22.992188 57.207031 22.917969 C 57.351562 23.386719 57.238281 23.746094 57.101562 24.160156 C 57.082031 24.222656 57.0625 24.289062 57.039062 24.355469 L 57.027344 24.402344 L 57.074219 24.394531 C 57.332031 24.363281 57.433594 24.195312 57.53125 24.035156 C 57.59375 23.9375 57.65625 23.835938 57.757812 23.765625 C 57.84375 24.148438 57.765625 24.378906 57.691406 24.585938 C 57.667969 24.652344 57.644531 24.714844 57.632812 24.777344 L 57.625 24.804688 L 57.652344 24.8125 C 57.785156 24.859375 57.933594 24.917969 57.996094 24.945312 L 58.027344 24.964844 C 58.519531 25.238281 58.910156 25.664062 59.285156 26.078125 C 59.628906 26.453125 59.988281 26.84375 60.421875 27.128906 C 60.746094 27.386719 60.84375 27.773438 60.664062 28.117188 C 60.625 28.398438 60.574219 28.78125 60.3125 28.792969 C 60.308594 28.792969 60.304688 28.792969 60.300781 28.792969 C 60.230469 28.792969 60.148438 28.769531 60.054688 28.71875 C 59.976562 28.6875 59.910156 28.628906 59.839844 28.570312 C 59.738281 28.480469 59.628906 28.386719 59.484375 28.386719 C 59.480469 28.386719 59.476562 28.386719 59.46875 28.386719 C 59.453125 28.386719 59.4375 28.390625 59.421875 28.394531 L 59.375 28.402344 L 59.40625 28.441406 C 59.445312 28.492188 59.507812 28.550781 59.570312 28.617188 C 59.707031 28.75 59.890625 28.933594 59.859375 29.019531 C 59.84375 29.054688 59.78125 29.078125 59.671875 29.082031 C 59.65625 29.082031 59.636719 29.082031 59.617188 29.082031 C 59.597656 29.082031 59.578125 29.082031 59.554688 29.082031 C 59.527344 29.085938 59.503906 29.089844 59.476562 29.089844 C 59.46875 29.089844 59.464844 29.089844 59.457031 29.089844 C 59.222656 29.089844 59.101562 28.921875 58.949219 28.707031 C 58.746094 28.414062 58.492188 28.050781 57.824219 28.050781 C 57.808594 28.050781 57.789062 28.050781 57.773438 28.050781 C 57.6875 28.066406 57.601562 28.074219 57.519531 28.078125 C 57.492188 28.082031 57.460938 28.082031 57.433594 28.082031 C 57.03125 28.082031 56.667969 27.949219 56.425781 27.707031 C 56.191406 27.476562 56.078125 27.15625 56.09375 26.777344 L 56.035156 26.769531 C 55.914062 27.125 55.960938 27.527344 56.152344 27.839844 C 56.335938 28.128906 56.617188 28.316406 56.957031 28.363281 C 57.003906 28.371094 57.015625 28.375 57.023438 28.417969 C 57.160156 28.960938 57.527344 29.519531 57.917969 30.105469 C 58.34375 30.75 58.785156 31.414062 58.910156 32.082031 C 59.042969 32.339844 59.195312 32.535156 59.332031 32.710938 C 59.554688 33.003906 59.734375 33.234375 59.761719 33.617188 C 59.765625 33.671875 59.773438 33.742188 59.828125 33.742188 C 59.832031 33.742188 59.832031 33.742188 59.832031 33.742188 C 59.863281 33.742188 59.894531 33.71875 59.957031 33.679688 C 60 33.65625 60.050781 33.621094 60.121094 33.585938 C 60.363281 33.449219 60.617188 33.210938 60.859375 32.976562 C 61.230469 32.625 61.613281 32.261719 61.972656 32.242188 C 61.980469 32.242188 61.988281 32.242188 61.996094 32.242188 C 62.269531 32.242188 62.503906 32.449219 62.714844 32.859375 C 62.804688 33.285156 63.191406 33.792969 63.566406 34.285156 C 64.0625 34.925781 64.570312 35.59375 64.332031 36.011719 Z M 50.667969 46.140625 C 50.878906 46.570312 51.34375 47.296875 51.660156 47.632812 C 51.722656 47.699219 51.789062 47.761719 51.855469 47.828125 C 52.261719 48.222656 52.6875 48.632812 52.453125 49.238281 C 52.355469 49.550781 52.347656 49.859375 52.351562 50.148438 C 52.363281 50.316406 52.234375 51.234375 52.019531 51.46875 C 51.992188 51.503906 51.964844 51.519531 51.933594 51.523438 C 51.910156 51.523438 51.886719 51.511719 51.859375 51.488281 C 51.285156 51.09375 50.984375 50.566406 50.96875 49.921875 L 50.96875 49.90625 C 50.960938 49.769531 50.960938 49.742188 51.101562 49.625 C 51.105469 49.625 51.398438 49.332031 51.386719 49.261719 L 51.378906 49.242188 L 51.371094 49.238281 L 51.347656 49.203125 C 51.210938 49.003906 51.109375 48.855469 51.085938 48.597656 C 50.917969 47.851562 50.128906 46.886719 49.472656 46.363281 C 49.128906 46.101562 48.867188 45.855469 49.105469 45.433594 C 49.136719 45.359375 49.171875 45.285156 49.203125 45.210938 C 49.289062 45.011719 49.375 44.820312 49.480469 44.644531 C 49.574219 44.492188 49.683594 44.355469 49.832031 44.238281 C 49.9375 44.144531 50.03125 44.042969 50.121094 43.9375 C 50.445312 43.5625 50.683594 43.132812 50.835938 42.648438 C 50.929688 42.371094 50.953125 42.066406 50.972656 41.769531 C 50.988281 41.617188 50.996094 41.472656 51.015625 41.332031 C 51.074219 41.289062 51.136719 41.246094 51.199219 41.207031 C 51.605469 40.957031 52.082031 40.824219 52.605469 40.714844 C 52.6875 40.699219 52.769531 40.683594 52.851562 40.667969 C 52.613281 41.089844 52.621094 41.65625 52.625 42.117188 L 52.625 42.195312 C 52.65625 43.503906 51.894531 44.15625 51.28125 44.679688 C 50.738281 45.144531 50.308594 45.511719 50.671875 46.140625 Z M 45.140625 39.554688 C 44.871094 40.085938 44.886719 40.820312 45.179688 41.34375 C 45.664062 42.121094 45.785156 43.292969 44.945312 44.074219 C 45.058594 43.390625 44.949219 42.753906 44.621094 42.1875 L 44.570312 42.210938 C 44.78125 43.121094 44.675781 43.886719 44.273438 44.417969 C 43.921875 44.886719 43.332031 45.171875 42.65625 45.199219 C 42.613281 45.203125 42.570312 45.203125 42.53125 45.203125 C 41.902344 45.203125 41.304688 44.992188 40.910156 44.621094 C 40.628906 44.359375 40.46875 44.03125 40.449219 43.671875 C 40.90625 43.886719 41.332031 43.992188 41.714844 43.992188 C 41.746094 43.992188 41.777344 43.992188 41.804688 43.992188 C 42.277344 43.96875 42.652344 43.777344 42.859375 43.449219 C 43.035156 43.167969 43.0625 42.828125 42.929688 42.511719 C 42.324219 41.0625 42.335938 39.605469 42.957031 38.617188 C 43.375 37.957031 44.027344 37.578125 44.792969 37.539062 C 44.832031 37.539062 44.871094 37.539062 44.910156 37.539062 C 45.363281 37.539062 45.839844 37.65625 46.332031 37.886719 C 46.28125 38 46.242188 38.121094 46.207031 38.238281 C 46.132812 38.472656 46.082031 38.699219 46.054688 38.875 C 45.546875 38.949219 45.277344 39.285156 45.140625 39.554688 Z M 45.140625 39.554688 " fill-opacity="1" fill-rule="nonzero"/></g><path fill="#000000" d="M 57.53125 25.78125 C 57.640625 25.882812 57.792969 26.023438 58.183594 26.023438 C 58.195312 26.023438 58.203125 26.023438 58.214844 26.023438 L 58.253906 26.023438 C 58.253906 26.023438 58.242188 25.984375 58.242188 25.984375 C 58.140625 25.648438 58.007812 25.496094 57.8125 25.496094 C 57.804688 25.496094 57.800781 25.496094 57.792969 25.496094 C 57.6875 25.5 57.566406 25.550781 57.417969 25.644531 L 57.375 25.671875 L 57.421875 25.695312 C 57.457031 25.714844 57.492188 25.746094 57.53125 25.78125 Z M 57.53125 25.78125 " fill-opacity="1" fill-rule="nonzero"/><path fill="#000000" d="M 53.746094 30.769531 L 53.753906 30.792969 C 53.765625 30.835938 53.785156 30.9375 53.808594 31.039062 C 53.875 31.320312 53.875 31.332031 53.898438 31.332031 C 53.898438 31.332031 53.902344 31.332031 53.902344 31.332031 L 53.933594 31.332031 C 53.933594 31.332031 53.929688 31.300781 53.929688 31.300781 C 53.601562 28.367188 54.132812 26.40625 55.609375 25.132812 L 55.578125 25.082031 C 53.761719 25.675781 53.21875 28.441406 53.746094 30.769531 Z M 53.746094 30.769531 " fill-opacity="1" fill-rule="nonzero"/><path fill="#000000" d="M 56.644531 32.171875 C 56.613281 32.171875 56.582031 32.171875 56.550781 32.175781 C 56.496094 32.175781 56.441406 32.179688 56.382812 32.1875 L 56.378906 32.246094 C 57.722656 32.648438 58.355469 33.460938 58.320312 34.734375 L 58.375 34.746094 C 58.636719 34.144531 58.582031 33.5 58.222656 32.976562 C 57.871094 32.46875 57.289062 32.171875 56.644531 32.171875 Z M 56.644531 32.171875 " fill-opacity="1" fill-rule="nonzero"/></svg>