<svg xmlns="http://www.w3.org/2000/svg" xmlns:xlink="http://www.w3.org/1999/xlink" width="140" zoomAndPan="magnify" viewBox="0 0 104.88 74.999997" height="100" preserveAspectRatio="xMidYMid meet" version="1.0"><defs><clipPath id="5f5f64b6ac"><path d="M 0 0.0429688 L 104.761719 0.0429688 L 104.761719 74.957031 L 0 74.957031 Z M 0 0.0429688 " clip-rule="nonzero"/></clipPath><clipPath id="6c81975be1"><path d="M 36 24 L 68.871094 24 L 68.871094 48 L 36 48 Z M 36 24 " clip-rule="nonzero"/></clipPath><clipPath id="651ae501c9"><path d="M 35.90625 45 L 68.871094 45 L 68.871094 52.484375 L 35.90625 52.484375 Z M 35.90625 45 " clip-rule="nonzero"/></clipPath><clipPath id="52cacccca8"><path d="M 44 22.515625 L 50 22.515625 L 50 27 L 44 27 Z M 44 22.515625 " clip-rule="nonzero"/></clipPath></defs><g clip-path="url(#5f5f64b6ac)"><path fill="#ffffff" d="M 0 0.0429688 L 104.878906 0.0429688 L 104.878906 74.957031 L 0 74.957031 Z M 0 0.0429688 " fill-opacity="1" fill-rule="nonzero"/><path fill="#ffffff" d="M 0 0.0429688 L 104.878906 0.0429688 L 104.878906 74.957031 L 0 74.957031 Z M 0 0.0429688 " fill-opacity="1" fill-rule="nonzero"/></g><g clip-path="url(#6c81975be1)"><path fill="#000000" d="M 64.335938 47.855469 L 56.011719 47.855469 C 55.683594 47.855469 55.355469 47.785156 55.058594 47.640625 L 47.742188 44.214844 C 47.355469 44.03125 46.921875 43.9375 46.5 43.9375 L 45.203125 43.9375 C 44.992188 43.9375 44.816406 43.761719 44.816406 43.546875 C 44.816406 43.335938 44.992188 43.160156 45.203125 43.160156 L 46.5 43.160156 C 47.039062 43.160156 47.578125 43.285156 48.070312 43.511719 L 55.386719 46.9375 C 55.582031 47.027344 55.800781 47.078125 56.011719 47.078125 L 64.335938 47.078125 C 65.203125 47.078125 66.023438 46.742188 66.644531 46.136719 L 57.132812 46.136719 C 56.796875 46.136719 56.464844 46.074219 56.152344 45.945312 L 48.121094 42.632812 C 47.765625 42.484375 47.386719 42.414062 47 42.414062 L 37.816406 42.414062 C 37.679688 42.414062 37.550781 42.339844 37.480469 42.21875 C 36.90625 41.25 36.648438 40.121094 36.65625 38.667969 C 36.667969 37.101562 36.984375 35.539062 37.609375 34.027344 L 37.621094 33.988281 C 38.21875 32.542969 38.515625 31.019531 38.515625 29.457031 L 38.515625 25.382812 C 38.515625 25.171875 38.691406 24.996094 38.902344 24.996094 L 47.921875 24.996094 C 48.996094 24.996094 49.871094 25.867188 49.878906 26.945312 C 49.902344 32.851562 54.433594 37.332031 62 38.925781 C 62.003906 38.925781 62.011719 38.925781 62.019531 38.933594 L 65.351562 39.796875 C 67.15625 40.261719 68.410156 41.894531 68.410156 43.761719 C 68.410156 44.542969 68.191406 45.296875 67.78125 45.949219 C 67.78125 45.957031 67.773438 45.957031 67.773438 45.964844 C 67.613281 46.214844 67.425781 46.445312 67.21875 46.652344 C 66.445312 47.429688 65.421875 47.855469 64.335938 47.855469 Z M 38.039062 41.636719 L 47 41.636719 C 47.488281 41.636719 47.960938 41.734375 48.410156 41.914062 L 56.445312 45.226562 C 56.664062 45.316406 56.894531 45.363281 57.132812 45.363281 L 67.230469 45.363281 C 67.503906 44.871094 67.644531 44.324219 67.644531 43.761719 C 67.644531 42.25 66.628906 40.929688 65.164062 40.546875 L 61.839844 39.683594 C 57.648438 38.796875 54.390625 37.117188 52.167969 34.703125 C 50.179688 32.542969 49.125 29.863281 49.113281 26.953125 C 49.113281 26.300781 48.578125 25.777344 47.925781 25.777344 L 39.296875 25.777344 L 39.296875 29.464844 C 39.296875 31.128906 38.972656 32.75 38.34375 34.292969 L 38.328125 34.332031 C 37.742188 35.75 37.441406 37.214844 37.433594 38.679688 C 37.421875 39.886719 37.617188 40.835938 38.039062 41.636719 Z M 38.039062 41.636719 " fill-opacity="1" fill-rule="nonzero"/></g><path fill="#000000" d="M 45.203125 45.976562 L 37.816406 45.976562 C 37.601562 45.976562 37.429688 45.800781 37.429688 45.589844 L 37.429688 42.023438 C 37.429688 41.8125 37.601562 41.636719 37.816406 41.636719 C 38.027344 41.636719 38.199219 41.8125 38.199219 42.023438 L 38.199219 45.203125 L 44.816406 45.203125 L 44.816406 42.023438 C 44.816406 41.8125 44.992188 41.636719 45.203125 41.636719 C 45.417969 41.636719 45.589844 41.8125 45.589844 42.023438 L 45.589844 45.589844 C 45.589844 45.800781 45.417969 45.976562 45.203125 45.976562 Z M 45.203125 45.976562 " fill-opacity="1" fill-rule="nonzero"/><g clip-path="url(#651ae501c9)"><path fill="#000000" d="M 65.347656 52.484375 L 38.554688 52.484375 C 37.09375 52.484375 35.910156 51.296875 35.910156 49.828125 C 35.910156 49.617188 36.082031 49.441406 36.296875 49.441406 L 40.105469 49.441406 L 40.105469 45.589844 C 40.105469 45.375 40.28125 45.203125 40.492188 45.203125 C 40.703125 45.203125 40.878906 45.375 40.878906 45.589844 L 40.878906 49.828125 C 40.878906 50.042969 40.703125 50.21875 40.492188 50.21875 L 36.71875 50.21875 C 36.902344 51.070312 37.652344 51.707031 38.554688 51.707031 L 65.347656 51.707031 C 66.074219 51.707031 66.792969 51.40625 67.316406 50.882812 C 67.824219 50.367188 68.109375 49.695312 68.101562 48.984375 C 68.09375 48.265625 67.816406 47.597656 67.308594 47.09375 C 67.148438 46.9375 66.976562 46.796875 66.78125 46.679688 C 66.601562 46.570312 66.535156 46.332031 66.644531 46.148438 C 66.753906 45.96875 66.992188 45.90625 67.175781 46.015625 C 67.417969 46.164062 67.644531 46.335938 67.851562 46.542969 C 68.5 47.195312 68.859375 48.0625 68.867188 48.976562 C 68.875 49.894531 68.511719 50.757812 67.855469 51.425781 C 67.195312 52.09375 66.28125 52.484375 65.347656 52.484375 Z M 65.347656 52.484375 " fill-opacity="1" fill-rule="nonzero"/></g><path fill="#000000" d="M 54.835938 50.28125 L 43.261719 50.28125 C 42.550781 50.28125 41.980469 49.707031 41.980469 48.996094 L 41.980469 45.589844 C 41.980469 45.375 42.152344 45.203125 42.367188 45.203125 C 42.578125 45.203125 42.753906 45.375 42.753906 45.589844 L 42.753906 48.996094 C 42.753906 49.28125 42.984375 49.507812 43.261719 49.507812 L 54.835938 49.507812 C 55.117188 49.507812 55.34375 49.273438 55.34375 48.996094 L 55.34375 47.449219 C 55.34375 47.234375 55.515625 47.058594 55.730469 47.058594 C 55.941406 47.058594 56.117188 47.234375 56.117188 47.449219 L 56.117188 48.996094 C 56.117188 49.707031 55.542969 50.28125 54.835938 50.28125 Z M 54.835938 50.28125 " fill-opacity="1" fill-rule="nonzero"/><path fill="#000000" d="M 65.140625 50.28125 L 57.539062 50.28125 C 57.324219 50.28125 57.152344 50.105469 57.152344 49.894531 L 57.152344 47.46875 C 57.152344 47.253906 57.324219 47.078125 57.539062 47.078125 C 57.75 47.078125 57.925781 47.253906 57.925781 47.46875 L 57.925781 49.507812 L 65.140625 49.507812 C 65.648438 49.507812 66.0625 49.09375 66.0625 48.582031 C 66.0625 48.339844 65.964844 48.105469 65.789062 47.933594 C 65.667969 47.808594 65.507812 47.71875 65.339844 47.6875 C 65.132812 47.640625 65 47.433594 65.042969 47.226562 C 65.089844 47.023438 65.292969 46.886719 65.5 46.929688 C 65.816406 47.003906 66.105469 47.15625 66.335938 47.390625 C 66.660156 47.710938 66.832031 48.136719 66.832031 48.589844 C 66.832031 49.519531 66.074219 50.28125 65.140625 50.28125 Z M 65.140625 50.28125 " fill-opacity="1" fill-rule="nonzero"/><g clip-path="url(#52cacccca8)"><path fill="#000000" d="M 49.265625 26.519531 C 49.246094 26.519531 49.226562 26.519531 49.207031 26.511719 C 48.996094 26.480469 48.847656 26.285156 48.878906 26.074219 L 49.027344 25.015625 C 49.09375 24.582031 48.964844 24.144531 48.675781 23.816406 C 48.390625 23.484375 47.972656 23.296875 47.542969 23.296875 C 47.03125 23.296875 46.5625 23.550781 46.285156 23.976562 L 45.230469 25.589844 C 45.113281 25.769531 44.875 25.816406 44.695312 25.699219 C 44.515625 25.582031 44.472656 25.34375 44.585938 25.164062 L 45.640625 23.550781 C 46.066406 22.90625 46.773438 22.515625 47.542969 22.515625 C 48.199219 22.515625 48.828125 22.800781 49.261719 23.304688 C 49.691406 23.800781 49.882812 24.464844 49.792969 25.117188 L 49.644531 26.175781 C 49.621094 26.382812 49.460938 26.519531 49.265625 26.519531 Z M 49.265625 26.519531 " fill-opacity="1" fill-rule="nonzero"/></g><path fill="#000000" d="M 50.277344 28.558594 L 46.980469 28.558594 C 46.769531 28.558594 46.59375 28.386719 46.59375 28.171875 C 46.59375 27.960938 46.769531 27.785156 46.980469 27.785156 L 50.277344 27.785156 C 50.488281 27.785156 50.664062 27.960938 50.664062 28.171875 C 50.664062 28.386719 50.488281 28.558594 50.277344 28.558594 Z M 50.277344 28.558594 " fill-opacity="1" fill-rule="nonzero"/><path fill="#000000" d="M 47.175781 31.40625 C 46.980469 31.40625 46.820312 31.265625 46.792969 31.070312 C 46.769531 30.859375 46.917969 30.664062 47.121094 30.636719 L 50.734375 30.152344 C 50.945312 30.128906 51.140625 30.277344 51.164062 30.484375 C 51.191406 30.695312 51.042969 30.890625 50.835938 30.914062 L 47.226562 31.398438 C 47.214844 31.40625 47.195312 31.40625 47.175781 31.40625 Z M 47.175781 31.40625 " fill-opacity="1" fill-rule="nonzero"/><path fill="#000000" d="M 48.371094 33.996094 C 48.210938 33.996094 48.054688 33.890625 48.003906 33.722656 C 47.941406 33.515625 48.050781 33.304688 48.253906 33.238281 L 51.582031 32.175781 C 51.789062 32.109375 52.003906 32.21875 52.066406 32.425781 C 52.128906 32.632812 52.019531 32.84375 51.816406 32.910156 L 48.488281 33.976562 C 48.449219 33.988281 48.410156 33.996094 48.371094 33.996094 Z M 48.371094 33.996094 " fill-opacity="1" fill-rule="nonzero"/><path fill="#000000" d="M 50.277344 36.558594 C 50.148438 36.558594 50.019531 36.492188 49.949219 36.375 C 49.839844 36.195312 49.890625 35.957031 50.070312 35.839844 L 52.941406 34.058594 C 53.121094 33.949219 53.359375 34 53.476562 34.183594 C 53.585938 34.363281 53.535156 34.601562 53.347656 34.71875 L 50.476562 36.5 C 50.414062 36.539062 50.339844 36.558594 50.277344 36.558594 Z M 50.277344 36.558594 " fill-opacity="1" fill-rule="nonzero"/><path fill="#000000" d="M 52.535156 38.332031 C 52.433594 38.332031 52.335938 38.292969 52.257812 38.214844 C 52.113281 38.0625 52.117188 37.816406 52.273438 37.667969 L 54.726562 35.304688 C 54.878906 35.15625 55.125 35.164062 55.273438 35.316406 C 55.421875 35.472656 55.414062 35.71875 55.257812 35.867188 L 52.808594 38.230469 C 52.730469 38.300781 52.632812 38.332031 52.535156 38.332031 Z M 52.535156 38.332031 " fill-opacity="1" fill-rule="nonzero"/><path fill="#000000" d="M 54.988281 39.886719 C 54.90625 39.886719 54.820312 39.863281 54.75 39.804688 C 54.582031 39.675781 54.550781 39.429688 54.679688 39.261719 L 56.683594 36.671875 C 56.8125 36.507812 57.054688 36.472656 57.222656 36.601562 C 57.390625 36.730469 57.421875 36.976562 57.292969 37.144531 L 55.292969 39.734375 C 55.214844 39.835938 55.105469 39.886719 54.988281 39.886719 Z M 54.988281 39.886719 " fill-opacity="1" fill-rule="nonzero"/><path fill="#000000" d="M 57.539062 41.058594 C 57.472656 41.058594 57.414062 41.042969 57.359375 41.011719 C 57.171875 40.910156 57.101562 40.675781 57.195312 40.488281 L 58.652344 37.769531 C 58.753906 37.582031 58.984375 37.511719 59.171875 37.609375 C 59.359375 37.714844 59.429688 37.945312 59.332031 38.132812 L 57.878906 40.851562 C 57.808594 40.980469 57.671875 41.058594 57.539062 41.058594 Z M 57.539062 41.058594 " fill-opacity="1" fill-rule="nonzero"/><path fill="#000000" d="M 60.183594 41.894531 C 60.144531 41.894531 60.101562 41.890625 60.0625 41.875 C 59.863281 41.8125 59.746094 41.59375 59.816406 41.386719 L 60.847656 38.25 C 60.910156 38.046875 61.128906 37.933594 61.335938 38.003906 C 61.542969 38.074219 61.652344 38.289062 61.582031 38.492188 L 60.550781 41.632812 C 60.5 41.792969 60.34375 41.894531 60.183594 41.894531 Z M 60.183594 41.894531 " fill-opacity="1" fill-rule="nonzero"/></svg>