<svg xmlns="http://www.w3.org/2000/svg" xmlns:xlink="http://www.w3.org/1999/xlink" width="140" zoomAndPan="magnify" viewBox="0 0 104.88 74.999997" height="100" preserveAspectRatio="xMidYMid meet" version="1.0"><defs><clipPath id="7205254f99"><path d="M 0 0.0429688 L 104.761719 0.0429688 L 104.761719 74.957031 L 0 74.957031 Z M 0 0.0429688 " clip-rule="nonzero"/></clipPath><clipPath id="f2c5a71ee4"><path d="M 46 22.515625 L 58 22.515625 L 58 32 L 46 32 Z M 46 22.515625 " clip-rule="nonzero"/></clipPath><clipPath id="4afe46c0a0"><path d="M 40.097656 28 L 64 28 L 64 35 L 40.097656 35 Z M 40.097656 28 " clip-rule="nonzero"/></clipPath><clipPath id="d04cbb157c"><path d="M 44 49 L 46 49 L 46 52.484375 L 44 52.484375 Z M 44 49 " clip-rule="nonzero"/></clipPath><clipPath id="14eb4de561"><path d="M 41 40 L 63 40 L 63 52.484375 L 41 52.484375 Z M 41 40 " clip-rule="nonzero"/></clipPath><clipPath id="eb18d0c679"><path d="M 55 36 L 64.820312 36 L 64.820312 43 L 55 43 Z M 55 36 " clip-rule="nonzero"/></clipPath><clipPath id="7bfaf2030a"><path d="M 62 41 L 64.820312 41 L 64.820312 46 L 62 46 Z M 62 41 " clip-rule="nonzero"/></clipPath><clipPath id="7f0f54efce"><path d="M 55 42 L 64.820312 42 L 64.820312 48 L 55 48 Z M 55 42 " clip-rule="nonzero"/></clipPath><clipPath id="0a3dcc9541"><path d="M 58 47 L 60 47 L 60 52.484375 L 58 52.484375 Z M 58 47 " clip-rule="nonzero"/></clipPath><clipPath id="0d27d5edd5"><path d="M 61 47 L 62 47 L 62 52.484375 L 61 52.484375 Z M 61 47 " clip-rule="nonzero"/></clipPath></defs><g clip-path="url(#7205254f99)"><path fill="#ffffff" d="M 0 0.0429688 L 104.878906 0.0429688 L 104.878906 74.957031 L 0 74.957031 Z M 0 0.0429688 " fill-opacity="1" fill-rule="nonzero"/><path fill="#ffffff" d="M 0 0.0429688 L 104.878906 0.0429688 L 104.878906 74.957031 L 0 74.957031 Z M 0 0.0429688 " fill-opacity="1" fill-rule="nonzero"/></g><g clip-path="url(#f2c5a71ee4)"><path fill="#000000" d="M 51.953125 31.699219 C 50.175781 31.699219 48.398438 31.429688 46.632812 30.886719 C 46.464844 30.832031 46.359375 30.664062 46.394531 30.488281 L 47.566406 24.121094 C 47.679688 23.53125 48.042969 23.027344 48.574219 22.746094 C 49.109375 22.464844 49.730469 22.441406 50.28125 22.6875 L 51.953125 23.425781 L 53.621094 22.6875 C 54.171875 22.441406 54.792969 22.464844 55.328125 22.746094 C 55.863281 23.027344 56.230469 23.53125 56.335938 24.121094 L 57.507812 30.488281 C 57.542969 30.664062 57.4375 30.832031 57.269531 30.886719 C 55.503906 31.429688 53.726562 31.699219 51.953125 31.699219 Z M 47.136719 30.304688 C 50.332031 31.222656 53.5625 31.222656 56.757812 30.304688 L 55.644531 24.25 C 55.574219 23.871094 55.339844 23.546875 55 23.371094 C 54.660156 23.191406 54.261719 23.179688 53.910156 23.332031 L 52.222656 24.078125 C 52.152344 24.144531 52.058594 24.179688 51.957031 24.171875 C 51.863281 24.179688 51.765625 24.144531 51.695312 24.078125 L 50.003906 23.332031 C 49.652344 23.171875 49.253906 23.191406 48.914062 23.371094 C 48.574219 23.554688 48.339844 23.875 48.269531 24.25 Z M 47.136719 30.304688 " fill-opacity="1" fill-rule="nonzero"/></g><g clip-path="url(#4afe46c0a0)"><path fill="#000000" d="M 51.953125 34.542969 C 51.402344 34.542969 50.847656 34.511719 50.304688 34.453125 C 46.160156 34.003906 42.882812 32.710938 40.5625 30.605469 C 40.011719 30.101562 39.941406 29.265625 40.410156 28.703125 L 40.421875 28.691406 C 40.625 28.445312 40.917969 28.28125 41.242188 28.230469 C 42.554688 28.011719 44.921875 28.390625 47.0625 28.796875 C 47.253906 28.832031 47.378906 29.019531 47.34375 29.207031 C 47.308594 29.398438 47.121094 29.523438 46.933594 29.488281 C 44.851562 29.09375 42.558594 28.71875 41.359375 28.917969 C 41.199219 28.949219 41.058594 29.023438 40.960938 29.140625 L 40.953125 29.152344 C 40.726562 29.429688 40.761719 29.84375 41.035156 30.089844 C 43.246094 32.089844 46.386719 33.332031 50.378906 33.765625 C 51.425781 33.875 52.480469 33.875 53.523438 33.765625 C 57.515625 33.332031 60.65625 32.097656 62.867188 30.089844 C 63.144531 29.835938 63.179688 29.429688 62.949219 29.152344 L 62.945312 29.140625 C 62.84375 29.023438 62.703125 28.949219 62.546875 28.917969 C 61.34375 28.71875 59.050781 29.09375 56.96875 29.488281 C 56.78125 29.523438 56.59375 29.398438 56.558594 29.207031 C 56.523438 29.011719 56.648438 28.832031 56.839844 28.796875 C 58.980469 28.390625 61.347656 28.011719 62.664062 28.230469 C 62.984375 28.28125 63.277344 28.445312 63.484375 28.691406 L 63.496094 28.703125 C 63.964844 29.269531 63.894531 30.105469 63.34375 30.609375 C 61.019531 32.714844 57.742188 34.007812 53.597656 34.460938 C 53.054688 34.511719 52.503906 34.542969 51.953125 34.542969 Z M 51.953125 34.542969 " fill-opacity="1" fill-rule="nonzero"/></g><path fill="#000000" d="M 44.054688 44.835938 C 43.863281 44.835938 43.703125 44.675781 43.703125 44.484375 C 43.703125 44.289062 43.863281 44.132812 44.054688 44.132812 C 44.25 44.132812 44.40625 44.289062 44.40625 44.484375 C 44.40625 44.675781 44.25 44.835938 44.054688 44.835938 Z M 44.054688 44.835938 " fill-opacity="1" fill-rule="nonzero"/><path fill="#000000" d="M 51.953125 41.371094 C 51.109375 41.371094 50.292969 41.160156 49.542969 40.746094 C 49.007812 40.453125 48.515625 40.058594 48.09375 39.585938 C 47.074219 38.445312 46.515625 36.933594 46.515625 35.332031 L 46.515625 34.699219 C 46.515625 34.203125 46.691406 33.722656 47.007812 33.347656 C 47.132812 33.203125 47.355469 33.183594 47.507812 33.308594 C 47.65625 33.429688 47.671875 33.652344 47.550781 33.804688 C 47.339844 34.050781 47.21875 34.371094 47.21875 34.699219 L 47.21875 35.332031 C 47.21875 36.765625 47.71875 38.113281 48.621094 39.117188 C 48.992188 39.535156 49.417969 39.871094 49.882812 40.128906 C 50.527344 40.488281 51.226562 40.667969 51.953125 40.667969 C 54.558594 40.667969 56.683594 38.273438 56.683594 35.332031 L 56.683594 35.320312 C 56.683594 34.765625 56.347656 34.265625 55.828125 34.050781 C 55.644531 33.972656 55.5625 33.769531 55.640625 33.59375 C 55.714844 33.414062 55.921875 33.332031 56.097656 33.40625 C 56.882812 33.734375 57.386719 34.484375 57.386719 35.328125 L 57.386719 35.339844 C 57.386719 38.660156 54.949219 41.371094 51.953125 41.371094 Z M 51.953125 41.371094 " fill-opacity="1" fill-rule="nonzero"/><path fill="#000000" d="M 51.941406 48.046875 C 51.824219 48.046875 51.710938 47.988281 51.640625 47.882812 L 48.453125 42.820312 C 48.347656 42.65625 48.398438 42.441406 48.5625 42.335938 C 48.726562 42.230469 48.945312 42.285156 49.050781 42.445312 L 52.238281 47.507812 C 52.34375 47.671875 52.292969 47.890625 52.128906 47.996094 C 52.070312 48.03125 52.003906 48.046875 51.941406 48.046875 Z M 51.941406 48.046875 " fill-opacity="1" fill-rule="nonzero"/><g clip-path="url(#d04cbb157c)"><path fill="#000000" d="M 45.292969 52.480469 C 45.097656 52.480469 44.941406 52.324219 44.941406 52.132812 L 44.941406 49.359375 C 44.941406 49.164062 45.097656 49.007812 45.292969 49.007812 C 45.484375 49.007812 45.644531 49.164062 45.644531 49.359375 L 45.644531 52.132812 C 45.644531 52.324219 45.484375 52.480469 45.292969 52.480469 Z M 45.292969 52.480469 " fill-opacity="1" fill-rule="nonzero"/></g><g clip-path="url(#14eb4de561)"><path fill="#000000" d="M 62.390625 52.480469 L 41.503906 52.480469 C 41.40625 52.480469 41.304688 52.433594 41.242188 52.359375 C 41.175781 52.285156 41.140625 52.183594 41.160156 52.078125 L 41.863281 47.058594 C 41.863281 47.046875 41.867188 47.039062 41.867188 47.027344 C 42.101562 46.003906 42.675781 45.121094 43.570312 44.40625 C 43.664062 44.335938 43.757812 44.261719 43.863281 44.191406 C 44.03125 44.074219 44.214844 43.96875 44.402344 43.875 C 44.882812 43.636719 45.402344 43.472656 45.953125 43.394531 C 47.074219 43.230469 47.941406 42.886719 48.523438 42.367188 C 49.460938 41.527344 49.371094 40.515625 49.367188 40.476562 C 49.347656 40.28125 49.484375 40.113281 49.675781 40.089844 C 49.871094 40.070312 50.039062 40.207031 50.0625 40.398438 C 50.070312 40.457031 50.210938 41.804688 48.992188 42.890625 C 48.300781 43.507812 47.316406 43.914062 46.054688 44.097656 C 45.578125 44.167969 45.128906 44.308594 44.710938 44.511719 C 44.554688 44.59375 44.402344 44.683594 44.253906 44.777344 C 44.167969 44.835938 44.085938 44.894531 44.007812 44.957031 C 43.246094 45.566406 42.757812 46.316406 42.554688 47.175781 L 41.910156 51.78125 L 62.390625 51.78125 C 62.585938 51.78125 62.746094 51.9375 62.746094 52.132812 C 62.746094 52.324219 62.585938 52.480469 62.390625 52.480469 Z M 62.390625 52.480469 " fill-opacity="1" fill-rule="nonzero"/></g><path fill="#000000" d="M 57.082031 43.9375 C 57.050781 43.9375 57.023438 43.933594 56.992188 43.925781 C 56.136719 43.710938 55.441406 43.359375 54.914062 42.890625 C 53.691406 41.804688 53.832031 40.457031 53.839844 40.398438 C 53.863281 40.207031 54.039062 40.070312 54.226562 40.089844 C 54.417969 40.113281 54.558594 40.289062 54.535156 40.476562 C 54.53125 40.515625 54.441406 41.527344 55.382812 42.367188 C 55.820312 42.757812 56.417969 43.054688 57.167969 43.242188 C 57.355469 43.289062 57.46875 43.484375 57.421875 43.671875 C 57.378906 43.835938 57.238281 43.9375 57.082031 43.9375 Z M 57.082031 43.9375 " fill-opacity="1" fill-rule="nonzero"/><path fill="#000000" d="M 51.957031 48.046875 C 51.894531 48.046875 51.828125 48.03125 51.769531 47.996094 C 51.605469 47.890625 51.558594 47.671875 51.660156 47.507812 L 54.847656 42.445312 C 54.953125 42.285156 55.171875 42.238281 55.335938 42.335938 C 55.5 42.441406 55.546875 42.65625 55.445312 42.820312 L 52.257812 47.882812 C 52.191406 47.988281 52.074219 48.046875 51.957031 48.046875 Z M 51.957031 48.046875 " fill-opacity="1" fill-rule="nonzero"/><path fill="#000000" d="M 57.085938 30.492188 C 57 30.492188 56.910156 30.457031 56.839844 30.394531 C 55.523438 29.113281 53.78125 28.402344 51.933594 28.402344 C 50.109375 28.402344 48.382812 29.101562 47.0625 30.359375 C 46.921875 30.492188 46.699219 30.488281 46.5625 30.347656 C 46.429688 30.207031 46.433594 29.984375 46.574219 29.847656 C 48.023438 28.460938 49.929688 27.695312 51.933594 27.695312 C 53.960938 27.695312 55.878906 28.472656 57.332031 29.882812 C 57.472656 30.019531 57.472656 30.242188 57.339844 30.382812 C 57.269531 30.457031 57.179688 30.492188 57.085938 30.492188 Z M 57.085938 30.492188 " fill-opacity="1" fill-rule="nonzero"/><path fill="#000000" d="M 59.320312 38.410156 C 59.128906 38.410156 58.96875 38.25 58.96875 38.058594 L 58.96875 35.417969 C 58.96875 34.589844 58.828125 33.777344 58.539062 33.003906 C 58.527344 32.960938 58.515625 32.921875 58.515625 32.878906 C 58.515625 32.6875 58.675781 32.53125 58.871094 32.53125 C 59.027344 32.53125 59.15625 32.632812 59.203125 32.773438 C 59.515625 33.625 59.667969 34.507812 59.667969 35.417969 L 59.667969 38.058594 C 59.671875 38.25 59.515625 38.410156 59.320312 38.410156 Z M 59.320312 38.410156 " fill-opacity="1" fill-rule="nonzero"/><path fill="#000000" d="M 44.546875 44.546875 C 44.355469 44.546875 44.195312 44.390625 44.195312 44.195312 L 44.195312 35.417969 C 44.195312 34.5 44.355469 33.605469 44.671875 32.75 C 44.734375 32.570312 44.941406 32.476562 45.121094 32.542969 C 45.304688 32.605469 45.398438 32.808594 45.332031 32.992188 C 45.046875 33.769531 44.90625 34.582031 44.90625 35.414062 L 44.90625 44.183594 C 44.898438 44.390625 44.742188 44.546875 44.546875 44.546875 Z M 44.546875 44.546875 " fill-opacity="1" fill-rule="nonzero"/><g clip-path="url(#eb18d0c679)"><path fill="#000000" d="M 64.460938 42.429688 L 62.390625 42.429688 C 62.199219 42.429688 62.039062 42.273438 62.039062 42.078125 C 62.039062 41.886719 62.199219 41.726562 62.390625 41.726562 L 63.742188 41.726562 L 60.324219 37.34375 L 56.910156 41.726562 L 58.257812 41.726562 C 58.453125 41.726562 58.609375 41.886719 58.609375 42.078125 C 58.609375 42.273438 58.453125 42.429688 58.257812 42.429688 L 56.191406 42.429688 C 56.054688 42.429688 55.933594 42.355469 55.875 42.230469 C 55.816406 42.109375 55.828125 41.96875 55.914062 41.863281 L 60.046875 36.554688 C 60.113281 36.46875 60.21875 36.421875 60.324219 36.421875 C 60.429688 36.421875 60.535156 36.472656 60.597656 36.554688 L 64.730469 41.863281 C 64.8125 41.96875 64.832031 42.113281 64.773438 42.230469 C 64.714844 42.347656 64.597656 42.429688 64.460938 42.429688 Z M 64.460938 42.429688 " fill-opacity="1" fill-rule="nonzero"/></g><path fill="#000000" d="M 58.257812 45.082031 L 56.191406 45.082031 C 56.054688 45.082031 55.933594 45.003906 55.875 44.882812 C 55.816406 44.757812 55.828125 44.617188 55.914062 44.511719 L 59.421875 40.011719 C 59.539062 39.859375 59.761719 39.832031 59.914062 39.949219 C 60.066406 40.066406 60.09375 40.289062 59.976562 40.441406 L 56.910156 44.378906 L 58.257812 44.378906 C 58.453125 44.378906 58.609375 44.535156 58.609375 44.730469 C 58.609375 44.921875 58.453125 45.082031 58.257812 45.082031 Z M 58.257812 45.082031 " fill-opacity="1" fill-rule="nonzero"/><g clip-path="url(#7bfaf2030a)"><path fill="#000000" d="M 64.460938 45.082031 L 62.390625 45.082031 C 62.199219 45.082031 62.039062 44.921875 62.039062 44.730469 C 62.039062 44.535156 62.199219 44.378906 62.390625 44.378906 L 63.742188 44.378906 C 63.34375 43.867188 62.726562 43.078125 62.117188 42.289062 C 62 42.136719 62.023438 41.914062 62.179688 41.796875 C 62.332031 41.679688 62.558594 41.703125 62.675781 41.863281 C 63.707031 43.191406 64.742188 44.511719 64.742188 44.511719 C 64.824219 44.617188 64.84375 44.765625 64.785156 44.882812 C 64.726562 45 64.597656 45.082031 64.460938 45.082031 Z M 64.460938 45.082031 " fill-opacity="1" fill-rule="nonzero"/></g><g clip-path="url(#7f0f54efce)"><path fill="#000000" d="M 64.460938 47.730469 L 56.195312 47.730469 C 56.0625 47.730469 55.9375 47.65625 55.878906 47.53125 C 55.820312 47.410156 55.832031 47.269531 55.921875 47.164062 C 55.921875 47.164062 56.953125 45.835938 57.988281 44.511719 C 58.105469 44.359375 58.328125 44.332031 58.480469 44.453125 C 58.632812 44.570312 58.664062 44.792969 58.539062 44.945312 C 57.925781 45.734375 57.308594 46.519531 56.917969 47.035156 L 63.746094 47.035156 C 63.347656 46.527344 62.734375 45.734375 62.121094 44.945312 C 61.671875 44.367188 61.21875 43.789062 60.855469 43.320312 C 60.738281 43.167969 60.761719 42.945312 60.914062 42.828125 C 61.066406 42.710938 61.289062 42.734375 61.40625 42.886719 C 61.769531 43.355469 62.222656 43.933594 62.675781 44.511719 C 63.707031 45.839844 64.742188 47.164062 64.742188 47.164062 C 64.824219 47.269531 64.84375 47.414062 64.785156 47.53125 C 64.726562 47.648438 64.597656 47.730469 64.460938 47.730469 Z M 64.460938 47.730469 " fill-opacity="1" fill-rule="nonzero"/></g><g clip-path="url(#0a3dcc9541)"><path fill="#000000" d="M 59.292969 52.480469 C 59.097656 52.480469 58.941406 52.324219 58.941406 52.132812 L 58.941406 47.378906 C 58.941406 47.1875 59.097656 47.027344 59.292969 47.027344 C 59.484375 47.027344 59.644531 47.1875 59.644531 47.378906 L 59.644531 52.132812 C 59.644531 52.324219 59.484375 52.480469 59.292969 52.480469 Z M 59.292969 52.480469 " fill-opacity="1" fill-rule="nonzero"/></g><g clip-path="url(#0d27d5edd5)"><path fill="#000000" d="M 61.359375 52.480469 C 61.167969 52.480469 61.007812 52.324219 61.007812 52.132812 L 61.007812 47.378906 C 61.007812 47.1875 61.167969 47.027344 61.359375 47.027344 C 61.554688 47.027344 61.710938 47.1875 61.710938 47.378906 L 61.710938 52.132812 C 61.710938 52.324219 61.554688 52.480469 61.359375 52.480469 Z M 61.359375 52.480469 " fill-opacity="1" fill-rule="nonzero"/></g></svg>