<svg xmlns="http://www.w3.org/2000/svg" xmlns:xlink="http://www.w3.org/1999/xlink" width="140" zoomAndPan="magnify" viewBox="0 0 104.88 74.999997" height="100" preserveAspectRatio="xMidYMid meet" version="1.0"><defs><clipPath id="8c428d6a7d"><path d="M 0 0.0429688 L 104.761719 0.0429688 L 104.761719 74.957031 L 0 74.957031 Z M 0 0.0429688 " clip-rule="nonzero"/></clipPath><clipPath id="0e71721fe4"><path d="M 38.300781 22.515625 L 66.769531 22.515625 L 66.769531 52.484375 L 38.300781 52.484375 Z M 38.300781 22.515625 " clip-rule="nonzero"/></clipPath></defs><g clip-path="url(#8c428d6a7d)"><path fill="#ffffff" d="M 0 0.0429688 L 104.878906 0.0429688 L 104.878906 74.957031 L 0 74.957031 Z M 0 0.0429688 " fill-opacity="1" fill-rule="nonzero"/><path fill="#ffffff" d="M 0 0.0429688 L 104.878906 0.0429688 L 104.878906 74.957031 L 0 74.957031 Z M 0 0.0429688 " fill-opacity="1" fill-rule="nonzero"/></g><g clip-path="url(#0e71721fe4)"><path fill="#000000" d="M 66.492188 49.871094 L 66.152344 49.871094 L 66.152344 48.261719 C 66.152344 48.132812 66.046875 48.023438 65.914062 48.023438 L 65.128906 48.023438 L 65.128906 46.800781 C 65.128906 46.667969 65.023438 46.5625 64.890625 46.5625 L 64.230469 46.5625 L 64.230469 45.667969 C 64.230469 45.539062 64.121094 45.433594 63.988281 45.433594 L 63.800781 45.433594 L 63.800781 32.667969 L 63.988281 32.667969 C 64.121094 32.667969 64.230469 32.5625 64.230469 32.433594 L 64.230469 31.402344 L 66.160156 31.402344 C 66.292969 31.402344 66.398438 31.292969 66.398438 31.164062 L 66.398438 26.023438 C 66.398438 25.894531 66.292969 25.789062 66.160156 25.789062 L 63.429688 25.789062 L 52.609375 22.527344 C 52.5625 22.511719 52.515625 22.511719 52.46875 22.527344 L 41.648438 25.789062 L 38.917969 25.789062 C 38.785156 25.789062 38.679688 25.894531 38.679688 26.023438 L 38.679688 31.164062 C 38.679688 31.292969 38.785156 31.402344 38.917969 31.402344 L 40.847656 31.402344 L 40.847656 32.433594 C 40.847656 32.5625 40.953125 32.667969 41.085938 32.667969 L 41.277344 32.667969 L 41.277344 45.433594 L 41.085938 45.433594 C 40.953125 45.433594 40.847656 45.539062 40.847656 45.667969 L 40.847656 46.5625 L 40.1875 46.5625 C 40.054688 46.5625 39.949219 46.667969 39.949219 46.800781 L 39.949219 48.023438 L 39.164062 48.023438 C 39.03125 48.023438 38.921875 48.132812 38.921875 48.261719 L 38.921875 49.871094 L 38.585938 49.871094 C 38.453125 49.871094 38.34375 49.976562 38.34375 50.109375 L 38.34375 52.246094 C 38.34375 52.375 38.453125 52.484375 38.585938 52.484375 L 66.492188 52.484375 C 66.625 52.484375 66.730469 52.375 66.730469 52.246094 L 66.730469 50.109375 C 66.730469 49.976562 66.625 49.871094 66.492188 49.871094 Z M 61.648438 46.5625 L 61.648438 45.90625 L 63.75 45.90625 L 63.75 46.5625 Z M 58.242188 46.5625 L 58.242188 45.667969 C 58.242188 45.539062 58.136719 45.433594 58.003906 45.433594 L 57.8125 45.433594 L 57.8125 32.667969 L 58.003906 32.667969 C 58.136719 32.667969 58.242188 32.5625 58.242188 32.433594 L 58.242188 31.402344 L 61.167969 31.402344 L 61.167969 32.433594 C 61.167969 32.5625 61.277344 32.667969 61.410156 32.667969 L 61.601562 32.667969 L 61.601562 45.433594 L 61.410156 45.433594 C 61.277344 45.433594 61.167969 45.539062 61.167969 45.671875 L 61.167969 46.5625 Z M 55.664062 46.5625 L 55.664062 45.90625 L 57.765625 45.90625 L 57.765625 46.5625 Z M 54.71875 46.5625 L 54.71875 40.488281 C 54.71875 39.445312 53.863281 38.59375 52.808594 38.59375 L 52.269531 38.59375 C 51.214844 38.59375 50.359375 39.445312 50.359375 40.488281 L 50.359375 46.5625 L 49.894531 46.5625 L 49.894531 45.667969 C 49.894531 45.539062 49.785156 45.433594 49.652344 45.433594 L 49.464844 45.433594 L 49.464844 32.667969 L 49.652344 32.667969 C 49.785156 32.667969 49.894531 32.5625 49.894531 32.433594 L 49.894531 31.402344 L 55.183594 31.402344 L 55.183594 32.433594 C 55.183594 32.5625 55.289062 32.667969 55.421875 32.667969 L 55.613281 32.667969 L 55.613281 45.433594 L 55.421875 45.433594 C 55.289062 45.433594 55.183594 45.539062 55.183594 45.671875 L 55.183594 46.5625 Z M 54.238281 46.5625 L 50.839844 46.5625 L 50.839844 40.488281 C 50.839844 39.707031 51.480469 39.070312 52.269531 39.070312 L 52.808594 39.070312 C 53.597656 39.070312 54.238281 39.707031 54.238281 40.488281 Z M 47.3125 46.5625 L 47.3125 45.90625 L 49.414062 45.90625 L 49.414062 46.5625 Z M 43.90625 46.5625 L 43.90625 45.667969 C 43.90625 45.539062 43.800781 45.433594 43.667969 45.433594 L 43.476562 45.433594 L 43.476562 32.667969 L 43.667969 32.667969 C 43.800781 32.667969 43.90625 32.5625 43.90625 32.433594 L 43.90625 31.402344 L 46.832031 31.402344 L 46.832031 32.433594 C 46.832031 32.5625 46.941406 32.667969 47.074219 32.667969 L 47.265625 32.667969 L 47.265625 45.433594 L 47.074219 45.433594 C 46.941406 45.433594 46.832031 45.539062 46.832031 45.671875 L 46.832031 46.5625 Z M 47.742188 45.433594 L 47.742188 32.667969 L 48.984375 32.667969 L 48.984375 45.433594 Z M 49.414062 32.195312 L 47.3125 32.195312 L 47.3125 31.402344 L 49.414062 31.402344 Z M 56.09375 45.433594 L 56.09375 32.667969 L 57.335938 32.667969 L 57.335938 45.433594 Z M 57.765625 32.195312 L 55.664062 32.195312 L 55.664062 31.402344 L 57.765625 31.402344 Z M 63.320312 45.433594 L 62.078125 45.433594 L 62.078125 32.667969 L 63.320312 32.667969 Z M 63.75 32.195312 L 61.648438 32.195312 L 61.648438 31.402344 L 63.75 31.402344 Z M 52.539062 23.003906 L 61.78125 25.789062 L 58.511719 25.789062 L 52.609375 24.007812 C 52.5625 23.996094 52.515625 23.996094 52.46875 24.007812 L 46.566406 25.789062 L 43.296875 25.789062 Z M 56.863281 25.789062 L 48.214844 25.789062 L 52.539062 24.484375 Z M 39.15625 26.261719 L 65.921875 26.261719 L 65.921875 30.925781 L 39.15625 30.925781 Z M 43.429688 31.402344 L 43.429688 32.195312 L 41.328125 32.195312 L 41.328125 31.402344 Z M 41.757812 32.667969 L 43 32.667969 L 43 45.433594 L 41.757812 45.433594 Z M 41.328125 45.90625 L 43.429688 45.90625 L 43.429688 46.5625 L 41.328125 46.5625 Z M 40.425781 47.039062 L 64.648438 47.039062 L 64.648438 48.023438 L 40.425781 48.023438 Z M 39.402344 48.5 L 65.675781 48.5 L 65.675781 49.871094 L 39.402344 49.871094 Z M 66.253906 52.007812 L 38.824219 52.007812 L 38.824219 50.34375 L 66.253906 50.34375 Z M 66.253906 52.007812 " fill-opacity="1" fill-rule="nonzero"/></g><path fill="#000000" d="M 65.074219 27.085938 C 64.941406 27.085938 64.835938 27.191406 64.835938 27.324219 L 64.835938 29.9375 L 40.242188 29.9375 L 40.242188 27.324219 C 40.242188 27.191406 40.136719 27.085938 40.003906 27.085938 C 39.871094 27.085938 39.765625 27.191406 39.765625 27.324219 L 39.765625 30.175781 C 39.765625 30.304688 39.871094 30.414062 40.003906 30.414062 L 65.074219 30.414062 C 65.207031 30.414062 65.3125 30.304688 65.3125 30.175781 L 65.3125 27.324219 C 65.3125 27.191406 65.207031 27.085938 65.074219 27.085938 Z M 65.074219 27.085938 " fill-opacity="1" fill-rule="nonzero"/><path fill="#000000" d="M 44.15625 29.585938 C 44.289062 29.585938 44.394531 29.476562 44.394531 29.347656 L 44.394531 27.824219 L 45.285156 29.460938 C 45.367188 29.613281 45.621094 29.613281 45.707031 29.460938 L 46.597656 27.824219 L 46.597656 29.347656 C 46.597656 29.476562 46.703125 29.585938 46.835938 29.585938 C 46.96875 29.585938 47.074219 29.476562 47.074219 29.347656 L 47.074219 26.882812 C 47.074219 26.773438 47 26.679688 46.894531 26.652344 C 46.785156 26.625 46.675781 26.671875 46.625 26.769531 L 45.496094 28.847656 L 44.367188 26.769531 C 44.316406 26.671875 44.203125 26.625 44.097656 26.652344 C 43.992188 26.675781 43.917969 26.773438 43.917969 26.882812 L 43.917969 29.347656 C 43.917969 29.476562 44.023438 29.585938 44.15625 29.585938 Z M 44.15625 29.585938 " fill-opacity="1" fill-rule="nonzero"/><path fill="#000000" d="M 58.242188 29.585938 C 58.375 29.585938 58.480469 29.476562 58.480469 29.347656 L 58.480469 27.824219 L 59.371094 29.460938 C 59.453125 29.613281 59.707031 29.613281 59.792969 29.460938 L 60.679688 27.824219 L 60.679688 29.347656 C 60.679688 29.476562 60.789062 29.585938 60.921875 29.585938 C 61.054688 29.585938 61.160156 29.476562 61.160156 29.347656 L 61.160156 26.882812 C 61.160156 26.773438 61.085938 26.679688 60.980469 26.652344 C 60.871094 26.625 60.761719 26.671875 60.710938 26.769531 L 59.582031 28.847656 L 58.453125 26.769531 C 58.402344 26.671875 58.289062 26.625 58.183594 26.652344 C 58.078125 26.675781 58.003906 26.773438 58.003906 26.882812 L 58.003906 29.347656 C 58.003906 29.476562 58.109375 29.585938 58.242188 29.585938 Z M 58.242188 29.585938 " fill-opacity="1" fill-rule="nonzero"/><path fill="#000000" d="M 48.722656 29.585938 C 49.300781 29.585938 49.769531 29.070312 49.769531 28.4375 L 49.769531 26.882812 C 49.769531 26.75 49.660156 26.644531 49.53125 26.644531 C 49.398438 26.644531 49.289062 26.75 49.289062 26.882812 L 49.289062 28.4375 C 49.289062 28.808594 49.035156 29.109375 48.722656 29.109375 C 48.410156 29.109375 48.15625 28.808594 48.15625 28.4375 L 48.15625 26.882812 C 48.15625 26.75 48.050781 26.644531 47.917969 26.644531 C 47.785156 26.644531 47.675781 26.75 47.675781 26.882812 L 47.675781 28.4375 C 47.675781 29.070312 48.148438 29.585938 48.722656 29.585938 Z M 48.722656 29.585938 " fill-opacity="1" fill-rule="nonzero"/><path fill="#000000" d="M 56.183594 29.585938 C 56.761719 29.585938 57.230469 29.070312 57.230469 28.4375 L 57.230469 26.882812 C 57.230469 26.75 57.125 26.644531 56.992188 26.644531 C 56.859375 26.644531 56.75 26.75 56.75 26.882812 L 56.75 28.4375 C 56.75 28.808594 56.496094 29.109375 56.183594 29.109375 C 55.871094 29.109375 55.617188 28.808594 55.617188 28.4375 L 55.617188 26.882812 C 55.617188 26.75 55.511719 26.644531 55.378906 26.644531 C 55.246094 26.644531 55.140625 26.75 55.140625 26.882812 L 55.140625 28.4375 C 55.140625 29.070312 55.609375 29.585938 56.183594 29.585938 Z M 56.183594 29.585938 " fill-opacity="1" fill-rule="nonzero"/><path fill="#000000" d="M 51.117188 29.175781 C 50.9375 29.175781 50.792969 29 50.792969 28.78125 C 50.792969 28.648438 50.6875 28.542969 50.554688 28.542969 C 50.421875 28.542969 50.3125 28.648438 50.3125 28.78125 C 50.3125 29.261719 50.671875 29.652344 51.117188 29.652344 C 51.558594 29.652344 51.917969 29.261719 51.917969 28.78125 C 51.917969 28.300781 51.558594 27.910156 51.117188 27.910156 C 50.9375 27.910156 50.792969 27.734375 50.792969 27.515625 C 50.792969 27.296875 50.9375 27.121094 51.117188 27.121094 C 51.292969 27.121094 51.4375 27.296875 51.4375 27.515625 C 51.4375 27.644531 51.542969 27.753906 51.675781 27.753906 C 51.808594 27.753906 51.917969 27.644531 51.917969 27.515625 C 51.917969 27.035156 51.558594 26.644531 51.117188 26.644531 C 50.671875 26.644531 50.3125 27.035156 50.3125 27.515625 C 50.3125 27.996094 50.671875 28.386719 51.117188 28.386719 C 51.292969 28.386719 51.4375 28.5625 51.4375 28.78125 C 51.4375 29 51.292969 29.175781 51.117188 29.175781 Z M 51.117188 29.175781 " fill-opacity="1" fill-rule="nonzero"/><path fill="#000000" d="M 52.960938 29.652344 L 54.3125 29.652344 C 54.445312 29.652344 54.550781 29.546875 54.550781 29.414062 C 54.550781 29.28125 54.445312 29.175781 54.3125 29.175781 L 53.199219 29.175781 L 53.199219 28.386719 L 54.3125 28.386719 C 54.445312 28.386719 54.550781 28.277344 54.550781 28.148438 C 54.550781 28.015625 54.445312 27.910156 54.3125 27.910156 L 53.199219 27.910156 L 53.199219 27.121094 L 54.3125 27.121094 C 54.445312 27.121094 54.550781 27.011719 54.550781 26.882812 C 54.550781 26.75 54.445312 26.644531 54.3125 26.644531 L 52.960938 26.644531 C 52.828125 26.644531 52.71875 26.75 52.71875 26.882812 L 52.71875 29.414062 C 52.71875 29.546875 52.828125 29.652344 52.960938 29.652344 Z M 52.960938 29.652344 " fill-opacity="1" fill-rule="nonzero"/><path fill="#000000" d="M 45.421875 36.617188 C 44.679688 36.617188 44.074219 37.214844 44.074219 37.953125 C 44.074219 38.6875 44.679688 39.289062 45.421875 39.289062 C 46.164062 39.289062 46.765625 38.6875 46.765625 37.953125 C 46.765625 37.214844 46.164062 36.617188 45.421875 36.617188 Z M 45.421875 38.8125 C 44.941406 38.8125 44.554688 38.425781 44.554688 37.953125 C 44.554688 37.476562 44.941406 37.09375 45.421875 37.09375 C 45.898438 37.09375 46.285156 37.476562 46.285156 37.953125 C 46.285156 38.425781 45.898438 38.8125 45.421875 38.8125 Z M 45.421875 38.8125 " fill-opacity="1" fill-rule="nonzero"/><path fill="#000000" d="M 45.421875 40.234375 C 44.679688 40.234375 44.074219 40.835938 44.074219 41.570312 C 44.074219 42.308594 44.679688 42.90625 45.421875 42.90625 C 46.164062 42.90625 46.765625 42.308594 46.765625 41.570312 C 46.765625 40.835938 46.164062 40.234375 45.421875 40.234375 Z M 45.421875 42.433594 C 44.941406 42.433594 44.554688 42.046875 44.554688 41.570312 C 44.554688 41.097656 44.941406 40.710938 45.421875 40.710938 C 45.898438 40.710938 46.285156 41.097656 46.285156 41.570312 C 46.285156 42.046875 45.898438 42.433594 45.421875 42.433594 Z M 45.421875 42.433594 " fill-opacity="1" fill-rule="nonzero"/><path fill="#000000" d="M 59.65625 36.617188 C 58.914062 36.617188 58.3125 37.214844 58.3125 37.953125 C 58.3125 38.6875 58.914062 39.289062 59.65625 39.289062 C 60.398438 39.289062 61.003906 38.6875 61.003906 37.953125 C 61.003906 37.214844 60.398438 36.617188 59.65625 36.617188 Z M 59.65625 38.8125 C 59.179688 38.8125 58.789062 38.425781 58.789062 37.953125 C 58.789062 37.476562 59.179688 37.09375 59.65625 37.09375 C 60.132812 37.09375 60.523438 37.476562 60.523438 37.953125 C 60.523438 38.425781 60.132812 38.8125 59.65625 38.8125 Z M 59.65625 38.8125 " fill-opacity="1" fill-rule="nonzero"/><path fill="#000000" d="M 59.65625 40.234375 C 58.914062 40.234375 58.3125 40.835938 58.3125 41.570312 C 58.3125 42.308594 58.914062 42.90625 59.65625 42.90625 C 60.398438 42.90625 61.003906 42.308594 61.003906 41.570312 C 61.003906 40.835938 60.398438 40.234375 59.65625 40.234375 Z M 59.65625 42.433594 C 59.179688 42.433594 58.789062 42.046875 58.789062 41.570312 C 58.789062 41.097656 59.179688 40.710938 59.65625 40.710938 C 60.132812 40.710938 60.523438 41.097656 60.523438 41.570312 C 60.523438 42.046875 60.132812 42.433594 59.65625 42.433594 Z M 59.65625 42.433594 " fill-opacity="1" fill-rule="nonzero"/><path fill="#000000" d="M 52.539062 32.628906 C 51.335938 32.628906 50.359375 33.601562 50.359375 34.792969 C 50.359375 35.984375 51.335938 36.957031 52.539062 36.957031 C 53.738281 36.957031 54.71875 35.984375 54.71875 34.792969 C 54.71875 33.601562 53.738281 32.628906 52.539062 32.628906 Z M 52.539062 36.480469 C 51.601562 36.480469 50.839844 35.722656 50.839844 34.792969 C 50.839844 33.863281 51.601562 33.105469 52.539062 33.105469 C 53.476562 33.105469 54.238281 33.863281 54.238281 34.792969 C 54.238281 35.722656 53.476562 36.480469 52.539062 36.480469 Z M 52.539062 36.480469 " fill-opacity="1" fill-rule="nonzero"/></svg>