<svg xmlns="http://www.w3.org/2000/svg" xmlns:xlink="http://www.w3.org/1999/xlink" width="140" zoomAndPan="magnify" viewBox="0 0 104.88 74.999997" height="100" preserveAspectRatio="xMidYMid meet" version="1.0"><defs><clipPath id="63eb1d8677"><path d="M 0 0.0429688 L 104.761719 0.0429688 L 104.761719 74.957031 L 0 74.957031 Z M 0 0.0429688 " clip-rule="nonzero"/></clipPath><clipPath id="d131a4dcdd"><path d="M 35.339844 22.515625 L 69.800781 22.515625 L 69.800781 52.484375 L 35.339844 52.484375 Z M 35.339844 22.515625 " clip-rule="nonzero"/></clipPath><clipPath id="f8eaa89d75"><path d="M 52 22.515625 L 66 22.515625 L 66 36 L 52 36 Z M 52 22.515625 " clip-rule="nonzero"/></clipPath></defs><g clip-path="url(#63eb1d8677)"><path fill="#ffffff" d="M 0 0.0429688 L 104.878906 0.0429688 L 104.878906 74.957031 L 0 74.957031 Z M 0 0.0429688 " fill-opacity="1" fill-rule="nonzero"/><path fill="#ffffff" d="M 0 0.0429688 L 104.878906 0.0429688 L 104.878906 74.957031 L 0 74.957031 Z M 0 0.0429688 " fill-opacity="1" fill-rule="nonzero"/></g><g clip-path="url(#d131a4dcdd)"><path fill="#000000" d="M 69.234375 47.265625 L 64.226562 42.296875 C 63.550781 41.625 59.574219 39.492188 58.222656 39.609375 L 59.515625 40.894531 C 59.738281 41.113281 59.738281 41.46875 59.515625 41.691406 C 59.40625 41.800781 59.265625 41.855469 59.121094 41.855469 C 59.339844 41.636719 59.339844 41.28125 59.117188 41.0625 L 42.234375 24.3125 C 42.691406 23.957031 43.175781 23.722656 43.59375 23.664062 C 43.90625 23.617188 44.121094 23.332031 44.074219 23.023438 C 44.03125 22.714844 43.742188 22.5 43.429688 22.546875 C 42.632812 22.660156 41.75 23.148438 41.003906 23.886719 C 40.257812 24.628906 39.765625 25.503906 39.652344 26.296875 C 39.605469 26.605469 39.820312 26.890625 40.132812 26.933594 C 40.160156 26.9375 40.1875 26.941406 40.214844 26.941406 C 40.492188 26.941406 40.738281 26.738281 40.777344 26.457031 C 40.835938 26.042969 41.074219 25.5625 41.429688 25.109375 L 51.765625 35.363281 L 47.3125 39.785156 L 47.269531 39.742188 C 46.511719 38.992188 41.667969 41.546875 40.914062 42.296875 L 35.90625 47.265625 C 35.152344 48.011719 35.152344 49.226562 35.90625 49.976562 L 37.847656 51.898438 C 38.601562 52.648438 39.824219 52.648438 40.578125 51.898438 L 45.585938 46.929688 C 46.339844 46.183594 48.914062 41.375 48.160156 40.625 L 48.117188 40.582031 L 52.570312 36.164062 L 57.027344 40.582031 L 56.980469 40.625 C 56.226562 41.375 58.800781 46.183594 59.558594 46.929688 L 64.566406 51.898438 C 65.320312 52.648438 66.542969 52.648438 67.296875 51.898438 L 69.234375 49.976562 C 69.992188 49.226562 69.992188 48.011719 69.234375 47.265625 Z M 69.234375 47.265625 " fill-opacity="1" fill-rule="nonzero"/></g><g clip-path="url(#f8eaa89d75)"><path fill="#000000" d="M 53.660156 35.082031 L 63.710938 25.109375 C 64.070312 25.5625 64.304688 26.042969 64.367188 26.457031 C 64.40625 26.738281 64.648438 26.941406 64.929688 26.941406 C 64.953125 26.941406 64.984375 26.9375 65.011719 26.933594 C 65.320312 26.890625 65.535156 26.605469 65.492188 26.296875 C 65.375 25.503906 64.882812 24.628906 64.136719 23.886719 C 63.394531 23.148438 62.507812 22.660156 61.710938 22.546875 C 61.402344 22.5 61.113281 22.714844 61.066406 23.023438 C 61.023438 23.332031 61.238281 23.617188 61.550781 23.664062 C 61.964844 23.722656 62.449219 23.957031 62.90625 24.3125 L 52.855469 34.285156 Z M 53.660156 35.082031 " fill-opacity="1" fill-rule="nonzero"/></g></svg>