<svg xmlns="http://www.w3.org/2000/svg" xmlns:xlink="http://www.w3.org/1999/xlink" width="140" zoomAndPan="magnify" viewBox="0 0 104.88 74.999997" height="100" preserveAspectRatio="xMidYMid meet" version="1.0"><defs><clipPath id="e613007b25"><path d="M 0 0.0429688 L 104.761719 0.0429688 L 104.761719 74.957031 L 0 74.957031 Z M 0 0.0429688 " clip-rule="nonzero"/></clipPath><clipPath id="b052561b45"><path d="M 52 22.515625 L 60 22.515625 L 60 28 L 52 28 Z M 52 22.515625 " clip-rule="nonzero"/></clipPath><clipPath id="e46156df5f"><path d="M 40.152344 44 L 61 44 L 61 52.484375 L 40.152344 52.484375 Z M 40.152344 44 " clip-rule="nonzero"/></clipPath><clipPath id="5200003787"><path d="M 43 32 L 64.875 32 L 64.875 43 L 43 43 Z M 43 32 " clip-rule="nonzero"/></clipPath></defs><g clip-path="url(#e613007b25)"><path fill="#ffffff" d="M 0 0.0429688 L 104.878906 0.0429688 L 104.878906 74.957031 L 0 74.957031 Z M 0 0.0429688 " fill-opacity="1" fill-rule="nonzero"/><path fill="#ffffff" d="M 0 0.0429688 L 104.878906 0.0429688 L 104.878906 74.957031 L 0 74.957031 Z M 0 0.0429688 " fill-opacity="1" fill-rule="nonzero"/></g><g clip-path="url(#b052561b45)"><path fill="#000000" d="M 58.613281 27.21875 C 58.578125 27.21875 58.542969 27.214844 58.511719 27.207031 C 58.300781 27.152344 58.175781 26.9375 58.230469 26.726562 L 58.632812 25.234375 C 58.632812 25.007812 58.382812 24.9375 58.304688 24.917969 C 58.121094 24.882812 57.992188 24.730469 57.992188 24.539062 C 57.988281 24.09375 57.824219 23.933594 57.769531 23.886719 L 55.675781 23.324219 C 54.605469 23.164062 54.242188 23.90625 54.183594 24.046875 L 53.761719 25.640625 C 53.707031 25.851562 53.488281 25.972656 53.285156 25.917969 C 53.074219 25.863281 52.953125 25.648438 53.007812 25.445312 L 53.433594 23.832031 C 53.433594 23.816406 53.441406 23.8125 53.449219 23.796875 C 53.644531 23.269531 54.386719 22.332031 55.828125 22.5625 C 55.839844 22.5625 55.855469 22.570312 55.867188 22.570312 L 58.035156 23.148438 C 58.054688 23.15625 58.074219 23.164062 58.089844 23.167969 C 58.148438 23.195312 58.660156 23.445312 58.761719 24.257812 C 59.09375 24.410156 59.460938 24.742188 59.421875 25.324219 C 59.421875 25.351562 59.414062 25.371094 59.40625 25.398438 L 58.992188 26.9375 C 58.9375 27.105469 58.78125 27.21875 58.613281 27.21875 Z M 58.613281 27.21875 " fill-opacity="1" fill-rule="nonzero"/></g><path fill="#000000" d="M 55.648438 30.515625 C 55.390625 30.515625 55.132812 30.480469 54.867188 30.414062 C 54.066406 30.203125 53.394531 29.699219 52.980469 28.988281 C 52.566406 28.28125 52.449219 27.449219 52.667969 26.652344 L 53 25.402344 C 53.015625 25.34375 53.046875 25.28125 53.097656 25.242188 C 53.652344 24.648438 54.761719 24.511719 56.144531 24.878906 C 57.417969 25.207031 58.808594 25.957031 58.992188 26.734375 C 59.007812 26.796875 59.007812 26.863281 58.992188 26.921875 L 58.640625 28.246094 C 58.265625 29.609375 57.007812 30.515625 55.648438 30.515625 Z M 53.734375 25.707031 L 53.429688 26.855469 C 53.265625 27.449219 53.355469 28.070312 53.660156 28.605469 C 53.972656 29.136719 54.46875 29.515625 55.066406 29.671875 C 56.289062 29.988281 57.550781 29.257812 57.878906 28.050781 L 58.203125 26.847656 C 58.019531 26.523438 57.136719 25.945312 55.949219 25.632812 C 54.945312 25.363281 54.109375 25.398438 53.734375 25.707031 Z M 53.734375 25.707031 " fill-opacity="1" fill-rule="nonzero"/><path fill="#000000" d="M 50.113281 47.03125 C 50.078125 47.03125 50.046875 47.023438 50.011719 47.015625 L 46.34375 46.039062 C 46.207031 46.003906 46.097656 45.894531 46.0625 45.753906 C 46.03125 45.617188 46.070312 45.46875 46.179688 45.375 C 46.199219 45.355469 46.226562 45.335938 46.246094 45.316406 L 50.152344 42.019531 C 49.976562 41.851562 49.734375 41.6875 49.488281 41.519531 C 48.578125 40.898438 47.320312 40.046875 48 38.089844 L 49.523438 33.683594 C 50.132812 31.914062 51.765625 30.898438 53.414062 31.265625 C 53.539062 31.292969 53.660156 31.324219 53.773438 31.367188 C 53.925781 31.386719 54.066406 31.421875 54.210938 31.472656 L 61.949219 34.445312 C 62.953125 34.828125 63.457031 35.957031 63.070312 36.949219 C 62.878906 37.4375 62.511719 37.820312 62.035156 38.03125 C 61.558594 38.238281 61.03125 38.253906 60.546875 38.0625 L 55.542969 36.132812 C 55.433594 36.421875 55.316406 36.71875 55.203125 37.003906 C 54.875 37.828125 54.527344 38.679688 54.378906 39.5 C 54.257812 40.15625 54.386719 40.765625 54.507812 41.34375 C 54.691406 42.222656 54.882812 43.128906 54.011719 43.855469 L 50.371094 46.914062 C 50.289062 46.996094 50.203125 47.03125 50.113281 47.03125 Z M 47.265625 45.476562 L 50.019531 46.207031 L 53.503906 43.277344 C 54 42.863281 53.925781 42.390625 53.742188 41.515625 C 53.613281 40.886719 53.457031 40.175781 53.605469 39.367188 C 53.773438 38.460938 54.128906 37.578125 54.46875 36.71875 C 54.636719 36.300781 54.792969 35.894531 54.9375 35.503906 C 54.972656 35.402344 55.046875 35.324219 55.140625 35.273438 C 55.234375 35.226562 55.351562 35.226562 55.445312 35.269531 L 60.828125 37.339844 C 61.113281 37.449219 61.429688 37.441406 61.714844 37.320312 C 62.003906 37.191406 62.226562 36.964844 62.335938 36.671875 C 62.566406 36.078125 62.261719 35.402344 61.664062 35.175781 L 53.929688 32.203125 C 53.84375 32.167969 53.742188 32.140625 53.644531 32.136719 C 53.613281 32.128906 53.585938 32.121094 53.558594 32.117188 C 53.457031 32.082031 53.355469 32.046875 53.253906 32.027344 C 51.980469 31.746094 50.757812 32.527344 50.277344 33.9375 L 48.753906 38.347656 C 48.273438 39.746094 49.046875 40.273438 49.945312 40.886719 C 50.386719 41.183594 50.800781 41.464844 51.050781 41.863281 C 51.152344 42.027344 51.117188 42.242188 50.96875 42.371094 Z M 47.265625 45.476562 " fill-opacity="1" fill-rule="nonzero"/><path fill="#000000" d="M 52.648438 47.707031 C 52.613281 47.707031 52.578125 47.699219 52.546875 47.691406 L 50.011719 47.015625 C 49.867188 46.976562 49.761719 46.867188 49.734375 46.726562 C 49.699219 46.585938 49.753906 46.4375 49.863281 46.339844 L 53.503906 43.28125 C 53.617188 43.1875 53.699219 43.09375 53.761719 42.992188 C 53.789062 42.9375 53.835938 42.898438 53.882812 42.863281 C 53.863281 42.808594 53.863281 42.75 53.871094 42.683594 C 53.890625 42.558594 53.972656 42.453125 54.082031 42.398438 C 54.222656 42.332031 54.394531 42.351562 54.515625 42.453125 C 54.636719 42.554688 54.679688 42.722656 54.625 42.871094 C 54.597656 42.953125 54.542969 43.019531 54.476562 43.066406 C 54.503906 43.140625 54.503906 43.230469 54.46875 43.308594 L 53.015625 47.441406 C 52.960938 47.605469 52.808594 47.707031 52.648438 47.707031 Z M 50.933594 46.457031 L 52.394531 46.847656 L 53.199219 44.550781 Z M 50.933594 46.457031 " fill-opacity="1" fill-rule="nonzero"/><path fill="#000000" d="M 53.929688 40.371094 C 53.898438 40.371094 53.863281 40.367188 53.828125 40.359375 L 48.191406 38.839844 C 47.980469 38.785156 47.859375 38.570312 47.914062 38.359375 C 47.964844 38.152344 48.183594 38.03125 48.394531 38.089844 L 54.035156 39.609375 C 54.242188 39.664062 54.367188 39.878906 54.304688 40.089844 C 54.265625 40.265625 54.109375 40.371094 53.929688 40.371094 Z M 53.929688 40.371094 " fill-opacity="1" fill-rule="nonzero"/><g clip-path="url(#e46156df5f)"><path fill="#000000" d="M 58.414062 52.472656 C 58.246094 52.472656 58.070312 52.453125 57.898438 52.40625 L 41.636719 48.078125 C 41.125 47.941406 40.699219 47.609375 40.425781 47.152344 C 40.152344 46.691406 40.085938 46.160156 40.230469 45.652344 C 40.363281 45.144531 40.699219 44.722656 41.160156 44.449219 C 41.621094 44.179688 42.15625 44.113281 42.667969 44.25 L 58.929688 48.582031 C 59.441406 48.71875 59.867188 49.046875 60.140625 49.507812 C 60.40625 49.96875 60.480469 50.5 60.34375 51.007812 C 60.207031 51.511719 59.875 51.9375 59.414062 52.207031 C 59.101562 52.382812 58.761719 52.472656 58.414062 52.472656 Z M 42.152344 44.964844 C 41.621094 44.964844 41.132812 45.316406 40.984375 45.855469 C 40.902344 46.164062 40.941406 46.484375 41.105469 46.765625 C 41.269531 47.050781 41.527344 47.246094 41.839844 47.328125 L 58.101562 51.660156 C 58.414062 51.742188 58.734375 51.703125 59.019531 51.539062 C 59.296875 51.378906 59.503906 51.121094 59.582031 50.8125 C 59.664062 50.5 59.625 50.183594 59.460938 49.898438 C 59.296875 49.621094 59.039062 49.421875 58.726562 49.339844 L 42.464844 45.003906 C 42.355469 44.976562 42.253906 44.964844 42.152344 44.964844 Z M 42.152344 44.964844 " fill-opacity="1" fill-rule="nonzero"/></g><g clip-path="url(#5200003787)"><path fill="#000000" d="M 43.429688 42.585938 C 43.277344 42.585938 43.128906 42.5 43.070312 42.351562 C 42.988281 42.15625 43.074219 41.925781 43.277344 41.839844 L 57.078125 36.019531 C 57.273438 35.9375 57.503906 36.023438 57.59375 36.226562 C 57.675781 36.421875 57.585938 36.652344 57.382812 36.742188 L 43.585938 42.558594 C 43.53125 42.574219 43.476562 42.585938 43.429688 42.585938 Z M 61.34375 35.03125 C 61.195312 35.03125 61.042969 34.945312 60.984375 34.796875 C 60.902344 34.601562 60.988281 34.371094 61.195312 34.28125 L 64.332031 32.960938 C 64.53125 32.878906 64.761719 32.964844 64.847656 33.167969 C 64.929688 33.363281 64.84375 33.59375 64.636719 33.683594 L 61.5 35.003906 C 61.445312 35.019531 61.398438 35.03125 61.34375 35.03125 Z M 61.34375 35.03125 " fill-opacity="1" fill-rule="nonzero"/></g><path fill="#000000" d="M 46.507812 43.660156 C 46.371094 43.660156 46.242188 43.59375 46.167969 43.464844 L 43.953125 39.652344 C 43.84375 39.460938 43.910156 39.226562 44.09375 39.117188 C 44.285156 39.007812 44.523438 39.078125 44.632812 39.257812 L 46.84375 43.074219 C 46.953125 43.261719 46.886719 43.5 46.703125 43.605469 C 46.640625 43.648438 46.574219 43.660156 46.507812 43.660156 Z M 46.507812 43.660156 " fill-opacity="1" fill-rule="nonzero"/></svg>