<svg xmlns="http://www.w3.org/2000/svg" xmlns:xlink="http://www.w3.org/1999/xlink" width="140" zoomAndPan="magnify" viewBox="0 0 104.88 74.999997" height="100" preserveAspectRatio="xMidYMid meet" version="1.0"><defs><clipPath id="5e2ad213a2"><path d="M 0 0.0429688 L 104.761719 0.0429688 L 104.761719 74.957031 L 0 74.957031 Z M 0 0.0429688 " clip-rule="nonzero"/></clipPath><clipPath id="fe119bcd5f"><path d="M 35.769531 33 L 40 33 L 40 39 L 35.769531 39 Z M 35.769531 33 " clip-rule="nonzero"/></clipPath><clipPath id="42935265c8"><path d="M 51 22.515625 L 69.480469 22.515625 L 69.480469 52.484375 L 51 52.484375 Z M 51 22.515625 " clip-rule="nonzero"/></clipPath></defs><g clip-path="url(#5e2ad213a2)"><path fill="#ffffff" d="M 0 0.0429688 L 104.878906 0.0429688 L 104.878906 74.957031 L 0 74.957031 Z M 0 0.0429688 " fill-opacity="1" fill-rule="nonzero"/><path fill="#ffffff" d="M 0 0.0429688 L 104.878906 0.0429688 L 104.878906 74.957031 L 0 74.957031 Z M 0 0.0429688 " fill-opacity="1" fill-rule="nonzero"/></g><g clip-path="url(#fe119bcd5f)"><path fill="#000000" d="M 38.703125 38.894531 C 38.660156 38.894531 38.613281 38.886719 38.566406 38.867188 L 36.03125 37.921875 C 35.882812 37.863281 35.777344 37.722656 35.777344 37.558594 L 35.777344 34.34375 C 35.777344 34.175781 35.886719 34.019531 36.058594 33.972656 L 38.347656 33.289062 C 38.558594 33.222656 38.777344 33.339844 38.84375 33.550781 C 38.910156 33.757812 38.789062 33.972656 38.578125 34.039062 L 36.566406 34.636719 L 36.566406 37.292969 L 38.84375 38.136719 C 39.046875 38.214844 39.152344 38.4375 39.074219 38.640625 C 39.015625 38.796875 38.863281 38.894531 38.703125 38.894531 Z M 38.703125 38.894531 " fill-opacity="1" fill-rule="nonzero"/></g><path fill="#000000" d="M 55.191406 43.261719 C 53.953125 43.261719 53.316406 42.894531 52.738281 41.996094 C 52.597656 41.78125 52.472656 41.542969 52.363281 41.25 C 52.132812 40.667969 51.78125 40.078125 51.296875 39.433594 C 51.070312 39.140625 50.730469 38.972656 50.355469 38.972656 C 49.980469 38.972656 49.636719 39.140625 49.414062 39.433594 C 48.925781 40.078125 48.570312 40.667969 48.347656 41.25 C 48.234375 41.535156 48.109375 41.78125 47.972656 41.996094 C 47.207031 43.167969 46.359375 43.429688 44.179688 43.164062 C 43.273438 43.050781 42.429688 42.796875 41.671875 42.414062 C 40.355469 41.742188 39.347656 40.742188 38.679688 39.421875 C 38.160156 38.386719 37.882812 37.195312 37.882812 35.984375 L 37.882812 34.996094 C 37.882812 32.203125 40.179688 29.9375 42.996094 29.9375 L 57.71875 29.9375 C 60.542969 29.9375 62.832031 32.207031 62.832031 34.996094 L 62.832031 35.984375 C 62.832031 37.195312 62.558594 38.386719 62.035156 39.421875 C 61.371094 40.742188 60.363281 41.75 59.042969 42.414062 C 58.285156 42.796875 57.441406 43.046875 56.535156 43.164062 C 56.015625 43.226562 55.574219 43.261719 55.191406 43.261719 Z M 50.347656 38.191406 C 50.972656 38.191406 51.546875 38.46875 51.921875 38.964844 C 52.453125 39.660156 52.835938 40.316406 53.09375 40.960938 C 53.191406 41.203125 53.289062 41.40625 53.394531 41.574219 C 53.886719 42.335938 54.328125 42.648438 56.421875 42.382812 C 57.238281 42.277344 57.996094 42.054688 58.667969 41.710938 C 59.851562 41.113281 60.714844 40.246094 61.3125 39.0625 C 61.78125 38.136719 62.03125 37.070312 62.03125 35.976562 L 62.03125 34.988281 C 62.03125 32.632812 60.089844 30.710938 57.707031 30.710938 L 42.988281 30.710938 C 40.605469 30.710938 38.664062 32.632812 38.664062 34.988281 L 38.664062 35.976562 C 38.664062 37.070312 38.914062 38.136719 39.382812 39.0625 C 39.980469 40.246094 40.84375 41.113281 42.027344 41.710938 C 42.699219 42.050781 43.457031 42.277344 44.273438 42.382812 C 46.367188 42.640625 46.808594 42.335938 47.300781 41.574219 C 47.414062 41.40625 47.511719 41.203125 47.601562 40.960938 C 47.859375 40.316406 48.242188 39.660156 48.773438 38.964844 C 49.148438 38.476562 49.722656 38.191406 50.347656 38.191406 Z M 50.347656 38.191406 " fill-opacity="1" fill-rule="nonzero"/><path fill="#000000" d="M 55.199219 41.523438 C 55.132812 41.523438 55.066406 41.523438 55 41.515625 C 54.683594 41.496094 54.390625 41.332031 54.21875 41.066406 C 54.21875 41.066406 54.21875 41.058594 54.210938 41.058594 C 54.140625 40.941406 54.066406 40.800781 53.992188 40.617188 C 53.703125 39.886719 53.277344 39.160156 52.691406 38.390625 C 52.132812 37.65625 51.277344 37.234375 50.339844 37.234375 C 49.414062 37.234375 48.558594 37.65625 47.992188 38.390625 C 47.40625 39.160156 46.976562 39.886719 46.6875 40.617188 C 46.617188 40.800781 46.542969 40.941406 46.472656 41.058594 C 46.472656 41.058594 46.464844 41.066406 46.464844 41.066406 C 46.292969 41.328125 45.996094 41.496094 45.679688 41.515625 C 45.621094 41.515625 45.554688 41.523438 45.484375 41.523438 C 45.195312 41.523438 44.832031 41.496094 44.378906 41.4375 C 43.671875 41.347656 43.027344 41.15625 42.457031 40.863281 C 41.460938 40.363281 40.738281 39.636719 40.238281 38.640625 C 39.835938 37.84375 39.625 36.925781 39.625 35.976562 L 39.625 34.988281 C 39.625 33.160156 41.132812 31.667969 42.984375 31.667969 L 57.707031 31.667969 C 59.554688 31.667969 61.0625 33.160156 61.0625 34.988281 L 61.0625 35.976562 C 61.0625 36.921875 60.851562 37.84375 60.449219 38.640625 C 59.949219 39.636719 59.21875 40.363281 58.234375 40.863281 C 57.660156 41.15625 57.015625 41.347656 56.3125 41.4375 C 55.851562 41.496094 55.488281 41.523438 55.199219 41.523438 Z M 54.882812 40.644531 C 54.921875 40.695312 54.980469 40.734375 55.046875 40.734375 C 55.09375 40.734375 55.144531 40.742188 55.199219 40.742188 C 55.457031 40.742188 55.785156 40.714844 56.207031 40.664062 C 56.816406 40.585938 57.378906 40.421875 57.871094 40.175781 C 58.707031 39.753906 59.320312 39.140625 59.746094 38.292969 C 60.09375 37.609375 60.28125 36.808594 60.28125 35.984375 L 60.28125 34.996094 C 60.28125 33.59375 59.128906 32.457031 57.710938 32.457031 L 42.988281 32.457031 C 41.574219 32.457031 40.421875 33.59375 40.421875 34.996094 L 40.421875 35.984375 C 40.421875 36.808594 40.605469 37.605469 40.957031 38.292969 C 41.382812 39.132812 41.996094 39.753906 42.832031 40.175781 C 43.324219 40.421875 43.882812 40.589844 44.496094 40.664062 C 44.917969 40.714844 45.246094 40.742188 45.503906 40.742188 C 45.554688 40.742188 45.609375 40.742188 45.65625 40.734375 C 45.71875 40.726562 45.78125 40.695312 45.820312 40.644531 C 45.867188 40.566406 45.917969 40.46875 45.972656 40.332031 C 46.285156 39.539062 46.746094 38.75 47.378906 37.917969 C 48.089844 36.984375 49.175781 36.453125 50.355469 36.453125 C 51.53125 36.453125 52.617188 36.984375 53.328125 37.917969 C 53.960938 38.742188 54.421875 39.53125 54.738281 40.332031 C 54.785156 40.460938 54.828125 40.566406 54.882812 40.644531 C 54.882812 40.636719 54.882812 40.636719 54.882812 40.644531 Z M 54.882812 40.644531 " fill-opacity="1" fill-rule="nonzero"/><path fill="#000000" d="M 61.992188 38.894531 C 61.832031 38.894531 61.679688 38.796875 61.621094 38.640625 C 61.542969 38.4375 61.648438 38.210938 61.851562 38.136719 L 64.128906 37.292969 L 64.128906 34.636719 L 62.121094 34.039062 C 61.910156 33.972656 61.792969 33.757812 61.859375 33.550781 C 61.925781 33.339844 62.140625 33.222656 62.351562 33.289062 L 64.644531 33.972656 C 64.808594 34.023438 64.925781 34.175781 64.925781 34.34375 L 64.925781 37.558594 C 64.925781 37.722656 64.828125 37.863281 64.667969 37.921875 L 62.128906 38.867188 C 62.082031 38.886719 62.035156 38.894531 61.992188 38.894531 Z M 61.992188 38.894531 " fill-opacity="1" fill-rule="nonzero"/><path fill="#000000" d="M 59.925781 50.164062 L 58.257812 50.164062 C 56.71875 50.164062 55.285156 49.402344 54.429688 48.128906 C 54.308594 47.945312 54.355469 47.707031 54.539062 47.589844 C 54.722656 47.472656 54.96875 47.515625 55.085938 47.699219 C 55.796875 48.753906 56.980469 49.382812 58.257812 49.382812 L 59.925781 49.382812 C 62.023438 49.382812 63.734375 47.691406 63.734375 45.617188 L 63.734375 37.707031 C 63.734375 37.492188 63.914062 37.316406 64.128906 37.316406 C 64.347656 37.316406 64.523438 37.492188 64.523438 37.707031 L 64.523438 45.617188 C 64.523438 48.121094 62.464844 50.164062 59.925781 50.164062 Z M 59.925781 50.164062 " fill-opacity="1" fill-rule="nonzero"/><g clip-path="url(#42935265c8)"><path fill="#000000" d="M 59.925781 52.484375 L 58.257812 52.484375 C 56.824219 52.484375 55.449219 52.054688 54.277344 51.238281 C 53.132812 50.445312 52.261719 49.339844 51.769531 48.058594 C 51.691406 47.855469 51.796875 47.628906 52 47.554688 C 52.203125 47.476562 52.433594 47.582031 52.507812 47.785156 C 53.40625 50.132812 55.726562 51.707031 58.257812 51.707031 L 59.925781 51.707031 C 63.320312 51.707031 66.078125 48.976562 66.078125 45.621094 L 66.078125 26.246094 C 66.078125 25.464844 66.714844 24.835938 67.507812 24.835938 L 67.902344 24.835938 C 68.113281 24.835938 68.300781 24.757812 68.453125 24.605469 C 68.597656 24.464844 68.683594 24.269531 68.683594 24.066406 C 68.683594 23.644531 68.335938 23.296875 67.90625 23.296875 L 67.511719 23.296875 C 65.867188 23.296875 64.53125 24.621094 64.53125 26.246094 L 64.53125 34.226562 C 64.53125 34.441406 64.355469 34.617188 64.136719 34.617188 C 63.917969 34.617188 63.742188 34.441406 63.742188 34.226562 L 63.742188 26.246094 C 63.742188 24.191406 65.433594 22.515625 67.511719 22.515625 L 67.90625 22.515625 C 68.769531 22.515625 69.472656 23.214844 69.472656 24.066406 C 69.472656 24.484375 69.308594 24.867188 69.011719 25.160156 C 68.71875 25.453125 68.324219 25.617188 67.90625 25.617188 L 67.511719 25.617188 C 67.164062 25.617188 66.875 25.902344 66.875 26.246094 L 66.875 45.609375 C 66.875 49.398438 63.753906 52.484375 59.925781 52.484375 Z M 59.925781 52.484375 " fill-opacity="1" fill-rule="nonzero"/></g><path fill="#000000" d="M 54.699219 48.304688 L 51.636719 48.304688 C 50.828125 48.304688 50.175781 47.652344 50.175781 46.859375 C 50.175781 46.066406 50.835938 45.414062 51.636719 45.414062 L 54.699219 45.414062 C 55.507812 45.414062 56.160156 46.066406 56.160156 46.859375 C 56.160156 47.652344 55.507812 48.304688 54.699219 48.304688 Z M 51.636719 46.1875 C 51.269531 46.1875 50.964844 46.488281 50.964844 46.851562 C 50.964844 47.21875 51.269531 47.523438 51.636719 47.523438 L 54.699219 47.523438 C 55.066406 47.523438 55.371094 47.222656 55.371094 46.859375 C 55.371094 46.496094 55.066406 46.195312 54.699219 46.195312 L 51.636719 46.195312 Z M 51.636719 46.1875 " fill-opacity="1" fill-rule="nonzero"/></svg>