<svg xmlns="http://www.w3.org/2000/svg" xmlns:xlink="http://www.w3.org/1999/xlink" width="140" zoomAndPan="magnify" viewBox="0 0 104.88 74.999997" height="100" preserveAspectRatio="xMidYMid meet" version="1.0"><defs><clipPath id="a8da9f2525"><path d="M 0 0.0429688 L 104.761719 0.0429688 L 104.761719 74.957031 L 0 74.957031 Z M 0 0.0429688 " clip-rule="nonzero"/></clipPath><clipPath id="4109a402a5"><path d="M 32 40 L 39 40 L 39 47.527344 L 32 47.527344 Z M 32 40 " clip-rule="nonzero"/></clipPath><clipPath id="f16825c9f1"><path d="M 55 27.300781 L 63 27.300781 L 63 35 L 55 35 Z M 55 27.300781 " clip-rule="nonzero"/></clipPath><clipPath id="d97681379e"><path d="M 31.464844 35 L 40 35 L 40 40 L 31.464844 40 Z M 31.464844 35 " clip-rule="nonzero"/></clipPath><clipPath id="28fdf6e3cb"><path d="M 48 41 L 59 41 L 59 47.527344 L 48 47.527344 Z M 48 41 " clip-rule="nonzero"/></clipPath><clipPath id="6d370c70cd"><path d="M 34 46 L 53 46 L 53 47.527344 L 34 47.527344 Z M 34 46 " clip-rule="nonzero"/></clipPath><clipPath id="40efef4fcf"><path d="M 60 40 L 64 40 L 64 47.527344 L 60 47.527344 Z M 60 40 " clip-rule="nonzero"/></clipPath><clipPath id="7c8deb1e3e"><path d="M 57 39 L 73.414062 39 L 73.414062 47.527344 L 57 47.527344 Z M 57 39 " clip-rule="nonzero"/></clipPath></defs><g clip-path="url(#a8da9f2525)"><path fill="#ffffff" d="M 0 0.0429688 L 104.878906 0.0429688 L 104.878906 74.957031 L 0 74.957031 Z M 0 0.0429688 " fill-opacity="1" fill-rule="nonzero"/><path fill="#ffffff" d="M 0 0.0429688 L 104.878906 0.0429688 L 104.878906 74.957031 L 0 74.957031 Z M 0 0.0429688 " fill-opacity="1" fill-rule="nonzero"/></g><g clip-path="url(#4109a402a5)"><path fill="#000000" d="M 35.46875 47.527344 C 33.613281 47.527344 32.117188 46.035156 32.117188 44.203125 C 32.117188 42.367188 33.625 40.882812 35.46875 40.882812 C 37.3125 40.882812 38.816406 42.375 38.816406 44.203125 C 38.816406 46.035156 37.320312 47.527344 35.46875 47.527344 Z M 35.46875 41.960938 C 34.226562 41.960938 33.214844 42.964844 33.214844 44.195312 C 33.214844 45.425781 34.226562 46.433594 35.46875 46.433594 C 36.707031 46.433594 37.722656 45.425781 37.722656 44.195312 C 37.722656 42.964844 36.707031 41.960938 35.46875 41.960938 Z M 35.46875 41.960938 " fill-opacity="1" fill-rule="nonzero"/></g><path fill="#000000" d="M 63.734375 42.3125 C 63.277344 42.3125 62.941406 42.277344 62.832031 42.265625 L 36.734375 42.265625 C 36.433594 42.265625 36.1875 42.023438 36.1875 41.722656 C 36.1875 41.425781 36.433594 41.179688 36.734375 41.179688 L 62.859375 41.179688 C 62.886719 41.179688 62.90625 41.179688 62.933594 41.179688 C 62.941406 41.179688 64.089844 41.324219 65.25 41.070312 C 66.691406 40.765625 67.46875 40.046875 67.632812 38.878906 C 67.714844 38.257812 67.542969 37.675781 67.085938 37.113281 C 65.542969 35.203125 61.214844 34.027344 57.609375 33.710938 C 52.753906 33.285156 52.207031 34.308594 52.015625 35.574219 C 51.898438 36.390625 51.203125 36.980469 50.390625 36.980469 L 45.554688 36.980469 C 44.851562 36.980469 44.222656 36.535156 44 35.875 L 43.628906 34.796875 C 43.519531 34.480469 43.214844 34.261719 42.878906 34.261719 L 39.21875 34.261719 L 40.257812 38.527344 C 40.296875 38.691406 40.257812 38.863281 40.160156 38.988281 C 40.058594 39.117188 39.894531 39.199219 39.730469 39.199219 L 35.359375 39.199219 L 34.535156 40.375 C 34.363281 40.617188 34.023438 40.683594 33.777344 40.511719 C 33.53125 40.339844 33.46875 40.003906 33.640625 39.757812 L 34.628906 38.347656 C 34.726562 38.203125 34.902344 38.109375 35.074219 38.109375 L 39.027344 38.109375 L 37.988281 33.847656 C 37.949219 33.683594 37.988281 33.511719 38.085938 33.386719 C 38.1875 33.257812 38.351562 33.175781 38.515625 33.175781 L 42.871094 33.175781 C 43.683594 33.175781 44.394531 33.683594 44.660156 34.445312 L 45.03125 35.523438 C 45.105469 35.738281 45.316406 35.894531 45.554688 35.894531 L 50.390625 35.894531 C 50.664062 35.894531 50.894531 35.695312 50.9375 35.414062 C 51.359375 32.632812 53.839844 32.289062 57.71875 32.625 C 61.445312 32.949219 66.089844 34.117188 67.953125 36.4375 C 68.589844 37.234375 68.855469 38.101562 68.726562 39.027344 C 68.5 40.664062 67.378906 41.742188 65.46875 42.140625 C 64.832031 42.277344 64.21875 42.3125 63.734375 42.3125 Z M 63.734375 42.3125 " fill-opacity="1" fill-rule="nonzero"/><path fill="#000000" d="M 54.050781 39.207031 L 39.410156 39.207031 C 39.109375 39.207031 38.863281 38.960938 38.863281 38.664062 C 38.863281 38.363281 39.109375 38.121094 39.410156 38.121094 L 54.050781 38.121094 C 54.351562 38.121094 54.597656 38.363281 54.597656 38.664062 C 54.597656 38.960938 54.351562 39.207031 54.050781 39.207031 Z M 54.050781 39.207031 " fill-opacity="1" fill-rule="nonzero"/><path fill="#000000" d="M 53.613281 42.15625 C 53.605469 42.15625 53.585938 42.15625 53.578125 42.15625 C 53.273438 42.140625 53.046875 41.878906 53.066406 41.578125 C 53.191406 39.777344 53.503906 37.984375 53.996094 36.246094 C 54.316406 35.097656 54.726562 33.957031 55.199219 32.851562 C 55.320312 32.578125 55.640625 32.441406 55.921875 32.570312 C 56.195312 32.6875 56.332031 33.003906 56.203125 33.285156 C 55.75 34.34375 55.355469 35.429688 55.046875 36.542969 C 54.582031 38.210938 54.277344 39.929688 54.152344 41.660156 C 54.132812 41.941406 53.894531 42.15625 53.613281 42.15625 Z M 53.613281 42.15625 " fill-opacity="1" fill-rule="nonzero"/><path fill="#000000" d="M 67.90625 39.640625 L 58.777344 39.640625 C 58.476562 39.640625 58.230469 39.398438 58.230469 39.097656 C 58.230469 38.800781 58.476562 38.554688 58.777344 38.554688 L 67.90625 38.554688 C 68.207031 38.554688 68.453125 38.800781 68.453125 39.097656 C 68.453125 39.398438 68.207031 39.640625 67.90625 39.640625 Z M 67.90625 39.640625 " fill-opacity="1" fill-rule="nonzero"/><path fill="#000000" d="M 60.621094 37.125 L 56.824219 37.125 C 56.523438 37.125 56.277344 36.878906 56.277344 36.582031 C 56.277344 36.28125 56.523438 36.039062 56.824219 36.039062 L 60.621094 36.039062 C 60.925781 36.039062 61.171875 36.28125 61.171875 36.582031 C 61.171875 36.878906 60.933594 37.125 60.621094 37.125 Z M 60.621094 37.125 " fill-opacity="1" fill-rule="nonzero"/><path fill="#000000" d="M 64.21875 37.078125 L 63.113281 37.078125 C 62.8125 37.078125 62.566406 36.835938 62.566406 36.535156 C 62.566406 36.238281 62.8125 35.992188 63.113281 35.992188 L 64.21875 35.992188 C 64.519531 35.992188 64.765625 36.238281 64.765625 36.535156 C 64.765625 36.835938 64.519531 37.078125 64.21875 37.078125 Z M 64.21875 37.078125 " fill-opacity="1" fill-rule="nonzero"/><path fill="#000000" d="M 54.371094 33.320312 C 54.1875 33.320312 54.003906 33.230469 53.90625 33.066406 L 52.664062 31.074219 L 48.859375 31.074219 C 48.554688 31.074219 48.308594 30.832031 48.308594 30.53125 C 48.308594 30.234375 48.554688 29.988281 48.859375 29.988281 L 52.964844 29.988281 C 53.15625 29.988281 53.328125 30.089844 53.429688 30.242188 L 54.835938 32.488281 C 54.992188 32.742188 54.917969 33.078125 54.664062 33.238281 C 54.570312 33.292969 54.472656 33.320312 54.371094 33.320312 Z M 54.371094 33.320312 " fill-opacity="1" fill-rule="nonzero"/><g clip-path="url(#f16825c9f1)"><path fill="#000000" d="M 62.191406 34.5 C 61.9375 34.5 61.707031 34.328125 61.652344 34.0625 C 61.460938 33.132812 60.980469 31.765625 59.800781 30.503906 C 58.789062 29.429688 57.636719 28.859375 56.789062 28.566406 L 56.789062 33.066406 C 56.789062 33.367188 56.542969 33.609375 56.242188 33.609375 C 55.941406 33.609375 55.695312 33.367188 55.695312 33.066406 L 55.695312 27.84375 C 55.695312 27.679688 55.765625 27.519531 55.902344 27.417969 C 56.03125 27.320312 56.203125 27.28125 56.371094 27.320312 C 57.300781 27.542969 59.089844 28.160156 60.605469 29.773438 C 61.957031 31.210938 62.511719 32.789062 62.730469 33.847656 C 62.796875 34.136719 62.601562 34.425781 62.300781 34.488281 C 62.265625 34.5 62.230469 34.5 62.191406 34.5 Z M 62.191406 34.5 " fill-opacity="1" fill-rule="nonzero"/></g><g clip-path="url(#d97681379e)"><path fill="#000000" d="M 32.042969 39.640625 C 31.933594 39.640625 31.816406 39.605469 31.726562 39.53125 C 31.480469 39.351562 31.433594 39.015625 31.605469 38.773438 L 33.769531 35.839844 C 33.871094 35.703125 34.035156 35.613281 34.207031 35.613281 L 38.980469 35.613281 C 39.28125 35.613281 39.527344 35.855469 39.527344 36.15625 C 39.527344 36.453125 39.28125 36.699219 38.980469 36.699219 L 34.492188 36.699219 L 32.492188 39.40625 C 32.382812 39.570312 32.21875 39.640625 32.042969 39.640625 Z M 32.042969 39.640625 " fill-opacity="1" fill-rule="nonzero"/></g><path fill="#000000" d="M 48.683594 44.746094 L 38.269531 44.746094 C 37.96875 44.746094 37.722656 44.503906 37.722656 44.203125 C 37.722656 43.90625 37.96875 43.660156 38.269531 43.660156 L 48.683594 43.660156 C 48.984375 43.660156 49.230469 43.90625 49.230469 44.203125 C 49.230469 44.503906 48.984375 44.746094 48.683594 44.746094 Z M 48.683594 44.746094 " fill-opacity="1" fill-rule="nonzero"/><g clip-path="url(#28fdf6e3cb)"><path fill="#000000" d="M 51.90625 47.300781 C 50.546875 47.300781 49.167969 46.695312 48.648438 45.390625 C 48.089844 43.976562 48.773438 42.410156 49.613281 41.414062 C 49.808594 41.1875 50.152344 41.152344 50.382812 41.34375 C 50.609375 41.535156 50.644531 41.878906 50.453125 42.105469 C 49.851562 42.828125 49.277344 44.015625 49.667969 44.984375 C 50.152344 46.207031 51.859375 46.394531 52.902344 46.058594 L 52.945312 46.042969 C 54.9375 45.371094 56.140625 43.253906 56.972656 41.488281 C 57.097656 41.214844 57.429688 41.097656 57.703125 41.226562 C 57.976562 41.351562 58.09375 41.679688 57.964844 41.949219 C 57.042969 43.914062 55.683594 46.277344 53.300781 47.082031 L 53.246094 47.101562 C 52.828125 47.226562 52.371094 47.300781 51.90625 47.300781 Z M 51.90625 47.300781 " fill-opacity="1" fill-rule="nonzero"/></g><g clip-path="url(#6d370c70cd)"><path fill="#000000" d="M 35.46875 47.527344 C 35.167969 47.527344 34.917969 47.292969 34.917969 46.992188 C 34.917969 46.695312 35.15625 46.449219 35.457031 46.441406 L 51.90625 46.214844 C 52.207031 46.207031 52.453125 46.449219 52.460938 46.75 C 52.460938 47.046875 52.226562 47.292969 51.925781 47.300781 L 35.46875 47.527344 C 35.476562 47.527344 35.46875 47.527344 35.46875 47.527344 Z M 35.46875 47.527344 " fill-opacity="1" fill-rule="nonzero"/></g><path fill="#000000" d="M 45.113281 44.746094 L 41.746094 44.746094 C 41.445312 44.746094 41.199219 44.503906 41.199219 44.203125 L 41.199219 41.722656 C 41.199219 41.425781 41.445312 41.179688 41.746094 41.179688 L 45.113281 41.179688 C 45.417969 41.179688 45.664062 41.425781 45.664062 41.722656 L 45.664062 44.203125 C 45.664062 44.503906 45.417969 44.746094 45.113281 44.746094 Z M 42.292969 43.660156 L 44.566406 43.660156 L 44.566406 42.265625 L 42.292969 42.265625 Z M 42.292969 43.660156 " fill-opacity="1" fill-rule="nonzero"/><g clip-path="url(#40efef4fcf)"><path fill="#000000" d="M 63.34375 47.527344 C 63.113281 47.527344 62.894531 47.382812 62.824219 47.148438 L 60.871094 41.070312 C 60.777344 40.78125 60.933594 40.484375 61.226562 40.394531 C 61.515625 40.300781 61.820312 40.457031 61.910156 40.746094 L 63.863281 46.820312 C 63.953125 47.109375 63.800781 47.410156 63.507812 47.5 C 63.453125 47.519531 63.398438 47.527344 63.34375 47.527344 Z M 63.34375 47.527344 " fill-opacity="1" fill-rule="nonzero"/></g><g clip-path="url(#7c8deb1e3e)"><path fill="#000000" d="M 66.765625 47.527344 L 58.503906 47.527344 C 58.203125 47.527344 57.957031 47.28125 57.957031 46.984375 C 57.957031 46.683594 58.203125 46.441406 58.503906 46.441406 L 66.765625 46.441406 C 68.453125 46.441406 70.179688 46.257812 71.328125 44.910156 C 71.867188 44.277344 72.195312 43.480469 72.261719 42.664062 C 72.304688 42.03125 72.207031 41.234375 71.867188 40.882812 C 71.738281 40.746094 71.585938 40.691406 71.367188 40.691406 C 70.527344 40.71875 69.976562 41.640625 69.675781 42.421875 C 69.558594 42.730469 69.402344 43.089844 69.175781 43.417969 C 68.535156 44.339844 67.441406 44.601562 66.554688 44.730469 C 64.738281 44.992188 62.894531 44.867188 61.097656 44.746094 L 61.015625 44.746094 C 60.714844 44.730469 60.484375 44.46875 60.503906 44.167969 C 60.523438 43.871094 60.785156 43.644531 61.089844 43.660156 L 61.171875 43.671875 C 62.90625 43.789062 64.695312 43.90625 66.402344 43.660156 C 67.101562 43.5625 67.878906 43.378906 68.273438 42.808594 C 68.4375 42.574219 68.554688 42.285156 68.65625 42.03125 C 69.429688 40.074219 70.535156 39.640625 71.339844 39.613281 C 71.859375 39.597656 72.324219 39.777344 72.660156 40.140625 C 73.429688 40.9375 73.390625 42.347656 73.355469 42.753906 C 73.273438 43.796875 72.855469 44.820312 72.167969 45.625 C 70.726562 47.300781 68.628906 47.527344 66.765625 47.527344 Z M 66.765625 47.527344 " fill-opacity="1" fill-rule="nonzero"/></g></svg>