<svg xmlns="http://www.w3.org/2000/svg" xmlns:xlink="http://www.w3.org/1999/xlink" width="140" zoomAndPan="magnify" viewBox="0 0 104.88 74.999997" height="100" preserveAspectRatio="xMidYMid meet" version="1.0"><defs><clipPath id="ee7c9923e4"><path d="M 0 0.0429688 L 104.761719 0.0429688 L 104.761719 74.957031 L 0 74.957031 Z M 0 0.0429688 " clip-rule="nonzero"/></clipPath><clipPath id="57138450cc"><path d="M 34.761719 40 L 69.972656 40 L 69.972656 45 L 34.761719 45 Z M 34.761719 40 " clip-rule="nonzero"/></clipPath><clipPath id="7ea107ea8c"><path d="M 34.761719 45 L 69.972656 45 L 69.972656 49 L 34.761719 49 Z M 34.761719 45 " clip-rule="nonzero"/></clipPath><clipPath id="f71b48d52b"><path d="M 34.761719 49 L 69.972656 49 L 69.972656 52.484375 L 34.761719 52.484375 Z M 34.761719 49 " clip-rule="nonzero"/></clipPath><clipPath id="18cd49d342"><path d="M 66 27 L 69.972656 27 L 69.972656 29 L 66 29 Z M 66 27 " clip-rule="nonzero"/></clipPath><clipPath id="6a0d60200c"><path d="M 63 22.515625 L 67 22.515625 L 67 27 L 63 27 Z M 63 22.515625 " clip-rule="nonzero"/></clipPath></defs><g clip-path="url(#ee7c9923e4)"><path fill="#ffffff" d="M 0 0.0429688 L 104.878906 0.0429688 L 104.878906 74.957031 L 0 74.957031 Z M 0 0.0429688 " fill-opacity="1" fill-rule="nonzero"/><path fill="#ffffff" d="M 0 0.0429688 L 104.878906 0.0429688 L 104.878906 74.957031 L 0 74.957031 Z M 0 0.0429688 " fill-opacity="1" fill-rule="nonzero"/></g><path fill="#000000" d="M 61.3125 39.578125 C 58.789062 39.578125 56.738281 37.519531 56.738281 34.988281 C 56.738281 32.453125 58.789062 30.394531 61.3125 30.394531 C 63.835938 30.394531 65.886719 32.453125 65.886719 34.988281 C 65.886719 37.515625 63.828125 39.578125 61.3125 39.578125 Z M 61.3125 31.21875 C 59.242188 31.21875 57.566406 32.910156 57.566406 34.980469 C 57.566406 37.050781 59.25 38.742188 61.3125 38.742188 C 63.382812 38.742188 65.0625 37.050781 65.0625 34.980469 C 65.0625 32.910156 63.375 31.21875 61.3125 31.21875 Z M 61.3125 31.21875 " fill-opacity="1" fill-rule="nonzero"/><path fill="#000000" d="M 40.316406 42.070312 C 40.195312 42.070312 40.078125 42.015625 39.996094 41.910156 C 39.855469 41.730469 39.882812 41.46875 40.0625 41.332031 L 48.925781 34.367188 L 48.265625 33.515625 C 47.402344 32.410156 46.253906 31.5625 44.9375 31.066406 L 44.675781 30.96875 C 43.507812 30.527344 42.722656 29.386719 42.722656 28.128906 C 42.722656 27.722656 42.808594 27.328125 42.964844 26.949219 C 43.441406 25.824219 44.53125 25.101562 45.742188 25.101562 C 46.027344 25.101562 46.308594 25.140625 46.582031 25.21875 C 48.6875 25.832031 50.578125 27.011719 52.054688 28.636719 L 55.894531 32.847656 C 56.527344 33.535156 57.070312 34.304688 57.515625 35.125 C 57.625 35.324219 57.550781 35.582031 57.351562 35.683594 C 57.152344 35.792969 56.898438 35.71875 56.792969 35.519531 C 56.382812 34.757812 55.875 34.046875 55.289062 33.40625 L 51.453125 29.195312 C 50.074219 27.683594 48.316406 26.585938 46.355469 26.011719 C 46.15625 25.957031 45.949219 25.921875 45.742188 25.921875 C 44.863281 25.921875 44.074219 26.445312 43.722656 27.269531 C 43.605469 27.542969 43.550781 27.832031 43.550781 28.125 C 43.550781 29.035156 44.121094 29.863281 44.964844 30.1875 L 45.226562 30.285156 C 46.679688 30.835938 47.949219 31.777344 48.914062 33.003906 L 49.828125 34.179688 C 49.898438 34.269531 49.925781 34.371094 49.910156 34.484375 C 49.898438 34.59375 49.84375 34.691406 49.753906 34.757812 L 40.570312 41.988281 C 40.496094 42.042969 40.40625 42.070312 40.316406 42.070312 Z M 40.316406 42.070312 " fill-opacity="1" fill-rule="nonzero"/><path fill="#000000" d="M 58.554688 44.023438 C 58.328125 44.023438 58.140625 43.839844 58.140625 43.609375 L 58.140625 40.765625 C 58.140625 39.757812 58.003906 38.75 57.730469 37.777344 C 57.667969 37.554688 57.792969 37.328125 58.011719 37.265625 C 58.230469 37.203125 58.457031 37.328125 58.519531 37.546875 C 58.816406 38.597656 58.96875 39.675781 58.96875 40.765625 L 58.96875 43.609375 C 58.96875 43.839844 58.78125 44.023438 58.554688 44.023438 Z M 58.554688 44.023438 " fill-opacity="1" fill-rule="nonzero"/><g clip-path="url(#57138450cc)"><path fill="#000000" d="M 58.398438 44.039062 C 57.453125 44.039062 56.457031 43.789062 55.398438 43.285156 C 54.980469 43.085938 54.585938 42.851562 54.296875 42.671875 C 52.3125 41.421875 50.441406 41.457031 48.5625 42.761719 C 48.5 42.808594 48.433594 42.859375 48.363281 42.914062 L 48.34375 42.933594 C 46.472656 44.390625 44.285156 44.40625 41.851562 42.96875 C 41.742188 42.898438 41.632812 42.832031 41.535156 42.761719 L 41.519531 42.753906 C 39.484375 41.394531 37.539062 41.429688 35.402344 42.859375 C 35.207031 42.980469 34.953125 42.933594 34.828125 42.742188 C 34.707031 42.546875 34.753906 42.292969 34.945312 42.167969 C 37.359375 40.550781 39.664062 40.515625 41.980469 42.0625 L 41.996094 42.070312 C 42.09375 42.132812 42.179688 42.195312 42.277344 42.25 C 44.421875 43.511719 46.246094 43.527344 47.847656 42.277344 L 47.867188 42.257812 C 47.945312 42.203125 48.019531 42.140625 48.101562 42.085938 C 50.246094 40.585938 52.476562 40.550781 54.746094 41.972656 C 55.011719 42.148438 55.378906 42.359375 55.761719 42.546875 C 57.847656 43.535156 59.648438 43.417969 61.273438 42.1875 C 61.277344 42.179688 61.285156 42.179688 61.285156 42.175781 C 63.683594 40.53125 66.269531 40.53125 68.960938 42.160156 C 69.152344 42.277344 69.214844 42.535156 69.097656 42.726562 C 68.980469 42.917969 68.726562 42.980469 68.535156 42.863281 C 66.113281 41.394531 63.898438 41.386719 61.761719 42.84375 C 60.699219 43.636719 59.585938 44.039062 58.398438 44.039062 Z M 58.398438 44.039062 " fill-opacity="1" fill-rule="nonzero"/></g><g clip-path="url(#7ea107ea8c)"><path fill="#000000" d="M 58.398438 48.257812 C 57.449219 48.257812 56.457031 48.007812 55.398438 47.503906 C 54.980469 47.304688 54.585938 47.070312 54.296875 46.890625 C 52.3125 45.640625 50.441406 45.675781 48.5625 46.980469 C 48.5 47.027344 48.433594 47.078125 48.363281 47.132812 L 48.34375 47.152344 C 46.472656 48.609375 44.285156 48.621094 41.851562 47.1875 C 41.742188 47.117188 41.632812 47.046875 41.535156 46.980469 L 41.519531 46.972656 C 39.484375 45.613281 37.539062 45.648438 35.402344 47.078125 C 35.207031 47.199219 34.953125 47.152344 34.828125 46.957031 C 34.707031 46.765625 34.753906 46.511719 34.945312 46.386719 C 37.359375 44.769531 39.664062 44.734375 41.980469 46.28125 L 41.996094 46.289062 C 42.09375 46.351562 42.179688 46.414062 42.277344 46.46875 C 44.421875 47.730469 46.246094 47.746094 47.847656 46.496094 L 47.867188 46.476562 C 47.945312 46.421875 48.019531 46.359375 48.101562 46.304688 C 50.246094 44.804688 52.484375 44.769531 54.746094 46.191406 C 55.019531 46.363281 55.378906 46.578125 55.761719 46.765625 C 57.847656 47.753906 59.648438 47.636719 61.273438 46.40625 C 61.277344 46.398438 61.285156 46.398438 61.285156 46.394531 C 63.683594 44.75 66.269531 44.75 68.960938 46.378906 C 69.152344 46.496094 69.214844 46.75 69.097656 46.945312 C 68.980469 47.136719 68.726562 47.199219 68.535156 47.082031 C 66.113281 45.613281 63.898438 45.605469 61.761719 47.0625 C 60.699219 47.855469 59.585938 48.257812 58.398438 48.257812 Z M 58.398438 48.257812 " fill-opacity="1" fill-rule="nonzero"/></g><g clip-path="url(#f71b48d52b)"><path fill="#000000" d="M 58.398438 52.476562 C 57.449219 52.476562 56.457031 52.226562 55.398438 51.722656 C 54.980469 51.523438 54.585938 51.289062 54.296875 51.109375 C 52.3125 49.859375 50.441406 49.894531 48.5625 51.199219 C 48.5 51.238281 48.433594 51.292969 48.371094 51.34375 L 48.34375 51.363281 C 46.472656 52.820312 44.285156 52.835938 41.851562 51.398438 C 41.734375 51.328125 41.632812 51.261719 41.527344 51.191406 L 41.519531 51.183594 C 39.484375 49.824219 37.539062 49.859375 35.402344 51.289062 C 35.207031 51.414062 34.953125 51.363281 34.828125 51.171875 C 34.707031 50.976562 34.753906 50.722656 34.945312 50.597656 C 37.359375 48.980469 39.664062 48.949219 41.980469 50.492188 L 41.988281 50.5 C 42.085938 50.570312 42.179688 50.632812 42.277344 50.6875 C 44.421875 51.949219 46.246094 51.964844 47.847656 50.714844 L 47.875 50.695312 C 47.949219 50.640625 48.027344 50.578125 48.109375 50.523438 C 50.253906 49.023438 52.484375 48.988281 54.753906 50.410156 C 55.027344 50.582031 55.386719 50.796875 55.769531 50.984375 C 57.855469 51.972656 59.65625 51.855469 61.277344 50.625 C 61.285156 50.617188 61.292969 50.617188 61.292969 50.609375 C 63.691406 48.96875 66.277344 48.96875 68.96875 50.597656 C 69.160156 50.714844 69.222656 50.96875 69.105469 51.164062 C 68.988281 51.355469 68.734375 51.417969 68.539062 51.300781 C 66.121094 49.832031 63.90625 49.824219 61.765625 51.28125 C 60.699219 52.074219 59.585938 52.476562 58.398438 52.476562 Z M 58.398438 52.476562 " fill-opacity="1" fill-rule="nonzero"/></g><g clip-path="url(#18cd49d342)"><path fill="#000000" d="M 66.71875 28.691406 C 66.53125 28.691406 66.367188 28.566406 66.320312 28.378906 C 66.265625 28.160156 66.394531 27.929688 66.613281 27.875 L 69.453125 27.136719 C 69.675781 27.082031 69.902344 27.210938 69.957031 27.433594 C 70.011719 27.65625 69.882812 27.882812 69.660156 27.9375 L 66.820312 28.675781 C 66.785156 28.691406 66.753906 28.691406 66.71875 28.691406 Z M 66.71875 28.691406 " fill-opacity="1" fill-rule="nonzero"/></g><g clip-path="url(#6a0d60200c)"><path fill="#000000" d="M 64.351562 26.527344 C 64.277344 26.527344 64.199219 26.507812 64.140625 26.46875 C 63.945312 26.347656 63.886719 26.09375 64 25.894531 L 65.949219 22.726562 C 66.066406 22.53125 66.320312 22.46875 66.519531 22.585938 C 66.710938 22.703125 66.773438 22.960938 66.65625 23.160156 L 64.710938 26.328125 C 64.628906 26.460938 64.488281 26.527344 64.351562 26.527344 Z M 64.351562 26.527344 " fill-opacity="1" fill-rule="nonzero"/></g><path fill="#000000" d="M 60.617188 27.210938 C 60.425781 27.210938 60.261719 27.082031 60.210938 26.886719 L 59.585938 24.042969 C 59.539062 23.824219 59.675781 23.601562 59.902344 23.546875 C 60.125 23.496094 60.34375 23.636719 60.398438 23.863281 L 61.03125 26.714844 C 61.078125 26.9375 60.941406 27.15625 60.714844 27.210938 C 60.679688 27.210938 60.652344 27.210938 60.617188 27.210938 Z M 60.617188 27.210938 " fill-opacity="1" fill-rule="nonzero"/></svg>