<svg xmlns="http://www.w3.org/2000/svg" xmlns:xlink="http://www.w3.org/1999/xlink" width="140" zoomAndPan="magnify" viewBox="0 0 104.88 74.999997" height="100" preserveAspectRatio="xMidYMid meet" version="1.0"><defs><clipPath id="9834e92601"><path d="M 0 0.0429688 L 104.761719 0.0429688 L 104.761719 74.957031 L 0 74.957031 Z M 0 0.0429688 " clip-rule="nonzero"/></clipPath><clipPath id="1717dc1161"><path d="M 36.109375 22.515625 L 69.070312 22.515625 L 69.070312 52.484375 L 36.109375 52.484375 Z M 36.109375 22.515625 " clip-rule="nonzero"/></clipPath></defs><g clip-path="url(#9834e92601)"><path fill="#ffffff" d="M 0 0.0429688 L 104.878906 0.0429688 L 104.878906 74.957031 L 0 74.957031 Z M 0 0.0429688 " fill-opacity="1" fill-rule="nonzero"/><path fill="#ffffff" d="M 0 0.0429688 L 104.878906 0.0429688 L 104.878906 74.957031 L 0 74.957031 Z M 0 0.0429688 " fill-opacity="1" fill-rule="nonzero"/></g><g clip-path="url(#1717dc1161)"><path fill="#000000" d="M 39.859375 47.347656 C 39.671875 47.546875 39.359375 47.558594 39.160156 47.371094 C 38.960938 47.1875 38.949219 46.875 39.136719 46.679688 C 39.972656 45.800781 41.601562 45.800781 42.433594 46.679688 C 42.875 47.140625 43.847656 47.140625 44.289062 46.679688 C 44.476562 46.480469 44.789062 46.472656 44.988281 46.65625 C 45.1875 46.84375 45.195312 47.152344 45.007812 47.347656 C 44.175781 48.226562 42.546875 48.226562 41.710938 47.347656 C 41.273438 46.886719 40.296875 46.886719 39.859375 47.347656 Z M 50.730469 49.71875 C 50.542969 49.917969 50.230469 49.925781 50.03125 49.738281 C 49.832031 49.554688 49.824219 49.242188 50.011719 49.046875 C 50.84375 48.167969 52.472656 48.167969 53.308594 49.046875 C 53.746094 49.507812 54.722656 49.507812 55.160156 49.046875 C 55.347656 48.847656 55.660156 48.839844 55.863281 49.027344 C 56.0625 49.210938 56.070312 49.523438 55.882812 49.71875 C 55.046875 50.597656 53.417969 50.597656 52.585938 49.71875 C 52.144531 49.257812 51.171875 49.257812 50.730469 49.71875 Z M 61.886719 45.867188 C 61.699219 46.066406 61.386719 46.078125 61.1875 45.886719 C 60.988281 45.703125 60.976562 45.390625 61.164062 45.195312 C 61.996094 44.320312 63.628906 44.320312 64.460938 45.195312 C 64.898438 45.65625 65.875 45.65625 66.316406 45.195312 C 66.503906 44.996094 66.816406 44.988281 67.015625 45.171875 C 67.214844 45.359375 67.226562 45.671875 67.035156 45.867188 C 66.203125 46.746094 64.570312 46.746094 63.738281 45.867188 C 63.300781 45.40625 62.324219 45.40625 61.886719 45.867188 Z M 42.113281 30.886719 L 45.933594 31.769531 C 46.664062 30.015625 48.078125 28.613281 49.847656 27.890625 L 48.960938 24.101562 C 45.757812 25.203125 43.222656 27.714844 42.113281 30.886719 Z M 45.621094 32.703125 L 41.832031 31.828125 C 41.660156 32.503906 41.554688 33.203125 41.519531 33.917969 L 45.417969 33.917969 C 45.449219 33.503906 45.519531 33.097656 45.621094 32.703125 Z M 45.933594 37.195312 L 42.113281 38.074219 C 43.222656 41.25 45.757812 43.761719 48.960938 44.859375 L 49.847656 41.070312 C 48.078125 40.351562 46.664062 38.949219 45.933594 37.195312 Z M 41.832031 37.132812 L 45.621094 36.257812 C 45.503906 35.820312 45.433594 35.367188 45.40625 34.902344 L 41.511719 34.902344 C 41.542969 35.667969 41.648438 36.414062 41.832031 37.132812 Z M 55.328125 41.070312 L 56.214844 44.859375 C 59.417969 43.761719 61.953125 41.25 63.0625 38.074219 L 59.238281 37.195312 C 58.511719 38.949219 57.097656 40.351562 55.328125 41.070312 Z M 55.261719 45.140625 L 54.378906 41.386719 C 53.210938 41.683594 51.964844 41.683594 50.792969 41.386719 L 49.910156 45.140625 C 51.660156 45.566406 53.511719 45.566406 55.261719 45.140625 Z M 59.550781 36.257812 L 63.34375 37.132812 C 63.523438 36.414062 63.632812 35.667969 63.660156 34.902344 L 59.769531 34.902344 C 59.738281 35.367188 59.667969 35.824219 59.550781 36.257812 Z M 59.238281 31.769531 L 63.0625 30.886719 C 61.953125 27.714844 59.417969 25.203125 56.214844 24.101562 L 55.328125 27.890625 C 57.097656 28.613281 58.511719 30.015625 59.238281 31.769531 Z M 63.34375 31.832031 L 59.554688 32.703125 C 59.65625 33.097656 59.722656 33.503906 59.757812 33.917969 L 63.65625 33.917969 C 63.617188 33.203125 63.511719 32.503906 63.34375 31.832031 Z M 54.378906 27.578125 L 55.261719 23.824219 C 53.511719 23.394531 51.660156 23.394531 49.910156 23.824219 L 50.792969 27.578125 C 51.964844 27.28125 53.210938 27.28125 54.378906 27.578125 Z M 52.585938 22.515625 C 59.050781 22.515625 64.351562 27.558594 64.648438 33.917969 L 68.554688 33.917969 C 68.828125 33.917969 69.050781 34.140625 69.050781 34.410156 L 69.050781 51.988281 C 69.050781 52.257812 68.828125 52.480469 68.554688 52.480469 L 36.621094 52.480469 C 36.347656 52.480469 36.125 52.257812 36.125 51.988281 L 36.125 34.410156 C 36.125 34.140625 36.347656 33.917969 36.621094 33.917969 L 40.527344 33.917969 C 40.824219 27.558594 46.121094 22.515625 52.585938 22.515625 Z M 64.652344 34.902344 C 64.429688 41.324219 59.101562 46.445312 52.585938 46.445312 C 46.070312 46.445312 40.746094 41.324219 40.519531 34.902344 L 37.117188 34.902344 L 37.117188 51.496094 L 68.058594 51.496094 L 68.058594 34.902344 Z M 56.96875 30.136719 C 54.550781 27.742188 50.625 27.742188 48.203125 30.136719 C 47.207031 31.125 46.546875 32.449219 46.414062 33.917969 L 58.761719 33.917969 C 58.625 32.449219 57.96875 31.125 56.96875 30.136719 Z M 46.402344 34.902344 C 46.621094 38.109375 49.316406 40.625 52.585938 40.625 C 55.859375 40.625 58.554688 38.109375 58.773438 34.902344 Z M 46.402344 34.902344 " fill-opacity="1" fill-rule="nonzero"/></g></svg>