<svg xmlns="http://www.w3.org/2000/svg" xmlns:xlink="http://www.w3.org/1999/xlink" width="140" zoomAndPan="magnify" viewBox="0 0 104.88 74.999997" height="100" preserveAspectRatio="xMidYMid meet" version="1.0"><defs><clipPath id="a5678d04bb"><path d="M 0 0.0429688 L 104.761719 0.0429688 L 104.761719 74.957031 L 0 74.957031 Z M 0 0.0429688 " clip-rule="nonzero"/></clipPath><clipPath id="01789e7635"><path d="M 32.527344 22.515625 L 72.234375 22.515625 L 72.234375 52.484375 L 32.527344 52.484375 Z M 32.527344 22.515625 " clip-rule="nonzero"/></clipPath></defs><g clip-path="url(#a5678d04bb)"><path fill="#ffffff" d="M 0 0.0429688 L 104.878906 0.0429688 L 104.878906 74.957031 L 0 74.957031 Z M 0 0.0429688 " fill-opacity="1" fill-rule="nonzero"/><path fill="#ffffff" d="M 0 0.0429688 L 104.878906 0.0429688 L 104.878906 74.957031 L 0 74.957031 Z M 0 0.0429688 " fill-opacity="1" fill-rule="nonzero"/></g><g clip-path="url(#01789e7635)"><path fill="#12100b" d="M 35.566406 50.878906 C 35.742188 50.792969 35.855469 50.609375 35.847656 50.414062 C 35.84375 50.394531 35.84375 50.375 35.84375 50.355469 C 35.84375 49.464844 36.570312 48.738281 37.457031 48.738281 C 37.980469 48.738281 38.472656 48.996094 38.777344 49.425781 C 38.835938 49.511719 38.921875 49.574219 39.019531 49.609375 C 39.449219 49.757812 39.792969 50.085938 39.972656 50.507812 C 40.0625 50.722656 40.292969 50.847656 40.515625 50.804688 C 40.617188 50.785156 40.71875 50.773438 40.820312 50.773438 C 41.367188 50.773438 41.863281 51.058594 42.15625 51.492188 L 34.878906 51.492188 C 35.046875 51.230469 35.285156 51.015625 35.566406 50.878906 Z M 34.660156 37.566406 C 34.660156 36.75 34.867188 35.949219 35.257812 35.238281 C 35.699219 34.445312 35.90625 33.652344 35.90625 32.746094 L 35.90625 32.542969 C 35.90625 30.585938 37.492188 28.992188 39.445312 28.992188 C 41.394531 28.992188 42.992188 30.585938 42.992188 32.542969 L 42.992188 32.746094 C 42.992188 33.652344 43.195312 34.445312 43.632812 35.238281 C 43.644531 35.265625 43.660156 35.289062 43.671875 35.3125 C 43.039062 36.335938 42.652344 37.660156 42.652344 39.109375 C 42.652344 39.742188 42.726562 40.355469 42.863281 40.925781 C 42.082031 41.726562 41.042969 42.222656 39.9375 42.339844 L 39.9375 37.160156 C 39.953125 37.144531 39.972656 37.128906 39.984375 37.109375 L 41.722656 34.945312 C 41.890625 34.730469 41.859375 34.417969 41.648438 34.25 C 41.433594 34.078125 41.125 34.109375 40.953125 34.324219 L 39.9375 35.585938 L 39.9375 32.421875 C 39.9375 32.148438 39.71875 31.925781 39.445312 31.925781 C 39.167969 31.925781 38.953125 32.148438 38.953125 32.421875 L 38.953125 37.699219 L 37.949219 36.449219 C 37.78125 36.234375 37.46875 36.203125 37.253906 36.371094 C 37.042969 36.542969 37.011719 36.855469 37.183594 37.066406 L 38.917969 39.234375 C 38.925781 39.246094 38.941406 39.261719 38.953125 39.273438 L 38.953125 42.339844 C 36.546875 42.089844 34.660156 40.042969 34.660156 37.566406 Z M 46.867188 34.273438 C 46.039062 34.273438 45.253906 34.753906 44.640625 35.628906 C 43.996094 36.554688 43.640625 37.792969 43.640625 39.109375 C 43.640625 40.429688 43.996094 41.667969 44.640625 42.59375 C 45.128906 43.292969 45.730469 43.738281 46.371094 43.890625 L 46.371094 39.839844 L 44.695312 37.746094 C 44.523438 37.53125 44.554688 37.222656 44.769531 37.050781 C 44.980469 36.878906 45.292969 36.914062 45.460938 37.125 L 46.371094 38.261719 L 46.371094 36.878906 C 46.371094 36.609375 46.59375 36.386719 46.867188 36.386719 C 47.136719 36.386719 47.359375 36.609375 47.359375 36.878906 L 47.359375 40.691406 L 48.386719 39.148438 C 48.539062 38.921875 48.84375 38.859375 49.070312 39.011719 C 49.296875 39.160156 49.359375 39.46875 49.207031 39.695312 L 47.410156 42.398438 C 47.398438 42.421875 47.375 42.445312 47.359375 42.464844 L 47.359375 43.890625 C 48.003906 43.738281 48.605469 43.292969 49.09375 42.59375 C 49.738281 41.667969 50.09375 40.429688 50.09375 39.109375 C 50.09375 37.789062 49.738281 36.554688 49.09375 35.628906 C 48.480469 34.753906 47.691406 34.273438 46.867188 34.273438 Z M 40.820312 49.785156 C 41.914062 49.785156 42.882812 50.484375 43.257812 51.492188 L 44.152344 51.492188 C 44.144531 51.410156 44.136719 51.328125 44.136719 51.25 C 44.136719 50.070312 45.09375 49.113281 46.269531 49.113281 C 46.304688 49.113281 46.339844 49.113281 46.375 49.117188 L 46.375 44.898438 C 45.011719 44.675781 43.839844 43.550781 43.195312 41.964844 C 42.28125 42.75 41.140625 43.226562 39.9375 43.332031 L 39.9375 48.976562 C 40.25 49.1875 40.515625 49.464844 40.710938 49.789062 C 40.75 49.785156 40.78125 49.785156 40.820312 49.785156 Z M 48.273438 49.300781 C 48.324219 49.300781 48.371094 49.304688 48.421875 49.3125 C 48.621094 49.339844 48.816406 49.242188 48.914062 49.070312 C 49.125 48.710938 49.511719 48.488281 49.921875 48.488281 C 50.5625 48.488281 51.082031 49.007812 51.089844 49.644531 C 51.089844 49.867188 51.238281 50.0625 51.457031 50.121094 C 51.964844 50.25 52.320312 50.710938 52.320312 51.238281 C 52.320312 51.324219 52.3125 51.410156 52.292969 51.492188 L 45.152344 51.492188 C 45.132812 51.414062 45.125 51.332031 45.125 51.25 C 45.125 50.617188 45.636719 50.101562 46.269531 50.101562 C 46.414062 50.101562 46.554688 50.128906 46.683594 50.179688 C 46.929688 50.277344 47.210938 50.164062 47.316406 49.921875 C 47.484375 49.542969 47.863281 49.300781 48.273438 49.300781 Z M 55.65625 45.480469 L 54.679688 42.226562 C 55.0625 42.484375 55.457031 42.710938 55.835938 42.90625 L 56.316406 43.996094 L 56.246094 46.488281 L 55.734375 51.492188 L 55.3125 51.492188 L 55.675781 45.65625 C 55.679688 45.597656 55.671875 45.539062 55.65625 45.480469 Z M 50.488281 29.550781 C 51.035156 29.417969 51.480469 29.496094 52 29.800781 C 51.992188 29.910156 51.992188 30.027344 52.003906 30.144531 L 52.050781 30.59375 C 51.195312 30.445312 50.671875 30.097656 50.488281 29.550781 Z M 53.214844 29.34375 C 53.398438 29.144531 53.613281 29.046875 53.886719 29.046875 L 55.15625 29.046875 C 55.425781 29.046875 55.644531 29.144531 55.824219 29.34375 C 56.007812 29.546875 56.082031 29.773438 56.054688 30.042969 L 55.824219 32.328125 C 55.46875 32.023438 55.011719 31.839844 54.523438 31.839844 C 54.03125 31.839844 53.574219 32.023438 53.21875 32.328125 L 52.988281 30.042969 C 52.960938 29.773438 53.035156 29.546875 53.214844 29.34375 Z M 58.550781 29.550781 C 58.367188 30.097656 57.84375 30.445312 56.992188 30.59375 L 57.039062 30.144531 C 57.046875 30.027344 57.050781 29.910156 57.039062 29.800781 C 57.5625 29.496094 58.007812 29.417969 58.550781 29.550781 Z M 53.539062 33.589844 C 53.65625 33.152344 54.058594 32.828125 54.523438 32.828125 C 54.984375 32.828125 55.386719 33.152344 55.503906 33.589844 C 55.308594 33.816406 55.023438 33.957031 54.703125 33.957031 L 54.339844 33.957031 C 54.019531 33.957031 53.734375 33.816406 53.539062 33.589844 Z M 57.230469 46.535156 L 57.242188 46.105469 L 59.613281 51.492188 L 56.726562 51.492188 L 57.226562 46.574219 C 57.226562 46.5625 57.226562 46.546875 57.226562 46.535156 Z M 68.363281 49.523438 L 68.363281 51.492188 L 67.828125 51.492188 Z M 67.4375 47.503906 L 66.355469 51.492188 L 66.804688 51.492188 L 68.277344 46.0625 C 68.152344 45.648438 67.882812 45.347656 67.5625 44.996094 C 67.371094 44.78125 67.171875 44.558594 66.988281 44.292969 C 66.851562 44.089844 66.726562 43.859375 66.625 43.601562 C 66.335938 43.683594 66.050781 43.757812 65.757812 43.816406 C 65.988281 44.457031 66.210938 44.640625 66.453125 44.832031 L 66.464844 44.84375 C 67.691406 45.835938 67.597656 46.9375 67.4375 47.503906 Z M 60.816406 43.714844 C 61.695312 43.941406 62.589844 44.054688 63.484375 44.054688 C 63.914062 44.054688 64.34375 44.03125 64.773438 43.976562 C 65.078125 44.929688 65.421875 45.273438 65.828125 45.601562 L 65.847656 45.613281 C 66.449219 46.101562 66.660156 46.632812 66.488281 47.238281 L 65.328125 51.492188 L 62.304688 51.492188 L 60.265625 46.851562 L 60.054688 45.191406 C 60.40625 44.765625 60.660156 44.269531 60.816406 43.714844 Z M 60.980469 41.847656 C 62.90625 42.492188 64.734375 42.589844 66.25 42.132812 C 66.269531 42.308594 66.300781 42.484375 66.335938 42.65625 C 64.527344 43.171875 62.730469 43.199219 60.984375 42.738281 C 61.007812 42.453125 61.003906 42.15625 60.980469 41.847656 Z M 58.941406 36.625 C 57.882812 36.625 56.953125 36.027344 56.515625 35.058594 L 56.179688 34.316406 C 55.804688 34.703125 55.28125 34.945312 54.703125 34.945312 L 54.339844 34.945312 C 53.988281 34.945312 53.65625 34.855469 53.363281 34.695312 L 53.363281 38.601562 C 53.320312 39.246094 53.550781 39.847656 54.074219 40.433594 C 54.089844 40.449219 54.101562 40.464844 54.117188 40.480469 C 54.386719 40.773438 54.730469 41.0625 55.152344 41.347656 L 54.765625 40.46875 L 54.414062 40.050781 C 54 39.558594 53.792969 38.980469 53.792969 38.335938 L 53.792969 37.707031 C 53.792969 37.4375 54.015625 37.214844 54.285156 37.214844 C 54.558594 37.214844 54.78125 37.4375 54.78125 37.707031 L 54.78125 38.335938 C 54.78125 38.753906 54.90625 39.097656 55.171875 39.417969 L 55.5625 39.886719 C 55.59375 39.921875 55.621094 39.960938 55.636719 40.003906 L 60.691406 51.492188 L 61.230469 51.492188 L 59.335938 47.183594 C 59.316406 47.140625 59.300781 47.09375 59.292969 47.046875 L 59.046875 45.09375 C 59.027344 44.945312 59.074219 44.800781 59.175781 44.691406 C 59.949219 43.871094 60.195312 42.664062 59.890625 41.199219 C 59.851562 41.019531 59.917969 40.832031 60.058594 40.714844 C 60.195312 40.601562 60.390625 40.570312 60.558594 40.636719 C 62.808594 41.554688 64.921875 41.675781 66.5 40.988281 C 66.644531 40.921875 66.820312 40.933594 66.957031 41.023438 C 67.097656 41.113281 67.183594 41.265625 67.1875 41.429688 C 67.199219 42.132812 67.367188 43.105469 67.796875 43.726562 C 67.949219 43.941406 68.117188 44.132812 68.296875 44.332031 C 68.792969 44.882812 69.347656 45.503906 69.347656 46.628906 L 69.347656 51.492188 L 69.792969 51.492188 L 69.792969 47.960938 C 69.792969 47.945312 69.792969 47.925781 69.796875 47.910156 L 70.089844 45.164062 C 70.105469 45.015625 70.058594 44.898438 69.953125 44.796875 C 69.746094 44.601562 69.582031 44.402344 69.449219 44.1875 C 69.089844 43.609375 69.019531 42.933594 69.246094 42.289062 C 69.40625 41.84375 69.527344 41.4375 69.652344 40.933594 C 69.84375 40.175781 69.941406 39.074219 69.3125 38.132812 C 68.816406 37.40625 67.9375 36.625 66.929688 36.625 Z M 69.015625 35.238281 C 69.21875 35.476562 69.386719 35.75 69.515625 36.054688 C 69.660156 36.382812 69.722656 36.675781 69.722656 37.035156 L 69.722656 37.054688 C 69.503906 36.800781 69.269531 36.582031 69.015625 36.390625 Z M 71.703125 51.492188 L 70.78125 51.492188 L 70.78125 47.988281 L 71.074219 45.269531 C 71.121094 44.8125 70.964844 44.386719 70.628906 44.074219 C 70.484375 43.9375 70.375 43.804688 70.289062 43.667969 C 70.085938 43.339844 70.046875 42.988281 70.179688 42.621094 C 70.347656 42.148438 70.472656 41.714844 70.613281 41.175781 C 70.808594 40.402344 70.839844 39.667969 70.710938 38.996094 L 70.710938 37.035156 C 70.710938 36.546875 70.621094 36.109375 70.425781 35.65625 C 70.074219 34.859375 69.511719 34.199219 68.789062 33.742188 C 68.632812 33.648438 68.441406 33.644531 68.285156 33.730469 C 68.128906 33.816406 68.03125 33.984375 68.03125 34.164062 L 68.03125 35.839844 C 67.671875 35.707031 67.300781 35.636719 66.929688 35.636719 L 58.941406 35.636719 C 58.265625 35.636719 57.695312 35.269531 57.414062 34.652344 L 56.730469 33.144531 C 56.730469 33.128906 56.734375 33.117188 56.738281 33.101562 L 56.890625 31.609375 C 59.128906 31.328125 59.558594 30.023438 59.605469 29.238281 C 59.621094 29.019531 59.492188 28.820312 59.289062 28.742188 C 58.335938 28.390625 57.539062 28.421875 56.703125 28.859375 C 56.65625 28.800781 56.609375 28.738281 56.558594 28.683594 C 56.363281 28.464844 56.128906 28.300781 55.875 28.195312 L 55.875 26.859375 L 56.324219 26.410156 L 57.992188 26.410156 C 58.121094 26.410156 58.246094 26.359375 58.339844 26.265625 L 59.332031 25.269531 C 59.523438 25.078125 59.523438 24.765625 59.332031 24.570312 C 59.140625 24.378906 58.828125 24.378906 58.632812 24.570312 L 57.789062 25.421875 L 57.3125 25.421875 L 57.964844 24.765625 C 58.058594 24.671875 58.109375 24.546875 58.109375 24.417969 L 58.109375 23.011719 C 58.109375 22.738281 57.890625 22.515625 57.621094 22.515625 C 57.347656 22.515625 57.125 22.738281 57.125 23.011719 L 57.125 24.210938 L 55.035156 26.304688 C 54.941406 26.398438 54.890625 26.523438 54.890625 26.65625 L 54.890625 28.058594 L 54.152344 28.058594 L 54.152344 26.65625 C 54.152344 26.523438 54.101562 26.398438 54.007812 26.304688 L 51.921875 24.210938 L 51.921875 23.011719 C 51.921875 22.738281 51.699219 22.515625 51.425781 22.515625 C 51.15625 22.515625 50.933594 22.738281 50.933594 23.011719 L 50.933594 24.417969 C 50.933594 24.546875 50.984375 24.671875 51.078125 24.765625 L 51.730469 25.421875 L 51.253906 25.421875 L 50.410156 24.570312 C 50.21875 24.378906 49.90625 24.378906 49.710938 24.570312 C 49.519531 24.765625 49.519531 25.078125 49.710938 25.269531 L 50.703125 26.265625 C 50.796875 26.359375 50.921875 26.410156 51.050781 26.410156 L 52.71875 26.410156 L 53.167969 26.859375 L 53.167969 28.195312 C 52.914062 28.300781 52.683594 28.464844 52.484375 28.683594 C 52.4375 28.738281 52.386719 28.800781 52.339844 28.859375 C 51.503906 28.421875 50.707031 28.390625 49.757812 28.742188 C 49.554688 28.820312 49.421875 29.019531 49.4375 29.238281 C 49.488281 30.023438 49.917969 31.328125 52.15625 31.609375 L 52.308594 33.101562 C 52.320312 33.230469 52.34375 33.355469 52.378906 33.472656 L 52.378906 38.554688 C 52.316406 39.546875 52.703125 40.367188 53.296875 41.046875 L 54.691406 45.683594 L 54.324219 51.492188 L 53.296875 51.492188 C 53.304688 51.410156 53.308594 51.324219 53.308594 51.238281 C 53.308594 50.382812 52.804688 49.621094 52.046875 49.28125 C 51.867188 48.269531 50.980469 47.496094 49.925781 47.496094 C 49.269531 47.496094 48.648438 47.800781 48.242188 48.308594 C 47.929688 48.316406 47.632812 48.394531 47.363281 48.527344 L 47.363281 44.898438 C 49.457031 44.558594 51.085938 42.09375 51.085938 39.109375 C 51.085938 35.898438 49.195312 33.285156 46.871094 33.285156 C 45.921875 33.285156 45.046875 33.71875 44.34375 34.449219 C 44.097656 33.910156 43.980469 33.371094 43.980469 32.746094 L 43.980469 32.546875 C 43.980469 30.039062 41.945312 28.003906 39.449219 28.003906 C 36.949219 28.003906 34.921875 30.039062 34.921875 32.546875 L 34.921875 32.746094 C 34.921875 33.488281 34.757812 34.109375 34.398438 34.761719 C 33.925781 35.613281 33.675781 36.582031 33.675781 37.566406 C 33.675781 40.589844 36.003906 43.078125 38.957031 43.332031 L 38.957031 48.226562 C 38.523438 47.917969 38.003906 47.75 37.460938 47.75 C 36.101562 47.75 34.980469 48.800781 34.871094 50.136719 C 34.371094 50.457031 33.992188 50.9375 33.789062 51.492188 L 33.054688 51.492188 C 32.78125 51.492188 32.5625 51.714844 32.5625 51.988281 C 32.5625 52.261719 32.78125 52.480469 33.054688 52.480469 L 71.707031 52.480469 C 71.980469 52.480469 72.203125 52.261719 72.203125 51.988281 C 72.203125 51.714844 71.980469 51.492188 71.707031 51.492188 Z M 71.703125 51.492188 " fill-opacity="1" fill-rule="evenodd"/></g></svg>